<svg height="66" viewBox="0 0 66 66" width="66" xmlns="http://www.w3.org/2000/svg"><g fill="none" fill-rule="evenodd"><g transform="matrix(-1 0 0 1 66 0)"><path d="m65.7661995 33.1263787c0-18.1441865-14.7079505-32.85340076-32.852137-32.85340076-8.0225184 0-15.3727022 2.87637868-21.0774355 7.65349265l-7.700253-2.47070321v11.81261502c-2.59581785 4.7012867-4.07571224 10.1065026-4.07571224 15.8579963 0 18.1441865 14.70921424 32.852137 32.85340074 32.852137 18.1429228 0 32.852137-14.7079505 32.852137-32.852137z" fill="#ffdb2d"/><path d="m65.7649358 33.1263787c0 18.1454502-14.7066868 32.852137-32.8508733 32.852137v-65.70680146c18.1441865 0 32.8508733 14.71047796 32.8508733 32.85466446z" fill="#ffec97"/></g><path d="m19.9501377 46.9635799c0-1.6302848.1213235-3.0874308.3639706-4.3714382.2426471-1.2827436.6584331-2.4530103 1.2486216-3.5120635.5901882-1.0577894 1.3876377-2.0372243 2.3948757-2.9395682 1.0047106-.9010799 2.2710248-1.7869943 3.7976792-2.6539522 1.6302851-.9010799 2.992647-1.6479779 4.0845588-2.2369024 1.0931758-.5901885 1.9601333-1.1108686 2.602137-1.5620404.6420037-.4499081 1.1007584-.8581113 1.3787915-1.2220819.2767693-.3639706.4157857-.788603.4157857-1.2751608 0-.9705882-.3462774-1.7516086-1.0400966-2.3417968-.6938188-.5889248-1.6833636-.884651-2.9661073-.884651-1.457146 0-2.7234605.356388-3.7976794 1.0666363-1.076746.7115117-2.1168426 1.6391314-3.1228169 2.784122l-5.3079044-6.1394759c.5548022-.6243108 1.3017002-1.2309285 2.2381664-1.8211167.936466-.5889248 1.9942554-1.1197152 3.1746324-1.5873161 1.1778489-.468865 2.4707029-.8416822 3.8760338-1.1184516 1.4053308-.2780331 2.8700598-.4170494 4.3967142-.4170494 3.7471277 0 6.6171875.8151423 8.6114432 2.4454274 1.9942553 1.6315485 2.992647 3.8343289 2.992647 6.6083409 0 1.1449907-.1819853 2.1686581-.5459558 3.0710017-.3652347.9023439-.8416822 1.7086397-1.4318707 2.418888-.5901882.7115121-1.2486213 1.3358226-1.9765625 1.8741959-.7292049.5371093-1.4748389 1.0325137-2.2381664 1.4824218-.5206799.3121551-1.1449907.6761257-1.8729319 1.0931755-.7279411.4157857-1.4482994.8416821-2.1598115 1.2751607-.711512.433479-1.3699448.8669579-1.9765625 1.3004365-.6078813.4347427-1.066636.8239893-1.3787914 1.1702667h14.1531481v7.4929917z" fill="#57555c"/><path d="m42.3225896 19.2669625c-1.9822744-1.6289555-4.8332845-2.4434331-8.555541-2.4434331-.257357 0-.5122026.0025254-.7670486.0151531v7.241906c.9503366.0896555 1.7060867.3737758 2.2672496.8536231.689214.5884442 1.0344484 1.3688276 1.0344484 2.3398869 0 .486161-.1380937.9079217-.4142814 1.2728581-.2761877.3624111-.7318974.7728067-1.3708952 1.2223479-.413026.289171-.9164411.6111739-1.5165214.9584319v7.7722636c.0564929-.0416712.1142413-.0833421.1732452-.1262759.6025912-.4343881 1.2566538-.8662505 1.9646986-1.2993759.7042785-.4343881 1.4211111-.8599368 2.1442206-1.2728581.7256202-.4167094 1.3457873-.7816461 1.8617558-1.0922839.758261-.4520665 1.498946-.9432789 2.2220556-1.4837385.7256205-.5366712 1.379683-1.1617356 1.9634432-1.8701416.5875265-.7121944 1.0620674-1.51657 1.4223665-2.4194406.3628104-.9016077.5423321-1.9244402.5423321-3.0672344 0-2.7717496-.989254-4.9727335-2.971528-6.6016886zm-9.3225896 20.2036257v7.4411765h12.9411765v-7.4411765z" fill="#171719" fill-rule="nonzero"/></g></svg>