<svg xmlns="http://www.w3.org/2000/svg" viewBox="0 0 253.25 319.73"><defs><style>.cls-1{fill:#166fb2;}</style></defs><title>Asset 6</title><g id="Layer_2" data-name="Layer 2"><g id="Layer_1-2" data-name="Layer 1"><path class="cls-1" d="M247.46,116.13c-6-11.48-15.26-20.56-24.49-29.47-9.82-9.5-19.66-19-29.75-28.2C178.39,44.92,162.93,31.67,147.1,19.3,140,13.72,132.53,8.23,124.38,4.17c-5.21-2.6-12.06-5.53-17.93-3.48C98.8,3.36,92.87,12,88,18c-6.86,8.42-14.4,16.16-21.74,24.17Q33.89,77.41,4.72,115.43c-1.6,2.07.87,5.52,2.86,2.94q24.95-32.46,52.29-63c8.3-9.27,17.33-18,25.34-27.52,5.43-6.44,10.36-13.51,16.78-19,6-5.19,11.94-4.09,18.81-1,7.84,3.57,15,8.68,21.83,13.89,14.15,10.82,27.87,22.64,41.18,34.46,11.15,9.9,21.94,20.21,32.68,30.57,10.27,9.9,21.12,19.67,27.85,32.46,1.45,2.75,4.24-1,3.12-3.13Z"/><path class="cls-1" d="M1.42,121.06l243.8-.44c2.36,0,4-4.71,1.44-4.71l-243.8.44c-2.36,0-4,4.71-1.44,4.71Z"/><path class="cls-1" d="M3,295.89l243.72-6.11c2.36-.06,3.32-4.77.42-4.7L3.39,291.19C1,291.25.07,296,3,295.89Z"/><path class="cls-1" d="M9.27,125.22V291.35c0,3.11,3.75,3.17,3.75,0V125.26c0-3.11-3.75-3.17-3.75,0Z"/><path class="cls-1" d="M61.44,122.84v154.6c0,2.37,4.92,2.88,4.92.19V123c0-2.37-4.92-2.88-4.92-.19Z"/><path class="cls-1" d="M98.27,126.37V292.51c0,3.11,3.75,3.17,3.75,0V126.41c0-3.1-3.75-3.16-3.75,0Z"/><path class="cls-1" d="M150.44,124V278.6c0,2.37,4.92,2.88,4.92.18V124.19c0-2.38-4.92-2.88-4.92-.19Z"/><path class="cls-1" d="M182.27,126.37V292.51c0,3.11,3.75,3.17,3.75,0V126.41c0-3.1-3.75-3.16-3.75,0Z"/><path class="cls-1" d="M234.44,122.84v154.6c0,2.37,4.92,2.88,4.92.19V123c0-2.37-4.92-2.88-4.92-.19Z"/><path class="cls-1" d="M1.5,297,0,312.34c-.24,2.5,4.65,3.47,4.89,1l1.5-15.31c.24-2.49-4.66-3.47-4.9-1Z"/><path class="cls-1" d="M4.16,319.72q116.4-5.55,233-5.93c2.53,0,4.56-3.9,1.3-3.89q-117.15.38-234.19,6c-2.87.14-3.31,4-.06,3.85Z"/><path class="cls-1" d="M249.83,288.63a86.41,86.41,0,0,0-7.18,25.19c-.37,2.85,3.37,3.92,3.79.7a78.91,78.91,0,0,1,6.6-22.86c1-2.17-1.92-5.85-3.21-3Z"/><path class="cls-1" d="M75.41,69.1Q86.21,69,97,68c2.44-.23,1.43-5.12-1.07-4.88q-10.25,1-20.52,1.09c-2.69,0-2.31,4.94,0,4.92Z"/><path class="cls-1" d="M76.31,69.45,73.59,93.57a1.71,1.71,0,0,0,1.75,2.08l23.16,0c2.36,0,3.49-4.68.58-4.68L75.92,91l1.75,2.08,2.71-24.11c.37-3.25-3.78-2.06-4.07.51Z"/><path class="cls-1" d="M78.52,84.57l14.84-.44c2.47-.07,2-5-.54-5L78,79.6c-2.46.08-2,5.05.55,5Z"/><path class="cls-1" d="M119.26,70.12c-9.49-2.06-17.53,7-15.89,16.27s12.81,11.49,18.53,4.29c2-2.57-1.52-4.23-3.29-2-3.79,4.77-9.83.94-10.72-4-1-5.73,3-11.71,9.18-10.36,2.29.5,5-3.56,2.19-4.17Z"/><path class="cls-1" d="M134.12,70.57A20.94,20.94,0,0,0,124.84,84c-1,4.74.45,10.17,6.09,10.46,5.13.26,8.93-3.85,10.73-8.27,2.48-6.09,1.49-10.82-3.63-14.93-2-1.56-5.18,2.26-3.23,3.82,3.14,2.52,4.74,4.68,3.49,8.91-.85,2.89-2.69,6.34-6.23,5.9-7.76-1-.49-13.16,2.91-15.26,2.14-1.32,1.92-5.73-.85-4Z"/><path class="cls-1" d="M147.56,74.53c1,5.23-1.33,10.41-1.75,15.62-.15,1.86,2.05,4.22,3.43,2,.73-1.17,6.54-13.46,7.28-13.3L155,77.3c1.13,2.49.64,6.22.18,8.81-.26,1.52,1,4.93,3,3,3.83-3.67,5.84-8.71,9.65-12.38l-3.1-2.43c.16,6.53-.67,13.9,2.34,19.9,1.46,2.91,4-.67,2.87-2.93-2.29-4.56-1.33-11.14-1.45-16.14,0-1.46-1.42-4-3.11-2.43-3.82,3.68-5.83,8.73-9.65,12.39l3,3c.49-2.75,2.38-14.38-2.65-14.36-2.06,0-3.3,2.43-4.07,4A125.29,125.29,0,0,1,146.14,89l3.43,2c.47-5.77,2.85-11.12,1.71-17-.59-3-4.32-2.58-3.72.51Z"/><path class="cls-1" d="M122.12,170.52c-1,4.64,3.42,8.57,7.95,7.78s5.61-6.28,2.09-9.08c-1.28-1-2.11.76-1,1.65,2.3,1.83.42,4.73-2,5.16-2.76.5-5.65-1.41-5-4.42.25-1.14-1.79-2.5-2.09-1.09Z"/><path class="cls-1" d="M127.32,184.32q3.35.27,6.66.75c1.29.19,1-2.28-.22-2.45-2.21-.32-4.42-.57-6.65-.75-1.32-.11-1,2.35.21,2.45Z"/><path class="cls-1" d="M123.35,182.22c0-1.33-2.44-.88-2.44.32s2.44.88,2.44-.32Z"/><path class="cls-1" d="M116.43,243.09a151.28,151.28,0,0,0-.52-17.3c-.11-1.21-2.33-1.83-2.2-.28a146.55,146.55,0,0,1,.51,16.76c0,1.17,2.18,2.24,2.21.82Z"/><path class="cls-1" d="M115.92,233.28q9.1,1.59,18.08,3.78c1.23.3,2.68-1.35,1.09-1.73q-9.27-2.28-18.69-3.92c-1.41-.24-2.09,1.59-.48,1.87Z"/><path class="cls-1" d="M124.22,224.79a36.08,36.08,0,0,1,7.59,1.84c1.48.55,1.38-1.7.3-2.19-1.91-.85-4.8-2-4.73-4.54,0-1.17-2-2.43-2-.9-.11,4.05,3.13,6.16,6.45,7.63l.3-2.19a38.41,38.41,0,0,0-8.12-2c-1.43-.19-.94,2.2.23,2.35Z"/><path class="cls-1" d="M124.71,211.15a6.28,6.28,0,0,0,2.63,5.38c1.24.92,3.48,1.83,5,1.05,1.73-.88.76-3.28.13-4.58a11.18,11.18,0,0,0-4.58-4.78l-1.18,1.52c1.89,1,8.3,2.1,6.55-1.91-.46-1.07-2.91-1.06-2.34.25l.11,1,.55-.52a4.7,4.7,0,0,1-3.69-.31c-1.25-.64-2.62.7-1.18,1.52,1.62.93,4.14,3.21,4.07,5.33-.05,1.65-2.05.18-2.64-.49a4.3,4.3,0,0,1-1-3.17c.07-1.19-2.37-1.6-2.45-.26Z"/><path class="cls-1" d="M115.1,199.39c1.81,2.56,4.71,3.53,7.68,4a117.14,117.14,0,0,0,13.86,1.34c1.45.08,1-2.28-.23-2.34-3.79-.19-7.57-.51-11.33-1-3.15-.4-6.75-.72-8.73-3.51-.95-1.34-2,.33-1.25,1.46Z"/><path class="cls-1" d="M124.18,206.05a61.16,61.16,0,0,0-.54-8.23c-.17-1.21-2.42-1.61-2.21-.07a56.41,56.41,0,0,1,.47,7.69c0,1.17,2.27,2.05,2.28.61Z"/><path class="cls-1" d="M115.1,188.89c1.81,2.56,4.71,3.53,7.68,4a117.14,117.14,0,0,0,13.86,1.34c1.45.08,1-2.28-.23-2.34-3.79-.19-7.57-.51-11.33-1-3.15-.4-6.75-.72-8.73-3.51-.95-1.34-2,.33-1.25,1.46Z"/><path class="cls-1" d="M124.18,195.55a61.16,61.16,0,0,0-.54-8.23c-.17-1.21-2.42-1.61-2.21-.07a56.41,56.41,0,0,1,.47,7.69c0,1.17,2.27,2.05,2.28.61Z"/><path class="cls-1" d="M209.21,209.8a6.3,6.3,0,0,0,2.63,5.39c1.24.92,3.48,1.83,5,1.05,1.73-.89.76-3.29.13-4.59a11.1,11.1,0,0,0-4.58-4.77l-1.18,1.52c1.89,1,8.3,2.09,6.55-1.91-.46-1.07-2.91-1.07-2.34.24l.11,1,.55-.52a4.7,4.7,0,0,1-3.69-.3c-1.25-.64-2.62.7-1.18,1.52,1.62.92,4.14,3.2,4.07,5.32-.05,1.65-2.05.19-2.64-.49a4.28,4.28,0,0,1-1-3.17c.07-1.18-2.37-1.6-2.45-.26Z"/><path class="cls-1" d="M209.21,187.8a6.3,6.3,0,0,0,2.63,5.39c1.24.92,3.48,1.83,5,1.05,1.73-.89.76-3.29.13-4.59a11.1,11.1,0,0,0-4.58-4.77l-1.18,1.52c1.89,1,8.3,2.09,6.55-1.91-.46-1.07-2.91-1.07-2.34.24l.11,1,.55-.52a4.7,4.7,0,0,1-3.69-.3c-1.25-.64-2.62.7-1.18,1.52,1.62.92,4.14,3.2,4.07,5.32-.05,1.65-2.05.19-2.64-.49a4.28,4.28,0,0,1-1-3.17c.07-1.18-2.37-1.6-2.45-.26Z"/><path class="cls-1" d="M204,223.91a89.65,89.65,0,0,0,11.33,3.56c1.28.31,1.24-2.18.08-2.46a86.25,86.25,0,0,1-10.85-3.39c-1.35-.52-1.66,1.86-.56,2.29Z"/><path class="cls-1" d="M203.53,227.15a11.31,11.31,0,0,1,1.08-8.42c1-1.61,1.71-1.31,3.16-.76a10,10,0,0,1,3,1.85,19.1,19.1,0,0,1,3.81,5.11c.62,1.08,1,1.91,2.32,1.68,1.16-.2,1.28-2.6-.16-2.35-.13,0-2-3.47-2.32-3.91a16,16,0,0,0-2.36-2.63c-1.56-1.35-4.55-3.27-6.75-2.64-1.94.56-2.68,3.44-3.21,5.09a14,14,0,0,0-.38,8.19c.42,1.49,2.17-.06,1.85-1.21Z"/><path class="cls-1" d="M210.25,203.44V197c0-1.26-2.49-1.47-2.49-.23v6.41c0,1.26,2.49,1.47,2.49.23Z"/><path class="cls-1" d="M200.75,200c4.3.71,8.87,1.6,13.24,1.55,2.32,0,5-1.22,4.54-4-.22-1.23-2.69-.85-2.47.38.45,2.62-6.39,1.33-7.28,1.23-2.35-.26-4.7-.6-7-1-1.25-.2-2.61,1.53-1,1.8Z"/><path class="cls-1" d="M34.61,209.32c2.94-.58,5.84.74,8.77,1,.93.07,2.11-1,1-1.72-.7-.43-7.6-3.63-7.48-4.17l-.78.77c1.43-.65,3.55-.37,5-.11.76.13,2.46-.52,1.52-1.5-2-2.14-4.87-3.26-6.92-5.39l-1.22,1.55c3.61-.09,7.71.38,11-1.28,1.45-.73-.34-2-1.47-1.44-2.59,1.3-6.29.77-9.13.84-.73,0-2,.71-1.21,1.55,2,2.14,4.87,3.26,6.92,5.4l1.52-1.5c-1.46-.26-7.84-1.31-7.82,1.37,0,1.11,1.34,1.78,2.18,2.19,2.13,1,4.23,2,6.26,3.27l1-1.71c-3.21-.26-6.19-1.59-9.44-1-1.52.3-1.29,2.16.25,1.86Z"/><path class="cls-1" d="M21.58,252.06A76.36,76.36,0,0,0,42,263.87c1.19.47,2.78-1,1.26-1.61a74.63,74.63,0,0,1-20-11.53c-.94-.75-3,.35-1.76,1.33Z"/><path class="cls-1" d="M22.79,253.26q10.76-2.52,21.2-6.09c1.53-.52.62-2.24-.74-1.78q-10.44,3.56-21.19,6.09c-1.59.37-.65,2.1.73,1.78Z"/><path class="cls-1" d="M38.58,257.74l-1.33-9.29c-.17-1.21-2.59-.61-2.41.64l1.32,9.29c.18,1.21,2.6.6,2.42-.64Z"/><path class="cls-1" d="M34.62,183.15a61.65,61.65,0,0,0-1-7.16.81.81,0,0,0-1.25-.45,1.6,1.6,0,0,0-.59,1.67,56.38,56.38,0,0,1,.89,6.59c.12,1.63,2,.64,1.95-.65Z"/><path class="cls-1" d="M35.82,174.79q3.34.27,6.66.75c1.29.19,1-2.28-.22-2.45-2.21-.32-4.42-.57-6.65-.75-1.32-.11-1,2.35.21,2.45Z"/><path class="cls-1" d="M31.85,172.69c0-1.33-2.44-.88-2.44.32s2.44.88,2.44-.32Z"/><path class="cls-1" d="M35.24,167.26c1.94,1.18,5.15,2.8,7.48,1.86s1.78-4.8,1.2-6.76c-.63-2.12-2.62-4.41-5.1-3.64-2.74.87-3.23,4.12-3.38,6.57-.1,1.56,1.77,1.59,1.87,0s.2-3.7,1.95-4.18,2.85,1.53,3.09,3a5.49,5.49,0,0,1,.16,2.2c-.36.69-1.17.54-1.8.45a11.92,11.92,0,0,1-4.47-1.66c-1.24-.75-2,1.52-1,2.13Z"/><path class="cls-1" d="M34.24,220.76c1.94,1.18,5.15,2.8,7.48,1.86s1.78-4.8,1.2-6.76c-.63-2.12-2.62-4.41-5.1-3.64-2.74.87-3.23,4.12-3.38,6.57-.1,1.56,1.77,1.59,1.87,0s.2-3.7,1.95-4.18,2.85,1.53,3.09,3a5.49,5.49,0,0,1,.16,2.2c-.36.69-1.17.54-1.8.45a11.92,11.92,0,0,1-4.47-1.66c-1.24-.75-2,1.52-1,2.13Z"/><path class="cls-1" d="M35.37,156.79a21.26,21.26,0,0,1,9,1.22c1.32.48,1.18-1.71.19-2.1l-3.8-1.52c-.75-.31-3.87-1.57-2.3-2.43.85-.46,2.81-.14,3.79-.24a15.13,15.13,0,0,0,3.58-.76c1.25-.44,0-2.58-1.13-2.18-2.35.82-4.77.67-7.21.94-1.37.15-2.19.54-1.94,2.09.6,3.82,5.56,4.9,8.54,6.1l.19-2.11a22.62,22.62,0,0,0-9.51-1.29c-1.44.11-.55,2.37.62,2.28Z"/><path class="cls-1" d="M34.71,189.62A6.28,6.28,0,0,0,37.34,195c1.24.92,3.48,1.83,5,1.05,1.73-.89.76-3.28.13-4.58a11.12,11.12,0,0,0-4.58-4.78l-1.18,1.52c1.89,1,8.3,2.09,6.55-1.91-.46-1.07-2.91-1.06-2.34.25l.11,1,.55-.52a4.7,4.7,0,0,1-3.69-.31c-1.25-.64-2.62.7-1.18,1.52,1.62.93,4.14,3.21,4.07,5.33-.05,1.65-2.05.18-2.64-.49a4.31,4.31,0,0,1-1-3.17c.07-1.19-2.37-1.61-2.45-.26Z"/><path class="cls-1" d="M25.75,180.77c4.3.72,8.87,1.61,13.24,1.56,2.32,0,5-1.23,4.54-4-.22-1.24-2.69-.85-2.47.38.45,2.62-6.39,1.33-7.28,1.23-2.35-.27-4.7-.6-7-1-1.25-.21-2.61,1.53-1,1.79Z"/><path class="cls-1" d="M35.12,230.15a61.65,61.65,0,0,0-1-7.16.81.81,0,0,0-1.25-.45,1.6,1.6,0,0,0-.59,1.67,56.38,56.38,0,0,1,.89,6.59c.12,1.63,2,.64,1.95-.65Z"/><path class="cls-1" d="M26.25,227.77c4.3.72,8.87,1.61,13.24,1.56,2.32,0,5-1.23,4.54-4-.22-1.24-2.69-.85-2.47.38.45,2.62-6.39,1.33-7.28,1.23-2.35-.27-4.7-.6-7-1-1.25-.21-2.61,1.53-1,1.79Z"/><path class="cls-1" d="M34.27,242.49c2.86,1.2,9.38,2.36,9.8-2.25.38-4.11-5.22-6.5-8.47-7.05-1.23-.21-1.79,2.09-.58,2.43,2.5.71,7.51,1.53,8.2-2,.3-1.52-1.52-2-1.82-.43-.27,1.37-5,.23-5.8,0L35,235.62c2.15.37,5.5,1.42,6.66,3.48,1.8,3.2-5.77,1.4-6.84,1s-1.73,1.95-.57,2.44Z"/></g></g></svg>