<?xml version="1.0" encoding="UTF-8"?>
<svg width="295px" height="792px" viewBox="0 0 295 792" version="1.1" xmlns="http://www.w3.org/2000/svg" xmlns:xlink="http://www.w3.org/1999/xlink">
    <!-- Generator: Sketch 52.2 (67145) - http://www.bohemiancoding.com/sketch -->
    <title>Group 3</title>
    <desc>Created with Sketch.</desc>
    <defs>
        <polygon id="path-1" points="0.569996513 0.818578249 331.569997 0.818578249 331.569997 780.818578 0.569996513 780.818578"></polygon>
    </defs>
    <g id="Page-1" stroke="none" stroke-width="1" fill="none" fill-rule="evenodd">
        <g id="Group-3" transform="translate(168.917035, 419.052236) scale(-1, 1) rotate(-159.000000) translate(-168.917035, -419.052236) translate(2.917035, 28.552236)">
            <mask id="mask-2" fill="white">
                <use xlink:href="#path-1"></use>
            </mask>
            <g id="Clip-2"></g>
            <path d="M319.881276,740.343213 C304.279014,734.746988 288.677987,729.069247 273.074491,723.432264 C266.122597,720.900315 259.265749,717.959549 252.378042,715.139823 C245.793986,712.488069 239.417303,709.261996 232.991245,706.018631 C227.003383,702.639405 221.025396,699.231773 215.227625,695.328866 C210.792584,692.348577 206.356308,689.365817 201.921266,686.383058 C198.115746,683.851109 194.465755,680.869585 190.755281,678.13261 C187.860716,676.008243 184.936526,674.00615 182.167865,671.637234 C177.605685,667.715801 173.01388,663.794368 168.4517,659.913693 C162.860067,655.132632 157.591835,649.693265 152.270525,644.415695 C146.571503,638.195747 140.676218,632.19194 135.204317,625.601462 C128.880711,618.043903 122.526246,610.569096 116.549493,602.563197 C113.341402,598.315698 110.164169,594.065729 106.986936,589.819466 C103.778845,585.48798 100.853421,580.70939 97.8329513,576.216107 C93.1411636,569.266216 88.8073393,561.94456 84.4364842,554.630316 C81.2037055,548.494353 77.9425366,542.359626 74.6826021,536.185376 C71.4424172,530.097583 68.7058497,523.44041 65.7174735,517.109302 C62.8858605,511.063502 60.5578649,504.48661 58.0101538,498.196261 C55.76486,492.656851 53.9194976,486.79261 51.9618088,481.0667 C47.7452482,467.182974 43.6076865,453.272076 40.5526551,438.844908 C39.703418,434.923475 38.8529467,430.961283 38.0358029,427.03985 C37.0915205,422.7096 36.5891375,418.1348 35.8645705,413.763792 C34.8659764,407.546313 34.216705,401.26955 33.5353405,394.984141 C33.1255342,388.581398 32.4972469,382.178655 32.4059046,375.774677 C32.2787659,367.973804 32.1528616,360.212454 32.247907,352.409111 C32.3738113,344.608238 32.6577132,336.888882 33.0341919,329.127532 C33.332906,322.320912 33.9476154,315.589633 34.4932008,308.825006 C36.9532726,286.529034 39.952758,264.32199 44.5791248,242.56946 C47.0638836,230.845919 49.5807358,219.164371 52.5370187,207.603863 C55.4340526,196.154513 58.5804263,184.947243 61.9995928,173.742442 C69.7822082,150.021168 78.1931109,126.68895 87.6100138,103.97181 C92.224037,92.8448208 97.2626788,81.9846124 102.617316,71.3899499 C97.6527353,93.866246 92.3499414,116.290668 87.870463,138.849716 C87.3730174,141.408837 102.664221,138.797842 103.352992,138.64963 C106.298166,138.034552 109.179153,137.223093 112.007063,136.202903 C113.640116,135.577944 117.059282,134.617038 117.625852,132.506257 C123.526074,109.908922 128.641246,87.1090301 134.150177,64.4104165 C136.586796,54.3431405 139.229553,44.3363842 141.750108,34.2863995 C143.194305,28.5172612 144.666892,22.7641792 146.186384,17.0246832 C147.52566,11.9360834 149.0217,6.93023502 151.242307,2.1294128 C150.989264,1.84040009 150.715237,1.59955616 150.420226,1.40564593 C149.656159,0.907901816 148.748907,0.72634255 147.683658,0.862203225 C144.00898,0.541077992 126.463842,6.33121295 120.204422,9.61039561 C117.553025,10.7417445 115.123812,11.8088684 113.59321,12.5079333 C108.420024,14.8731441 103.381382,17.543424 98.3057097,20.0976046 C88.6036705,24.9848837 78.9695209,30.0253147 69.4267137,35.2176627 C50.0781813,45.7703319 31.3776859,57.4901678 12.5809108,69.0000372 C8.71243867,71.3714235 4.8427322,73.7440449 1.01499384,76.1870669 C-1.35990736,77.7012959 6.52762831,78.9610948 6.88682595,79.0080285 C8.88771724,79.2760446 10.9207018,79.4106702 12.9413428,79.4069649 C14.6904254,79.4094351 17.4492114,79.5452957 19.0872019,78.606622 C28.6102595,73.0931488 38.0728336,67.4623413 47.5440482,61.8661166 C57.3250862,56.0858624 67.913393,51.4838908 77.042691,44.72791 C81.8159461,41.1942973 81.701151,40.6582652 85.4103912,38.7068119 L116.582821,22.9988476 C112.251465,29.4386436 107.941094,35.9006714 103.778845,42.5368478 C96.6393289,53.9343234 90.1898181,65.9839302 83.773635,78.0755303 C77.4821218,89.8805878 71.9460345,102.257495 66.4408062,114.715919 C60.99853,127.052069 55.9031079,139.7958 51.1841644,152.664276 C46.0887423,166.673982 40.930368,180.686158 36.7150418,195.226955 C32.6577132,209.15638 28.6941957,223.167321 25.5157287,237.504327 C22.0879217,252.945511 18.9415479,268.426217 16.3000258,284.194701 C13.8152669,298.940525 11.9896542,314.095165 10.8268907,329.127532 C10.1961347,337.337222 9.66289289,345.465395 9.31603881,353.717079 C8.9704191,361.314161 8.90746693,368.954471 8.78279696,376.550318 C8.74946935,379.451561 8.93956019,382.350334 9.03337126,385.212053 C9.15804123,388.806186 9.12718233,392.441077 9.41108424,395.994451 C10.1023237,404.410402 10.6380342,412.864641 11.7378455,421.239834 C12.7450801,428.835681 13.7510804,436.352482 15.136028,443.868047 C15.7951741,447.422657 16.4580234,451.016789 17.0863107,454.571398 C17.8417366,458.613871 18.9415479,462.618056 19.8858304,466.580247 C21.5843044,473.892022 23.565446,481.040763 25.5478219,488.269786 C27.4981046,495.337012 29.8569592,502.241204 32.1220027,509.18492 C34.701807,517.27357 37.7210421,525.03492 40.7094183,532.876551 C43.2262704,539.575718 46.3084577,545.947583 49.1721639,552.400965 C52.0334014,558.937099 55.4303495,565.105174 58.5767233,571.437516 C61.7218627,577.645114 65.3397605,583.527881 68.7675675,589.49093 C75.9095521,601.949354 83.7094484,613.755646 91.8895265,625.111129 C95.5370489,630.21702 99.1228534,635.322911 102.99256,640.143495 C107.177027,645.371661 111.265215,650.886369 115.669397,655.869985 C120.669774,661.547727 125.672619,667.225468 130.67423,672.903209 C135.204317,678.049858 140.173835,682.583899 144.923638,687.363725 C154.108482,696.677592 163.827802,705.255341 173.893976,712.975933 C184.053961,720.776805 194.276899,728.376358 204.84669,735.237322 C214.031534,741.159612 223.406469,746.307497 232.969026,751.126845 C241.713205,755.538612 250.803003,758.725162 259.769366,762.32053 C267.72726,765.505845 275.874011,767.998271 283.92695,770.816762 C293.079701,774.042836 302.23492,777.188628 311.450623,780.170152 C312.796071,780.608612 314.15016,780.818578 315.486968,780.818578 C322.504282,780.818578 329.035261,775.013622 331.016402,765.750394 C333.312305,754.88401 328.247741,743.36673 319.881276,740.343213" id="Fill-1" fill="#C35E45" mask="url(#mask-2)"></path>
        </g>
    </g>
</svg>