<?xml version="1.0" encoding="UTF-8"?>
<svg width="168px" height="475px" viewBox="0 0 168 475" version="1.1" xmlns="http://www.w3.org/2000/svg" xmlns:xlink="http://www.w3.org/1999/xlink">
    <!-- Generator: Sketch 52.2 (67145) - http://www.bohemiancoding.com/sketch -->
    <title>Group 3</title>
    <desc>Created with Sketch.</desc>
    <defs>
        <polygon id="path-1" points="0 0 231 0 231 711 0 711"></polygon>
    </defs>
    <g id="Page-1" stroke="none" stroke-width="1" fill="none" fill-rule="evenodd">
        <g id="Group-3" transform="translate(158.014806, 185.564648) rotate(-164.000000) translate(-158.014806, -185.564648) translate(42.514806, -169.935352)">
            <mask id="mask-2" fill="white">
                <use xlink:href="#path-1"></use>
            </mask>
            <g id="Clip-2"></g>
            <path d="M228.730464,508.420354 C227.283041,507.959023 225.905816,507.447546 224.511877,506.872553 C219.176802,503.730149 214.383258,499.645023 209.977475,495.275744 C204.772769,490.137579 199.748572,484.842294 194.971741,479.286256 C173.541186,454.387717 160.046388,423.488524 149.764001,392.582644 C139.120593,360.57358 132.702458,327.217294 129.332937,293.700545 C127.584664,276.377206 127.310556,258.983664 127.902228,241.603495 C128.473843,224.290185 129.670558,206.83647 133.120305,189.830714 C137.151697,172.032672 143.105186,154.756135 149.376239,137.663462 C152.247686,129.810794 155.125818,121.96147 158.007293,114.115488 C161.116078,125.297767 164.288375,136.459988 167.821692,147.51189 C171.675916,159.563344 176.496203,171.203612 181.363289,182.873966 C183.542781,188.078991 185.855984,193.237214 188.165844,198.372036 C190.826696,204.272401 193.350494,210.26637 196.429193,215.956128 C198.224265,216.571237 199.942453,216.267025 201.557015,215.043493 C207.079286,212.52957 212.210451,208.100117 216.696461,204.111938 C220.119466,201.109939 223.305134,197.870589 226.270179,194.42063 C227.861342,192.488386 231.825877,188.47012 230.846443,185.37786 C227.132616,173.557072 222.573066,161.95692 218.277595,150.336711 C213.878498,138.462435 210.010903,126.367521 206.761722,114.12886 C199.855541,88.1605666 193.15327,62.1120416 185.414737,36.3677281 C185.01026,36.2273229 184.61247,36.1805211 184.211336,36.1270334 C184.204651,36.1236904 184.207994,36.1170044 184.201308,36.1136614 C184.037512,36.0601737 183.840288,36.0200579 183.616322,36 C183.422441,36.0167149 183.238588,36.0334298 183.048049,36.0501447 C182.857511,36.0635167 182.673658,36.0702026 182.486462,36.1002895 C182.108728,36.1370623 181.720966,36.1704921 181.343232,36.200579 C178.913032,36.7622002 176.549687,37.5244003 174.256541,38.5206093 C168.466848,40.9141853 162.332849,43.9629859 158.100891,48.6866212 C150.920602,56.6596361 143.924166,64.7797422 137.419119,73.3277502 C130.288972,82.6947891 123.255765,92.1520885 116.21253,101.606045 C101.892066,120.791425 87.277437,139.786256 73.2912506,159.235732 C72.726321,160.134994 72.9870577,160.636442 74.040033,160.740074 C74.7219599,160.679901 75.3905157,160.616384 76.0590714,160.552867 C78.2218493,160.064792 80.3244572,159.37948 82.3434956,158.486904 C84.9374919,157.403777 87.4512615,156.153502 89.8981756,154.742763 C92.3484325,153.308623 94.8989727,151.740764 96.6940449,149.477564 C111.151563,131.318479 125.07758,112.698063 139.137307,94.2247381 C137.893793,97.6546388 136.653623,101.08454 135.396738,104.507754 C129.222625,121.332989 123.118711,138.198339 116.978027,155.050317 C111.897003,169.034016 107.340795,183.261752 103.753994,197.706782 C101.069742,208.497932 99.6189763,219.459574 98.6997122,230.528191 C97.6634507,243.171354 97.2188612,255.888062 97.1787478,268.574683 C97.0884928,292.376723 99.6624325,316.05173 103.73728,339.476013 C107.868954,363.274711 114.086523,386.715709 122.192761,409.464709 C128.076052,426.029191 135.232942,442.209229 143.874025,457.536807 C151.739583,471.487076 161.406899,484.982699 173.002999,496.108147 C183.044707,505.749311 193.63463,516.620692 207.166198,521 C208.817531,520.963227 210.412036,520.642301 211.9564,520.060622 C215.706998,518.867177 219.374026,517.085367 222.77029,515.096292 C224.672331,514.02988 226.450689,512.792976 228.122079,511.38558 C228.563325,510.884133 229.017943,510.406086 229.472561,509.907982 C230.020777,509.018748 229.773411,508.520644 228.730464,508.420354" id="Fill-1" fill="#C35E45" mask="url(#mask-2)"></path>
        </g>
    </g>
</svg>