<svg viewBox="0 0 264.19 30.9" xmlns="http://www.w3.org/2000/svg"><g fill="#ffe11a"><path d="m154.22.13c-4.45 0-8.91 0-13.36.12q-15.48.29-31 .59-17.34.35-34.68.74c-10 .21-19.93.29-29.9.42-4.07 0-8.14.07-12.21.09a18.75 18.75 0 0 0 -5.48 3.12 69.15 69.15 0 0 0 -11.18 10.54 44.17 44.17 0 0 0 -5 6.75c-.35.79-.69 1.58-1 2.36-.31 1.32.19 1.83 1.51 1.52 12.9-.05 25.79-.19 38.68-.31 10.41-.1 20.81-.28 31.21-.43 9.64-.13 19.28-.17 28.93-.24 10.07-.06 20.13 0 30.21.1s20 .33 30 .54c4.28.09 8.56.26 12.84.4s8.77.26 13.15.46l15.16.71c3.88.18 7.76.55 11.63.85.93.29 1.87.55 2.8.77l3.29.79c.95.23 1.93.4 2.9.55a22.55 22.55 0 0 0 3.17.32c.67 0 1.34-.05 2-.08a21.38 21.38 0 0 0 6.34-3.62 83.62 83.62 0 0 0 8.74-7.66 82.51 82.51 0 0 0 7.66-8.73l2.37-3.61a4.45 4.45 0 0 0 1-4.32c-.71-.73-2-.59-2.91-.67a7.12 7.12 0 0 0 -.8 0c-.26 0-.52 0-.78 0l-2.23-.2-3-.23c-2.39-.15-4.78-.35-7.17-.45-4.91-.21-9.82-.45-14.73-.57-11.45-.26-22.84-.45-34.23-.61-9.61-.14-19.21-.14-28.81-.14h-.88c-4.75 0-9.5.09-14.24.13z" opacity=".38"/><path d="m244.78 3.74h-1.19-2c-1.41 0-2.81 0-4.22 0l-8.65.08c-4.57.05-9.14.18-13.71.35q-17.47.66-34.95 1.45-13.89.63-27.77 1.42l-20 1.15c-4.9.29-9.8.68-14.7 1-10.62.75-21.23 1.63-31.84 2.49q-8.44.69-16.9 1.35c-4.91.39-9.82.65-14.73.93-2.32.14-4.64.33-7 .41l-8.48.28c-5.55.19-11.11.34-16.67.48-1.42 0-2.85.06-4.27.12-2.3.08-4.6.16-6.89.34a28.38 28.38 0 0 0 -2.81.46c-1.65.31-2.94 1.55-4.18 2.57a17.05 17.05 0 0 0 -2.95 3.12c-.19.29-.38.58-.58.87a1.08 1.08 0 0 0 -.25 1c1.2.65 2.45 1.17 3.69 1.74a1 1 0 0 0 1-.25 10.82 10.82 0 0 0 2.41-1.88c1.21 0 2.41.09 3.62.13l3.26.12 9.53.36c5 .19 10 .29 14.92.43 2 .06 3.92 0 5.88 0h10.1c4.89 0 9.78-.24 14.66-.38 9.29-.27 18.58-.71 27.87-1 10.26-.29 20.52-.6 30.79-.77q16.85-.27 33.71-.37c9-.07 18-.08 27 .06 4.94.08 9.89.09 14.82.3l8.42.35c2.1.09 4.2.33 6.29.51 1.22.15 2.45.28 3.65.49l1.81.33a23.6 23.6 0 0 0 3.85.63l1 .1a15.66 15.66 0 0 0 4.68-2.51 60 60 0 0 0 6.35-5.57 60.12 60.12 0 0 0 5.54-6.43l1.74-2.62a3.26 3.26 0 0 0 .76-3.14l-.23-.24a11.51 11.51 0 0 0 -1.55-.19c-.26 0-.54 0-.81 0z" opacity=".38"/></g></svg>