<svg height="66" viewBox="0 0 66 66" width="66" xmlns="http://www.w3.org/2000/svg"><g fill="none" fill-rule="evenodd"><path d="m33.000635 66c18.2255005 0 32.999365-14.7738646 32.999365-32.9993655 0-8.0584713-2.8892693-15.4415954-7.6877921-21.171895l2.4830451-7.73476176h-11.8668231c-4.7223557-2.60872083-10.1517954-4.09397774-15.9277949-4.09397774-18.2255008 0-33.000635 14.775134-33.000635 33.0006345 0 18.2242315 14.7751342 32.9993655 33.000635 32.9993655z" fill="#ffec97"/><path d="m66 33.0025391c0 18.0984534-14.2915402 32.7968606-32 32.9974609v-66c5.528835.06348091 10.7214568 1.5400507 15.2553504 4.09072038h11.6379487l-2.4331856 7.73580322c4.705736 5.731071 7.5398865 13.116459 7.5398865 21.1760155z" fill="#ffdb2d"/><path d="m45 40.4346049v7.5653951h-21.9816775v-7.5653951h7.2246519v-13.3979836c-.3052497.4210793-.7798077.8498148-1.4249099 1.2874824-.6438665.4389434-1.3655902.8408827-2.1614636 1.2083703-.7983452.3674875-1.6127561.6660713-2.4432327.8931992-.8317124.2284035-1.5695018.3419673-2.2133682.3419673v-7.7759345c.5425284 0 1.2469506-.1926759 2.1120304-.5780272.8650798-.3853517 1.7215087-.8485389 2.5692871-1.3921144.847778-.5422993 1.6102843-1.0935306 2.2899897-1.65497.6784696-.5601634 1.1011231-1.0156947 1.2716672-1.3665944h8.2948793v22.4333289h6.4621463z" fill="#57555c"/><path d="m38.7027589 40.4346051v-22.4346051h-4.7027589v30h11v-7.5653949z" fill="#171719"/></g></svg>