<svg height="28" viewBox="0 0 709 28" width="709" xmlns="http://www.w3.org/2000/svg"><g fill="none" fill-rule="evenodd"><path d="m157 9h552v3h-552z" fill="#fef0e7" fill-rule="nonzero"/><path d="m157 15h552v3h-552z" fill="#fef0e7" fill-rule="nonzero"/><g><g fill="#000"><path d="m38 20.0285011 1.2482497-1.5962682c1.2835473 1.0026656 2.6120187 1.6946894 4.405776 1.6946894 1.9574095 0 2.9296966-.9995899 2.9296966-2.2206274 0-1.4732418-1.7616686-2.1222063-3.4110269-2.7127333-2.092182-.7320074-4.4507001-1.7192946-4.4507001-4.1306131 0-2.29136761 1.9253209-4.0629485 5.1341891-4.0629485 1.6909742.02299737 3.3249388.58944879 4.6400233 1.60857084l-1.2065344 1.53783066c-1.0300467-.72585608-2.0857643-1.27332379-3.4046091-1.27332379-1.8803968 0-2.7467912.96268198-2.7467912 2.05146609 0 1.3625179 1.6204785 1.879229 3.311552 2.4820586 2.1531505.7781423 4.550175 1.6177978 4.550175 4.3428337 0 2.3190486-1.9253209 4.2505639-5.4550758 4.2505639-2.0274653-.0385708-3.9816951-.7333976-5.5449242-1.9714989z"/><path d="m52 0h2.3252753v5.74519583l-.082729 2.94499047c1.2822993-1.29382426 2.6739189-2.37201115 4.5619125-2.37201115 2.8955143 0 4.1955412 1.949978 4.1955412 5.60349125v9.0783336h-2.3252753v-8.7641191c0-2.66774242-.7741069-3.81062052-2.5941445-3.81062052-1.4034381 0-2.3784583.74856975-3.7553049 2.19950122v10.3752384h-2.3252753z"/><path d="m66 14.5199754c0-4.76951443 3.2939268-7.5199754 6.9935095-7.5199754 3.6995828 0 7.0064905 2.75046097 7.0064905 7.5199754 0 4.7695145-3.297172 7.4800246-6.9967548 7.4800246-3.6995827 0-7.0032452-2.7381684-7.0032452-7.4800246zm11.3583681 0c0-3.275968-1.7589244-5.50399507-4.3551229-5.50399507-2.5961984 0-4.3616133 2.22802707-4.3616133 5.50399507 0 3.2759681 1.7589244 5.4671174 4.3551229 5.4671174 2.5961984 0 4.3518776-2.1911493 4.3518776-5.4671174z" fill-rule="nonzero"/><path d="m84 7.35889434h2.0815324l.2138998 1.67588052h.0830059c1.3408645-1.0891663 3.0137525-2.03477486 4.7345285-2.03477486 3.8310413 0 5.8870334 2.91172537 5.8870334 7.3963442 0 4.949621-3.0392927 7.8363798-6.4329568 7.8363798-1.3600196 0-2.7519646-.624164-4.1151768-1.6821221l.0670432 2.5341061v4.915292h-2.5125245zm10.3980845 7.05929556c0-3.2019616-1.1205796-5.34908602-3.9172397-5.34908602-1.2578586 0-2.5252947.67409719-3.9683202 1.97860012v7.6085599c1.3440569 1.1047704 2.6338408 1.5104771 3.6171414 1.5104771 2.455059 0 4.2684185-2.1627285 4.2684185-5.7485511z" fill-rule="nonzero"/><path d="m99 19.7357558 7.638195-10.80627827h-6.7922813v-1.92947753h9.9012483v1.26725435l-7.638195 10.80326815h7.891033v1.9294775h-11z"/><path d="m113 2.61367754c0-.98278986.875-1.61367754 2-1.61367754s2 .63405797 2 1.61367754c-.064152.91193595-.940517 1.6231884-2 1.6231884s-1.935848-.71125245-2-1.6231884zm.529412 4.64130434h2.878676v14.74501812h-2.893382z" fill-rule="nonzero"/><path d="m118 14.5199754c0-4.65273508 3.359435-7.5199754 6.886841-7.5199754 3.906167 0 6.112854 2.61831592 6.112854 6.7086663.004278.4604045-.036512.9202116-.121861 1.3736939h-10.315442c.187734 3.0270436 2.170459 4.9907805 5.09185 4.9907805 1.364977-.0092948 2.694408-.4070562 3.810653-1.1401352l.928785 1.5857407c-1.488583.9566494-3.251439 1.4728148-5.058914 1.4812538-4.084019 0-7.334766-2.7842655-7.334766-7.4800246zm10.710669-1.1708666c0-2.8641672-1.383297-4.42224955-3.777718-4.42224955-2.15399 0-4.077431 1.61339885-4.393613 4.42224955z" fill-rule="nonzero"/></g><path d="m24.3096612 21h-2.3096612l4.8966123-20.1161364 1.0830615-.8838636h5.9568381l1.0634881 1.53402768-1.2951066 4.26052218-1.0667504.81794836h-2.6293601l.5774153-2.34897989h1.2363865l.5806775-1.91453845h-3.5558343z" fill="#ff5325"/><path d="m18.9790265 22h-15.58527897l-.60150376-2.5436544h15.36683813l1.1523546-4.8183618h-16.78512071l-1.0605461-1.0077408-1.46576969-8.09756973 1.0605461-1.53267327h22.9394539l-.5666799 2.54041404h-21.03363668l1.00672734 5.55391536h17.33597154l1.044717 1.6169217-1.7601899 7.3587759z" fill="#ff5325"/><circle cx="8" cy="26" fill="#ff5325" r="2"/><circle cx="22" cy="26" fill="#ff5325" r="2"/></g></g></svg>