<svg height="54" viewBox="0 0 54 54" width="54" xmlns="http://www.w3.org/2000/svg"><g fill="none" fill-rule="evenodd"><g fill="#4a4a4a"><rect fill-rule="nonzero" height="2" rx="1" width="8" x="36" y="26"/><rect fill-rule="nonzero" height="2" rx="1" width="8" x="10" y="26"/><rect fill-rule="nonzero" height="2" rx="1" transform="matrix(0 -1 1 0 13 41)" width="8" x="23" y="13"/><rect fill-rule="nonzero" height="2" rx="1" transform="matrix(0 -1 1 0 -13 67)" width="8" x="23" y="39"/></g><g transform="translate(1 1)"><path d="m50.3101044 24.355004h-1.2304578c-.157253 0-.2868354-.1211245-.2997831-.2778554-.920233-11.0805944-9.7888434-19.93886748-20.8739278-20.84281125-.137518-.01117269-.2438152-.12488353-.2438152-.2629237v-1.26449799c0-.8355502-.6120964-1.56856225-1.4425301-1.66024096-.9818394-.10838554-1.8127952.65751807-1.8127952 1.61742972v1.23097992c0 .18106024-.1393976.33027309-.3198313.34562249-11.0484338.93808835-19.87788759 9.77934137-20.79759844 20.83299597-.01315662.1587149-.14440964.2813012-.30364658.2813012h-1.22701205c-.8355502 0-1.56856225.6120964-1.66024097 1.4425301-.10838554.9818394.65751808 1.8127952 1.61742972 1.8127952h1.32881928c.12582329 0 .22951004.0968996.23963855.2224097.89433735 11.0956305 9.75762249 19.9754136 20.84615259 20.8954377.1557912.0129478.2761848.1416948.2761848.298008v1.2321286c0 .8355502.6120963 1.5685622 1.4425301 1.6602409.9818393.1083856 1.8127952-.6575181 1.8127952-1.6174297v-1.3505382c0-.1136064.087502-.2071646.2006907-.216249 11.1053414-.884522 19.9958795-9.7515662 20.9170522-20.8467791.0129478-.1564176.1423213-.2772289.2991567-.2772289h1.2737911c.9599117 0 1.7258153-.8309558 1.6174297-1.8127952-.0914698-.8305381-.8245863-1.4425301-1.6600321-1.4425301zm-24.0024899 21.1958474c-11.0068755.150988-19.99243378-8.8346747-19.84144583-19.8415502.14482731-10.5554779 8.73975903-19.15040963 19.29534133-19.29492369 11.0065623-.15077912 19.9919117 8.83446589 19.8411326 19.84113249-.1446185 10.555478-8.7394458 19.1505141-19.2950281 19.2953414z" fill="#ff6b6b" fill-rule="nonzero"/><path d="m26.4950442 50.2583133v-1.2321286c0-.1563132-.1203936-.2850602-.2761848-.298008-11.0885301-.9200241-19.95181522-9.7998072-20.84615257-20.8954377-.01012852-.1254057-.11381526-.2224097-.23963856-.2224097h-1.32881927c-.95991165 0-1.72581527-.8309558-1.61742972-1.8127952.09167871-.8304337.82469076-1.4425301 1.66024096-1.4425301h1.22690763c.15923695 0 .29038554-.1225863.30364659-.2813012.91960642-11.0536546 9.74916464-19.89490762 20.79759844-20.83299597.1804337-.0153494.3198313-.16445783.3198313-.34562249v-1.23097992c0-.49890763.2256466-.94393574.5791004-1.24257028-.235253-.20215261-.5275181-.33883534-.8546587-.37485944-.9818393-.10838554-1.8127951.65751807-1.8127951 1.61742972v1.23097992c0 .18106024-.1393976.33027309-.3198314.34562249-11.0484337.93808835-19.87799193 9.77934137-20.79759836 20.83299597-.01315662.1587149-.14440963.2813012-.30364658.2813012h-1.22690763c-.8355502 0-1.56856225.6120964-1.66024097 1.4425301-.10838554.9818394.65751808 1.8127952 1.61742972 1.8127952h1.32881928c.12582329 0 .22951004.0968996.23963855.2224097.89433735 11.0956305 9.75762249 19.9754136 20.84615259 20.8954377.1557912.0129478.2761848.1416948.2761848.298008v1.2321286c0 .8355502.6120963 1.5685622 1.4425301 1.6602409.4715502.052.9070763-.0989879 1.2336948-.3748594-.3621205-.3111647-.5878715-.7789558-.5878715-1.2853815z" fill="#ff6b6b"/><path d="m25.9771325 10.0041526c-3.3669478 0-6.0961124 2.7292691-6.0961124 6.0962169v2.4124658c.4074377-.3776787.9870602-.5829638 1.5528996-.5073654v-.303751c0-.2415181.2062249-.4322892.4452369-.4141205 2.3569157.1693655 4.7557028-.5796225 6.5693334-1.7644498.1693654-.1106827.3935502-.0831165.5310682.064739 1.550498 1.6667148 1.5412049 1.6021847 1.5412049 1.8197911v.5965382c.6202409-.0929318 1.1703132.0986747 1.5525863.4541124v-2.3578554c-.0001044-3.3670522-2.7292691-6.0963213-6.0962169-6.0963213z" fill="#576574"/><path d="m21.517245 16.1003695c0-3.0893012 2.2982329-5.6400161 5.278-6.0399358-.2677269-.0359196-.5404659-.0561767-.8181125-.0561767-3.3669478 0-6.0961124 2.7292691-6.0961124 6.0962169v2.4124659c.4074377-.3776788.9870602-.5829639 1.5527952-.5073655v-.303751c0-.0937671.0314297-.1797028.0834297-.2489317z" fill="#3e4b5a"/><path d="m30.4399438 17.7618635v3.3394859c0 .0362329-.0018795.0719438-.0027149.1079679 1.1817992.1789719 2.1073574-.6749559 2.1073574-1.7236225-.0001044-1.050755-.9263935-1.9004016-2.1046425-1.7238313z" fill="#f2bb88"/><path d="m21.5146345 21.1013494v-3.3382329c-1.0288273-.1374137-2.1046425.6521927-2.1046425 1.7225783 0 1.0473092.9234698 1.9026988 2.107253 1.7236225-.0008354-.0360241-.0026105-.0719438-.0026105-.1079679z" fill="#f2bb88"/><path d="m31.9183936 18.1509237c-.3776787-.313253-.8972611-.4761446-1.4784498-.3890602v3.3394859c0 .0362329-.0018795.0719438-.0027149.1079679.5829639.0882329 1.1032771-.0750763 1.4811647-.3888514z" fill="#e3a76f"/><path d="m21.5146345 20.8206747c-.3884337-.3225462-.6261927-.8039116-.6261927-1.3349799 0-.5167631.2511245-.9675342.6261927-1.2806828v-.4418955c-1.0288273-.1374137-2.1045381.6521927-2.1045381 1.7225783 0 1.0473092.9234699 1.9026988 2.107253 1.7235181-.0008353-.0360241-.0026104-.0719438-.0026104-.1079679v-.2805703z" fill="#e3a76f"/><path d="m26.0420803 25.4991084c-.9848674 0-1.8503855-.2703373-2.5583373-.7226747v2.3925221l2.5473735 3.1442249 2.547269-3.1442249v-2.4599759c-.7215261.4977591-1.5952931.7901285-2.5363052.7901285z" fill="#f2bb88"/><path d="m25.1151647 25.4148434c-.6072932-.1126667-1.1551727-.3341366-1.6314217-.6384097v2.3925221l1.6314217 2.0136948z" fill="#e3a76f"/><path d="m35.3172932 29.6171325-6.7388032-2.6098152-2.5472691 3.1443293-2.5473735-3.1443293-6.7318072 2.6098152s-2.4924498 1.0246506-2.4924498 3.8659599v4.6427229c0 .320249.2595823.5798313.5798313.5798313h22.395502c.3174297 0 .5747149-.2572852.5747149-.5747149v-4.6477349c0-2.8413092-2.4923454-3.8660643-2.4923454-3.8660643z" fill="#e4eaf8"/><path d="m15.891012 38.1259197v-5.3768836c0-1.9493734 1.1731326-3.0434618 1.9096948-3.5384016l-1.0485622.4066024s-2.4924498 1.0246507-2.4924498 3.8659599v4.6427229c0 .320249.2595823.5798313.5798313.5798313h1.6314217c-.3203534-.0001044-.5799358-.2596867-.5799358-.5798313z" fill="#d8dce5"/><path d="m28.9795582 15.4263534c-.1376225-.1478554-.3618072-.1754217-.5310682-.0647389-1.8136306 1.1847228-4.2123133 1.9337108-6.5693334 1.7644498-.239012-.0180643-.4452369.1726024-.4452369.4141204v3.641984c0 2.3407309 1.8339919 4.4785783 4.608265 4.4785783 2.469478 0 4.4785784-2.0091004 4.4785784-4.4785783v-3.9359197c-.0001045-.2177108.0092931-.1532851-1.5412049-1.8198956z" fill="#f2d1a5"/><path d="m23.0652369 21.1820643v-4.0466025c-.3945943.020988-.7909638.0190041-1.1860803-.0093975-.239012-.0181687-.4452369.1726024-.4452369.4141204v3.641984c0 2.3406265 1.8339919 4.4785783 4.608265 4.4785783.2559277 0 .5065302-.0227631.7508675-.0642169-2.1132048-.3584658-3.7278153-2.2009156-3.7278153-4.4144658z" fill="#f2bb88"/><path d="m29.1068434 31.7673012 1.9048915-3.8176145-2.4332449-.9423694-2.5472691 3.1443293 2.4835743 1.7638233c.2008996.1428434.4818875.0724658.5920482-.1481687z" fill="#d8dce5"/><path d="m22.9589398 31.7673012-1.9048916-3.8176145 2.433245-.9423694 2.547269 3.1443293-2.4835742 1.7638233c-.2008996.1428434-.4818876.0724658-.5920482-.1481687z" fill="#d8dce5"/><path d="m26.0343534 30.1538394v-.0021928l-.0015663.0010442-.0015662-.0010442v.0021928l-1.8063213 1.2828755.8538233 1.2850682h1.9081285l.8538233-1.2850682z" fill="#ee5253"/><path d="m26.9368353 30.794755-.9023775-.6409156v-.0021928l-.0014618.0010442-.0015663-.0010442v.0021928l-1.8063213 1.2828755.8538233 1.2850682h1.8078876l-.7010603-1.0551405c-.0851004-.1281205-.0531486-.3007229.0722571-.3897912z" fill="#d83941"/><g transform="translate(24.2249 32.682731)"><path d="m.04343775 6.02291566h3.52910843l-.81048996-5.98386345c-.68853012 0-1.21949397 0-1.90812851 0z" fill="#ff6b6b"/><path d="m.85392771.03905221-.81048996 5.98386345h1.80788755l.81048996-5.98386345c-.63036948 0-1.14097189 0-1.80788755 0z" fill="#ee5253"/></g></g><g fill-rule="nonzero"><path d="m19.9822148 17.0261367v1.9654102c-.3621796.4417031-.5581406.9755859-.5581406 1.5408984 0 1.2542344.9126211 2.3399297 2.2037696 2.5284024.2251757 1.3507382.9538593 2.5145859 1.9990546 3.3098203v1.147289l-6.3048164 2.4443438c-.004957.0020039-.009914.0039023-.0148711.0060117-.1229765.0505195-3.0116601 1.2766992-3.0116601 4.6425234v4.6523321c0 .7594804.6179414 1.3775273 1.3776328 1.3775273h22.6555312c.7567383 0 1.3724649-.6157265 1.3724649-1.3724648v-1.5853008c0-.436957-.3540586-.7910156-.7910156-.7910156-.4369571 0-.7910157.3540586-.7910157.7910156v1.3757344h-2.7091757v-3.4599024c0-.436957-.3540586-.7910156-.7910157-.7910156-.436957 0-.7910156.3540586-.7910156.7910156v3.4599024h-4.4322187l-.6135118-5.0236875.2504883-.3768399.0165586.0117071c.6003281.426621 1.4374336.214207 1.7647031-.4414922 0-.0001055.0001055-.000211.0001055-.000211l1.6052344-3.2173242 3.6729492 1.422457c.1010391.043875 1.7368594.7841602 1.9914609 2.6643516.0586407.4328438.457418.7354336.8900508.6777422.4328438-.0587461.7362774-.457207.6776367-.8900508-.3824296-2.8235039-2.8561992-3.8734453-2.9612461-3.916793-.0052734-.0022148-.0105468-.0042187-.0156093-.0063281l-6.3117774-2.4444492v-1.2254414c.9790664-.798082 1.6688321-1.9369336 1.8886289-3.2340938 1.3171993-.1965937 2.2051407-1.2886171 2.2051407-2.5257656 0-.5844023-.1999688-1.1438086-.5584571-1.5913125v-1.9149961c0-3.8367422-3.1213476-6.9580898-6.9579843-6.9580898-3.8365313 0-6.957879 3.1213476-6.957879 6.9580898zm1.5707461 4.3768477c-.3404531-.1647422-.5469609-.5034024-.5469609-.8705391 0-.3519492.2303438-.6485273.5469609-.8207578zm3.044461 17.6554687h-4.4286328v-3.4599023c0-.436957-.3540586-.7910156-.7910157-.7910156-.436957 0-.7910156.3540586-.7910156.7910156v3.4599023h-2.7092812v-4.4478281c0-2.2586133 1.9022343-3.1232461 2.0272148-3.1775625l3.6689414-1.422457 1.6053399 3.2174297c.3269531.6553828 1.164164.8683242 1.7648086.4417031l.0164531-.011707.2503828.3768398zm-.2032383-6.9386836-1.3386094-2.682914 1.1114297-.4303125 1.6838086 2.0784726c-.0549492.0391289-1.4016797.9957305-1.4566289 1.0347539zm2.6023359-2.1380625-1.7875898-2.2065117v-.5680547c1.1649023.3805313 2.4447656.3769453 3.5716992-.0233086v.5955821c-.5365195.6623437-.1835156.2266523-1.7841094 2.2022929zm.7455586 2.7598008-.2047148.3079688h-1.0818985l-.2047148-.3079688.7455586-.5295586zm-1.5509179 6.3169453.5405273-4.4270508h.5295586l.5406328 4.4270508zm4.7463046-9.6215976-1.3385039 2.682914c-.0452461-.0321679-1.4137031-1.0041679-1.4589492-1.0363359.1718086-.2119922 1.4944922-1.8446484 1.6834922-2.0778398zm-.1920585-7.2700664c0 2.0291132-1.6507969 3.739289-3.7392891 3.7395h-.0002109c-2.357754 0-3.8708086-1.8318868-3.8708086-3.7395v-3.2935782c.0263671.0008438.0529453.0003164.0794179.0008438 2.2552383.0564258 4.5439102-.6270117 6.3938321-1.7655469.6114023.6550664.9737929 1.0354922 1.1370586 1.2213281zm1.5820312-2.5027735c.3470977.1688555.5470664.508043.5470664.8683242 0 .369668-.2084062.7061133-.5470664.8704336zm-5.3873437-8.0139375c2.9641992 0 5.3759531 2.4116485 5.3759531 5.3760586v.9458438c-.0453516-.3387657-.2663086-.5717461-.9965742-1.3505274-.8440664-.8997539-.833836-.9120937-1.0190391-1.0252617-.3990938-.2442656-.902707-.2345625-1.2928359.02025-1.8409571 1.2026602-4.0853321 1.807207-6.1531524 1.6584961-.5315625-.0396563-1.0155586.2731641-1.2107812.7493555-.0264727.0046406-.0529453.0097031-.0793125.0151875v-1.0132383c-.0001055-2.9645156 2.4114375-5.3761641 5.3757422-5.3761641z"/><path d="m51.5615625 24.56325h-.8418516c-1.1453906-11.205-10.0685742-20.13967969-21.2862304-21.28633594v-.84185156c-.0001055-1.34272266-1.0924453-2.4350625-2.435168-2.4350625s-2.435168 1.09233984-2.435168 2.4350625v.84185156c-11.205 1.14539063-20.13946872 10.06867974-21.28623044 21.28633594h-.84185156c-1.34272266 0-2.4350625 1.0924453-2.4350625 2.4350625 0 1.3427227 1.09233984 2.435168 2.4350625 2.435168h.84185156c1.14539063 11.205 10.06857424 20.1395742 21.28623044 21.2862304v.8418516c0 1.3426172 1.0923399 2.4350625 2.435168 2.4350625 1.3426172 0 2.4350625-1.0923398 2.4350625-2.4350625v-.8418516c11.2048945-1.1453906 20.1395742-10.0685742 21.2862305-21.2862304h.8418515c1.3427227 0 2.435168-1.0923399 2.435168-2.435168.0001055-1.3426172-1.0923398-2.4350625-2.4350625-2.4350625zm0 3.2881992h-1.5672656c-.4152305 0-.7596914.3210469-.7890117.7352227-.7771993 10.9771875-9.6413204 19.8413086-20.6186133 20.6186133-.4141758.0293203-.7352227.3738867-.7352227.7890117v1.5672656c0 .4703906-.3826406.8530313-.8530312.8530313-.4703907 0-.8531367-.3826407-.8531367-.8530313v-1.5672656c0-.4152305-.3210469-.7596914-.7352227-.7890117-10.977293-.7773047-19.84141407-9.6414258-20.61861329-20.6186133-.02932031-.4141758-.37388672-.7352227-.78901172-.7352227h-1.56726562c-.47039063 0-.85303125-.3827461-.85303125-.8531367s.38264062-.8530312.85303125-.8530312h1.56726562c.41523047 0 .75969141-.3210469.78901172-.7352227.77719922-10.9771875 9.64132029-19.8413086 20.61861329-20.61861329.4141758-.02932031.7352227-.37388672.7352227-.78901172v-1.56726562c0-.47039063.382746-.85303125.8531367-.85303125.4703906 0 .8530312.38264062.8530312.85303125v1.56726562c0 .41523047.3210469.75969141.7352227.78901172 10.9772929.77730469 19.841414 9.64142579 20.6186133 20.61871879.0293203.4141757.3738867.7352226.7890117.7352226h1.5672656c.4703906 0 .8531367.3826406.8531367.8530313 0 .4703906-.3827461.8530312-.8531367.8530312z" fill="#ee5253"/></g></g></svg>