<svg height="51" viewBox="0 0 51 51" width="51" xmlns="http://www.w3.org/2000/svg"><g fill="none" fill-rule="evenodd"><path d="m48.0018574 33.8073223c-6.1560586 12.909375-15.6288105 15.6985371-22.5018574 15.6985371-7.739748 0-15.0311543-3.8648438-19.51357617-10.1701172-4.51210547-6.3650391-5.58808594-14.4333985-2.98828125-22.1432637l.47822461-.9860332c3.64560351-8.69599803 12.49101561-14.71230468 22.02363281-14.71230468 7.739748 0 15.0311543 3.86484375 19.5135762 10.17011718 4.5121054 6.3650391 5.5880859 14.4333984 2.9882812 22.1430645z" fill="#65b1fc"/><path d="m48.0018574 33.8073223c-6.1560586 12.909375-15.6288105 15.6985371-22.5018574 15.6985371v-48.01171878c7.739748 0 15.0311543 3.86484375 19.5135762 10.17011718 4.5121054 6.3650391 5.5880859 14.4333984 2.9882812 22.1430645z" fill="#1689fc"/><path d="m46.2386719 10.7975566c-4.7811504-6.69374996-12.5208985-10.7975566-20.7386719-10.7975566-10.2498047 0-19.63300781 6.43476562-23.48789063 15.9075176l-.50810742 1.045998c-2.74374023 8.354836-1.67542968 16.268502 3.25732617 23.2487285 4.7811504 6.69375 12.52089848 10.7977559 20.73867188 10.7977559 10.1302734 0 19.3939453-6.2853516 23.3683594-15.549123l.4481426-.8964844c2.9868867-8.4985723 1.9405898-16.6627559-3.0778301-23.756836zm-39.02695315 27.6714844c-4.24325977-5.9765625-5.22949219-13.5368144-2.77910156-20.7983379l.38847656-.8069355c2.42050781-5.7972656 7.23164065-10.28954885 12.96904105-12.44121096-3.6157207 4.72158399-5.7972657 13.90546876-5.5282207 16.89374996-.0298828.0897481-.0598653.1792969-.0598653.2989278-.7769531 10.0106426 1.4941407 19.6728515 5.7673828 25.0816406-4.2731425-1.5540059-8.06816012-4.4326172-10.75771285-8.227834zm16.79414065 9.2736328c-1.0457989-.3585937-2.0917969-1.1454082-3.0780293-2.1914062-4.1834942-4.5122051-6.4844707-14.0448223-5.7374004-23.6970703v-.2688457c0-.0897481.0298828-.2091797.0298828-.2989278.866502-9.2935547 4.5123047-16.62470505 8.7855469-18.02929685zm2.9882812-.0298828v-44.45566405c4.6018535 1.52402344 8.4569356 9.99082035 8.9049785 20.09121095.4183594 9.3234375-1.9124003 18.0791016-5.9466796 22.3225605-.95625.9860332-1.9421836 1.7131817-2.9582989 2.0418926zm19.5732422-14.3834941c-3.346875 7.0523437-8.0683594 11.3952129-13.5369141 13.3376953 4.0042969-5.0501953 6.2753907-14.0548828 5.8569317-23.438086-.3585938-7.9489277-2.5998047-14.80185347-5.8569317-18.9257812 4.2732422 1.55380664 8.0682598 4.43261719 10.7577129 8.2276348 4.2433594 5.9765625 5.2295918 13.5370136 2.7792012 20.7985371z" fill="#96ebe6" fill-rule="nonzero"/><path d="m46.2386719 10.7975566c-4.7811504-6.69374996-12.5208985-10.7975566-20.7386719-10.7975566v51c10.1302734 0 19.3939453-6.2853516 23.3683594-15.549123l.4481426-.8964844c2.9868867-8.4985723 1.9405898-16.6627559-3.0778301-23.756836zm-19.2445313 36.9152344v-44.45566405c4.6018535 1.52402344 8.4569356 9.99082035 8.9049785 20.09121095.4183594 9.3234375-1.9124003 18.0791016-5.9466796 22.3225605-.95625.9860332-1.9421836 1.7131817-2.9582989 2.0418926zm19.5732422-14.3834941c-3.346875 7.0523437-8.0683594 11.3952129-13.536914 13.3376953 4.0042968-5.0501953 6.2753906-14.0548828 5.8569316-23.438086-.3585938-7.9489277-2.5998047-14.80185347-5.8569316-18.9257812 4.2732421 1.55380664 8.0682597 4.43261719 10.7577128 8.2276348 4.2433594 5.9765625 5.2295918 13.5370136 2.7792012 20.7985371z" fill="#00c8c8" fill-rule="nonzero"/><path d="m46.4179688 15.0410156h-41.83593755c-2.48037305 0-4.58203125 2.0020489-4.58203125 4.4824219v11.953125c0 2.4801738 2.1016582 4.4824219 4.58203125 4.4824219h41.83593755c2.480373 0 4.5820312-2.0022481 4.5820312-4.4824219v-11.953125c0-2.480373-2.1016582-4.4824219-4.5820312-4.4824219z" fill="#0053bf"/><path d="m51 19.5234375v11.953125c0 2.4801738-2.1016582 4.4824219-4.5820312 4.4824219h-20.9179688v-20.9179688h20.9179688c2.480373 0 4.5820312 2.0020489 4.5820312 4.4824219z" fill="#05377f"/><path d="m32.8212891 23.169041-2.9882813 5.9765625c-.2689453.5081074-.7769531.8368184-1.3447265.8368184-.5677735 0-1.0757813-.328711-1.3447266-.8368184l-1.6435547-3.2870097-1.6435547 3.2870097c-.5079082 1.0161153-2.1815449 1.0161153-2.6895527 0l-2.9882813-5.9765625c-.3585937-.7171875-.059666-1.6135722.6874043-2.0020488.7171875-.3585938 1.6135723-.0598652 2.0020489.6872051l1.6436543 3.287209 1.6435546-3.287209c.269045-.5079082.8069356-.7769532 1.3447266-.7769532s1.0757813.269045 1.3447266.7769532l1.6435547 3.287209 1.6435546-3.287209c.3884766-.7470703 1.284961-1.0457989 2.0020489-.6872051.7470703.3884766 1.045998 1.2848613.6874043 2.0020488z" fill="#e1f1fa"/><path d="m43.4296875 29.9824219c-.5661797 0-1.0826543-.3195469-1.3365586-.8258614l-1.6517226-3.3034453-1.6517227 3.3034453c-.5078086 1.012629-2.1653086 1.012629-2.6731172 0l-2.8627734-5.727041c-.1852735-.2276074-.3050039-.5092031-.3254239-.8185898-.0524941-.8229727.5267344-1.5305977 1.3496075-1.5845859.6245507-.014543 1.2548789.2802011 1.5233261.8170957l1.6518223 3.3034453 1.6517227-3.3034453c.5078086-1.012629 2.1653086-1.012629 2.6731171 0l1.6517227 3.3034453 1.6517227-3.3034453c.3706464-.7397989 1.2679277-1.0330489 2.0048378-.6682793.7383047.3691523 1.0374317 1.2665332.6682793 2.0048378l-2.9882812 5.9765625c-.2539043.5063145-.7703789.8258614-1.3365586.8258614z" fill="#bfe1ff"/><path d="m16.6314785 21.0204668c-.5879941-.005877-1.164334.2859785-1.4328808.8229727l-1.6517227 3.3034453-1.6517227-3.3034453c-.5381894-1.0726934-2.14080464-1.064625-2.67311714 0l-1.65172266 3.3034453-1.65172266-3.3034453c-.37064648-.7397989-1.26942187-1.0330489-2.00483789-.6682793-.73830468.3691523-1.03743164 1.2665332-.66827929 2.0048378l2.98828125 5.9765625c.25390429.5063145.7703789.8258614 1.33655859.8258614s1.0826543-.3195469 1.33655859-.8258614l1.65172271-3.3034453 1.6517226 3.3034453c.2539043.5063145.7703789.8258614 1.3365586.8258614s1.0826543-.3195469 1.3365586-.8258614l2.8146621-5.6293242c.2130645-.24225.3502266-.5617968.3735352-.9163066.0524941-.8229727-.6171797-1.5364746-1.4401524-1.5904629z" fill="#e1f1fa"/><path d="m32.8212891 23.169041-2.9882813 5.9765625c-.2689453.5081074-.7769531.8368184-1.3447266.8368184-.5677734 0-1.0757812-.328711-1.3447265-.8368184l-1.6435547-3.2870097v-4.7813497c.5378906 0 1.0757813.269045 1.3447266.7769532l1.6435546 3.287209 1.6435547-3.287209c.3884766-.7470703 1.284961-1.0457989 2.0020489-.6872051.7470703.3884766 1.045998 1.2848613.6874043 2.0020488z" fill="#bfe1ff"/></g></svg>