<?xml version="1.0" encoding="UTF-8"?>
<svg width="77px" height="74px" viewBox="0 0 77 74" version="1.1" xmlns="http://www.w3.org/2000/svg" xmlns:xlink="http://www.w3.org/1999/xlink">
    <!-- Generator: Sketch 52.2 (67145) - http://www.bohemiancoding.com/sketch -->
    <title>strategy (2)</title>
    <desc>Created with Sketch.</desc>
    <g id="Page-1" stroke="none" stroke-width="1" fill="none" fill-rule="evenodd">
        <g id="mib" transform="translate(-724.000000, -2227.000000)">
            <g id="strategy-(2)" transform="translate(724.000000, 2227.000000)">
                <path d="M65.9994188,65 L34,65 L34,61.7644524 C34,59.685514 35.656405,58 37.6987233,58 L62.3012768,58 C64.3435951,58 66,59.685514 66,61.7644524 L66,65 L65.9994188,65 Z" id="Path" fill="#00B8FF"></path>
                <path d="M64.4474938,25.5146897 C70.6621603,26.2062982 71.8165929,21.5830142 71.9948637,19.1122383 C72.056018,18.2693224 71.5662063,17.4832191 70.7861998,17.1661111 C68.2309865,16.1284084 62.3543997,13.3932793 60.2774595,9.47783588 C59.8280328,8.62970249 58.9499486,8.10273509 57.995133,8.06505304 C56.1760796,7.99258781 53.7604828,8.16824366 52.3977793,8.28882586 C51.7718125,8.34447919 51.1914232,7.9572248 50.9946909,7.35721233 C50.1091066,4.65628681 49.4485243,2 49.4485243,2 C46.3008061,2.832481 45.3073363,6.31487184 44.9969492,8.65115217 C44.9969492,8.65115217 24.8719759,35.1832958 39.0719004,58 L60.9161186,58 L63.6282563,49.5482308 C64.2836463,47.5047102 63.5163324,45.2739394 61.7468947,44.0698565 C57.707246,41.3196547 51.4141174,35.4128657 54.1331782,26.4897824 C54.598182,24.9633739 56.1391562,24.0381375 57.7037845,24.3164041 L64.4474938,25.5146897 Z" id="Path" fill="#FFBB00"></path>
                <path d="M70,73 L29,73 L29,67.9797564 C29,66.8860983 29.8809792,66 30.9670139,66 L68.0324019,66 C69.1190207,66 70,66.8860983 70,67.9797564 L70,73 Z" id="Path" fill="#F33954"></path>
                <path d="M9,37.5003052 C9,39.4332548 7.20873658,41 4.99965135,41 C2.79056593,41 1,39.4332548 1,37.5003052 C1,35.5673555 2.79056593,34 4.99965135,34 C7.20873658,34 9,35.5673555 9,37.5003052 Z" id="Path" fill="#00B8FF"></path>
                <path d="M24.442946,38.5576638 L23.8802695,39.3056844 C23.3739782,39.978663 23.497908,40.9434057 24.1563217,41.4608968 C24.8117986,41.9753862 25.7568365,41.8547184 26.26489,41.178738 C28.8169036,37.7832281 29.0389199,37.6961791 28.9954565,36.9319493 C28.977836,36.6233757 28.8721139,36.3322119 28.6888623,36.0872741 C28.6747661,36.0686636 26.2778115,32.8802701 26.26489,32.8622601 C25.7585986,32.1892816 24.8147353,32.0626103 24.1563217,32.5801014 C23.497908,33.0969921 23.3739782,34.0623351 23.8802695,34.7353137 L24.442946,35.4833343 L9.50617741,35.4833343 C9.02514204,33.9716841 7.8539762,32.7752111 6.37504178,32.2835345 L6.37504178,10.6563693 L7.10746078,11.2308924 C7.76587454,11.7483835 8.70973771,11.6217123 9.21544164,10.9487338 C9.72173303,10.2757551 9.59780322,9.31101259 8.93938961,8.79412172 L5.78769687,6.31832909 C5.24733955,5.8938903 4.49553805,5.8938903 3.95576804,6.31832909 L0.803487844,8.79412172 C0.145074232,9.31101259 0.0217317243,10.2757551 0.527435658,10.9487338 C1.03490166,11.6241137 1.97935229,11.7465826 2.63600398,11.2308924 L3.36783582,10.6563693 L3.36783582,32.2835345 C1.41550117,32.9324995 0,34.8109561 0,37.0207993 C0,39.7661435 2.18551039,42 4.8714388,42 C7.03345539,42 8.87067029,40.5531862 9.50617741,38.5576638 L24.442946,38.5576638 Z M4.8714388,38.926271 C3.84358512,38.926271 3.00720596,38.0713902 3.00720596,37.0207993 C3.00720596,35.9696079 3.84358512,35.1147271 4.8714388,35.1147271 C5.89987963,35.1147271 6.73625879,35.9696079 6.73625879,37.0207993 C6.73625879,38.0713902 5.89987963,38.926271 4.8714388,38.926271 Z" id="Shape" fill="#000000" fill-rule="nonzero"></path>
                <path d="M75.4800195,70.9799341 L71.6123817,70.9799341 L71.6123817,67.4537711 C71.6123817,65.5261197 70.0336207,63.9576909 68.0926769,63.9576909 L67.1225018,63.9576909 L67.1225018,62.241798 C67.1225018,59.7101334 65.3139626,57.5901886 62.9128682,57.0899902 L65.0996214,50.352648 C65.9753915,47.6534641 64.9351548,44.6569924 62.5696852,43.0643795 C56.715979,39.1253169 53.2639609,33.5889228 55.3349343,26.8692761 C55.5854935,26.055274 56.4220767,25.5550756 57.2835968,25.7019498 C57.2930966,25.7031296 57.3020028,25.7048991 57.3115027,25.7066687 L64.2315702,26.9223632 C64.264226,26.9282618 64.2968817,26.9323908 64.3289439,26.9359299 C70.0063085,27.5611779 73.3888589,24.3877493 73.7795413,19.0306715 C73.8905712,17.5141501 73.0100512,16.111471 71.5898194,15.5410797 C69.730812,14.794911 63.5131418,12.0744924 61.5460733,8.40794366 C60.8383324,7.0890241 59.447194,6.23196247 57.9159324,6.17179717 C55.988051,6.0957057 53.4634584,6.27502211 52.0646013,6.39535271 C50.3391859,1.16332455 50.7500556,0.748655309 49.8339112,0.210116251 C49.4841969,0.00484614649 49.0662022,-0.0529597269 48.6731448,0.0496752497 C45.6777146,0.833004843 43.6827402,3.53749742 43.0296234,7.68418954 C41.9448562,9.16590938 37.5327565,15.4874028 34.512389,24.1848386 C30.7023442,35.1573516 30.2582249,46.6772513 35.7942788,57.054009 C33.2981859,57.4781159 31.3922728,59.6428897 31.3922728,62.241798 L31.3922728,63.9576909 L30.4220978,63.9576909 C28.4817477,63.9576909 26.9029867,65.5261197 26.9029867,67.4537711 L26.9029867,70.9799341 L22.5199805,70.9799341 C21.6810225,70.9799341 21,71.6559097 21,72.489967 C21,73.3240242 21.6810225,74 22.5199805,74 L75.4800195,74 C76.3195713,74 77,73.3240242 77,72.489967 C77,71.6559097 76.3195713,70.9799341 75.4800195,70.9799341 Z M37.35879,25.24894 C40.5828111,15.9197676 45.6373399,9.25792701 45.6878082,9.19245289 C45.8481185,8.98364372 45.9502422,8.73708358 45.985273,8.47695684 C46.335581,5.87156003 47.1727578,4.45118529 48.0722776,3.69086014 C48.3584613,4.71603102 48.7538938,6.06326355 49.2081067,7.43350037 C49.6338199,8.71702837 50.875929,9.53103066 52.2290679,9.41305934 C53.5323325,9.2992169 55.9886447,9.11813088 57.7954028,9.18950364 C58.2525843,9.20719927 58.6616728,9.4519898 58.8635453,9.8283184 C61.1601407,14.1089079 67.1088457,16.9992053 70.4504278,18.3411292 C70.6433942,18.4184003 70.7627363,18.6077442 70.7478928,18.8118347 C70.4664589,22.6635985 68.4317037,24.3334825 64.711314,23.9394583 L57.9272135,22.7479479 C57.384533,22.5639126 54.0459196,21.3564762 52.8756533,19.1793154 C52.4808147,18.4437641 51.5599202,18.1659416 50.8195234,18.5587862 C50.0785329,18.9516307 49.7988804,19.8659085 50.1943127,20.6020496 C50.9934901,22.0896679 52.3335666,23.2174737 53.6219875,24.0261672 C53.0810883,24.5570382 52.6636873,25.2223964 52.4279716,25.985671 C51.0671141,30.4019274 51.5569515,34.612324 53.8850154,38.4988893 C55.8491152,41.7784921 58.7643903,44.1514853 60.8650508,45.5647818 C62.1190347,46.4088667 62.6706213,47.9961707 62.2063149,49.4253933 L59.7553463,56.9785074 L39.2356097,56.9785074 C33.3528102,47.0931003 33.6645249,35.9395014 37.35879,25.24894 Z M34.4322337,62.241798 C34.4322337,61.0048687 35.445752,59.9985733 36.6908299,59.9985733 L61.8245385,59.9985733 C63.0696162,59.9985733 64.0825408,61.0048687 64.0825408,62.241798 L64.0825408,63.9576909 L34.4322337,63.9576909 L34.4322337,62.241798 Z M29.9429476,70.9799341 L29.9429476,67.4537711 C29.9429476,67.191285 30.1578825,66.9777568 30.4220978,66.9777568 L68.0926769,66.9777568 C68.3574859,66.9777568 68.5724207,67.191285 68.5724207,67.4537711 L68.5724207,70.9799341 L29.9429476,70.9799341 Z" id="Shape" fill="#000000" fill-rule="nonzero"></path>
                <path d="M55.4991216,50 L55.5026351,50 C56.3306656,50 57,49.3285157 57,48.5 C57,47.6714845 56.3265664,47 55.4991216,47 C54.6710912,47 54,47.6714845 54,48.5 C54,49.3285157 54.6710912,50 55.4991216,50 Z" id="Path" fill="#000000"></path>
                <path d="M50.5731014,46.5828119 C51.1444419,47.1553274 52.0518649,47.1365948 52.6007999,46.5389074 C53.1491747,45.9418053 53.1301299,44.993467 52.5587896,44.4203662 C51.9801673,43.8402406 51.4474765,43.2238206 50.9752804,42.5886679 C48.7862623,39.6441357 47.7494474,36.1569431 47.8934028,32.2248509 C48.0026296,29.2293894 48.7913035,27.0815785 48.8036266,27.0482111 C49.0932178,26.2795886 48.7324891,25.4102783 47.9975884,25.1058734 C47.2610074,24.8008831 46.4280826,25.1772915 46.1362509,25.9464993 C45.982213,26.3527629 42.4371016,35.9877643 48.7106437,44.4273909 C49.2679807,45.1772807 49.8947747,45.902584 50.5731014,46.5828119 Z" id="Path" fill="#000000"></path>
                <path d="M39.8680629,7.95639002 L38.5145904,4.89623072 C38.2173869,4.22535646 37.4904356,3.86708233 36.7880079,4.04562634 L33.5841668,4.85945416 C32.7830607,5.06350432 32.2966746,5.88800941 32.4969512,6.70124425 C32.6855499,7.46702557 33.4160045,7.94986512 34.1686475,7.83419711 L31.5446157,12.6406462 C31.4202458,12.86783 31.1142839,12.8968952 30.9507929,12.6975904 C30.5350584,12.3440616 29.5109036,10.162979 27.034014,10.5971787 C25.8352741,10.8077538 24.8683412,11.6257338 24.4467678,12.7847863 C21.1495032,21.5791109 21.4566329,21.5310643 21.0484891,21.6188533 C20.9550656,21.6396142 20.8184339,21.6366484 20.6975672,21.5108964 C20.4412366,21.3187098 19.4696325,19.7776565 17.4248264,19.8968834 C15.1493811,20.0309397 14.4411143,21.9824659 13.7001495,22.7535857 C13.4590002,23.0733039 12.9714465,23.017546 12.8067875,22.6497811 L10.8554049,18.2947338 C10.5138254,17.5319184 9.6268863,17.1944051 8.87599525,17.5420023 C8.12452019,17.8895993 7.79286688,18.7894369 8.1344464,19.5528454 L10.0858292,23.9078928 C10.674397,25.2217622 11.9291909,26 13.2943413,26 C15.6696329,26 16.4520545,23.8865387 17.1603211,23.1640587 C17.381618,22.8716264 17.8061109,22.8461201 18.0595221,23.1106735 C18.2784833,23.2637111 19.4392699,25.0705042 21.6685875,24.5900371 C22.8071859,24.3450584 23.7274071,23.5365689 24.1308797,22.4267495 L27.2518074,13.836475 C27.3539893,13.5559061 27.7113341,13.4948096 27.8987649,13.7231797 C28.3203384,14.0933172 29.2504857,16.0733156 31.5451997,15.8514703 C32.6458449,15.745293 33.622704,15.095773 34.1587211,14.1140781 L37.0069692,8.89715609 L37.1418493,9.20145179 C37.4805094,9.9672331 38.3662806,10.3071189 39.1177557,9.96367417 C39.8709823,9.62022923 40.2067229,8.72157805 39.8680629,7.95639002 Z" id="Path" fill="#000000"></path>
            </g>
        </g>
    </g>
</svg>