<?xml version="1.0" encoding="UTF-8"?>
<svg width="51px" height="47px" viewBox="0 0 51 47" version="1.1" xmlns="http://www.w3.org/2000/svg" xmlns:xlink="http://www.w3.org/1999/xlink">
    <!-- Generator: Sketch 52.2 (67145) - http://www.bohemiancoding.com/sketch -->
    <title>analytics (1)</title>
    <desc>Created with Sketch.</desc>
    <g id="Page-1" stroke="none" stroke-width="1" fill="none" fill-rule="evenodd">
        <g id="offer" transform="translate(-498.000000, -7928.000000)">
            <g id="analytics-(1)" transform="translate(498.000000, 7928.000000)">
                <path d="M13.940332,26.0251453 L9.05578711,26.0251453 C8.58891797,26.0251453 8.20920703,25.6423162 8.20920703,25.1716132 L8.20920703,20.0504209 C8.20920703,19.5797179 8.58891797,19.1968889 9.05578711,19.1968889 L13.8931172,19.1968889 C13.3339102,21.4367201 13.34925,23.7924444 13.940332,26.0251453 Z" id="Path" fill="#F3D064"></path>
                <path d="M10.3258066,26.0251453 L13.940332,26.0251453 C13.34925,23.7925449 13.3339102,21.4367201 13.8931172,19.1968889 L10.3258066,19.1968889 C9.83064844,21.4435491 9.83064844,23.778485 10.3258066,26.0251453 Z" id="Path" fill="#EDBD41"></path>
                <path d="M46.9979941,29.9129893 L46.9979941,31.655203 C46.9979941,31.8600748 46.8338379,32.0255791 46.6306348,32.0255791 L33.8365078,32.0255791 C34.5855703,31.2589167 35.225959,30.4250684 35.7574746,29.5426132 L46.6306348,29.5426132 C46.8338379,29.5427137 46.9979941,29.7083184 46.9979941,29.9129893 Z" id="Path" fill="#8ACAEB"></path>
                <path d="M46.9979941,24.4297564 L46.9979941,26.1719701 C46.9979941,26.3768419 46.8338379,26.5423462 46.6306348,26.5423462 L37.096623,26.5423462 C37.347041,25.7301902 37.5193652,24.8983504 37.6137949,24.0593803 L46.6306348,24.0593803 C46.8338379,24.0594808 46.9979941,24.224985 46.9979941,24.4297564 Z" id="Path" fill="#C5D65C"></path>
                <path d="M46.9979941,18.9465235 L46.9979941,20.6887372 C46.9979941,20.893609 46.8338379,21.0591132 46.6306348,21.0591132 L37.6230586,21.0591132 C37.5338086,20.2211474 37.3675605,19.3893077 37.1233184,18.5761474 L46.6306348,18.5761474 C46.8338379,18.5761474 46.9979941,18.7416517 46.9979941,18.9465235 Z" id="Path" fill="#F3D064"></path>
                <path d="M46.9979941,13.4632906 L46.9979941,15.2055043 C46.9979941,15.4103761 46.8338379,15.5758803 46.6306348,15.5758803 L35.8077773,15.5758803 C35.2865215,14.6944295 34.6563926,13.8605812 33.9185859,13.0929145 L46.6306348,13.0929145 C46.8338379,13.0929145 46.9979941,13.2584188 46.9979941,13.4632906 Z" id="Path" fill="#FF395E"></path>
                <path d="M37.9475859,13.0929145 L33.9185859,13.0929145 C34.6563926,13.8605812 35.2864219,14.6944295 35.8077773,15.5758803 L39.4809727,15.5758803 C39.0535488,14.7126068 38.5421543,13.8810684 37.9475859,13.0929145 Z" id="Path" fill="#B12E65"></path>
                <path d="M40.6025742,18.5761474 L37.1233184,18.5761474 C37.3675605,19.3893077 37.5338086,20.2211474 37.6230586,21.0591132 L41.0461348,21.0591132 C40.9644551,20.2232564 40.8164355,19.3927222 40.6025742,18.5761474 Z" id="Path" fill="#EDBD41"></path>
                <path d="M37.6137949,24.0594808 C37.5193652,24.8985513 37.347041,25.7302906 37.096623,26.5424466 L40.6289707,26.5424466 C40.8370547,25.7254701 40.9795957,24.8949359 41.0557969,24.0594808 L37.6137949,24.0594808 Z" id="Path" fill="#DFDE48"></path>
                <path d="M39.531873,29.5427137 L35.7574746,29.5427137 C35.225959,30.4251688 34.5855703,31.2591175 33.8365078,32.0256795 L38.025082,32.0256795 C38.6100879,31.2365214 39.1126172,30.4050833 39.531873,29.5427137 Z" id="Path" fill="#8BB1EA"></path>
                <polygon id="Path" fill="#E2E2E3" points="15.2581641 30.7738526 17.5835449 32.8193568 14.1719238 36.2575876 11.989084 34.0697778"></polygon>
                <g id="Group" transform="translate(7.371094, 3.012821)" fill="#DCDDDD">
                    <path d="M13.2470508,7.64623718 C13.050123,7.64623718 12.8530957,7.57051496 12.7028848,7.41897009 L6.97664063,1.64570299 C4.35781055,1.60563248 1.50987891,1.58705342 1.0231875,1.62812821 C0.770080078,1.69099573 0.491671875,1.62270513 0.294046875,1.42345726 C-0.00647460937,1.12046795 -0.00647460937,0.629076923 0.294046875,0.326188034 C0.579826172,0.0379615385 0.585005859,0.0322371795 4.11346875,0.0606581197 C5.70104297,0.0733119658 7.29678516,0.0988205128 7.31272266,0.0990213675 C7.51253906,0.102235043 7.70339062,0.183681624 7.84463672,0.326188034 L13.7913164,6.32160043 C14.0918379,6.62458974 14.0918379,7.11598077 13.7913164,7.41886966 C13.6410059,7.5703141 13.4439785,7.64623718 13.2470508,7.64623718 Z" id="Shape" fill-rule="nonzero"></path>
                    <path d="M35.6248945,36.6912329 L29.0865352,36.6912329 C28.8824355,36.6912329 28.6866035,36.609485 28.5423691,36.4639658 L24.0491895,31.9337885 C23.748668,31.6307991 23.748668,31.1394081 24.0491895,30.8365192 C24.3497109,30.5335299 24.8370996,30.5334295 25.1375215,30.8365192 L29.4051855,35.1393291 L35.6247949,35.1393291 C36.0498281,35.1393291 36.394377,35.4867073 36.394377,35.9152308 C36.394377,36.3437543 36.0499277,36.6912329 35.6248945,36.6912329 Z" id="Path"></path>
                    <ellipse id="Oval" cx="18.1289062" cy="19.5983974" rx="13.4426836" ry="13.5530726"></ellipse>
                </g>
                <path d="M27.7185,32.1943974 C22.4686875,26.9014744 22.4686875,18.3206603 27.7185,13.0277372 C28.8111152,11.9261496 30.045375,11.0545406 31.3619121,10.4115043 C26.3535527,7.96489316 20.151873,8.83650214 15.9946758,13.0277372 C10.7448633,18.3206603 10.7448633,26.9014744 15.9946758,32.1943974 C20.151873,36.3857329 26.3535527,37.257141 31.3619121,34.8106303 C30.0454746,34.1674936 28.8112148,33.295985 27.7185,32.1943974 Z" id="Path" fill="#BECECD"></path>
                <path d="M33.1402383,14.7627201 C37.3813066,19.0386154 37.3813066,25.9962222 33.1402383,30.2721175 C28.8991699,34.5480128 21.9982324,34.5480128 17.7571641,30.2721175 C13.5160957,25.9962222 13.5160957,19.0386154 17.7571641,14.7627201 C21.9982324,10.4868248 28.8991699,10.4866239 33.1402383,14.7627201 Z" id="Path" fill="#8ACAEB"></path>
                <path d="M33.1402383,14.7627201 C28.8991699,10.4868248 21.9982324,10.4868248 17.7571641,14.7627201 C17.2674844,15.2564209 16.8349805,15.7863761 16.4583574,16.3433462 C20.7005215,13.3320321 26.6169199,13.7369551 30.4081523,17.5592201 C34.159541,21.3414145 34.5920449,27.2213355 31.706959,31.4879915 C32.2103848,31.1306709 32.6904023,30.7257479 33.1403379,30.2721175 C37.3814062,25.9961218 37.3814062,19.038515 33.1402383,14.7627201 Z" id="Path" fill="#8BB1EA"></path>
                <path d="M14.4288164,35.7988355 C14.8474746,36.2209316 14.8474746,36.9048419 14.4288164,37.326938 L5.25698438,46.5750919 C4.7695957,47.0654786 3.98049023,47.0654786 3.49399805,46.5750919 L1.77414258,44.840109 C1.28675391,44.3497222 1.28675391,43.5541368 1.77414258,43.06375 L10.9459746,33.8155962 C11.3646328,33.3935 12.0429727,33.3935 12.4616309,33.8155962 L14.4288164,35.7988355 Z" id="Path" fill="#717483"></path>
                <path d="M3.54958008,46.5544038 C3.06219141,46.0640171 3.06219141,45.2684316 3.54958008,44.7780449 L12.7214121,35.529891 C13.0580918,35.1904466 13.5623145,35.1245662 13.9648359,35.3309444 L12.4617305,33.8154957 C12.0430723,33.3933996 11.3647324,33.3933996 10.9460742,33.8154957 L1.77424219,43.0636496 C1.28685352,43.5540363 1.28685352,44.3496218 1.77424219,44.8400085 L3.49409766,46.5749915 C3.58294922,46.6645726 3.68196094,46.7372821 3.78734766,46.7942244 L3.54958008,46.5544038 Z" id="Path" fill="#4C5574"></path>
                <path d="M35.6004902,18.4727073 L25.5061758,18.4727073 C25.1347324,18.4727073 24.8330156,18.1685128 24.8330156,17.7940192 L24.8330156,15.2199658 C24.8330156,14.8454722 25.1347324,14.5412778 25.5061758,14.5412778 L32.9550645,14.5412778 C33.0320625,14.6136859 33.1069688,14.6871987 33.181875,14.7627201 C34.2644297,15.8541645 35.0699707,17.1203526 35.6004902,18.4727073 Z" id="Path" fill="#FF395E"></path>
                <path d="M33.1402383,14.7627201 C33.0656309,14.6875 32.9899277,14.6139872 32.913627,14.5412778 L25.5060762,14.5412778 C25.3823613,14.5412778 25.2667148,14.5756239 25.1670059,14.6344744 C27.0888691,15.0793675 28.9138125,16.052609 30.4079531,17.5591197 C30.6977168,17.8512628 30.9652676,18.1571645 31.2152871,18.4726068 L35.5581562,18.4726068 C35.0286328,17.1208547 34.2229922,15.8541645 33.1402383,14.7627201 Z" id="Path" fill="#B12E65"></path>
                <path d="M36.1853965,20.5419124 C36.4193789,21.8403376 36.420375,23.1739124 36.1884844,24.4733419 L25.5061758,24.4733419 C25.1347324,24.4733419 24.8330156,24.1691474 24.8330156,23.7946538 L24.8330156,21.2206004 C24.8330156,20.8461068 25.1347324,20.5419124 25.5061758,20.5419124 L36.1853965,20.5419124 Z" id="Path" fill="#F3D064"></path>
                <path d="M36.1438594,20.5419124 L32.5083164,20.5419124 C33.1037813,21.7869103 33.4529121,23.1219915 33.5549121,24.4733419 L36.1474453,24.4733419 C36.3791367,23.1740128 36.3779414,21.8406389 36.1438594,20.5419124 Z" id="Path" fill="#EDBD41"></path>
                <path d="M25.5061758,26.5424466 L35.6076621,26.5424466 C35.0781387,27.9019316 34.2695098,29.1744466 33.1817754,30.2721175 C33.114041,30.3404081 33.0453105,30.4076944 32.9754844,30.4738761 L25.5060762,30.4738761 C25.1346328,30.4738761 24.832916,30.1696816 24.832916,29.795188 L24.832916,27.2211346 C24.8330156,26.846641 25.1347324,26.5424466 25.5061758,26.5424466 Z" id="Path" fill="#C5D65C"></path>
                <path d="M33.1402383,30.2720171 C34.2281719,29.1751496 35.0363027,27.9015299 35.5660254,26.5423462 L33.5185547,26.5423462 C33.3677461,27.9020321 32.965125,29.2377158 32.3121855,30.4737756 L32.9312578,30.4737756 C33.0011836,30.406891 33.071707,30.3411111 33.1402383,30.2720171 Z" id="Path" fill="#A9BD48"></path>
                <path d="M21.0362051,18.2047671 L21.0362051,26.8103868 C21.0362051,27.4053184 20.5579805,27.8873697 19.9679941,27.8873697 L16.0060313,27.8873697 C14.1527988,24.5581026 14.1568828,20.4538376 16.016291,17.1276838 L19.9679941,17.1276838 C20.5579805,17.1277842 21.0362051,17.6098355 21.0362051,18.2047671 Z" id="Path" fill="#EFC343"></path>
                <ellipse id="Oval" fill="#FF395E" cx="4.00200586" cy="4.09201282" rx="4.00200586" ry="4.03486966"></ellipse>
                <ellipse id="Oval" fill="#C5D65C" cx="46.9979941" cy="38.9576774" rx="4.00200586" ry="4.03486966"></ellipse>
                <path d="M3.43761914,4.09201282 C3.43761914,2.48386966 4.37075977,1.09596368 5.72086523,0.447604701 C5.20010742,0.197440171 4.61729297,0.0571431624 4.00200586,0.0571431624 C1.79167383,0.0571431624 0,1.86352991 0,4.09201282 C0,6.32049573 1.79167383,8.12688248 4.00200586,8.12688248 C4.61729297,8.12688248 5.20000781,7.98648504 5.72086523,7.73642094 C4.37085938,7.08806197 3.43761914,5.70005556 3.43761914,4.09201282 Z" id="Path" fill="#B12E65"></path>
                <path d="M46.4336074,38.9574765 C46.4336074,37.3493333 47.366748,35.9614274 48.7168535,35.3130684 C48.1960957,35.0629038 47.6132812,34.9226068 46.9979941,34.9226068 C44.7876621,34.9226068 42.9959883,36.7289936 42.9959883,38.9574765 C42.9959883,41.1859594 44.7876621,42.9923462 46.9979941,42.9923462 C47.6132812,42.9923462 48.1959961,42.8519487 48.7168535,42.6018846 C47.366748,41.9535256 46.4336074,40.5655192 46.4336074,38.9574765 Z" id="Path" fill="#DFDE48"></path>
            </g>
        </g>
    </g>
</svg>