<svg height="47" viewBox="0 0 51 47" width="51" xmlns="http://www.w3.org/2000/svg"><g fill="none" fill-rule="evenodd"><path d="m13.940332 26.0251453h-4.88454489c-.46686914 0-.84658008-.3828291-.84658008-.8535321v-5.1211923c0-.470703.37971094-.853532.84658008-.853532h4.83733009c-.559207 2.2398312-.5438672 4.5955555.0472148 6.8282564z" fill="#f3d064"/><path d="m10.3258066 26.0251453h3.6145254c-.591082-2.2326004-.6064218-4.5884252-.0472148-6.8282564h-3.5673106c-.49515816 2.2466602-.49515816 4.5815961 0 6.8282564z" fill="#edbd41"/><path d="m46.9979941 29.9129893v1.7422137c0 .2048718-.1641562.3703761-.3673593.3703761h-12.794127c.7490625-.7666624 1.3894512-1.6005107 1.9209668-2.4829659h10.8731602c.2032031.0001005.3673593.1657052.3673593.3703761z" fill="#8acaeb"/><path d="m46.9979941 24.4297564v1.7422137c0 .2048718-.1641562.3703761-.3673593.3703761h-9.5340118c.250418-.812156.4227422-1.6439958.5171719-2.4829659h9.0168399c.2032031.0001005.3673593.1656047.3673593.3703761z" fill="#c5d65c"/><path d="m46.9979941 18.9465235v1.7422137c0 .2048718-.1641562.370376-.3673593.370376h-9.0075762c-.08925-.8379658-.2554981-1.6698055-.4997402-2.4829658h9.5073164c.2032031 0 .3673593.1655043.3673593.3703761z" fill="#f3d064"/><path d="m46.9979941 13.4632906v1.7422137c0 .2048718-.1641562.370376-.3673593.370376h-10.8228575c-.5212558-.8814508-1.1513847-1.7152991-1.8891914-2.4829658h12.7120489c.2032031 0 .3673593.1655043.3673593.3703761z" fill="#ff395e"/><path d="m37.9475859 13.0929145h-4.029c.7378067.7676667 1.367836 1.601515 1.8891914 2.4829658h3.6731954c-.4274239-.8632735-.9388184-1.6948119-1.5333868-2.4829658z" fill="#b12e65"/><path d="m40.6025742 18.5761474h-3.4792558c.2442421.8131603.4104902 1.645.4997402 2.4829658h3.4230762c-.0816797-.8358568-.2296993-1.666391-.4435606-2.4829658z" fill="#edbd41"/><path d="m37.6137949 24.0594808c-.0944297.8390705-.2667539 1.6708098-.5171719 2.4829658h3.5323477c.208084-.8169765.350625-1.6475107.4268262-2.4829658z" fill="#dfde48"/><path d="m39.531873 29.5427137h-3.7743984c-.5315156.8824551-1.1719043 1.7164038-1.9209668 2.4829658h4.1885742c.5850059-.7891581 1.0875352-1.6205962 1.506791-2.4829658z" fill="#8bb1ea"/><path d="m15.2581641 30.7738526 2.3253808 2.0455042-3.4116211 3.4382308-2.1828398-2.1878098z" fill="#e2e2e3"/><g fill="#dcdddd" transform="translate(7.371094 3.012821)"><path d="m13.2470508 7.64623718c-.1969278 0-.3939551-.07572222-.544166-.22726709l-5.72624417-5.7732671c-2.61883008-.04007051-5.46676172-.05864957-5.95345313-.01757478-.25310742.06286752-.53151562-.00542308-.72914062-.20467095-.30052149-.30298931-.30052149-.79438034 0-1.09726923.28577929-.28822649.29095898-.29395085 3.81942187-.26552991 1.58757422.01265385 3.18331641.03816239 3.19925391.03836325.1998164.00321367.39066796.08466025.53191406.22716666l5.94667968 5.9954124c.3005215.30298931.3005215.79438034 0 1.09726923-.1503105.15144444-.3473379.22736752-.5442656.22736752z" fill-rule="nonzero"/><path d="m35.6248945 36.6912329h-6.5383593c-.2040997 0-.3999317-.0817479-.5441661-.2272671l-4.4931796-4.5301773c-.3005215-.3029894-.3005215-.7943804 0-1.0972693.3005214-.3029893.7879101-.3030897 1.088332 0l4.267664 4.3028099h6.2196094c.4250332 0 .7695821.3473782.7695821.7759017s-.3444493.7760021-.7694825.7760021z"/><ellipse cx="18.128906" cy="19.598397" rx="13.442684" ry="13.553073"/></g><path d="m27.7185 32.1943974c-5.2498125-5.292923-5.2498125-13.8737371 0-19.1666602 1.0926152-1.1015876 2.326875-1.9731966 3.6434121-2.6162329-5.0083594-2.44661114-11.2100391-1.57500216-15.3672363 2.6162329-5.2498125 5.2929231-5.2498125 13.8737372 0 19.1666602 4.1571972 4.1913355 10.3588769 5.0627436 15.3672363 2.6162329-1.3164375-.6431367-2.5506973-1.5146453-3.6434121-2.6162329z" fill="#bececd"/><path d="m33.1402383 14.7627201c4.2410683 4.2758953 4.2410683 11.2335021 0 15.5093974-4.2410684 4.2758953-11.1420059 4.2758953-15.3830742 0-4.2410684-4.2758953-4.2410684-11.2335021 0-15.5093974 4.2410683-4.2758953 11.1420058-4.2760962 15.3830742 0z" fill="#8acaeb"/><path d="m33.1402383 14.7627201c-4.2410684-4.2758953-11.1420059-4.2758953-15.3830742 0-.4896797.4937008-.9221836 1.023656-1.2988067 1.5806261 4.2421641-3.0113141 10.1585625-2.6063911 13.9497949 1.2158739 3.7513887 3.7821944 4.1838926 9.6621154 1.2988067 13.9287714.5034258-.3573206.9834433-.7622436 1.4333789-1.215874 4.2410683-4.2759957 4.2410683-11.2336025-.0000996-15.5093974z" fill="#8bb1ea"/><path d="m14.4288164 35.7988355c.4186582.4220961.4186582 1.1060064 0 1.5281025l-9.17183202 9.2481539c-.48738868.4903867-1.27649415.4903867-1.76298633 0l-1.71985547-1.7349829c-.48738867-.4903868-.48738867-1.2859722 0-1.776359l9.17183202-9.2481538c.4186582-.4220962 1.0969981-.4220962 1.5156563 0z" fill="#717483"/><path d="m3.54958008 46.5544038c-.48738867-.4903867-.48738867-1.2859722 0-1.7763589l9.17183202-9.2481539c.3366797-.3394444.8409024-.4053248 1.2434238-.1989466l-1.5031054-1.5154487c-.4186582-.4220961-1.0969981-.4220961-1.5156563 0l-9.17183201 9.2481539c-.48738867.4903867-.48738867 1.2859722 0 1.7763589l1.71985547 1.734983c.08885156.0895811.18786328.1622906.29325.2192329z" fill="#4c5574"/><path d="m35.6004902 18.4727073h-10.0943144c-.3714434 0-.6731602-.3041945-.6731602-.6786881v-2.5740534c0-.3744936.3017168-.678688.6731602-.678688h7.4488887c.076998.0724081.1519043.1459209.2268105.2214423 1.0825547 1.0914444 1.8880957 2.3576325 2.4186152 3.7099872z" fill="#ff395e"/><path d="m33.1402383 14.7627201c-.0746074-.0752201-.1503106-.1487329-.2266113-.2214423h-7.4075508c-.1237149 0-.2393614.0343461-.3390703.0931966 1.9218632.4448931 3.7468066 1.4181346 5.2409472 2.9246453.2897637.2921431.5573145.5980448.807334.9134871h4.3428691c-.5295234-1.3517521-1.335164-2.6184423-2.4179179-3.7098867z" fill="#b12e65"/><path d="m36.1853965 20.5419124c.2339824 1.2984252.2349785 2.632.0030879 3.9314295h-10.6823086c-.3714434 0-.6731602-.3041945-.6731602-.6786881v-2.5740534c0-.3744936.3017168-.678688.6731602-.678688z" fill="#f3d064"/><path d="m36.1438594 20.5419124h-3.635543c.5954649 1.2449979.9445957 2.5800791 1.0465957 3.9314295h2.5925332c.2316914-1.2993291.2304961-2.632703-.0035859-3.9314295z" fill="#edbd41"/><path d="m25.5061758 26.5424466h10.1014863c-.5295234 1.359485-1.3381523 2.632-2.4258867 3.7296709-.0677344.0682906-.1364649.1355769-.206291.2017586h-7.4694082c-.3714434 0-.6731602-.3041945-.6731602-.6786881v-2.5740534c.0000996-.3744936.3018164-.678688.6732598-.678688z" fill="#c5d65c"/><path d="m33.1402383 30.2720171c1.0879336-1.0968675 1.8960644-2.3704872 2.4257871-3.7296709h-2.0474707c-.1508086 1.3596859-.5534297 2.6953696-1.2063692 3.9314294h.6190723c.0699258-.0668846.1404492-.1326645.2089805-.2017585z" fill="#a9bd48"/><path d="m21.0362051 18.2047671v8.6056197c0 .5949316-.4782246 1.0769829-1.068211 1.0769829h-3.9619628c-1.8532325-3.3292671-1.8491485-7.4335321.0102597-10.7596859h3.9517031c.5899864.0001004 1.068211.4821517 1.068211 1.0770833z" fill="#efc343"/><ellipse cx="4.002006" cy="4.092013" fill="#ff395e" rx="4.002006" ry="4.03487"/><ellipse cx="46.997994" cy="38.957677" fill="#c5d65c" rx="4.002006" ry="4.03487"/><path d="m3.43761914 4.09201282c0-1.60814316.93314063-2.99604914 2.28324609-3.64440812-.52075781-.25016453-1.10357226-.39046154-1.71885937-.39046154-2.21033203 0-4.00200586 1.80638675-4.00200586 4.03486966s1.79167383 4.03486966 4.00200586 4.03486966c.61528711 0 1.19800195-.14039744 1.71885937-.39046154-1.35000585-.64835897-2.28324609-2.03636538-2.28324609-3.64440812z" fill="#b12e65"/><path d="m46.4336074 38.9574765c0-1.6081432.9331406-2.9960491 2.2832461-3.6444081-.5207578-.2501646-1.1035723-.3904616-1.7188594-.3904616-2.210332 0-4.0020058 1.8063868-4.0020058 4.0348697s1.7916738 4.0348697 4.0020058 4.0348697c.6152871 0 1.198002-.1403975 1.7188594-.3904616-1.3501055-.648359-2.2832461-2.0363654-2.2832461-3.6444081z" fill="#dfde48"/></g></svg>