<?xml version="1.0" encoding="UTF-8"?>
<svg width="1440px" height="168px" viewBox="0 0 1440 168" version="1.1" xmlns="http://www.w3.org/2000/svg" xmlns:xlink="http://www.w3.org/1999/xlink">
    <!-- Generator: Sketch 52.2 (67145) - http://www.bohemiancoding.com/sketch -->
    <title>Group 5</title>
    <desc>Created with Sketch.</desc>
    <g id="Page-1" stroke="none" stroke-width="1" fill="none" fill-rule="evenodd" fill-opacity="0.225996377">
        <g id="offer" transform="translate(0.000000, -19745.000000)" fill="#285487" fill-rule="nonzero">
            <g id="Group-5" transform="translate(-70.000000, 19745.000000)">
                <path d="M65,103.452401 L65,12.3148931 C428.76995,4.08786233 687.536182,34.4670317 841.298694,103.452401 C935.054575,145.515866 676.288344,145.515866 65,103.452401 Z" id="Path-3"></path>
                <path d="M1600,92.4524011 C894.903885,134.515866 596.427616,134.515866 704.571192,92.4524011 C881.929964,23.4670317 1180.40623,-6.91213767 1600,1.31489311 L1600,92.4524011 Z" id="Path-3-Copy-4"></path>
                <path d="M0,136.5 L0,10 C363.912304,10 620.087412,52.1666667 768.525325,136.5 C858.306321,178.5 602.131213,178.5 0,136.5 Z" id="Path-3-Copy-3"></path>
                <path d="M1534,133.5 C808.531478,175.5 499.882842,175.5 608.054093,133.5 C786.897228,49.1666667 1095.54586,7 1534,7 L1534,133.5 Z" id="Path-3-Copy-5"></path>
            </g>
        </g>
    </g>
</svg>