<svg height="53" viewBox="0 0 51 53" width="51" xmlns="http://www.w3.org/2000/svg"><g fill="none" fill-rule="evenodd"><path d="m8.5 35.0818603h30.6v17h-30.6z" fill="#239172"/><path d="m14.45 38.4818603h18.7v.85c0 .9350831.764917 1.7 1.7 1.7h.85v5.1h-.85c-.935083 0-1.7.764917-1.7 1.7v.85h-18.7v-.85c0-.935083-.764917-1.7-1.7-1.7h-.85v-5.1h.85c.935083 0 1.7-.7649169 1.7-1.7z" fill="#2ab793"/><path d="m5.1 12.9818603h13.6c.935083 0 1.7.764917 1.7 1.7v8.5c0 .9350831-.764917 1.7-1.7 1.7h-13.6c-.93508298 0-1.7-.7649169-1.7-1.7v-8.5c0-.935083.76491702-1.7 1.7-1.7z" fill="#e2514d"/><path d="m11.05 16.3818603v5.1l3.4-2.55z" fill="#fff"/><g fill="#239172" transform="translate(45.05 35.025)"><path d="m0 .05686033h1.7v16.99999997h-1.7z"/><path d="m3.4.05686033h1.7v16.99999997h-1.7z"/></g><path d="m5.95 46.9818603c-3.31491702 0-5.95-2.635083-5.95-5.95v-7.65c0-3.3149169 2.63508298-5.95 5.95-5.95h16.15v1.7h-16.15c-2.37983404 0-4.25 1.8701661-4.25 4.25v7.65c0 2.3798341 1.87016596 4.25 4.25 4.25z" fill="#d6d7d8"/><g fill="#fff"><path d="m25.5 43.5818603c0 .9388184-.7611816 1.7-1.7 1.7s-1.7-.7611816-1.7-1.7c0-.9388183.7611816-1.7 1.7-1.7s1.7.7611817 1.7 1.7z"/><path d="m28.05 42.7318603h2.55v1.7h-2.55z"/><path d="m17 42.7318603h2.55v1.7h-2.55z"/></g><path d="m45.9 8.73186032h-1.7v1.69999998h1.7c1.870166 0 3.4 1.5298341 3.4 3.4v10.2c0 1.8701661-1.529834 3.4-3.4 3.4h-3.4v1.7h3.4c2.804834 0 5.1-2.2951659 5.1-5.1v-10.2c0-2.8048339-2.295166-5.09999998-5.1-5.09999998z" fill="#d6d7d8"/><path d="m41.65 35.0818603h1.7v17h-1.7z" fill="#239172"/><path d="m39.6046835 20.3671878v11.4921909c0 .1924992-.0673745.3609357-.202124.5053099-.1347494.1443743-.3079985.2165614-.5197473.2165614h-3.2917331v-5.0242242h1.6747414l.2598737-1.934615h-1.9346151v-1.2416187c0-.3272481.0577497-.5582469.1732491-.6929964.1539991-.1732491.4138728-.2598737.779621-.2598737h1.0394947v-1.7613659c-.4042479-.0384997-.9047452-.0577497-1.5014923-.0577497-.7507461 0-1.357118.221374-1.8191156.6641216-.4619977.4427476-.6929965 1.0779943-.6929965 1.9057402v1.4437426h-1.6747414v1.934615h1.6747414v5.0242242h-6.1792182c-.2117488 0-.3849979-.0721871-.5197473-.2165614-.1347495-.1443742-.202124-.3128107-.202124-.5053099v-11.4921909c0-.2117488.0673745-.3849979.202124-.5197473.1347494-.1347495.3079985-.202124.5197473-.202124h11.4921909c.1924992 0 .3609357.0673745.5053099.202124.1443743.1347494.2165614.3079985.2165614.5197473z" fill="#0067b1"/><path d="m40.3073201 3.31426458c.0208986.08327838.0313477.21860533.0313477.40598133 0 1.49900799-.3657227 2.94596693-1.0971677 4.34087729-.7523435 1.47818827-1.8077145 2.6544933-3.1661124 3.5289146-1.4837884.978519-3.1870109 1.4677787-5.1096665 1.4677787-1.8390621 0-3.5213855-.4892597-5.0469712-1.4677787.2298826.0208198.4911133.0312294.7836912.0312294 1.5255856 0 2.8944326-.46844 4.1065418-1.40532-.731445 0-1.3740717-.2134003-1.9278803-.64020134-.5538086-.42680105-.9352047-.96290428-1.1441892-1.60831066.2089845.02081972.4075195.03122934.5956053.03122934.2925779 0 .5851563-.03122934.8777342-.093688-.7523436-.16655629-1.3792965-.55171838-1.8808589-1.15548532-.5015623-.60376695-.7523435-1.29081228-.7523435-2.06113599v-.06245866c.4597656.27065438.9508785.41639095 1.4733394.43721066-.438867-.31229333-.7941402-.70786504-1.06582-1.18671465-.2716798-.47884962-.4075194-1.00454371-.4075194-1.57708132 0-.57253762.1567382-1.11905094.4702147-1.63953999.8150388 1.02015837 1.8129388 1.83212103 2.9937003 2.43588798 1.1807616.60376695 2.4398918.93687999 3.7773915.99933866-.0417967-.24983467-.0626953-.49966933-.0626953-.749504 0-.58294771.1462892-1.12946103.4388671-1.63953998s.6896482-.91085571 1.1912106-1.20232932c.5015624-.29147362 1.0449214-.43721067 1.6300777-.43721067.4806637 0 .9247556.093688 1.332275.281064s.7680173.43721067 1.0814938.74950399c.7523435-.14573704 1.4524408-.40598132 2.1002924-.78073332-.2507812.77032371-.731445 1.37409065-1.4419918 1.81130132.6269529-.08327838 1.2539059-.26024429 1.8808588-.53089867-.4597656.66622562-1.0135737 1.23876371-1.6614253 1.71761332z" fill="#0093e2"/></g></svg>