<svg height="51" viewBox="0 0 51 51" width="51" xmlns="http://www.w3.org/2000/svg"><g fill="none" fill-rule="evenodd"><path d="m45.0234375 37.5527344v5.9765625c0 .8366191-.6573223 1.4941406-1.4941406 1.4941406-.8368184 0-1.4941407-.6575215-1.4941407-1.4941406v-5.9765625c0-.8368184-.6573222-1.4941406-1.4941406-1.4941406h-13.546875v7.4707031c0 .8366191-.6573222 1.4941406-1.4941406 1.4941406s-1.4941406-.6575215-1.4941406-1.4941406v-7.4707031h-13.546875c-.83681838 0-1.49414065.6573222-1.49414065 1.4941406v5.9765625c0 .8366191-.65732227 1.4941406-1.49414063 1.4941406-.83681835 0-1.49414062-.6575215-1.49414062-1.4941406v-5.9765625c0-2.4803731 2.00204883-4.4824219 4.4824219-4.4824219h13.546875v-4.6816406c0-.8368184.6573222-1.4941407 1.4941406-1.4941407s1.4941406.6573223 1.4941406 1.4941407v4.6816406h13.546875c2.4803731 0 4.4824219 2.0020488 4.4824219 4.4824219z" fill="#65b1fc"/><path d="m45.0234375 37.5527344v5.9765625c0 .8366191-.6573223 1.4941406-1.4941406 1.4941406-.8368184 0-1.4941407-.6575215-1.4941407-1.4941406v-5.9765625c0-.8368184-.6573222-1.4941406-1.4941406-1.4941406h-13.546875v7.4707031c0 .8366191-.6573222 1.4941406-1.4941406 1.4941406v-18.1289063c.8368184 0 1.4941406.6573223 1.4941406 1.4941407v4.6816406h13.546875c2.4803731 0 4.4824219 2.0020488 4.4824219 4.4824219z" fill="#1689fc"/><g fill="#00c8c8" transform="translate(0 42.035156)"><path d="m10.4589844 8.96484375h-5.97656252c-2.47170704 0-4.48242188-2.01071484-4.48242188-4.48242187 0-2.47170704 2.01071484-4.48242188 4.48242188-4.48242188h5.97656252c2.471707 0 4.4824218 2.01071484 4.4824218 4.48242188 0 2.47170703-2.0107148 4.48242187-4.4824218 4.48242187z"/><path d="m28.4882812 0h-5.9765624c-2.4803731 0-4.4824219 2.00204883-4.4824219 4.48242188 0 2.48017382 2.0020488 4.48242187 4.4824219 4.48242187h5.9765624c2.4803731 0 4.4824219-2.00224805 4.4824219-4.48242187 0-2.48037305-2.0020488-4.48242188-4.4824219-4.48242188z"/></g><g fill="#00a1b2" transform="translate(25.5 42.035156)"><path d="m21.0175781 8.96484375h-5.9765625c-2.471707 0-4.4824218-2.01071484-4.4824218-4.48242187 0-2.47170704 2.0107148-4.48242188 4.4824218-4.48242188h5.9765625c2.4717071 0 4.4824219 2.01071484 4.4824219 4.48242188 0 2.47170703-2.0107148 4.48242187-4.4824219 4.48242187z"/><path d="m7.47070312 4.48242188c0 2.48017382-2.00204882 4.48242187-4.48242187 4.48242187h-2.98828125v-8.96484375h2.98828125c2.48037305 0 4.48242187 2.00204883 4.48242187 4.48242188z"/></g><path d="m40.4414062 4.48242188v14.94140622h-29.8828124v-14.94140622c0-1.64355469 1.3447265-2.98828126 2.9882812-2.98828126h23.90625c1.6435547 0 2.9882812 1.34472657 2.9882812 2.98828126z" fill="#e1f1fa"/><g fill="#0053bf" transform="translate(9.064453)"><path d="m23.7568359 27.7311504-2.9882812-5.9765625c-.2689453-.5079082-.7769531-.8366191-1.3447266-.8366191h-5.9765625c-.5677734 0-1.0757812.3287109-1.3447265.8366191l-2.98828129 5.9765625c-.11943164.2690449-.17929687.5378906-.11943164.8368184h14.88154103c.0597656-.2989278 0-.5677735-.1195313-.8368184z"/><path d="m28.3886719 0h-23.90625002c-2.48037305 0-4.48242188 2.00204883-4.48242188 4.48242188v13.44726562l3.8547832 2.9882813h25.0417969l3.9745137-2.9882813v-13.44726562c0-2.48037305-2.0020489-4.48242188-4.4824219-4.48242188zm1.4941406 17.9296875h-26.89453125v-13.44726562c0-.83681836.65732227-1.49414063 1.49414063-1.49414063h23.90625002c.8368183 0 1.4941406.65732227 1.4941406 1.49414063z" fill-rule="nonzero"/></g><path d="m32.9408203 28.5679688h-7.4408203v-7.65h2.9882812c.5677735 0 1.0757813.3287109 1.3447266.8366191l2.9882813 5.9765625c.1195312.2690449.1792968.5378906.1195312.8368184z" fill="#05377f"/><path d="m40.4414062 4.48242188v14.94140622h-14.9414062v-17.92968748h11.953125c1.6435547 0 2.9882812 1.34472657 2.9882812 2.98828126z" fill="#bfe1ff"/><path d="m41.9355469 4.48242188v13.44726562l-3.9745137 2.9882813h-12.4610332v-2.9882813h13.4472656v-13.44726562c0-.83681836-.6573222-1.49414063-1.4941406-1.49414063h-11.953125v-2.98828125h11.953125c2.480373 0 4.4824219 2.00204883 4.4824219 4.48242188z" fill="#05377f"/><g fill="#2864f0" transform="translate(9.064453 17.929688)"><path d="m0 0v1.49414062c0 2.48017383 2.00204883 4.48242188 4.48242188 4.48242188h23.90625002c2.480373 0 4.4824219-2.00224805 4.4824219-4.48242188v-1.49414062z"/><path d="m26.8945312 10.4589844c0 .8366191-.6573222 1.4941406-1.4941406 1.4941406h-17.92968748c-.83681835 0-1.49414062-.6575215-1.49414062-1.4941406 0-.83681838.65732227-1.49414065 1.49414062-1.49414065h17.92968748c.8368184 0 1.4941406.65732227 1.4941406 1.49414065z"/></g><g fill="#0053bf" transform="translate(25.5 17.929688)"><path d="m11.953125 5.9765625h-11.953125v-5.9765625h16.4355469v1.49414062c0 2.48017383-2.0020489 4.48242188-4.4824219 4.48242188z"/><path d="m10.4589844 10.4589844c0 .8366191-.65732229 1.4941406-1.49414065 1.4941406h-8.96484375v-2.98828125h8.96484375c.83681836 0 1.49414065.65732227 1.49414065 1.49414065z"/></g></g></svg>