<svg height="51" viewBox="0 0 51 51" width="51" xmlns="http://www.w3.org/2000/svg"><g fill="none" fill-rule="evenodd"><path d="m28.445947 18.7h-.718539c1.0723129-.9297968 1.4542658-2.427852.9580518-3.7575696-.4962141-1.3297175-1.7661893-2.2113186-3.1854768-2.2113186s-2.6892627.8816011-3.1854768 2.2113186c-.496214 1.3297176-.1142611 2.8277728.9580518 3.7575696h-.718539c-2.597957 0-3.854019 2.106062-3.854019 4.704053v7.195947h2.55v12.75h8.5v-12.75h2.55v-7.195947c0-2.597991-1.256062-4.704053-3.854053-4.704053z" fill="#0053bf"/><path d="m24.65 31.45h1.7v11.9h-1.7z" fill="#05377f"/><circle cx="45.05" cy="5.95" fill="#c0c0c0" r="5.95"/><circle cx="5.95" cy="5.95" fill="#ffd700" r="5.95"/><path d="m.85 5.95c.00131883-3.11954302 2.41328435-5.70766737 5.525-5.9285205-.1409555-.010013-.281503-.0214795-.425-.0214795-3.28609423.00000005-5.94999991 2.66390577-5.94999991 5.95s2.66390568 5.95 5.94999991 5.95c.143497 0 .2840445-.0114665.425-.0214795-3.11170796-.2208692-5.52366456-2.80898402-5.525-5.9285205z" fill="#c9a200"/><path d="m13.6 24.65h3.4v1.7h-3.4z" fill="#6c747f"/><path d="m34 24.65h3.4v1.7h-3.4z" fill="#6c747f"/><path d="m45.05 0c-.143497 0-.2840445.0114665-.425.0214795 3.1123083.21959792 5.5249556 2.80847464 5.5249556 5.9285205s-2.4126473 5.7089226-5.5249556 5.9285205c.1409555.010013.281503.0214795.425.0214795 3.2860942 0 5.9499999-2.66390577 5.9499999-5.95s-2.6639057-5.94999995-5.9499999-5.95z" fill="#929499"/><circle cx="45.05" cy="45.05" fill="#c0c0c0" r="5.95"/><circle cx="5.95" cy="25.5" fill="#c0c0c0" r="5.95"/><circle cx="45.05" cy="25.5" fill="#ffd700" r="5.95"/><circle cx="5.95" cy="45.05" fill="#ffd700" r="5.95"/><path d="m28.876948 22.1h.85v8.5h-.85z" fill="#05377f"/><path d="m21.273052 22.1h.85v8.5h-.85z" fill="#05377f"/><g fill="#7c7c7c" transform="translate(4.25 1.7)"><path d="m39.95 8.5c-1.4076892-.00153655-2.5484634-1.14231084-2.55-2.55h1.7c0 .46944204.380558.85.85.85s.85-.38055796.85-.85c0-.4743935-.144432-.5910135-1.1040055-.890256-.858296-.267699-2.2959945-.71553-2.2959945-2.509744 0-1.40832611 1.1416739-2.55 2.55-2.55s2.55 1.14167389 2.55 2.55h-1.7c0-.46944204-.380558-.85-.85-.85s-.85.38055796-.85.85c0 .472311.144432.588523 1.102348.886941.859129.2681155 2.297652.7163545 2.297652 2.513059-.0015366 1.40768916-1.1423108 2.54846345-2.55 2.55z"/><path d="m39.95 28.05c-1.4076892-.0015366-2.5484634-1.1423108-2.55-2.55h1.7c0 .469442.380558.85.85.85s.85-.380558.85-.85c0-.4743935-.144432-.5910135-1.1040055-.890256-.858296-.267699-2.2959945-.71553-2.2959945-2.509744 0-1.4083261 1.1416739-2.55 2.55-2.55s2.55 1.1416739 2.55 2.55h-1.7c0-.469442-.380558-.85-.85-.85s-.85.380558-.85.85c0 .472311.144432.588523 1.102348.886941.859129.2681155 2.297652.7163545 2.297652 2.513059-.0015366 1.4076892-1.1423108 2.5484634-2.55 2.55z"/><path d="m2.55 28.05c-1.40768916-.0015366-2.54846345-1.1423108-2.55-2.55h1.7c0 .469442.38055796.85.85.85s.85-.380558.85-.85c0-.4743935-.144432-.5910135-1.1040055-.890256-.858296-.267699-2.2959945-.71553-2.2959945-2.509744 0-1.4083261 1.14167389-2.55 2.55-2.55s2.55 1.1416739 2.55 2.55h-1.7c0-.469442-.38055796-.85-.85-.85s-.85.380558-.85.85c0 .472311.144432.588523 1.102348.886941.859129.2681155 2.297652.7163545 2.297652 2.513059-.00153655 1.4076892-1.14231084 2.5484634-2.55 2.55z"/><path d="m39.95 47.6c-1.4076892-.0015366-2.5484634-1.1423108-2.55-2.55h1.7c0 .469442.380558.85.85.85s.85-.380558.85-.85c0-.4743935-.144432-.5910135-1.1040055-.890256-.858296-.267699-2.2959945-.71553-2.2959945-2.509744 0-1.4083261 1.1416739-2.55 2.55-2.55s2.55 1.1416739 2.55 2.55h-1.7c0-.469442-.380558-.85-.85-.85s-.85.380558-.85.85c0 .472311.144432.588523 1.102348.886941.859129.2681155 2.297652.7163545 2.297652 2.513059-.0015366 1.4076892-1.1423108 2.5484634-2.55 2.55z"/><path d="m2.55 47.6c-1.40768916-.0015366-2.54846345-1.1423108-2.55-2.55h1.7c0 .469442.38055796.85.85.85s.85-.380558.85-.85c0-.4743935-.144432-.5910135-1.1040055-.890256-.858296-.267699-2.2959945-.71553-2.2959945-2.509744 0-1.4083261 1.14167389-2.55 2.55-2.55s2.55 1.1416739 2.55 2.55h-1.7c0-.469442-.38055796-.85-.85-.85s-.85.380558-.85.85c0 .472311.144432.588523 1.102348.886941.859129.2681155 2.297652.7163545 2.297652 2.513059-.00153655 1.4076892-1.14231084 2.5484634-2.55 2.55z"/><path d="m2.55 8.5c-1.40768916-.00153655-2.54846345-1.14231084-2.55-2.55h1.7c0 .46944204.38055796.85.85.85s.85-.38055796.85-.85c0-.4743935-.144432-.5910135-1.1040055-.890256-.858296-.267699-2.2959945-.71553-2.2959945-2.509744 0-1.40832611 1.14167389-2.55 2.55-2.55s2.55 1.14167389 2.55 2.55h-1.7c0-.46944204-.38055796-.85-.85-.85s-.85.38055796-.85.85c0 .472311.144432.588523 1.102348.886941.859129.2681155 2.297652.7163545 2.297652 2.513059-.00153655 1.40768916-1.14231084 2.54846345-2.55 2.55z"/></g><g fill="#6c747f"><path d="m33.5019 19.0519-1.2019-1.2019 7.04905-7.1519 1.2019 1.2019z"/><path d="m17.4981 19.0519 1.2019-1.2019-7.04905-7.1519-1.2019 1.2019z"/><path d="m35.2746208 32.8824979h1.700662v9.0356226h-1.700662z" transform="matrix(.75258041 -.65850036 .65850036 .75258041 -15.690096 33.041863)"/><path d="m9.93219124 36.125253h9.03562756v1.69949h-9.03562756z" transform="matrix(.75266743 -.6584009 .6584009 .75266743 -20.770415 18.659018)"/></g><path d="m.85 45.05c.00131883-3.119543 2.41328435-5.7076674 5.525-5.9285205-.1409555-.010013-.281503-.0214795-.425-.0214795-3.28609419.0000001-5.94999982 2.6639058-5.94999982 5.95s2.66390563 5.9499999 5.94999982 5.95c.143497 0 .2840445-.0114665.425-.0214795-3.11170796-.2208692-5.52366456-2.808984-5.525-5.9285205z" fill="#c9a200"/><path d="m50.15 25.5c-.0013188 3.119543-2.4132843 5.7076674-5.525 5.9285205.1409555.010013.281503.0214795.425.0214795 3.2860943 0 5.95-2.6639057 5.95-5.95s-2.6639057-5.95-5.95-5.95c-.143497 0-.2840445.0114665-.425.0214795 3.111708.2208692 5.5236646 2.808984 5.525 5.9285205z" fill="#c9a200"/><path d="m45.05 39.1c-.143497 0-.2840445.0114665-.425.0214795 3.1123083.2195979 5.5249556 2.8084746 5.5249556 5.9285205s-2.4126473 5.7089226-5.5249556 5.9285205c.1409555.010013.281503.0214795.425.0214795 3.2860943 0 5.95-2.6639057 5.95-5.95s-2.6639057-5.95-5.95-5.95z" fill="#929499"/><path d="m5.95 31.45c.143497 0 .2840445-.0114665.425-.0214795-3.1123083-.2195979-5.52495558-2.8084746-5.52495558-5.9285205s2.41264728-5.7089226 5.52495558-5.9285205c-.1409555-.010013-.281503-.0214795-.425-.0214795-3.28609421.0000001-5.94999987 2.6639058-5.94999987 5.95s2.66390566 5.9499999 5.94999987 5.95z" fill="#929499"/></g></svg>