<svg height="54" viewBox="0 0 51 54" width="51" xmlns="http://www.w3.org/2000/svg"><g fill="none" fill-rule="evenodd"><path d="m42.1709677 38.6064516v-16.6709677c0-.4845515.392868-.8774194.8774194-.8774194h2.6322581v3.5096774l5.2645161-6.1419354-5.2645161-6.1419355v3.5096774h-6.1419355c-1.9382057 0-3.5096774 1.5714718-3.5096774 3.5096774v19.3032258" fill="#57b7eb"/><path d="m50.1907006 19.3032258h-5.3874748c-2.7217994.0008568-5.3532006-.9772429-7.4143649-2.7552168-.8525706.6606352-1.3538306 1.676865-1.3598286 2.7552168v19.3032258h6.1419354v-16.6709677c0-.4845515.392868-.8774194.8774194-.8774194h2.6322581v3.5096774z" fill="#4891d3"/><path d="m8.82903226 38.6064516v-16.6709677c0-.4845515-.39286792-.8774194-.87741936-.8774194h-2.63225806v3.5096774l-5.26451613-6.1419354 5.26451613-6.1419355v3.5096774h6.14193546c1.9382057 0 3.5096774 1.5714718 3.5096774 3.5096774v19.3032258" fill="#57b7eb"/><path d="m1.80967742 16.3989163-1.75483871 2.0268902 5.26451613 6.1419354v-3.5096774h2.63225806c.48455144 0 .87741936.3928679.87741936.8774194v16.6709677h6.14193544v-19.3032258h-5.26451609c-2.89317033-.0012853-5.69208675-1.0307964-7.89677419-2.9043095z" fill="#4891d3"/><path d="m39.5979933 39.483871c0 7.7860912-6.311902 14.0979933-14.0979933 14.0979933s-14.0979933-6.3119021-14.0979933-14.0979933c0-7.7860913 6.311902-14.0979934 14.0979933-14.0979934s14.0979933 6.3119021 14.0979933 14.0979934z" fill="#f9e109"/><path d="m31.6419355 48.2580645c-4.4625-.0017137-8.6199597-2.2646674-11.0444305-6.0108367-2.4244708-3.7465978-2.7852066-8.4661542-.9588205-12.5379284-3.71875 2.1905493-5.8827369 6.2923135-5.5914063 10.5984375.2913307 4.3056955 2.9882813 8.0788558 6.9679436 9.7484375 3.9800908 1.6695817 8.5612651.9498236 11.8374495-1.859375-.3945816.0612651-.7981602.0612651-1.2107358.0612651z" fill="#fcbc04"/><path d="m35.2601492 39.483871c0 5.3905338-4.3696154 9.7601492-9.7601492 9.7601492s-9.7601492-4.3696154-9.7601492-9.7601492 4.3696154-9.7601493 9.7601492-9.7601493 9.7601492 4.3696155 9.7601492 9.7601493z" fill="#e59730"/><path d="m25.5 38.3994099c-1.1977788 0-2.168922-.9711432-2.168922-2.168922s.9711432-2.1689221 2.168922-2.1689221 2.168922.9711433 2.168922 2.1689221c0 .5988894.4855717 1.084461 1.0844611 1.084461s1.084461-.4855716 1.084461-1.084461c-.0063543-1.972999-1.3433972-3.6928864-3.2533831-4.1858713v-2.3208949c0-.5988894-.4855716-1.084461-1.084461-1.084461s-1.084461.4855716-1.084461 1.084461v2.3208949c-2.0884347.5671181-3.4397748 2.5867149-3.1665415 4.733397.2732334 2.1472116 2.0868461 3.7643718 4.2510025 3.7903184 1.1977788 0 2.168922.9711432 2.168922 2.168922s-.9711432 2.1689221-2.168922 2.1689221-2.168922-.9711433-2.168922-2.1689221c0-.5988894-.4855717-1.084461-1.0844611-1.084461s-1.084461.4855716-1.084461 1.084461c.0063543 1.972999 1.3433972 3.6928864 3.2533831 4.1858713v2.3208949c0 .5988894.4855716 1.084461 1.084461 1.084461s1.084461-.4855716 1.084461-1.084461v-2.3208949c2.0884347-.5671181 3.4397748-2.5867149 3.1665415-4.7333969-.2732334-2.1472117-2.0868461-3.7643719-4.2510025-3.7903185z" fill="#f9e109"/><path d="m16.2548387 22.8129032v-14.03870965h5.2645161l-10.5290322-8.77419355-10.52903228 8.77419355h5.26451613v14.03870965" fill="#4891d3" transform="translate(14.509677)"/><path d="m30.7645161 20.6017893v-11.82759575h5.2645162l-10.5290323-8.77419355v10.5290323c.0025706 4.016507 1.968624 7.7776713 5.2645161 10.072757z" fill="#57b7eb"/></g></svg>