<svg height="66" viewBox="0 0 66 66" width="66" xmlns="http://www.w3.org/2000/svg"><g fill="none" fill-rule="evenodd"><g transform="matrix(-1 0 0 1 66 0)"><path d="m65.7661995 33.1263787c0-18.1441865-14.7079505-32.85340076-32.852137-32.85340076-8.0225184 0-15.3727022 2.87637868-21.0774355 7.65349265l-7.700253-2.47070321v11.81261502c-2.59581785 4.7012867-4.07571224 10.1065026-4.07571224 15.8579963 0 18.1441865 14.70921424 32.852137 32.85340074 32.852137 18.1429228 0 32.852137-14.7079505 32.852137-32.852137z" fill="#ffdb2d"/><path d="m65.7649358 33.1263787c0 18.1454502-14.7066868 32.852137-32.8508733 32.852137v-65.70680146c18.1441865 0 32.8508733 14.71047796 32.8508733 32.85466446z" fill="#ffec97"/></g><path d="m40.1231509 32.941212c1.0151255.1884576 1.9479437.5253964 2.7996469 1.0108172.8517036.4865626 1.5793492 1.0987636 2.1853231 1.8343186.6059738.736697 1.0723829 1.5841844 1.40042 2.5401773.326844.955993.4914591 1.9828004.4914591 3.0792798 0 1.4745365-.31253 2.798307-.9340109 3.974738-.6226738 1.1752888-1.5149348 2.1781108-2.6767822 3.0096077-1.1618473.8303548-2.5622673 1.4733941-4.1988739 1.9279763-1.6377993.454582-3.471228.6818731-5.5002863.6818731-4.9778127 0-8.8736998-1.3957268-11.6900467-4.1848965l4.2239242-5.3613275c.8839106.8783257 1.8906861 1.5442086 3.0203261 1.9987905 1.1296403.454582 2.4811528.6818731 4.0521521.6818731 3.7002575 0 5.5503864-1.300927 5.5503864-3.9027814 0-1.4117173-.5487165-2.4773582-1.6449567-3.1992072-1.0986257-.7207068-2.824697-1.0816313-5.1817921-1.0816313h-1.4731842v-5.4070141h1.6199063c1.8334287 0 3.2660561-.3609248 4.2978815-1.0816314 1.0318255-.7207069 1.5471419-1.6766998 1.5471419-2.8691212 0-1.0348026-.3769444-1.8171863-1.1296403-2.35172-.7538888-.5322493-1.7523141-.7983742-2.9964692-.7983742-1.3431623 0-2.5622673.3049584-3.6585075.9160174-1.097433.6110589-2.0219007 1.4813893-2.7757894 2.6098494l-4.95992-5.4549852c.5236665-.6578877 1.2107549-1.2700887 2.0624585-1.8331765.8505104-.5642302 1.8179212-1.0427976 2.8974615-1.4345606 1.0807327-.3917631 2.2425804-.6978636 3.4879282-.9171595 1.2441547-.2192959 2.5205171-.3289438 3.8302793-.3289438 1.7356142 0 3.3233135.1964526 4.7642906.5870735 1.4409772.3929051 2.6684321.957135 3.6835576 1.6938321 1.0151256.7366973 1.8012213 1.615023 2.3582879 2.6326927.5558738 1.0199546.8338106 2.1564096.8338106 3.409366 0 .9411449-.1550719 1.8343186-.4664091 2.6806639-.3113369.8474871-.7443458 1.6150227-1.3014121 2.304891-.5570666.6898683-1.2202978 1.2620935-1.9885009 1.7166757-.7693958.4534399-1.6139424.7595404-2.5300603.9160171z" fill="#57555c"/><path d="m45.5159448 38.3291003c-.3238812-.9571993-.785559-1.8024593-1.3838558-2.5392059-.5971191-.7367465-1.3167239-1.3478465-2.1576372-1.8367264-.842091-.4854532-1.7619134-.8201302-2.7630004-1.0086005.9033337-.155345 1.7360028-.4637505 2.4956512-.9172208.7596487-.455755 1.4144774-1.0280185 1.9656642-1.7190754.5488312-.6864881.9763544-1.4563597 1.2837469-2.3027615.3062149-.84526.4605002-1.7407784.4605002-2.6819865 0-1.2518981-.2755933-2.3895717-.823247-3.4073101-.5488312-1.0200228-1.3261459-1.89955-2.3272332-2.6351543-1.0034427-.7367466-2.2165246-1.3021569-3.6368907-1.6916616-1.4238992-.3929315-2.9903063-.5893973-4.7039317-.5893973-.3085705 0-.6183184.0057111-.9257113.0217027v6.4228312h.0506433c1.2295706 0 2.2141692.267285 2.9596846.7984278.7431601.532285 1.1141513 1.3158638 1.1141513 2.3518781 0 1.1925015-.5087878 2.1474165-1.5275412 2.8681715-.686628.4854534-1.5499187.8098504-2.596938.9651954v5.6095547c1.4344991.1416378 2.5427614.475173 3.3259648.99832 1.0823519.7207553 1.6229391 1.78761 1.6229391 3.19828 0 2.4740981-1.6488494 3.7728281-4.9489039 3.8927636v6.872875c1.9468203-.0079958 3.711089-.2341597 5.2892734-.6796343 1.6170501-.4523284 2.9985506-1.0965531 4.1468562-1.9258215 1.1471283-.832695 2.0280849-1.8355843 2.6405147-3.0120943.6159628-1.1753678.9233557-2.4992273.9233557-3.9727207 0-1.0965531-.1637073-2.1245717-.4840552-3.0806289z" fill="#171719"/></g></svg>