<svg height="59" viewBox="0 0 51 59" width="51" xmlns="http://www.w3.org/2000/svg"><g fill="none" fill-rule="evenodd"><path d="m8.00440136 51.9675293h-.00880272s0 .1461182.00880272 0z" stroke="#000" stroke-linecap="round" stroke-linejoin="round" stroke-width="15"/><path d="m29.7240073 3.34332642c-4.9117421-2.19269951-10.3457487-1.10948371-11.5726977-.81964664-.1284831.03027483-.1907514.17764208-.1245365.29339881l1.7110631 2.99676359c20.0499584 3.83689021 13.2210538 32.18615782 13.2210538 32.18615782s3.2467226-3.9980593 6.704368-3.1548161c2.5850119.6299838 6.4360002-24.1931558-9.9392507-31.50185748z" fill="#aebcc4"/><path d="m36.8638798 51.4915386c-4.0918404-2.7263036-4.0517075-6.7284199-4.0517075-6.7284199v-6.0513768s12.5810498-19.0664362-5.869344-32.90800985l-2.9176263-5.47206489c-.109179-.20430699-.3184747-.33166716-.5458951-.33166716h-.6175305c-.3538609 0-.6360865.30159589-.6218458.6637764l.2071381 5.13995565s-5.1762945.78804097-6.0725983 2.15406729c-4.2290693 6.44760846-7.9152643 9.30702106-9.42780387 10.30158006-.46735534.3073449-.77374704.8145745-.83718311 1.3801775l-.42376995 3.7867538c-.05825762.5196118.36292316.9636034.8712745.918939l1.91645884-.1689291c.40952935-.0362623.78022014.2489714.86091772.6620075l.08328685.4254183c.07336135.3772161.39097309.6527209.76597932.6646609l2.2077468.0725245c.3003502.0097289.5804182-.1516824.7284356-.4196694.7133319-1.2908484 3.0186062-4.9807554 5.8818587-4.6097305 2.2595314.2923093 3.4449654 1.7949823 3.4449654 1.7949823s-14.35769038 9.7841796-14.35769038 18.7661669v3.2304376s.37500622 3.0973285-3.08894682 6.7589333v4.477948h32l-.0001859-4.477948z" fill="#4f6877"/><path d="m37.8616682 51.4915386c-4.1583225-2.7263036-4.1175375-6.7284199-4.1175375-6.7284199v-6.0513768s12.7854601-19.0664362-5.964706-32.90800985l-2.9650303-5.47206489c-.1109529-.20430699-.3236492-.33166716-.5547646-.33166716h-.6275638c-.3591717 0-.6464213.30159589-.6315106.6637764l.210065 5.13995565c14.0875121 7.46339415 8.9713986 23.27020605 6.0225945 29.89160815-.9845426 2.211114-1.4985222 4.604866-1.4985222 7.0286891v2.0390894s-.040785 4.0021163 4.1175373 6.7284199l.1385816.0305134v4.477948h6.0089994v-4.477948z" fill="#3c5666"/><path d="m40 55h-38l1.57039532-3.8581228c.28050536-.6888907.97111398-1.1418772 1.74043804-1.1418772h31.37876814c.7688892 0 1.4594978.4529865 1.7400032 1.1418772z" fill="#cdd6df"/><path d="m40.0662365 57h-38.13247304c-1.06816579 0-1.93376346-.8952467-1.93376346-2 0-1.1043027.86559767-2 1.93376346-2h38.13247304c1.0681658 0 1.9337635.8956973 1.9337635 2 0 1.1047533-.8655977 2-1.9337635 2z" fill="#3c5666"/><path d="m32.3871273 45h-24.77425461c-.89080592 0-1.61287269-.8953798-1.61287269-2.0000001 0-1.1040892.72206677-1.9999999 1.61287269-1.9999999h24.77425461c.8908059 0 1.6128727.8953796 1.6128727 1.9999999s-.7220668 2.0000001-1.6128727 2.0000001z" fill="#cdd6df"/><path d="m27 45h5.4970353c.8301026 0 1.5029647-.8953798 1.5029647-2.0000001s-.6728621-1.9999999-1.5029647-1.9999999h-5.4970353z" fill="#aebcc4"/><path d="m16.9514189 14c-.5252525 0-.9514189-.4256854-.9514189-.951419 0-.5252524.4261664-.9514189.9514189-.9514189.6320347 0 1.1457432-.5137085 1.1457432-1.1457432 0-.5257335.4261664-.9514189.9514189-.9514189.5257335 0 .951419.4256854.951419.9514189 0 1.6810967-1.3674844 3.0485811-3.0485811 3.0485811z" fill="#cdd6df"/><path d="m51 45.5c0 6.3511756-5.1488243 11.5-11.4999999 11.5s-11.5000001-5.1488244-11.5000001-11.5 5.1488245-11.5 11.5000001-11.5 11.4999999 5.1488244 11.4999999 11.5z" fill="#ee5646"/><path d="m39.8971558 34c-1.0023193 0-1.9734497.1385116-2.8971558.3965059 4.7266236 1.3200639 8.2052613 5.7904915 8.2052613 11.1034941 0 5.3130027-3.4786377 9.7838727-8.2052613 11.1039366.9237061.2575519 1.8948365.3960634 2.8971558.3960634 6.131836 0 11.1028442-5.1483818 11.1028442-11.5 0-6.3511756-4.9710082-11.5-11.1028442-11.5z" fill="#d83e3a"/><path d="m48 46.4999999c0 4.6945251-3.8058229 8.5000001-8.5002241 8.5000001-4.6944013 0-8.4997759-3.805475-8.4997759-8.5000001 0-4.6945249 3.8053746-8.4999999 8.4997759-8.4999999 4.6944012 0 8.5002241 3.805475 8.5002241 8.4999999z" fill="#fcea68"/><path d="m40.2212062 38c-1.1376316 0-2.2234055.2116145-3.2212062.5931483 3.2536173 1.2441321 5.5571247 4.3138879 5.5571247 7.9068516 0 3.5929639-2.3035074 6.6627196-5.5571247 7.9068517.9973377.3815339 2.0835746.5931484 3.2212062.5931484 4.8482463 0 8.7787938-3.805475 8.7787938-8.5000001 0-4.6945249-3.9305475-8.4999999-8.7787938-8.4999999z" fill="#fed066"/><path d="m39.7795993 50.2749864c-1.6571039-.0265138-2.7795993-.9252379-2.7795993-1.5825956 0-.3218219.28051-.7647842.6147542-.7647842.4412568 0 .8019125.938952 2.1648451 1.0463784v-3.1523917c-1.2026412-.4292482-2.5391621-.911981-2.5391621-2.6289739 0-1.6904792 1.269581-2.3610939 2.5391621-2.495034v-.3890205c0-.1609109.1602914-.3085649.3875228-.3085649.2003643 0 .4007286.147654.4007286.3085649v.3620496c.9089253.0269709 2.1917121.3085651 2.1917121.9659229 0 .2550804-.1871583.7647841-.5878869.7647841-.3210384 0-.6684883-.4292483-1.6038252-.4964468v2.7231434c1.1625682.4292483 2.4321493 1.0194073 2.4321493 2.8438266 0 1.6497942-.989071 2.5622324-2.4321493 2.7633711v.4557619c0 .160911-.2003643.3090223-.4007286.3090223-.2272314 0-.3875228-.1481113-.3875228-.3090223zm.0801457-5.9020488v-2.4410921c-.7481784.0937124-1.2827869.4292483-1.2827869 1.1268337 0 .764327.5746813 1.0459211 1.2827869 1.3142584zm.6279599 1.7439638v2.8301127c.7217669-.1339401 1.1757741-.5631883 1.1757741-1.3279725 0-.8447825-.5209472-1.220546-1.1757741-1.5021402z" fill="#4f6877" fill-rule="nonzero"/></g></svg>