<?xml version="1.0" encoding="UTF-8"?>
<svg width="54px" height="54px" viewBox="0 0 54 54" version="1.1" xmlns="http://www.w3.org/2000/svg" xmlns:xlink="http://www.w3.org/1999/xlink">
    <!-- Generator: Sketch 52.2 (67145) - http://www.bohemiancoding.com/sketch -->
    <title>target (2)</title>
    <desc>Created with Sketch.</desc>
    <g id="Page-1" stroke="none" stroke-width="1" fill="none" fill-rule="evenodd">
        <g id="offer" transform="translate(-150.000000, -7730.000000)">
            <g id="target-(2)" transform="translate(150.000000, 7730.000000)">
                <rect id="Rectangle" fill="#4A4A4A" fill-rule="nonzero" x="36" y="26" width="8" height="2" rx="1"></rect>
                <rect id="Rectangle-Copy-22" fill="#4A4A4A" fill-rule="nonzero" x="10" y="26" width="8" height="2" rx="1"></rect>
                <rect id="Rectangle" fill="#4A4A4A" fill-rule="nonzero" transform="translate(27.000000, 14.000000) rotate(-90.000000) translate(-27.000000, -14.000000) " x="23" y="13" width="8" height="2" rx="1"></rect>
                <rect id="Rectangle-Copy-22" fill="#4A4A4A" fill-rule="nonzero" transform="translate(27.000000, 40.000000) rotate(-90.000000) translate(-27.000000, -40.000000) " x="23" y="39" width="8" height="2" rx="1"></rect>
                <g id="Group" transform="translate(1.000000, 1.000000)">
                    <path d="M50.3101044,24.355004 L49.0796466,24.355004 C48.9223936,24.355004 48.7928112,24.2338795 48.7798635,24.0771486 C47.8596305,12.9965542 38.9910201,4.13828112 27.9059357,3.23433735 C27.7684177,3.22316466 27.6621205,3.10945382 27.6621205,2.97141365 L27.6621205,1.70691566 C27.6621205,0.871365462 27.0500241,0.138353414 26.2195904,0.0466746988 C25.237751,-0.0617108434 24.4067952,0.704192771 24.4067952,1.66410442 L24.4067952,2.89508434 C24.4067952,3.07614458 24.2673976,3.22535743 24.0869639,3.24070683 C13.0385301,4.17879518 4.20907631,13.0200482 3.28936546,24.0737028 C3.27620884,24.2324177 3.14495582,24.355004 2.98571888,24.355004 L1.75870683,24.355004 C0.923156627,24.355004 0.190144578,24.9671004 0.0984658635,25.7975341 C-0.00991967871,26.7793735 0.755983936,27.6103293 1.71589558,27.6103293 L3.04471486,27.6103293 C3.17053815,27.6103293 3.2742249,27.7072289 3.28435341,27.832739 C4.17869076,38.9283695 13.0419759,47.8081526 24.130506,48.7281767 C24.2862972,48.7411245 24.4066908,48.8698715 24.4066908,49.0261847 L24.4066908,50.2583133 C24.4066908,51.0938635 25.0187871,51.8268755 25.8492209,51.9185542 C26.8310602,52.0269398 27.6620161,51.2610361 27.6620161,50.3011245 L27.6620161,48.9505863 C27.6620161,48.8369799 27.7495181,48.7434217 27.8627068,48.7343373 C38.9680482,47.8498153 47.8585863,38.9827711 48.779759,27.8875582 C48.7927068,27.7311406 48.9220803,27.6103293 49.0789157,27.6103293 L50.3527068,27.6103293 C51.3126185,27.6103293 52.0785221,26.7793735 51.9701365,25.7975341 C51.8786667,24.966996 51.1455502,24.355004 50.3101044,24.355004 Z M26.3076145,45.5508514 C15.300739,45.7018394 6.31518072,36.7161767 6.46616867,25.7093012 C6.61099598,15.1538233 15.2059277,6.55889157 25.76151,6.41437751 C36.7680723,6.26359839 45.7534217,15.2488434 45.6026426,26.25551 C45.4580241,36.810988 36.8631968,45.4060241 26.3076145,45.5508514 Z" id="Shape" fill="#FF6B6B" fill-rule="nonzero"></path>
                    <path d="M26.4950442,50.2583133 L26.4950442,49.0261847 C26.4950442,48.8698715 26.3746506,48.7411245 26.2188594,48.7281767 C15.1303293,47.8081526 6.26704418,38.9283695 5.37270683,27.832739 C5.36257831,27.7073333 5.25889157,27.6103293 5.13306827,27.6103293 L3.804249,27.6103293 C2.84433735,27.6103293 2.07843373,26.7793735 2.18681928,25.7975341 C2.27849799,24.9671004 3.01151004,24.355004 3.84706024,24.355004 L5.07396787,24.355004 C5.23320482,24.355004 5.36435341,24.2324177 5.37761446,24.0737028 C6.29722088,13.0200482 15.1267791,4.17879518 26.1752129,3.24070683 C26.3556466,3.22535743 26.4950442,3.076249 26.4950442,2.89508434 L26.4950442,1.66410442 C26.4950442,1.16519679 26.7206908,0.720168675 27.0741446,0.421534137 C26.8388916,0.219381526 26.5466265,0.0826987952 26.2194859,0.0466746988 C25.2376466,-0.0617108434 24.4066908,0.704192771 24.4066908,1.66410442 L24.4066908,2.89508434 C24.4066908,3.07614458 24.2672932,3.22535743 24.0868594,3.24070683 C13.0384257,4.17879518 4.20886747,13.0200482 3.28926104,24.0737028 C3.27610442,24.2324177 3.14485141,24.355004 2.98561446,24.355004 L1.75870683,24.355004 C0.923156627,24.355004 0.190144578,24.9671004 0.0984658635,25.7975341 C-0.00991967871,26.7793735 0.755983936,27.6103293 1.71589558,27.6103293 L3.04471486,27.6103293 C3.17053815,27.6103293 3.2742249,27.7072289 3.28435341,27.832739 C4.17869076,38.9283695 13.0419759,47.8081526 24.130506,48.7281767 C24.2862972,48.7411245 24.4066908,48.8698715 24.4066908,49.0261847 L24.4066908,50.2583133 C24.4066908,51.0938635 25.0187871,51.8268755 25.8492209,51.9185542 C26.3207711,51.9705542 26.7562972,51.8195663 27.0829157,51.5436948 C26.7207952,51.2325301 26.4950442,50.764739 26.4950442,50.2583133 Z" id="Path" fill="#FF6B6B"></path>
                    <path d="M25.9771325,10.0041526 C22.6101847,10.0041526 19.8810201,12.7334217 19.8810201,16.1003695 L19.8810201,18.5128353 C20.2884578,18.1351566 20.8680803,17.9298715 21.4339197,18.0054699 L21.4339197,17.7017189 C21.4339197,17.4602008 21.6401446,17.2694297 21.8791566,17.2875984 C24.2360723,17.4569639 26.6348594,16.7079759 28.44849,15.5231486 C28.6178554,15.4124659 28.8420402,15.4400321 28.9795582,15.5878876 C30.5300562,17.2546024 30.5207631,17.1900723 30.5207631,17.4076787 L30.5207631,18.0042169 C31.141004,17.9112851 31.6910763,18.1028916 32.0733494,18.4583293 L32.0733494,16.1004739 C32.073245,12.7334217 29.3440803,10.0041526 25.9771325,10.0041526 Z" id="Path" fill="#576574"></path>
                    <path d="M21.517245,16.1003695 C21.517245,13.0110683 23.8154779,10.4603534 26.795245,10.0604337 C26.5275181,10.0245141 26.2547791,10.004257 25.9771325,10.004257 C22.6101847,10.004257 19.8810201,12.7335261 19.8810201,16.1004739 L19.8810201,18.5129398 C20.2884578,18.135261 20.8680803,17.9299759 21.4338153,18.0055743 L21.4338153,17.7018233 C21.4338153,17.6080562 21.465245,17.5221205 21.517245,17.4528916 L21.517245,16.1003695 Z" id="Path" fill="#3E4B5A"></path>
                    <path d="M30.4399438,17.7618635 L30.4399438,21.1013494 C30.4399438,21.1375823 30.4380643,21.1732932 30.4372289,21.2093173 C31.6190281,21.3882892 32.5445863,20.5343614 32.5445863,19.4856948 C32.5444819,18.4349398 31.6181928,17.5852932 30.4399438,17.7618635 Z" id="Path" fill="#F2BB88"></path>
                    <path d="M21.5146345,21.1013494 L21.5146345,17.7631165 C20.4858072,17.6257028 19.409992,18.4153092 19.409992,19.4856948 C19.409992,20.533004 20.3334618,21.3883936 21.517245,21.2093173 C21.5164096,21.1732932 21.5146345,21.1373735 21.5146345,21.1013494 Z" id="Path" fill="#F2BB88"></path>
                    <path d="M31.9183936,18.1509237 C31.5407149,17.8376707 31.0211325,17.6747791 30.4399438,17.7618635 L30.4399438,21.1013494 C30.4399438,21.1375823 30.4380643,21.1732932 30.4372289,21.2093173 C31.0201928,21.2975502 31.540506,21.134241 31.9183936,20.8204659 L31.9183936,18.1509237 Z" id="Path" fill="#E3A76F"></path>
                    <path d="M21.5146345,20.8206747 C21.1262008,20.4981285 20.8884418,20.0167631 20.8884418,19.4856948 C20.8884418,18.9689317 21.1395663,18.5181606 21.5146345,18.205012 L21.5146345,17.7631165 C20.4858072,17.6257028 19.4100964,18.4153092 19.4100964,19.4856948 C19.4100964,20.533004 20.3335663,21.3883936 21.5173494,21.2092129 C21.5165141,21.1731888 21.514739,21.1372691 21.514739,21.101245 L21.514739,20.8206747 L21.5146345,20.8206747 Z" id="Path" fill="#E3A76F"></path>
                    <path d="M26.0420803,25.4991084 C25.0572129,25.4991084 24.1916948,25.2287711 23.483743,24.7764337 L23.483743,27.1689558 L26.0311165,30.3131807 L28.5783855,27.1689558 L28.5783855,24.7089799 C27.8568594,25.206739 26.9830924,25.4991084 26.0420803,25.4991084 Z" id="Path" fill="#F2BB88"></path>
                    <path d="M25.1151647,25.4148434 C24.5078715,25.3021767 23.959992,25.0807068 23.483743,24.7764337 L23.483743,27.1689558 L25.1151647,29.1826506 L25.1151647,25.4148434 Z" id="Path" fill="#E3A76F"></path>
                    <path d="M35.3172932,29.6171325 L28.57849,27.0073173 L26.0312209,30.1516466 L23.4838474,27.0073173 L16.7520402,29.6171325 C16.7520402,29.6171325 14.2595904,30.6417831 14.2595904,33.4830924 L14.2595904,38.1258153 C14.2595904,38.4460643 14.5191727,38.7056466 14.8394217,38.7056466 L37.2349237,38.7056466 C37.5523534,38.7056466 37.8096386,38.4483614 37.8096386,38.1309317 L37.8096386,33.4831968 C37.8096386,30.6418876 35.3172932,29.6171325 35.3172932,29.6171325 Z" id="Path" fill="#E4EAF8"></path>
                    <path d="M15.891012,38.1259197 L15.891012,32.7490361 C15.891012,30.7996627 17.0641446,29.7055743 17.8007068,29.2106345 L16.7521446,29.6172369 C16.7521446,29.6172369 14.2596948,30.6418876 14.2596948,33.4831968 L14.2596948,38.1259197 C14.2596948,38.4461687 14.5192771,38.705751 14.8395261,38.705751 L16.4709478,38.705751 C16.1505944,38.7056466 15.891012,38.4460643 15.891012,38.1259197 Z" id="Path" fill="#D8DCE5"></path>
                    <path d="M28.9795582,15.4263534 C28.8419357,15.278498 28.617751,15.2509317 28.44849,15.3616145 C26.6348594,16.5463373 24.2361767,17.2953253 21.8791566,17.1260643 C21.6401446,17.108 21.4339197,17.2986667 21.4339197,17.5401847 L21.4339197,21.1821687 C21.4339197,23.5228996 23.2679116,25.660747 26.0421847,25.660747 C28.5116627,25.660747 30.5207631,23.6516466 30.5207631,21.1821687 L30.5207631,17.246249 C30.5206586,17.0285382 30.5300562,17.0929639 28.9795582,15.4263534 Z" id="Path" fill="#F2D1A5"></path>
                    <path d="M23.0652369,21.1820643 L23.0652369,17.1354618 C22.6706426,17.1564498 22.2742731,17.1544659 21.8791566,17.1260643 C21.6401446,17.1078956 21.4339197,17.2986667 21.4339197,17.5401847 L21.4339197,21.1821687 C21.4339197,23.5227952 23.2679116,25.660747 26.0421847,25.660747 C26.2981124,25.660747 26.5487149,25.6379839 26.7930522,25.5965301 C24.6798474,25.2380643 23.0652369,23.3956145 23.0652369,21.1820643 Z" id="Path" fill="#F2BB88"></path>
                    <path d="M29.1068434,31.7673012 L31.0117349,27.9496867 L28.57849,27.0073173 L26.0312209,30.1516466 L28.5147952,31.9154699 C28.7156948,32.0583133 28.9966827,31.9879357 29.1068434,31.7673012 Z" id="Path" fill="#D8DCE5"></path>
                    <path d="M22.9589398,31.7673012 L21.0540482,27.9496867 L23.4872932,27.0073173 L26.0345622,30.1516466 L23.550988,31.9154699 C23.3500884,32.0583133 23.0691004,31.9879357 22.9589398,31.7673012 Z" id="Path" fill="#D8DCE5"></path>
                    <path d="M26.0343534,30.1538394 L26.0343534,30.1516466 L26.0327871,30.1526908 L26.0312209,30.1516466 L26.0312209,30.1538394 L24.2248996,31.4367149 L25.0787229,32.7217831 C25.767253,32.7217831 26.2982169,32.7217831 26.9868514,32.7217831 L27.8406747,31.4367149 L26.0343534,30.1538394 Z" id="Path" fill="#EE5253"></path>
                    <path d="M26.9368353,30.794755 L26.0344578,30.1538394 L26.0344578,30.1516466 L26.032996,30.1526908 L26.0314297,30.1516466 L26.0314297,30.1538394 L24.2251084,31.4367149 L25.0789317,32.7217831 C25.7433414,32.7217831 26.2592691,32.7217831 26.8868193,32.7217831 L26.185759,31.6666426 C26.1006586,31.5385221 26.1326104,31.3659197 26.2580161,31.2768514 L26.9368353,30.794755 Z" id="Path" fill="#D83941"></path>
                    <g transform="translate(24.224900, 32.682731)" id="Path">
                        <path d="M0.043437751,6.02291566 L3.57254618,6.02291566 L2.76205622,0.0390522088 C2.0735261,0.0390522088 1.54256225,0.0390522088 0.853927711,0.0390522088 L0.043437751,6.02291566 Z" fill="#FF6B6B"></path>
                        <path d="M0.853927711,0.0390522088 L0.043437751,6.02291566 L1.8513253,6.02291566 L2.66181526,0.0390522088 C2.03144578,0.0390522088 1.52084337,0.0390522088 0.853927711,0.0390522088 Z" fill="#EE5253"></path>
                    </g>
                </g>
                <g id="Group" fill-rule="nonzero">
                    <path d="M19.9822148,17.0261367 L19.9822148,18.9915469 C19.6200352,19.43325 19.4240742,19.9671328 19.4240742,20.5324453 C19.4240742,21.7866797 20.3366953,22.872375 21.6278438,23.0608477 C21.8530195,24.4115859 22.5817031,25.5754336 23.6268984,26.370668 L23.6268984,27.517957 L17.322082,29.9623008 C17.317125,29.9643047 17.312168,29.9662031 17.3072109,29.9683125 C17.1842344,30.018832 14.2955508,31.2450117 14.2955508,34.6108359 L14.2955508,39.263168 C14.2955508,40.0226484 14.9134922,40.6406953 15.6731836,40.6406953 C16.8130898,40.6406953 37.5613242,40.6406953 38.3287148,40.6406953 C39.0854531,40.6406953 39.7011797,40.0249688 39.7011797,39.2682305 L39.7011797,37.6829297 C39.7011797,37.2459727 39.3471211,36.8919141 38.9101641,36.8919141 C38.473207,36.8919141 38.1191484,37.2459727 38.1191484,37.6829297 L38.1191484,39.0586641 L35.4099727,39.0586641 L35.4099727,35.5987617 C35.4099727,35.1618047 35.0559141,34.8077461 34.618957,34.8077461 C34.182,34.8077461 33.8279414,35.1618047 33.8279414,35.5987617 L33.8279414,39.0586641 L29.3957227,39.0586641 L28.7822109,34.0349766 L29.0326992,33.6581367 L29.0492578,33.6698438 C29.6495859,34.0964648 30.4866914,33.8840508 30.8139609,33.2283516 C30.8139609,33.2282461 30.8140664,33.2281406 30.8140664,33.2281406 L32.4193008,30.0108164 L36.09225,31.4332734 C36.1932891,31.4771484 37.8291094,32.2174336 38.0837109,34.097625 C38.1423516,34.5304688 38.5411289,34.8330586 38.9737617,34.7753672 C39.4066055,34.7166211 39.7100391,34.3181602 39.6513984,33.8853164 C39.2689688,31.0618125 36.7951992,30.0118711 36.6901523,29.9685234 C36.6848789,29.9663086 36.6796055,29.9643047 36.674543,29.9621953 L30.3627656,27.5177461 L30.3627656,26.2923047 C31.341832,25.4942227 32.0315977,24.3553711 32.2513945,23.0582109 C33.5685938,22.8616172 34.4565352,21.7695938 34.4565352,20.5324453 C34.4565352,19.948043 34.2565664,19.3886367 33.8980781,18.9411328 L33.8980781,17.0261367 C33.8980781,13.1893945 30.7767305,10.0680469 26.9400938,10.0680469 C23.1035625,10.0680469 19.9822148,13.1893945 19.9822148,17.0261367 Z M21.5529609,21.4029844 C21.2125078,21.2382422 21.006,20.899582 21.006,20.5324453 C21.006,20.1804961 21.2363438,19.883918 21.5529609,19.7116875 L21.5529609,21.4029844 Z M24.5974219,39.0584531 L20.1687891,39.0584531 L20.1687891,35.5985508 C20.1687891,35.1615938 19.8147305,34.8075352 19.3777734,34.8075352 C18.9408164,34.8075352 18.5867578,35.1615938 18.5867578,35.5985508 L18.5867578,39.0584531 L15.8774766,39.0584531 L15.8774766,34.610625 C15.8774766,32.3520117 17.7797109,31.4873789 17.9046914,31.4330625 L21.5736328,30.0106055 L23.1789727,33.2280352 C23.5059258,33.883418 24.3431367,34.0963594 24.9437813,33.6697383 L24.9602344,33.6580313 L25.2106172,34.0348711 L24.5974219,39.0584531 Z M24.3941836,32.1197695 L23.0555742,29.4368555 L24.1670039,29.006543 L25.8508125,31.0850156 C25.7958633,31.1241445 24.4491328,32.0807461 24.3941836,32.1197695 Z M26.9965195,29.981707 L25.2089297,27.7751953 L25.2089297,27.2071406 C26.373832,27.5876719 27.6536953,27.5840859 28.7806289,27.183832 L28.7806289,27.7794141 C28.2441094,28.4417578 28.5971133,28.0060664 26.9965195,29.981707 Z M27.7420781,32.7415078 L27.5373633,33.0494766 L26.4554648,33.0494766 L26.25075,32.7415078 L26.9963086,32.2119492 L27.7420781,32.7415078 Z M26.1911602,39.0584531 L26.7316875,34.6314023 L27.2612461,34.6314023 L27.8018789,39.0584531 L26.1911602,39.0584531 Z M30.9374648,29.4368555 L29.5989609,32.1197695 C29.5537148,32.0876016 28.1852578,31.1156016 28.1400117,31.0834336 C28.3118203,30.8714414 29.6345039,29.2387852 29.8235039,29.0055938 L30.9374648,29.4368555 Z M30.7454063,22.1667891 C30.7454063,24.1959023 29.0946094,25.9060781 27.0061172,25.9062891 L27.0059063,25.9062891 C24.6481523,25.9062891 23.1350977,24.0744023 23.1350977,22.1667891 L23.1350977,18.8732109 C23.1614648,18.8740547 23.188043,18.8735273 23.2145156,18.8740547 C25.4697539,18.9304805 27.7584258,18.247043 29.6083477,17.1085078 C30.21975,17.7635742 30.5821406,18.144 30.7454063,18.3298359 C30.7454063,19.8270703 30.7454063,20.5940391 30.7454063,22.1667891 Z M32.3274375,19.6640156 C32.6745352,19.8328711 32.8745039,20.1720586 32.8745039,20.5323398 C32.8745039,20.9020078 32.6660977,21.2384531 32.3274375,21.4027734 L32.3274375,19.6640156 Z M26.9400938,11.6500781 C29.904293,11.6500781 32.3160469,14.0617266 32.3160469,17.0261367 L32.3160469,17.9719805 C32.2706953,17.6332148 32.0497383,17.4002344 31.3194727,16.6214531 C30.4754063,15.7216992 30.4856367,15.7093594 30.3004336,15.5961914 C29.9013398,15.3519258 29.3977266,15.3616289 29.0075977,15.6164414 C27.1666406,16.8191016 24.9222656,17.4236484 22.8544453,17.2749375 C22.3228828,17.2352812 21.8388867,17.5481016 21.6436641,18.024293 C21.6171914,18.0289336 21.5907188,18.0339961 21.5643516,18.0394805 L21.5643516,17.0262422 C21.5642461,14.0617266 23.9757891,11.6500781 26.9400938,11.6500781 Z" id="Shape"></path>
                    <path d="M51.5615625,24.56325 L50.7197109,24.56325 C49.5743203,13.35825 40.6511367,4.42357031 29.4334805,3.27691406 L29.4334805,2.4350625 C29.433375,1.09233984 28.3410352,0 26.9983125,0 C25.6555898,0 24.5631445,1.09233984 24.5631445,2.4350625 L24.5631445,3.27691406 C13.3581445,4.42230469 4.42367578,13.3455938 3.27691406,24.56325 L2.4350625,24.56325 C1.09233984,24.56325 0,25.6556953 0,26.9983125 C0,28.3410352 1.09233984,29.4334805 2.4350625,29.4334805 L3.27691406,29.4334805 C4.42230469,40.6384805 13.3454883,49.5730547 24.5631445,50.7197109 L24.5631445,51.5615625 C24.5631445,52.9041797 25.6554844,53.996625 26.9983125,53.996625 C28.3409297,53.996625 29.433375,52.9042852 29.433375,51.5615625 L29.433375,50.7197109 C40.6382695,49.5743203 49.5729492,40.6511367 50.7196055,29.4334805 L51.561457,29.4334805 C52.9041797,29.4334805 53.996625,28.3411406 53.996625,26.9983125 C53.9967305,25.6556953 52.9042852,24.56325 51.5615625,24.56325 Z M51.5615625,27.8514492 L49.9942969,27.8514492 C49.5790664,27.8514492 49.2346055,28.1724961 49.2052852,28.5866719 C48.4280859,39.5638594 39.5639648,48.4279805 28.5866719,49.2052852 C28.1724961,49.2346055 27.8514492,49.5791719 27.8514492,49.9942969 L27.8514492,51.5615625 C27.8514492,52.0319531 27.4688086,52.4145938 26.998418,52.4145938 C26.5280273,52.4145938 26.1452813,52.0319531 26.1452813,51.5615625 L26.1452813,49.9942969 C26.1452813,49.5790664 25.8242344,49.2346055 25.4100586,49.2052852 C14.4327656,48.4279805 5.56864453,39.5638594 4.79144531,28.5866719 C4.762125,28.1724961 4.41755859,27.8514492 4.00243359,27.8514492 L2.43516797,27.8514492 C1.96477734,27.8514492 1.58213672,27.4687031 1.58213672,26.9983125 C1.58213672,26.5279219 1.96477734,26.1452813 2.43516797,26.1452813 L4.00243359,26.1452813 C4.41766406,26.1452813 4.762125,25.8242344 4.79144531,25.4100586 C5.56864453,14.4328711 14.4327656,5.56875 25.4100586,4.79144531 C25.8242344,4.762125 26.1452813,4.41755859 26.1452813,4.00243359 L26.1452813,2.43516797 C26.1452813,1.96477734 26.5280273,1.58213672 26.998418,1.58213672 C27.4688086,1.58213672 27.8514492,1.96477734 27.8514492,2.43516797 L27.8514492,4.00243359 C27.8514492,4.41766406 28.1724961,4.762125 28.5866719,4.79144531 C39.5639648,5.56875 48.4280859,14.4328711 49.2052852,25.4101641 C49.2346055,25.8243398 49.5791719,26.1453867 49.9942969,26.1453867 L51.5615625,26.1453867 C52.0319531,26.1453867 52.4146992,26.5280273 52.4146992,26.998418 C52.4146992,27.4688086 52.0319531,27.8514492 51.5615625,27.8514492 Z" id="Shape" fill="#EE5253"></path>
                </g>
            </g>
        </g>
    </g>
</svg>