<svg height="56" viewBox="0 0 51 56" width="51" xmlns="http://www.w3.org/2000/svg"><g fill="none" fill-rule="evenodd"><path d="m25.5016991 10.2833821c.2731294 0 .5445596.007249.8147154.0196149 0-.0063961.0008496-.0127923.0008496-.0196149v-4.89223929c-.2705806-.00980753-.5424356-.01663014-.815565-.01663014s-.5445596.00682261-.815565.01663014v4.89223929c0 .0068226.0008496.0132188.0012743.0196149.2701559-.0123659.5411613-.0196149.8142907-.0196149z" fill="#db453a"/><path d="m40.0357476 55.6836013.9892973-.6583821c.8699361-.5790691 1.1073845-1.7559697.5305422-2.629264l-10.9583057-16.5896077-4.1385677 2.755056 10.9578808 16.5900341c.5768423.8728679 1.7496418 1.111233 2.6191531.5321637z" fill="#344a5d"/><path d="m6.40643318 55.6836013-.9888726-.6583821c-.86993603-.5790691-1.10738431-1.7559697-.53054202-2.629264l10.95788084-16.5896077 4.1389926 2.755056-10.95830565 16.5896077c-.57641755.8732943-1.74921713 1.1116594-2.61915317.5325901z" fill="#344a5d"/><path d="m46.3882346 27.9466984c0 12.8439936-10.3721182 23.2561525-23.1671442 23.2561525-12.7946012 0-23.1667194-10.4121589-23.1667194-23.2561525 0-12.8444202 10.3721182-23.25657898 23.1667194-23.25657898 12.795026 0 23.1671442 10.41215878 23.1671442 23.25657898z" fill="#fd715c"/><path d="m23.2210904 4.69011942c-.9842 0-1.9539578.06225628-2.9063.181652 11.4230077 1.43530707 20.2608443 11.21893278 20.2608443 23.07492698 0 11.8559941-8.8378366 21.6391935-20.2608443 23.0745004.9523422.1198221 1.9221.1816521 2.9063.1816521 12.795026 0 23.1671442-10.4121589 23.1671442-23.2561525 0-12.8444202-10.3721182-23.25657898-23.1671442-23.25657898z" fill="#ee5646"/><path d="m23.2210904 46.1460161c-9.9961936 0-18.12933098-8.1641082-18.12933098-18.1993177 0-10.0352096 8.13313738-18.19974426 18.12933098-18.19974426 9.9966185 0 18.1297558 8.16453466 18.1297558 18.19974426 0 10.0352095-8.1331373 18.1993177-18.1297558 18.1993177z" fill="#f2f2f2"/><path d="m23.2210904 9.74695414c-.9931203 0-1.9671258.08187134-2.917344.23708588 8.6139809 1.40503158 15.211562 8.92440298 15.211562 17.96265838 0 9.0378289-6.5975811 16.5572002-15.211562 17.9626583.9502182.1547881 1.9242237.2366594 2.917344.2366594 9.9966185 0 18.1297558-8.1641082 18.1297558-18.1993177 0-10.0352096-8.1331373-18.19974426-18.1297558-18.19974426z" fill="#dbd9d1"/><path d="m23.2210904 40.2879508c-6.7789595 0-12.2937933-5.5361234-12.2937933-12.3412524 0-6.8051292 5.5148338-12.3416789 12.2937933-12.3416789 6.7793844 0 12.294218 5.5365497 12.294218 12.3416789 0 6.805129-5.5148336 12.3412524-12.294218 12.3412524z" fill="#fed066"/><path d="m23.2210904 15.6050195c-1.005014 0-1.9819929.122807-2.917344.3522174 5.3750832 1.3180433 9.3764491 6.193226 9.3764491 11.9894615 0 5.7962353-4.0013659 10.6709917-9.3764491 11.9894614.9353511.2294103 1.9127549.351791 2.917344.351791 6.7793844 0 12.294218-5.5361234 12.294218-12.3412524 0-6.8051292-5.5148336-12.3416789-12.294218-12.3416789z" fill="#f5b556"/><path d="m23.2210904 34.9172759c-3.8289079 0-6.9437716-3.1268885-6.9437716-6.9705775 0-3.8441156 3.1148637-6.9710039 6.9437716-6.9710039 3.8293327 0 6.9441965 3.1268883 6.9441965 6.9710039 0 3.843689-3.1152886 6.9705775-6.9441965 6.9705775z" fill="#f2f2f2"/><path d="m23.2210904 20.9756945c-1.0372968 0-2.0214968.2311159-2.9063.6421783 2.3812801 1.1065424 4.0378965 3.5264377 4.0378965 6.3288256s-1.6566164 5.222283-4.0378965 6.3283991c.8848032.4110623 1.8690032.6421784 2.9063.6421784 3.8289079 0 6.9441965-3.1268885 6.9441965-6.9705775 0-3.8441156-3.1152886-6.9710039-6.9441965-6.9710039z" fill="#dbd9d1"/><path d="m23.2210904 30.0813231c-1.1723747 0-2.1264159-.9577241-2.1264159-2.1346247 0-1.1773271.9540412-2.1346248 2.1264159-2.1346248 1.1727995 0 2.1268406.9572977 2.1268406 2.1346248 0 1.1769006-.9540411 2.1346247-2.1268406 2.1346247z" fill="#ee5646"/><path d="m26.1002049 25.8994882c-.2149353 0-.4298708-.0822977-.5938333-.2468931-.3283499-.3291911-.3283499-.8634869 0-1.192678l17.1578741-17.22453698c.3283499-.32919104.8601663-.32919104 1.1885162 0 .327925.32961742.327925.86348681 0 1.19310434l-17.1582989 17.22411064c-.1639627.1645954-.3793227.2468931-.5942581.2468931z" fill="#3c5666"/><path d="m23.3859025 27.941155 8.2516491-2.4578461c.1677856-.0498903.1635378-.2895345-.005522-.3338815l-4.3598747-1.1427875c-.0603178-.0157773-.1074677-.0631092-.1231844-.1236599l-1.1409414-4.3805434c-.0441765-.1697125-.2828992-.1735502-.3325977-.0051169l-2.4483942 8.2839303c-.0293093.0976486.0615921.188901.1588653.159905z" fill="#54dac4"/><path d="m50.5883946 4.28161547-3.5171243-.27930071-.2786513-3.53112814c-.026336-.33388161-.4302956-.48355258-.6660448-.24646681l-4.6304555 4.64790449c-.0807069.08144485-.1223348.19401795-.1129897.30872319l.3308985 4.19675921-.0021238.00170565.0021238.0004265v.00170554l.0016991-.00170554 4.1810451.33217584c.1138394.00895476.2264043-.03240741.3071112-.11385226l4.6304554-4.64790459c.2357493-.23708566.0866539-.64260469-.2459437-.66904237z" fill="#fed066"/><path d="m50.5883946 4.28161547-3.5171243-.27930071-.2786513-3.53112814c-.026336-.33388161-.4302956-.48355258-.6660448-.24646681l-2.3621652 2.3708577.3453408 4.37713204-.0021238.00213204h.0021238v.00213204l.0021239-.00213204 4.3602994.34667395 2.3617405-2.3708577c.236174-.23708566.0870786-.64260469-.245519-.66904237z" fill="#f5b556"/><g fill="#eaa242"><path d="m49.1543594 6.63712229c-.1363523-.13602574-.3190049-.22599897-.5254449-.24262911l-3.6500782-.28996102-.2884212-3.66374269c-.0165661-.20851605-.1074677-.39272658-.24382-.52960531l-1.3749916 1.38029979.288846 3.66374269c.0004247.00554334.001699.01108669.0021238.01663014.0016991.01535077.0033982.03070175.0059468.04562614.0016992.01236606.003823.02430552.0063716.0362452.0025487.014498.0059469.02856961.0093451.04264122.0033982.01321884.0067963.02558491.0106193.03837725.0038229.01279234.0080707.02515841.0123184.03752437.0050973.01364522.0101945.02729044.0157166.04050928.0046725.01066031.009345.02174711.0140176.03240741.0067964.01407161.0135927.02771683.0208138.04136206.0055221.00938114.0106194.01918857.0161414.02856971.0080707.01364523.0165662.02686396.0250616.04008279.0059469.00895476.0118937.01790942.0178406.02643768.0093449.01279234.0191148.0251583.0288846.03709798.0067964.00852816.0135927.01748292.0208139.02558469.0097698.0110868.0199643.0217471.0301589.03240751.0084955.00852816.0165661.01705653.0250617.02558469.0101945.00938115.0203891.01790941.0310084.02686406.0097698.00852827.0191148.01705653.0293093.02515841.0101946.0076755.0208139.01492449.0310085.02217349.0110441.00810188.0220882.01620376.0339818.02345276.0106195.00682261.0216635.01279234.0327076.01918857.0114689.00682261.0233625.01407161.0356811.02046783.0140174.007249.0288844.01364523.0433268.02004145.0097698.00426408.01869.00895465.0284598.01279235.0250616.01023391.0505481.01876218.0764593.02643767.0025485.00085277.0046725.00127916.0072211.00170566.0237873.00682261.0484242.01279234.0734858.01748291.0055221.00085288.0114689.00127927.0169909.00255843.0216635.0034113.0429022.00639622.0649903.00852837.0016992 0 .0033982.00042639.0055221.00085277l3.6458306.28953463z"/><path d="m16.2773188 27.9466984c0-.2848441.0191147-.5649976.0522471-.840887-.0174158-.0012792-.0348315-.0025585-.0522471-.0025585h-5.3207124c-.0191148.2788743-.0293093.5598806-.0293093.8434455 0 .2835648.0101945.5645711.0293093.8434453h5.3207124c.0174156 0 .0348313-.0017056.0522471-.0025584-.0331324-.2758894-.0522471-.5564693-.0522471-.8408869z"/><path d="m23.2210904 20.9756945c.2837487 0 .5628248.0191885.8376533.0524487.0012742-.0174829.0025486-.0345394.0025486-.0524487v-5.3412525c-.2778018-.0187622-.5577275-.0294225-.8402019-.0294225s-.5624.0106603-.8402019.0294225v5.3412525c0 .0179093.0016991.0349658.0025487.0524487.2752532-.0332602.5543293-.0524487.8376532-.0524487z"/><path d="m35.4859991 27.1032529h-5.3207122c-.0178406 0-.0348315.0012793-.0522472.0025585.0331323.2758894.0522472.5560429.0522472.840887 0 .2844176-.0191149.5649975-.0522472.8404605.0174157.0012792.0344066.0029848.0522472.0029848h5.3207122c.01869-.2788742.0293093-.5598805.0293093-.8438718 0-.2831384-.0106193-.5641447-.0293093-.843019z"/><path d="m23.2210904 34.9172759c-.2833239 0-.5624-.0191887-.8372285-.0524489-.0012743.0174829-.0025487.0349659-.0025487.0524489v5.3412524c.2773772.0191885.5577277.0294225.8397772.0294225.2824744 0 .5624001-.010234.8406267-.0294225v-5.3412524c0-.017483-.0016992-.034966-.0029734-.0524489-.2748285.0332602-.5539046.0524489-.8376533.0524489z"/></g><path d="m5.09175942 27.9466984c0-.282712.00764587-.563292.02038913-.8425926-.00679638 0-.01359275-.0008529-.02038913-.0008529h-5.02082223c-.00976981.2801535-.01656619.5607335-.01656619.8434455 0 .2822855.00679638.5632919.01656619.8434453h5.02082223c.00679638 0 .01359275-.0008527.02038913-.0008527-.01274326-.2797271-.02038913-.5603071-.02038913-.8425926z" fill="#db453a"/><path d="m46.3716684 27.1032529h-5.0208222c-.0067964 0-.0135927.0008529-.0203891.0008529.0127431.2793006.0203891.5598806.0203891.8425926 0 .2822855-.007646.5628655-.0203891.8421661.0067964.0004265.0135927.0012792.0203891.0012792h5.0208222c.0097699-.2801534.0165662-.5611598.0165662-.8438718 0-.2822855-.0067963-.5628655-.0165662-.843019z" fill="#db453a"/><path d="m23.2210904 46.1460161c-.2812 0-.5607009-.0072491-.8389276-.0200414-.0004247.0068226-.0008496.0132188-.0008496.0200414v5.0402047c.2786514.0098075.5585772.0166301.8397772.0166301.2816248 0 .5615505-.0068226.8406267-.0166301v-5.0402047c0-.0068226-.0008496-.0136452-.0012743-.0204678-.2782266.0132187-.5577276.0204678-.8393524.0204678z" fill="#db453a"/></g></svg>