<svg height="77" viewBox="0 0 82 77" width="82" xmlns="http://www.w3.org/2000/svg"><g fill="none" fill-rule="evenodd"><path d="m56.0333333 68.3333333h-30.0666666c-3.0189453 0-5.4666667 2.4477214-5.4666667 5.4666667v2.7333333h41v-2.7333333c0-3.0189453-2.4477214-5.4666667-5.4666667-5.4666667z" fill="#999"/><path d="m34.1666667 60.1333333h13.6666666v8.2h-13.6666666z" fill="#656665"/><path d="m13.6666667 10.9333333h-13.6666667v49.2h82v-49.2h-13.6666667" fill="#999"/><path d="m13.6666667 16.4h-8.20000003v38.2666667h71.06666663v-38.2666667h-8.2" fill="#94cce7"/><g transform="translate(18.108333)"><path d="m15.8875 38.2666667h-3.8049242c-2.5218771 0-4.56590913-2.0648895-4.56590913-4.6125v-10.7625h8.37083333z" fill="#bab8b9"/><path d="m39.8041667 29.0416667-19.9020834-6.1120371h-15.30929484c-2.53672327 0-4.59278846-2.0521432-4.59278846-4.5840277v-6.1120371c0-2.53188449 2.05606519-4.58402776 4.59278846-4.58402776h15.30929484l19.9020834-6.11203704" fill="#bab8b9"/><path d="m35.1916667 27.5041667v-24.60000003l-15.3007247 4.68569659h-15.30072461c-2.5353032 0-4.59021739 2.04522864-4.59021739 4.56858204v6.0914427c0 2.5233534 2.05491419 4.5685821 4.59021739 4.5685821h15.30072461z" fill="#d9d7d8"/><path d="m13.8375 7.51666667h5.9791667v15.37500003h-5.9791667z" fill="#e43d48"/><path d="m39.8041667 0h5.9791666v30.4083333h-5.9791666z" fill="#cf3f3f"/><path d="m35.875 32.8c0 7.170368-5.8129653 12.9833333-12.9833333 12.9833333-7.1703681 0-12.98333337-5.8129653-12.98333337-12.9833333s5.81296527-12.9833333 12.98333337-12.9833333c7.170368 0 12.9833333 5.8129653 12.9833333 12.9833333z" fill="#699ce6"/><path d="m25.9666667 13.6666667c0 .8490784-.6884216 1.5375-1.5375 1.5375-.8490785 0-1.5375-.6884216-1.5375-1.5375 0-.8490785.6884215-1.5375 1.5375-1.5375.8490784 0 1.5375.6884215 1.5375 1.5375z" fill="#f8cf6a"/><path d="m36.7291667 11.3604167c0 1.2736175-1.0326325 2.30625-2.30625 2.30625-1.2736176 0-2.30625-1.0326325-2.30625-2.30625 0-1.2736176 1.0326324-2.30625003 2.30625-2.30625003 1.2736175 0 2.30625 1.03263243 2.30625 2.30625003z" fill="#dc6068"/><g fill="#bab8b9"><path d="m0 14.5208333h3.92916667v1.5375h-3.92916667z"/><path d="m3.92916667 11.4458333h-3.85856446c-.04297526.2507447-.07060221.5067445-.07060221.76875v.76875h3.92916667z"/><path d="m3.92916667 18.9625v-1.5375h-3.92916667v.76875c0 .2620056.02762695.5180054.07060221.76875z"/></g><g fill="#5789d6" transform="translate(9.225 10.591667)"><path d="m13.7520833 35.875c-7.58259674 0-13.7520833-6.1637794-13.7520833-13.7393617 0-7.5755824 6.16948656-13.7393617 13.7520833-13.7393617 7.5825968 0 13.7520834 6.1637793 13.7520834 13.7393617 0 7.5755823-6.1694866 13.7393617-13.7520834 13.7393617zm0-25.95212766c-6.73987872 0-12.22407404 5.47912206-12.22407404 12.21276596s5.48419532 12.212766 12.22407404 12.212766c6.7398788 0 12.2240741-5.4791221 12.2240741-12.212766s-5.4841953-12.21276596-12.2240741-12.21276596z" fill-rule="nonzero"/><path d="m13.7520833 35.875c-3.85583583 0-6.87604163-6.0344511-6.87604163-13.7393617s3.0202058-13.7393617 6.87604163-13.7393617c3.8558359 0 6.8760417 6.0344511 6.8760417 13.7393617s-3.0202058 13.7393617-6.8760417 13.7393617zm0-25.95212766c-2.582246 0-5.34803237 4.90813946-5.34803237 12.21276596s2.76578637 12.212766 5.34803237 12.212766c2.5822461 0 5.3480324-4.9081395 5.3480324-12.212766s-2.7657863-12.21276596-5.3480324-12.21276596z" fill-rule="nonzero"/><path d="m14.516088 35.1117021h-1.5280093v-25.95212763c0-.08162221.0130567-.16324442.0387971-.24113954l1.5280093-4.57978723 1.449669.48302443-1.4884661 4.46164008z"/><path d="m.76400463 21.3723404h25.97615737v1.5265958h-25.97615737z"/><path d="m16.5402525 2.33909055 6.1127832-2.28914816.5360716 1.42931992-6.1124101 2.28914825z"/></g><path d="m24.5145833 16.0583333c-1.2713653 0-2.30625-1.0348846-2.30625-2.30625 0-1.2713653 1.0348847-2.30625 2.30625-2.30625 1.2713654 0 2.30625 1.0348847 2.30625 2.30625 0 1.2713654-1.0348846 2.30625-2.30625 2.30625zm0-3.075c-.4234131 0-.76875.3453369-.76875.76875s.3453369.76875.76875.76875.76875-.3453369.76875-.76875-.3453369-.76875-.76875-.76875z" fill="#eebc5a" fill-rule="nonzero"/><path d="m34.4229167 14.5208333c-1.6487962 0-2.9895834-1.3407872-2.9895834-2.9895833 0-1.64879613 1.3407872-2.98958333 2.9895834-2.98958333 1.6487961 0 2.9895833 1.3407872 2.9895833 2.98958333 0 1.6487961-1.3407872 2.9895833-2.9895833 2.9895833zm0-4.484375c-.8243981 0-1.4947917.6703936-1.4947917 1.4947917s.6703936 1.4947917 1.4947917 1.4947917c.824398 0 1.4947916-.6703936 1.4947916-1.4947917s-.6703936-1.4947917-1.4947916-1.4947917z" fill="#ca5057" fill-rule="nonzero"/></g></g></svg>