<?xml version="1.0" encoding="UTF-8"?>
<svg width="82px" height="77px" viewBox="0 0 82 77" version="1.1" xmlns="http://www.w3.org/2000/svg" xmlns:xlink="http://www.w3.org/1999/xlink">
    <!-- Generator: Sketch 52.2 (67145) - http://www.bohemiancoding.com/sketch -->
    <title>content</title>
    <desc>Created with Sketch.</desc>
    <g id="Page-1" stroke="none" stroke-width="1" fill="none" fill-rule="evenodd">
        <g id="offer" transform="translate(-704.000000, -4679.000000)">
            <g id="content" transform="translate(704.000000, 4679.000000)">
                <path d="M56.0333333,68.3333333 L25.9666667,68.3333333 C22.9477214,68.3333333 20.5,70.7810547 20.5,73.8 L20.5,76.5333333 L61.5,76.5333333 L61.5,73.8 C61.5,70.7810547 59.0522786,68.3333333 56.0333333,68.3333333 Z" id="Path" fill="#999999"></path>
                <polygon id="Path" fill="#656665" points="34.1666667 60.1333333 47.8333333 60.1333333 47.8333333 68.3333333 34.1666667 68.3333333"></polygon>
                <polyline id="Path" fill="#999999" points="13.6666667 10.9333333 0 10.9333333 0 60.1333333 82 60.1333333 82 10.9333333 68.3333333 10.9333333"></polyline>
                <polyline id="Path" fill="#94CCE7" points="13.6666667 16.4 5.46666667 16.4 5.46666667 54.6666667 76.5333333 54.6666667 76.5333333 16.4 68.3333333 16.4"></polyline>
                <g id="bullhorn" transform="translate(18.108333, 0.000000)">
                    <path d="M15.8875,38.2666667 L12.0825758,38.2666667 C9.5606987,38.2666667 7.51666667,36.2017772 7.51666667,33.6541667 L7.51666667,22.8916667 L15.8875,22.8916667 L15.8875,38.2666667 Z" id="Path" fill="#BAB8B9"></path>
                    <path d="M39.8041667,29.0416667 L19.9020833,22.9296296 L4.59278846,22.9296296 C2.05606519,22.9296296 0,20.8774864 0,18.3456019 L0,12.2335648 C0,9.70168031 2.05606519,7.64953704 4.59278846,7.64953704 L19.9020833,7.64953704 L39.8041667,1.5375" id="Path" fill="#BAB8B9"></path>
                    <path d="M35.1916667,27.5041667 L35.1916667,2.90416667 L19.890942,7.58986326 L4.59021739,7.58986326 C2.05491419,7.58986326 0,9.6350919 0,12.1584453 L0,18.249888 C0,20.7732414 2.05491419,22.8184701 4.59021739,22.8184701 L19.890942,22.8184701 L35.1916667,27.5041667 Z" id="Path" fill="#D9D7D8"></path>
                    <polygon id="Path" fill="#E43D48" points="13.8375 7.51666667 19.8166667 7.51666667 19.8166667 22.8916667 13.8375 22.8916667"></polygon>
                    <polygon id="Path" fill="#CF3F3F" points="39.8041667 0 45.7833333 0 45.7833333 30.4083333 39.8041667 30.4083333"></polygon>
                    <path d="M35.875,32.8 C35.875,39.970368 30.0620347,45.7833333 22.8916667,45.7833333 C15.7212986,45.7833333 9.90833333,39.970368 9.90833333,32.8 C9.90833333,25.629632 15.7212986,19.8166667 22.8916667,19.8166667 C30.0620347,19.8166667 35.875,25.629632 35.875,32.8 Z" id="Path" fill="#699CE6"></path>
                    <path d="M25.9666667,13.6666667 C25.9666667,14.5157451 25.2782451,15.2041667 24.4291667,15.2041667 C23.5800882,15.2041667 22.8916667,14.5157451 22.8916667,13.6666667 C22.8916667,12.8175882 23.5800882,12.1291667 24.4291667,12.1291667 C25.2782451,12.1291667 25.9666667,12.8175882 25.9666667,13.6666667 Z" id="Path" fill="#F8CF6A"></path>
                    <path d="M36.7291667,11.3604167 C36.7291667,12.6340342 35.6965342,13.6666667 34.4229167,13.6666667 C33.1492991,13.6666667 32.1166667,12.6340342 32.1166667,11.3604167 C32.1166667,10.0867991 33.1492991,9.05416667 34.4229167,9.05416667 C35.6965342,9.05416667 36.7291667,10.0867991 36.7291667,11.3604167 Z" id="Path" fill="#DC6068"></path>
                    <polygon id="Path" fill="#BAB8B9" points="0 14.5208333 3.92916667 14.5208333 3.92916667 16.0583333 0 16.0583333"></polygon>
                    <path d="M3.92916667,11.4458333 L0.0706022135,11.4458333 C0.0276269531,11.696578 0,11.9525778 0,12.2145833 L0,12.9833333 L3.92916667,12.9833333 L3.92916667,11.4458333 Z" id="Path" fill="#BAB8B9"></path>
                    <path d="M3.92916667,18.9625 L3.92916667,17.425 L0,17.425 L0,18.19375 C0,18.4557556 0.0276269531,18.7117554 0.0706022135,18.9625 L3.92916667,18.9625 Z" id="Path" fill="#BAB8B9"></path>
                    <g id="Group" transform="translate(9.225000, 10.591667)" fill="#5789D6">
                        <path d="M13.7520833,35.875 C6.16948656,35.875 0,29.7112206 0,22.1356383 C0,14.5600559 6.16948656,8.3962766 13.7520833,8.3962766 C21.3346801,8.3962766 27.5041667,14.5600559 27.5041667,22.1356383 C27.5041667,29.7112206 21.3346801,35.875 13.7520833,35.875 Z M13.7520833,9.92287234 C7.01220458,9.92287234 1.52800926,15.4019944 1.52800926,22.1356383 C1.52800926,28.8692822 7.01220458,34.3484043 13.7520833,34.3484043 C20.4919621,34.3484043 25.9761574,28.8692822 25.9761574,22.1356383 C25.9761574,15.4019944 20.4919621,9.92287234 13.7520833,9.92287234 Z" id="Shape" fill-rule="nonzero"></path>
                        <path d="M13.7520833,35.875 C9.89624747,35.875 6.87604167,29.8405489 6.87604167,22.1356383 C6.87604167,14.4307277 9.89624747,8.3962766 13.7520833,8.3962766 C17.6079192,8.3962766 20.628125,14.4307277 20.628125,22.1356383 C20.628125,29.8405489 17.6079192,35.875 13.7520833,35.875 Z M13.7520833,9.92287234 C11.1698373,9.92287234 8.40405093,14.8310118 8.40405093,22.1356383 C8.40405093,29.4402648 11.1698373,34.3484043 13.7520833,34.3484043 C16.3343294,34.3484043 19.1001157,29.4402648 19.1001157,22.1356383 C19.1001157,14.8310118 16.3343294,9.92287234 13.7520833,9.92287234 Z" id="Shape" fill-rule="nonzero"></path>
                        <path d="M14.516088,35.1117021 L12.9880787,35.1117021 L12.9880787,9.15957447 C12.9880787,9.07795226 13.0011354,8.99633005 13.0268758,8.91843493 L14.5548851,4.3386477 L16.0045541,4.82167213 L14.516088,9.28331221 L14.516088,35.1117021 Z" id="Path"></path>
                        <polygon id="Path" points="0.76400463 21.3723404 26.740162 21.3723404 26.740162 22.8989362 0.76400463 22.8989362"></polygon>
                        <polygon id="Path" points="16.5402525 2.33909055 22.6530357 0.049942389 23.1891073 1.47926231 17.0766972 3.76841056"></polygon>
                    </g>
                    <path d="M24.5145833,16.0583333 C23.243218,16.0583333 22.2083333,15.0234487 22.2083333,13.7520833 C22.2083333,12.480718 23.243218,11.4458333 24.5145833,11.4458333 C25.7859487,11.4458333 26.8208333,12.480718 26.8208333,13.7520833 C26.8208333,15.0234487 25.7859487,16.0583333 24.5145833,16.0583333 Z M24.5145833,12.9833333 C24.0911702,12.9833333 23.7458333,13.3286702 23.7458333,13.7520833 C23.7458333,14.1754964 24.0911702,14.5208333 24.5145833,14.5208333 C24.9379964,14.5208333 25.2833333,14.1754964 25.2833333,13.7520833 C25.2833333,13.3286702 24.9379964,12.9833333 24.5145833,12.9833333 Z" id="Shape" fill="#EEBC5A" fill-rule="nonzero"></path>
                    <path d="M34.4229167,14.5208333 C32.7741205,14.5208333 31.4333333,13.1800461 31.4333333,11.53125 C31.4333333,9.88245387 32.7741205,8.54166667 34.4229167,8.54166667 C36.0717128,8.54166667 37.4125,9.88245387 37.4125,11.53125 C37.4125,13.1800461 36.0717128,14.5208333 34.4229167,14.5208333 Z M34.4229167,10.0364583 C33.5985186,10.0364583 32.928125,10.7068519 32.928125,11.53125 C32.928125,12.3556481 33.5985186,13.0260417 34.4229167,13.0260417 C35.2473147,13.0260417 35.9177083,12.3556481 35.9177083,11.53125 C35.9177083,10.7068519 35.2473147,10.0364583 34.4229167,10.0364583 Z" id="Shape" fill="#CA5057" fill-rule="nonzero"></path>
                </g>
            </g>
        </g>
    </g>
</svg>