<?xml version="1.0" encoding="UTF-8"?>
<svg width="322px" height="66px" viewBox="0 0 322 66" version="1.1" xmlns="http://www.w3.org/2000/svg" xmlns:xlink="http://www.w3.org/1999/xlink">
    <!-- Generator: Sketch 52.2 (67145) - http://www.bohemiancoding.com/sketch -->
    <title>Asset1</title>
    <desc>Created with Sketch.</desc>
    <g id="Page-1" stroke="none" stroke-width="1" fill="none" fill-rule="evenodd">
        <g id="offer" transform="translate(-890.000000, -1534.000000)" fill="#FAED44">
            <g id="Asset1" transform="translate(890.000000, 1534.000000)">
                <path d="M301.626221,10 L300.159828,10 L297.695303,10 C295.957812,10 294.232644,10 292.495154,10 L281.83608,10.1699482 C276.204639,10.2761658 270.573198,10.5523317 264.941757,10.9134716 C250.590003,11.8481868 236.234141,12.8749572 221.874172,13.9937829 C210.463419,14.886011 199.056773,15.891538 187.654234,17.0103637 L163.008978,19.4533692 C156.97089,20.0694315 150.932803,20.897929 144.894715,21.5777218 C131.808084,23.1709863 118.733775,25.0404166 105.659467,26.8673599 C98.725935,27.8445621 91.7841878,28.8005208 84.8342256,29.7352359 C78.7838152,30.5637334 72.7334048,31.1160651 66.6829945,31.7108839 C63.8241448,32.0082932 60.9652951,32.4119202 58.0571548,32.5818684 L47.6075662,33.1766872 C40.7685077,33.5803142 33.9171265,33.8989671 27.0657453,34.1963764 C25.3159321,34.1963764 23.5537963,34.3238376 21.8039831,34.4512988 C18.9697786,34.621247 16.1355742,34.7911952 13.3136923,35.1735787 C12.1507153,35.3992245 10.9950416,35.725369 9.85103386,36.1507809 C7.81780023,36.8093302 6.22818121,39.4435274 4.70017533,41.6103671 C3.33127576,43.5467782 2.10986751,45.7737601 1.06500006,48.2383473 C0.830870123,48.8544096 0.59674019,49.4704718 0.350287629,50.0865341 C0.0455613584,50.6590362 -0.0703772643,51.4585232 0.042221927,52.2108867 C1.52093729,53.5917159 3.0612658,54.6963793 4.58927168,55.9072603 C5.02538645,56.136936 5.49942232,55.9326331 5.82153449,55.3761722 C6.91608686,54.2938766 7.91597895,52.9492019 8.79128785,51.3823892 C10.2823258,51.3823892 11.7610412,51.5735809 13.2520792,51.6585551 L17.269256,51.9134774 L29.0127205,52.6782443 C35.1740345,53.0818713 41.3353486,53.2943066 47.3980816,53.5917159 C49.8626072,53.7191771 52.2285518,53.5917159 54.6437869,53.5917159 L67.0896412,53.5917159 C73.1154063,53.5917159 79.1411714,53.0818713 85.1546139,52.7844619 C96.6023354,52.2108867 108.050057,51.2761716 119.497778,50.6601093 C132.140795,50.0440471 144.783811,49.3854977 157.43915,49.0243578 C171.281569,48.6419743 185.128095,48.3799708 198.978729,48.2383473 C210.069095,48.0896426 221.15946,48.0683991 232.249825,48.3658085 C238.337203,48.5357567 244.436904,48.5570002 250.51196,49.0031143 L260.887613,49.7466377 C263.475365,49.9378294 266.063116,50.4476741 268.638546,50.8300575 C270.141906,51.1487104 271.65759,51.4248763 273.136305,51.8709903 L275.366701,52.5720267 C276.923969,53.2430944 278.510794,53.6907375 280.110912,53.9103688 L281.343175,54.1228041 C283.427576,52.9244075 285.377944,51.1211083 287.110165,48.790679 C289.87646,45.1682647 292.491227,41.2142545 294.935034,36.9580349 C297.394436,32.6877831 299.675698,28.1232156 301.76177,23.2984475 L303.905907,17.7326436 C304.880149,15.9509148 305.236223,13.4147331 304.842427,11.0621763 L304.559007,10.5523317 C303.928372,10.3434022 303.290234,10.2085496 302.648999,10.1487047 C302.328611,10.1487047 301.983577,10.1487047 301.650866,10.1487047 L301.626221,10 Z" id="Path" opacity="0.498373326"></path>
                <path d="M186.415024,0.277759793 C180.928555,0.277759793 175.429758,0.277759793 169.943289,0.534153448 C157.219614,0.947232114 144.479499,1.36743283 131.722946,1.79475558 C117.470457,2.2932988 103.217968,2.8203302 88.9654787,3.37584979 C76.6363358,3.82453869 64.3934969,3.99546779 52.1013415,4.27322758 C47.0833804,4.27322758 42.0654192,4.42279055 37.0474581,4.46552282 C34.5943208,6.01065856 32.3098972,8.26460617 30.2910878,11.1317579 C25.2279574,17.727718 20.6047644,25.2809699 16.507106,33.6516672 C14.1925341,38.1087494 12.1283448,42.9379631 10.3425346,48.0738103 C9.91101459,49.7617352 9.49182373,51.4496601 9.1096203,53.1162188 C8.72741687,55.936549 9.34387402,57.0262221 10.9713209,56.3638718 C26.8759152,56.2570411 42.7681803,55.9579152 58.6604455,55.7015215 C71.4950832,55.4878601 84.3173918,55.1032697 97.1397004,54.7827776 C109.024994,54.5050178 120.910288,54.4195533 132.807911,54.2699903 C145.223358,54.1417935 157.626475,54.2699903 170.054251,54.4836517 C182.482027,54.697313 194.712537,55.1887342 207.04168,55.6374231 C212.318553,55.8297184 217.595426,56.1929427 222.872299,56.4920686 C228.149173,56.7911946 233.684958,57.0475882 239.085122,57.474911 L257.776103,58.9919068 C262.55981,59.3764972 267.343518,60.1670444 272.114896,60.8080285 C273.261506,61.4276465 274.420446,61.9831661 275.567056,62.4532211 L279.623344,64.141146 C280.794613,64.6325672 282.002869,64.9957915 283.198796,65.3162836 C284.490643,65.7035989 285.796682,65.9320746 287.107134,66 C287.933186,66 288.759239,65.8931693 289.572962,65.8290709 C292.415137,64.0465989 295.059236,61.4302823 297.389639,58.094529 C301.196208,53.0787255 304.796792,47.6100342 308.16531,41.7280673 C311.562265,35.9026751 314.718123,29.6696917 317.609433,23.0754289 L320.53144,15.3622532 C321.860688,12.8847345 322.330191,9.36981803 321.764354,6.13208158 C320.888985,4.57235351 319.298526,4.87147944 318.176574,4.70055034 C317.848057,4.66851585 317.51876,4.66851585 317.190242,4.70055034 C316.869685,4.70055034 316.549127,4.70055034 316.228569,4.70055034 L313.47917,4.27322758 L309.780428,3.78180641 C306.833762,3.46131434 303.887097,3.03399158 300.940432,2.8203302 C294.886823,2.37164131 288.833214,1.858854 282.779605,1.60246034 C268.662736,1.04694076 254.619842,0.640984137 240.576949,0.299125931 C228.728642,0 216.892665,0 205.056688,0 L203.971723,0 C198.115381,0 192.259038,0.192295241 186.415024,0.277759793 Z" id="Path" opacity="0.457822731"></path>
            </g>
        </g>
    </g>
</svg>