<svg height="476" viewBox="0 0 1440 476" width="1440" xmlns="http://www.w3.org/2000/svg" xmlns:xlink="http://www.w3.org/1999/xlink"><linearGradient id="a" x1="101.940104%" x2="10.752496%" y1="162.358159%" y2="-9.354737%"><stop offset="0" stop-color="#376aa4"/><stop offset="1" stop-color="#0b294e"/></linearGradient><g fill="none" transform="translate(-1 -373)"><path d="m0 849h1441v-849h-1440z" fill="url(#a)"/><g fill="#0c6cd4" fill-opacity=".079965"><path d="m269.610408 514.03625-14.389591 8.46375-14.389592 8.235-114.888327 66.3375-43.0545713-24.93375 114.8883263-66.3375 28.664981-16.69875-28.664981-16.584375-28.66498 16.584375-115.0025295 66.451875-43.0545718-24.93375 114.8883263-66.3375 28.779184-16.69875-28.779184-16.584375-28.6649797 16.584375-129.2779183 74.915625v183l157.942898 91.5 158.057102-91.5v-183zm-272.610408 41.96375 115 66.333333v132.666667l-115-66.333333zm259 132.628588-115 66.371412v-132.742824l115-66.257176z"/><path d="m1446.61041 514.03625-14.38959 8.46375-14.38959 8.235-114.88833 66.3375-43.05457-24.93375 114.88832-66.3375 28.66498-16.69875-28.66498-16.584375-28.66498 16.584375-115.00253 66.451875-43.05457-24.93375 114.88833-66.3375 28.77918-16.69875-28.77918-16.584375-28.66498 16.584375-129.27792 74.915625v183l157.9429 91.5 158.0571-91.5v-183zm-272.61041 41.96375 115 66.333333v132.666667l-115-66.333333zm259 132.628588-115 66.371412v-132.742824l115-66.257176z"/><path d="m178.610408 862.03625-14.389591 8.46375-14.389592 8.235-114.8883266 66.3375-43.05457169-24.93375 114.88832629-66.3375 28.664981-16.69875-28.664981-16.584375-28.6649797 16.584375-115.0025298 66.451875-43.0545718-24.93375 114.8883267-66.3375 28.7791833-16.69875-28.7791833-16.584375-28.66498008 16.584375-129.27791832 74.915625v183l157.9428984 91.5 158.0571016-91.5v-183zm-272.610408 41.96375 115 66.333333v132.666667l-115-66.33333zm259 132.62859-115 66.37141v-132.742824l115-66.257176z"/><path d="m1555.61041 857.03625-14.38959 8.46375-14.38959 8.235-114.88833 66.3375-43.05457-24.93375 114.88832-66.3375 28.66498-16.69875-28.66498-16.584375-28.66498 16.584375-115.00253 66.451875-43.05457-24.93375 114.88833-66.3375 28.77918-16.69875-28.77918-16.584375-28.66498 16.584375-129.27792 74.915625v183l157.9429 91.5 158.0571-91.5v-183zm-272.61041 41.96375 115 66.333333v132.666667l-115-66.33333zm259 132.62859-115 66.37141v-132.742824l115-66.257176z"/><path d="m445.29888 772.71-10.701121 6.29-10.70112 6.12-85.439104 49.3-32.018431-18.53 85.439103-49.3 21.317312-12.41-21.317312-12.325-21.317311 12.325-85.524033 49.385-32.018431-18.53 85.439103-49.3 21.402241-12.41-21.402241-12.325-21.317311 12.325-96.140224 55.675v136l117.457535 68 117.542465-68v-136zm-203.29888 31.29 86 49.333333v98.666667l-86-49.333333zm193 98.638347-86 49.361653v-98.723307l86-49.276693z"/><path d="m1198.29888 767.71-10.70112 6.29-10.70112 6.12-85.4391 49.3-32.01844-18.53 85.43911-49.3 21.31731-12.41-21.31731-12.325-21.31731 12.325-85.52404 49.385-32.01843-18.53 85.43911-49.3 21.40224-12.41-21.40224-12.325-21.31732 12.325-96.14022 55.675v136l117.45754 68 117.54246-68v-136zm-203.29888 31.29 86 49.333333v98.666667l-86-49.333333zm193 98.638347-86 49.361653v-98.723307l86-49.276693z"/><path d="m457.29888 309.71-10.701121 6.29-10.70112 6.12-85.439104 49.3-32.018431-18.53 85.439103-49.3 21.317312-12.41-21.317312-12.325-21.317311 12.325-85.524033 49.385-32.018431-18.53 85.439103-49.3 21.402241-12.41-21.402241-12.325-21.317311 12.325-96.140224 55.675v136l117.457535 68 117.542465-68v-136zm-203.29888 31.29 86 49.333333v98.666667l-86-49.333333zm193 98.638347-86 49.361653v-98.723307l86-49.276693z"/><path d="m1262.29888 268.71-10.70112 6.29-10.70112 6.12-85.4391 49.3-32.01844-18.53 85.43911-49.3 21.31731-12.41-21.31731-12.325-21.31731 12.325-85.52404 49.385-32.01843-18.53 85.43911-49.3 21.40224-12.41-21.40224-12.325-21.31732 12.325-96.14022 55.675v136l117.45754 68 117.54246-68v-136zm-203.29888 31.29 86 49.333333v98.666667l-86-49.333333zm193 98.638347-86 49.361653v-98.723307l86-49.276693z"/></g></g></svg>