<svg height="49" viewBox="0 0 47 49" width="47" xmlns="http://www.w3.org/2000/svg"><g fill="none" fill-rule="evenodd" transform="translate(-4 -4)"><path d="m41.5979933 28.483871c0 7.7860912-6.311902 14.0979933-14.0979933 14.0979933s-14.0979933-6.3119021-14.0979933-14.0979933c0-7.7860913 6.311902-14.0979934 14.0979933-14.0979934s14.0979933 6.3119021 14.0979933 14.0979934z" fill="#f9e109"/><path d="m33.6419355 37.2580645c-4.4625-.0017137-8.6199597-2.2646674-11.0444305-6.0108367-2.4244708-3.7465978-2.7852066-8.4661542-.9588205-12.5379284-3.71875 2.1905493-5.8827369 6.2923135-5.5914063 10.5984375.2913307 4.3056955 2.9882813 8.0788558 6.9679436 9.7484375 3.9800908 1.6695817 8.5612651.9498236 11.8374495-1.859375-.3945816.0612651-.7981602.0612651-1.2107358.0612651z" fill="#fcbc04"/><path d="m37.2601492 28.483871c0 5.3905338-4.3696154 9.7601492-9.7601492 9.7601492s-9.7601492-4.3696154-9.7601492-9.7601492 4.3696154-9.7601493 9.7601492-9.7601493 9.7601492 4.3696155 9.7601492 9.7601493z" fill="#e59730"/><path d="m27.5 27.3994099c-1.1977788 0-2.168922-.9711432-2.168922-2.168922s.9711432-2.1689221 2.168922-2.1689221 2.168922.9711433 2.168922 2.1689221c0 .5988894.4855717 1.084461 1.0844611 1.084461s1.084461-.4855716 1.084461-1.084461c-.0063543-1.972999-1.3433972-3.6928864-3.2533831-4.1858713v-2.3208949c0-.5988894-.4855716-1.084461-1.084461-1.084461s-1.084461.4855716-1.084461 1.084461v2.3208949c-2.0884347.5671181-3.4397748 2.5867149-3.1665415 4.733397.2732334 2.1472116 2.0868461 3.7643718 4.2510025 3.7903184 1.1977788 0 2.168922.9711432 2.168922 2.168922s-.9711432 2.1689221-2.168922 2.1689221-2.168922-.9711433-2.168922-2.1689221c0-.5988894-.4855717-1.084461-1.0844611-1.084461s-1.084461.4855716-1.084461 1.084461c.0063543 1.972999 1.3433972 3.6928864 3.2533831 4.1858713v2.3208949c0 .5988894.4855716 1.084461 1.084461 1.084461s1.084461-.4855716 1.084461-1.084461v-2.3208949c2.0884347-.5671181 3.4397748-2.5867149 3.1665415-4.7333969-.2732334-2.1472117-2.0868461-3.7643719-4.2510025-3.7903185z" fill="#f9e109"/><path d="m14.4141173 17.9664263-.2098176-9.44179526 3.5406732.07868163-7.2124825-6.05848527-6.95021037 5.74375876 3.54067322.07868163.20981767 9.44179521" fill="#4891d3" transform="matrix(.70710678 -.70710678 .70710678 .70710678 -4.12852 11.500648)"/><path d="m12.4853606 14.3637593-.1232041-8.00826799 3.5645161.05483871-7.22043012-6.05053763.10967741 7.12903226c.04357914 2.71953675 1.41393991 5.28663815 3.66944071 6.87493465z" fill="#57b7eb" transform="matrix(.70710678 -.70710678 .70710678 .70710678 -1.598155 10.865265)"/><path d="m14.7439577 18.740359v-9.6516129h3.6193549l-7.2387097-6.03225806-7.2387097 6.03225806h3.61935484v9.6516129" fill="#4891d3" transform="matrix(.70710678 .70710678 .70710678 -.70710678 -4.448029 45.941643)"/><path d="m13.0669052 14.6487703v-8.13147215h3.6193548l-7.23870966-6.03225806v7.23870968c.0017673 2.76134863 1.35342906 5.34714903 3.61935486 6.92502053z" fill="#57b7eb" transform="matrix(.70710678 .70710678 .70710678 -.70710678 -1.523402 45.544008)"/><path d="m14.7439577 18.740359v-9.6516129h3.6193549l-7.2387097-6.03225806-7.2387097 6.03225806h3.61935484v9.6516129" fill="#4891d3" transform="matrix(-.70710678 -.70710678 -.70710678 .70710678 59.448029 11.058357)"/><path d="m13.0669052 14.6487703v-8.13147215h3.6193548l-7.23870966-6.03225806v7.23870968c.0017673 2.76134863 1.35342906 5.34714903 3.61935486 6.92502053z" fill="#57b7eb" transform="matrix(-.70710678 -.70710678 -.70710678 .70710678 56.523402 11.455992)"/><path d="m14.7439577 18.740359v-9.6516129h3.6193549l-7.2387097-6.03225806-7.2387097 6.03225806h3.61935484v9.6516129" fill="#4891d3" transform="matrix(-.70710678 .70710678 -.70710678 -.70710678 59.448029 45.941643)"/><path d="m13.0669052 14.6487703v-8.13147215h3.6193548l-7.23870966-6.03225806v7.23870968c.0017673 2.76134863 1.35342906 5.34714903 3.61935486 6.92502053z" fill="#57b7eb" transform="matrix(-.70710678 .70710678 -.70710678 -.70710678 56.523402 45.544008)"/></g></svg>