<svg height="17" viewBox="0 0 16 17" width="16" xmlns="http://www.w3.org/2000/svg"><path d="m776.749962 19245.586c0 .2343-.08203.4335-.246093.5976-.164062.1641-.36328.2461-.597655.2461h-4.85155v4.8515c0 .2344-.082031.4336-.246094.5977-.164062.1641-.36328.2461-.597654.2461h-2.671869c-.234375 0-.433593-.082-.597655-.2461s-.246093-.3633-.246093-.5977v-4.8515h-4.851551c-.234375 0-.433593-.082-.597655-.2461s-.246093-.3633-.246093-.5976v-2.6719c0-.2344.082031-.4336.246093-.5977.164062-.164.36328-.2461.597655-.2461h4.851551v-4.8515c0-.2344.082031-.4336.246093-.5977.164062-.164.36328-.2461.597655-.2461h2.671869c.234374 0 .433592.0821.597654.2461.164063.1641.246094.3633.246094.5977v4.8515h4.85155c.234375 0 .433593.0821.597655.2461.164063.1641.246093.3633.246093.5977z" fill="#0c6cd4" fill-rule="evenodd" transform="translate(-761 -19236)"/></svg>