<svg height="45" viewBox="0 0 45 45" width="45" xmlns="http://www.w3.org/2000/svg"><g fill="none" fill-rule="evenodd"><g fill="#828282" fill-rule="nonzero"><path d="m40.5262281 8.42096491h-14.5010527c-.4843859 0-.8771929.3927193-.8771929.87719298 0 .48447369.392807.87719301.8771929.87719301h14.5010527c1.4510526 0 2.6315789 1.1805263 2.6315789 2.6315789v17.5436842c0 1.4510527-1.1805263 2.631579-2.6315789 2.631579h-3.0301755c-.4843859 0-.877193.3927193-.877193.877193 0 .4844736.3928071.8771929.877193.8771929h3.0301755c2.418421 0 4.3859649-1.9675438 4.3859649-4.3859649v-17.5436842c0-2.418421-1.9675439-4.38596489-4.3859649-4.38596489z"/><path d="m19.4445614 32.982193h-15.05842105c-1.45105263 0-2.63157895-1.1805263-2.63157895-2.631579v-17.5436842c0-1.4510526 1.18052632-2.6315789 2.63157895-2.6315789h14.62017545c.484386 0 .877193-.39271932.877193-.87719301 0-.48447368-.392807-.87719298-.877193-.87719298h-14.62017545c-2.41842105 0-4.38596491 1.96754389-4.38596491 4.38596489v17.5436842c0 2.4184211 1.96754386 4.3859649 4.38596491 4.3859649h15.05842105c.484386 0 .877193-.3927193.877193-.8771929 0-.4844737-.392807-.877193-.877193-.877193z"/><path d="m22.457193 0c-.484386 0-.877193.3927193-.877193.87719298v5.23842106c0 .48447368.3927193.87719298.877193.87719298.4843859 0 .877193-.3927193.877193-.87719298v-5.23842106c-.0000878-.48447368-.3928948-.87719298-.877193-.87719298z"/><path d="m29.817807 3.87c-.3426316-.34254386-.8978947-.34254386-1.240614 0l-2.1357895 2.13578947c-.3425439.34254386-.3425439.89798246 0 1.24061404.1714035.17131579.3957895.25692982.6203509.25692982s.4489474-.08561403.6202631-.25692982l2.1357895-2.13578947c.3425439-.34254386.3425439-.89798246 0-1.24061404z"/><path d="m18.4726316 6.00157895-2.1357895-2.13570176c-.3426316-.34254386-.8978947-.34254386-1.240614 0-.3425439.34254386-.3425439.89798246 0 1.24061404l2.1358772 2.13578947c.1713158.17131579.3957894.25692983.6202631.25692983s.4489474-.08561404.6202632-.25692983c.3425438-.34263158.3425438-.89807017 0-1.24070175z"/><path d="m36.7025439 39.4451754-3.8242983-3.8242105 1.5160526-1.5160526c.221579-.221579.3081579-.5445614.2270176-.8472807-.0811404-.3027193-.3175439-.5391228-.6202632-.6202632l-10.5174561-2.8181579c-.3028947-.0813158-.6257018.0054386-.8472807.2270176-.221579.2215789-.3081579.5445614-.2270176.8473684l2.8181579 10.5174561c.0811404.3027193.3175439.5391228.6202632.6202632.302807.0812281.6257018-.0054386.8472807-.2270176l.9731579-.9730701 3.8242105 3.8242105c.1713158.1712281.3957895.2569298.6202632.2569298s.4489473-.0857017.6202631-.2569298l3.9697369-3.9697368c.3424561-.3425439.3424561-.8978948-.0000877-1.2405264zm-4.5899123 3.349386-3.8242105-3.8242105c-.1713158-.1713158-.3957895-.2569298-.6202632-.2569298s-.4489474.0857017-.6202632.2569298l-.5190351.5190351-2.0316666-7.5823685 7.5822807 2.0317544-1.0619298 1.0620176c-.3425439.3425438-.3425439.8979824 0 1.2405263l3.8242105 3.8242105z"/><path d="m23.0491228 8.67798246c-.1631579-.1631579-.3894737-.25701755-.6210526-.25701755-.2307018 0-.4570176.09385965-.6201755.25701755-.1630701.16315789-.2570175.38947368-.2570175.62017543 0 .23070176.0938596.45701755.2570175.62017544.1639474.16315787.3894737.25701757.6201755.25701757.2315789 0 .4570175-.0938597.6210526-.25701757.1631579-.16315789.2561404-.38947368.2561404-.62017544 0-.23070175-.0929825-.45701754-.2561404-.62017543z"/></g><path d="m14.2678683 18.4782585c-.0340603.4708337-.2078654.8414844-.5214206 1.1119633s-.7267807.4057163-1.2396888.4057163c-.5609933 0-1.002268-.1888315-1.3238374-.5665002s-.4823517-.8960788-.4823517-1.555246v-.2674722c0-.420745.0741302-.7913957.2223927-1.1119633s.3601345-.5664994.6356223-.7378027c.2754877-.1713033.5955497-.2569537.9601953-.2569537.504894 0 .911608.1352374 1.2201543.4057163.3085464.270479.4868594.6501455.5349446 1.1390111h-.9015919c-.022039-.2825002-.1006771-.4873599-.2359166-.6145851-.1352394-.1272253-.3411008-.190837-.6175904-.190837-.3005321 0-.525427.1076891-.6746912.3230705-.1492643.2153813-.2258989.5494679-.229906 1.0022696v.3305837c0 .4728372.0716258.818444.2148794 1.0368306.1432537.2183867.3691503.3275784.6776966.3275784.2784931 0 .486358-.0636117.623601-.1908369.137243-.1272253.2158811-.3240709.2359166-.5905427zm3.0624071.5559816h-1.5807911l-.3005306.9015919h-.9586927l1.628876-4.3757259h.8354751l1.6378919 4.3757259h-.9586927zm-1.3373613-.7302894h1.0939315l-.549971-1.6378919zm3.9099034.9076025h1.9143801v.7242788h-2.8159719v-4.3757259h.9015918zm3.3328847 0h1.91438v.7242788h-2.8159719v-4.3757259h.9015919zm7.0774962-2.9211577h-1.3403666v3.6454365h-.9015919v-3.6454365h-1.3223347v-.7302894h3.5642932zm4.024105 1.5567487c0 .4307627-.0761336.8084257-.2284032 1.1330004-.1522697.3245747-.3701522.5750144-.6536541.7513266-.283502.1763122-.6085727.2644669-.9752219.2644669-.3626421 0-.6862102-.087153-.9707139-.2614616-.2845038-.1743086-.5048907-.4232457-.6611674-.7468186s-.2354157-.6957263-.2374192-1.1164713v-.216382c0-.4307627.0776363-.8099284.2329112-1.1375084.155275-.3275801.3746601-.5790215.6581621-.7543319s.6075709-.2629643.9722166-.2629643c.3646456 0 .6887146.0876539.9722165.2629643.283502.1753104.5028872.4267518.6581621.7543319.1552749.32758.2329112.7057439.2329112 1.1345031zm-.9136131-.1983502c0-.4588124-.0821442-.8074245-.2464351-1.0458466-.1642909-.2384222-.3987024-.3576315-.7032416-.3576315-.3025357 0-.5359455.1177067-.7002364.3531235-.1642909.2354169-.2474369.5805227-.2494404 1.035328v.2133768c0 .4467911.0821442.7933996.2464351 1.0398359.1642909.2464364.400706.3696527.7092523.3696527.3025357 0 .5349437-.1187084.697231-.3561288.1622874-.2374204.2444316-.583528.2464351-1.0383333zm-19.5348662 8.8444284h-1.6548907l-.314618.943854h-1.0036314l1.7052296-4.580838h.874638l1.7146681 4.580838h-1.0036314zm-1.4000501-.7645217h1.1452095l-.5757509-1.7146681zm6.6793401.1824784c-.0356569.492904-.2176092.880929-.5458622 1.1640866-.3282531.2831576-.7608485.4247343-1.2977993.4247343-.5872898 0-1.0492493-.197683-1.3858923-.5930549-.3366429-.395372-.5049618-.9380826-.5049618-1.6281482v-.28001c0-.4404674.077605-.8284924.2328173-1.1640866s.3770158-.593054.665417-.7723872c.2884013-.1793331.6234661-.2689983 1.0052045-.2689983.5285609 0 .9543397.1415766 1.2773491.4247343.3230094.2831576.5096809.680621.56002 1.1924022h-.9438539c-.0230721-.2957424-.1053964-.5102049-.2469752-.6433938-.1415788-.133189-.35709-.1997825-.64654-.1997825-.3146195 0-.5500563.112737-.7063174.3382144-.156261.2254773-.2364878.5752242-.2406827 1.049251v.3460798c0 .4950015.0749832.8568085.2249518 1.0854321.1499687.2286235.3864542.3429336.7094636.3429336.2915475 0 .5091561-.0665935.6528324-.1997824.1436762-.133189.2260005-.3392617.2469751-.6182244zm3.9767715-2.290419h-1.4031963v3.8163163h-.943854v-3.8163163h-1.3843192v-.7645217h3.7313695zm1.5416282 3.8163163h-.943854v-4.580838h.943854zm4.6374692-2.1865951c0 .4509547-.0797024.8463207-.2391096 1.1861099-.1594073.3397891-.3875031.6019681-.6842942.786545-.2967911.1845768-.6370995.2768638-1.0209354.2768638-.3796409 0-.7183763-.0912383-1.0162161-.2737177-.2978399-.1824793-.5285574-.4430853-.6921596-.7818257s-.2464508-.7283384-.2485482-1.1688058v-.226525c0-.4509547.0812755-.8478938.2438289-1.1908291.1625535-.3429354.3922223-.6061631.6890134-.7896912.2967912-.1835281.6360508-.2752907 1.0177893-.2752907.3817384 0 .7209981.0917626 1.0177892.2752907s.5264599.4467558.6890134.7896912c.1625534.3429353.2438289.7388257.2438289 1.1876829zm-.9564387-.2076479c0-.4803192-.0859947-.8452724-.2579867-1.0948706-.1719921-.2495982-.4173916-.3743954-.7362061-.3743954-.3167171 0-.5610679.1232241-.73306.3696761-.171992.246452-.2590355.6077348-.2611329 1.083859v.2233788c0 .4677344.0859947.8305902.2579867 1.0885783.1719921.257988.4194891.3869801.7424985.3869801.3167171 0 .5600192-.1242728.7299138-.3728223.1698945-.2485495.2558893-.6108809.2579867-1.0870052zm5.3673831 2.394243h-.943854l-1.8373691-3.0140404v3.0140404h-.943854v-4.580838h.943854l1.8405153 3.0203327v-3.0203327h.9407078z" fill="#a03ee5"/></g></svg>