<?xml version="1.0" encoding="UTF-8"?>
<svg width="443px" height="964px" viewBox="0 0 443 964" version="1.1" xmlns="http://www.w3.org/2000/svg" xmlns:xlink="http://www.w3.org/1999/xlink">
    <!-- Generator: Sketch 52.2 (67145) - http://www.bohemiancoding.com/sketch -->
    <title>Group 3</title>
    <desc>Created with Sketch.</desc>
    <defs>
        <polygon id="path-1" points="0 0 514 0 514 938 0 938"></polygon>
    </defs>
    <g id="Page-1" stroke="none" stroke-width="1" fill="none" fill-rule="evenodd">
        <g id="Group-3" transform="translate(249.453125, 526.171875) scale(1, -1) rotate(26.000000) translate(-249.453125, -526.171875) translate(-7.546875, 57.171875)">
            <mask id="mask-2" fill="white">
                <use xlink:href="#path-1"></use>
            </mask>
            <g id="Clip-2"></g>
            <path d="M495.940297,889.788691 C471.834362,883.123404 447.726429,876.360098 423.620495,869.646801 C412.879436,866.630219 402.282257,863.127543 391.641114,859.768894 C381.467583,856.612285 371.615783,852.769543 361.686049,848.906797 C352.43375,844.880019 343.197438,840.821235 334.238895,836.174338 C327.386599,832.623653 320.534303,829.068966 313.680008,825.518281 C307.800902,822.503698 302.159598,818.951012 296.42637,815.692383 C291.954093,813.161895 287.435854,810.777434 283.159413,807.95689 C276.11128,803.285988 269.015187,798.615086 261.967054,793.992193 C253.328245,788.297093 245.18902,781.819843 236.963866,775.532629 C228.159195,768.125198 219.050777,760.971817 210.595815,753.124302 C200.825947,744.124564 191.008119,735.218844 181.773806,725.685003 C176.815933,720.626027 171.908018,715.565049 167.000103,710.506072 C162.040232,705.349077 157.519994,699.655977 152.853878,694.302944 C145.605912,686.027346 138.909486,677.305662 132.155108,668.59398 C127.161265,661.286569 122.123458,653.979158 117.083653,646.623737 C112.07782,639.374337 107.84934,631.446807 103.231184,623.90335 C98.8588234,616.70196 95.2598192,608.870447 91.3230961,601.377 C87.8559821,594.779727 85.0043558,587.794378 81.9808725,580.977061 C75.4642968,564.437868 69.0696197,547.870669 64.3495486,530.68535 C63.0386398,526.016449 61.7257327,521.297538 60.4627839,516.626636 C59.0059966,511.46964 58.2266453,506.018587 57.1075768,500.813582 C55.5628626,493.408152 54.561696,485.932709 53.5085726,478.447264 C52.8731015,470.821791 51.9039083,463.192318 51.7620264,455.568846 C51.5681877,446.275051 51.3723507,437.031266 51.5182293,427.739472 C51.712068,418.445678 52.151702,409.249902 52.7352163,400.006117 C53.1948337,391.900552 54.1440436,383.883004 54.9873417,375.827448 C58.7901762,349.27032 63.4243188,322.821213 70.5723688,296.91221 C74.4131718,282.949514 78.2999365,269.034827 82.8681339,255.266169 C87.3424096,241.629536 92.2043626,228.280958 97.4879645,214.934381 C109.511956,186.682926 122.509137,158.89356 137.059026,131.834335 C148.753292,110.096137 162.22208,89.218106 176.714018,69.2002407 L172.947153,78.964126 C170.521172,89.9342443 168.149147,100.918365 165.74315,111.890484 C157.551968,149.099669 148.745298,186.214835 141.333468,223.556046 C140.528138,227.702846 165.283532,223.47203 166.398604,223.233984 C171.166635,222.235791 175.830753,220.921537 180.408942,219.271218 C183.052741,218.257023 188.586135,216.700722 189.503372,213.284062 C199.057419,176.684995 207.338526,139.755865 216.257102,102.992766 C220.201819,86.6876174 224.480257,70.4804879 228.560861,54.2053453 C230.898915,44.8595407 233.28293,35.5417415 235.742882,26.2459465 C237.911078,18.0043551 240.333062,9.89879001 243.928069,2.12128822 C243.51841,1.65319784 243.074779,1.26312252 242.597177,0.949061874 C241.360207,0.142906211 239.891429,-0.149150183 238.166865,0.0708923053 C232.215818,-0.451208509 203.811462,8.92660228 193.679895,14.2396282 C189.387468,16.0699816 185.454742,17.7983153 182.976804,18.930534 C174.599777,22.7612737 166.442567,27.0861088 158.227406,31.2229075 C142.52048,39.138436 126.923463,47.3020123 111.472324,55.7116362 C80.1503962,72.8029364 49.8755966,91.786602 19.4449268,110.426201 C13.1821399,114.266943 6.91735465,118.109685 0.720512845,122.066449 C-3.12428678,124.518922 9.64308578,126.559316 10.2246017,126.635331 C13.4659037,127.069415 16.7571641,127.287457 20.0284411,127.281456 C22.8600841,127.285457 27.3263664,127.507499 29.9781591,125.985205 C45.395326,117.055481 60.7145744,107.93572 76.0478111,98.8739705 C91.8826304,89.5101624 109.024362,82.0567232 123.802061,71.1146104 C131.531627,65.3915053 131.345782,64.5233376 137.350783,61.3627273 L176.340329,41.7069319 C171.506352,47.2960112 166.710344,52.9230977 162.040232,58.6622059 C151.009414,72.2368271 141.043709,86.5895985 131.129961,100.990379 C121.410052,115.051094 112.855173,129.791941 104.350252,144.630806 C95.941252,159.323643 88.0698041,174.502574 80.7778739,189.829533 C72.906426,206.516756 64.9330629,223.203978 58.4224823,240.525322 C52.151702,257.114526 46.0268003,273.803748 41.1168873,290.881046 C35.8212953,309.270597 30.9593423,327.710157 26.8767406,346.489783 C23.0399344,364.053175 20.2182831,382.10266 18.4217785,400.006117 C17.4485886,409.786005 16.6232755,419.467875 16.0877213,429.295773 C15.5521671,438.34352 15.4582453,447.443277 15.2624083,456.493024 C15.2144482,459.945691 15.504207,463.400358 15.6500856,466.807016 C15.8439243,471.085842 15.7979625,475.416678 16.2335999,479.651496 C17.30271,489.671431 18.1300213,499.745376 19.8306058,509.717302 C21.3853117,518.765049 22.9420159,527.718778 25.0782377,536.670506 C26.0993877,540.903323 27.1225361,545.18415 28.0937276,549.418968 C29.2607562,554.233897 30.9593423,559.002818 32.4201264,563.721729 C35.041944,572.431411 38.105394,580.943055 41.1668457,589.554718 C44.1803373,597.972343 47.8253033,606.193931 51.3243907,614.465528 C55.3110722,624.099388 59.9751898,633.343173 64.5913474,642.684977 C68.4821087,650.662517 73.2461432,658.253983 77.6664638,665.939467 C82.0887827,673.72297 87.3384129,681.070389 92.1983675,688.613845 C97.0603205,696.007273 102.64767,703.012626 107.947258,710.115997 C118.978076,724.954862 131.034041,739.015577 143.669523,752.542189 C149.306831,758.623364 154.848218,764.704538 160.827242,770.445646 C167.289862,776.672849 173.608602,783.240117 180.412939,789.175263 C188.142505,795.938569 195.870072,802.701875 203.595642,809.465181 C210.595815,815.594364 218.275422,820.993407 225.613314,826.686506 C239.803502,837.778648 254.824999,847.994621 270.376054,857.192397 C286.072988,866.484191 301.869839,875.533938 318.202244,883.707516 C332.392432,890.760878 346.876376,896.892062 361.652077,902.633171 C375.162831,907.888186 389.209139,911.680918 403.05961,915.963745 C415.357373,919.756477 427.944895,922.727051 440.386539,926.085699 C454.528767,929.926441 468.672994,933.671164 482.91314,937.225851 C484.99141,937.747951 487.085667,938 489.151947,938 C499.990925,938 510.082525,931.084665 513.143976,920.050534 C516.693022,907.108035 508.867536,893.389386 495.940297,889.788691" id="Fill-1" fill="#C35E45" mask="url(#mask-2)"></path>
        </g>
    </g>
</svg>