<?xml version="1.0" encoding="UTF-8"?>
<svg width="333px" height="237px" viewBox="0 0 333 237" version="1.1" xmlns="http://www.w3.org/2000/svg" xmlns:xlink="http://www.w3.org/1999/xlink">
    <!-- Generator: Sketch 52.2 (67145) - http://www.bohemiancoding.com/sketch -->
    <title>Group</title>
    <desc>Created with Sketch.</desc>
    <g id="Page-1" stroke="none" stroke-width="1" fill="none" fill-rule="evenodd">
        <g id="video1" transform="translate(-595.000000, -193.000000)">
            <g id="Group-2" transform="translate(129.000000, 162.000000)">
                <g id="Group" transform="translate(466.000000, 31.000000)">
                    <rect id="Rectangle-Copy" fill="#E5E5E5" fill-rule="nonzero" x="0" y="11" width="332.8" height="225.6"></rect>
                    <rect id="Rectangle-Copy-2" fill="#FFFFFF" fill-rule="nonzero" x="23.2" y="207" width="255.2" height="4.8" rx="2.4"></rect>
                    <rect id="Rectangle-Copy-3" fill="#5491DB" fill-rule="nonzero" x="23.2" y="207" width="120" height="4.8" rx="2.4"></rect>
                    <path d="M162.8,96.6 C167.194624,96.6 171.26129,97.6986564 175,99.8959677 C178.73871,102.093279 181.706721,105.06129 183.904032,108.8 C186.101344,112.53871 187.2,116.605376 187.2,121 C187.2,125.394624 186.101344,129.46129 183.904032,133.2 C181.706721,136.93871 178.73871,139.906721 175,142.104032 C171.26129,144.301344 167.194624,145.4 162.8,145.4 C158.405376,145.4 154.33871,144.301344 150.6,142.104032 C146.86129,139.906721 143.893279,136.93871 141.695968,133.2 C139.498656,129.46129 138.4,125.394624 138.4,121 C138.4,116.605376 139.498656,112.53871 141.695968,108.8 C143.893279,105.06129 146.86129,102.093279 150.6,99.8959677 C154.33871,97.6986564 158.405376,96.6 162.8,96.6 Z M174.042857,123.315953 C174.814286,122.865629 175.2,122.190142 175.2,121.289494 C175.2,120.388846 174.814286,119.71336 174.042857,119.263035 L157.071429,108.937744 C156.3,108.487419 155.528571,108.487419 154.757143,108.937744 C153.985714,109.388068 153.6,110.063555 153.6,110.964203 L153.6,131.035797 C153.6,131.936445 153.985714,132.611932 154.757143,133.062256 C155.528571,133.512581 156.3,133.512581 157.071429,133.062256 L174.042857,123.315953 Z" id="play-circle-copy" fill="#0C6CD4"></path>
                    <text id="2:30-copy" font-family="Roboto-Regular, Roboto" font-size="10.4" font-weight="normal" fill="#4A4A4A">
                        <tspan x="290.4" y="213">2:30</tspan>
                    </text>
                    <rect id="Rectangle" fill="#5491DB" fill-rule="nonzero" x="13" y="0" width="69" height="26"></rect>
                    <text id="Part-2" font-family="Roboto-Bold, Roboto" font-size="14" font-weight="bold" fill="#FFFFFF">
                        <tspan x="25" y="18">PART 2</tspan>
                    </text>
                </g>
            </g>
        </g>
    </g>
</svg>