<svg height="45" viewBox="0 0 42 45" width="42" xmlns="http://www.w3.org/2000/svg"><g fill="none"><g fill="#828282"><path d="m3.79371639 2.99995418h1.50032048v1.49997718h-1.50032048z"/><path d="m6.79401396 2.99995418h1.49997717v1.49997718h-1.49997717z"/><path d="m9.79396822 2.99995418h1.49997708v1.49997718h-1.49997708z"/><path d="m37.5440598 31.4998627v-3.7497711c-.0027466-2.0702362-1.6802216-3.7477112-3.7501145-3.7501145h-2.9999542c-2.0702362.0024033-3.7477112 1.6798783-3.7501144 3.7501145v5.9999084c0 1.2424851-1.007309 2.2501373-2.2497941 2.2501373h-21.00036621c-1.24248498 0-2.24979399-1.0076522-2.24979399-2.2501373v-26.25011446h34.4998169v15.00011446h1.5003205v-18.74988554c-.0027466-2.07023625-1.6802216-3.7477112-3.7501145-3.75011446h-30.00022891c-2.06989286.00240326-3.7473678 1.67987821-3.74977108 3.75011446v29.99988554c.00240328 2.0702362 1.67987822 3.7477112 3.75011447 3.7501145h21.00002282c2.0698929-.0024033 3.7473679-1.6802216 3.7497712-3.7501145v-5.9999084c0-1.2428284 1.0076523-2.2501374 2.2501373-2.2501374h2.9999542c1.2428284 0 2.2501373 1.007309 2.2501373 2.2501374v3.7497711c-2.0702362.0027466-3.7477111 1.6802215-3.7501144 3.7501144v5.9999084c.0024033 2.0702363 1.6798782 3.7477112 3.7501144 3.7501145h1.4999772c2.0698928-.0024033 3.7473679-1.6798782 3.7501144-3.7501145v-5.9999084c-.0027465-2.0698929-1.6802216-3.7473678-3.7501144-3.7501144zm-33.75034341-29.99988561h30.00022891c1.2424851 0 2.249794 1.007309 2.249794 2.25013737v2.24979399h-34.4998169v-2.24979399c0-1.24282837 1.00730901-2.25013737 2.24979399-2.25013737zm36.00013741 33.75000001h-2.249794v-2.2501373c1.242485 0 2.249794 1.0076523 2.249794 2.2501373zm-3.7501145-2.2501373v2.2501373h-2.249794c0-1.242485 1.007309-2.2501373 2.249794-2.2501373zm1.5003205 10.5001831h-1.5003205c-1.242485 0-2.249794-1.007309-2.249794-2.2501374v-4.4999313h5.9999085v4.4999313c0 1.2428284-1.007309 2.2501374-2.249794 2.2501374z"/></g><g fill="#a03ee5" stroke="#a03ee5" transform="translate(11.337891 12.128906)"><path d="m8.56324305 6.52002783c-.17784165.17917776-.17784165.46653831 0 .64571607.73485511.74037603.73485511 1.94390967 0 2.68428569l-3.85882818 3.88781931c-.7348551.740376-1.92941409.740376-2.66426919 0l-.58050198-.5848632c-.7348551-.7403761-.7348551-1.9439097 0-2.6842857l3.85882818-3.88781935c.17784165-.17917776.17784165-.46653832 0-.64571608s-.46305938-.17917776-.64090103 0l-3.85882818 3.88781932c-.52681393.53077191-.81874267 1.23734081-.81874267 1.98785891 0 .7505182.28857324 1.4570871.81874267 1.9878589l.58050198.5848633c.54359145.5476754 1.25831354.8215131 1.97303563.8215131s1.42944417-.2738377 1.97303562-.8215131l3.85882818-3.8878193c1.08718292-1.09535086 1.08718292-2.88036704 0-3.97571787-.17448615-.17917777-.46305938-.17917777-.64090103 0z"/><path d="m15.4441053 1.40625-.5806965-.5848107c-1.0875471-1.0952524-2.8598461-1.0952524-3.9473932 0l-3.86012089 3.88746995c-1.08754711 1.09525241-1.08754711 2.88010818 0 3.97536058.17790122.17916166.46321451.17916166.64111573 0 .17790123-.17916166.17790123-.46649639 0-.64565805-.73510128-.7403095-.73510128-1.94373498 0-2.68404447l3.86012096-3.88746995c.7351012-.7403095 1.9300604-.7403095 2.6651617 0l.5806965.58481069c.7351012.7403095.7351012 1.94373498 0 2.68404447l-3.860121 3.88746996c-.1779012.17916165-.1779012.46649639 0 .64565805.0872723.08789062.2047543.13521635.3188796.13521635s.2316072-.04394532.3188795-.13521635l3.860121-3.88746995c.5269904-.53072416.8190169-1.23722957.8190169-1.98768029s-.2886699-1.45695613-.8156603-1.98768029z"/></g></g></svg>