<?xml version="1.0" encoding="UTF-8"?>
<svg width="76px" height="69px" viewBox="0 0 76 69" version="1.1" xmlns="http://www.w3.org/2000/svg" xmlns:xlink="http://www.w3.org/1999/xlink">
    <!-- Generator: Sketch 52.2 (67145) - http://www.bohemiancoding.com/sketch -->
    <title>marketing</title>
    <desc>Created with Sketch.</desc>
    <g id="Page-1" stroke="none" stroke-width="1" fill="none" fill-rule="evenodd">
        <g id="mib" transform="translate(-720.000000, -2549.000000)">
            <g id="marketing" transform="translate(720.000000, 2549.000000)">
                <path d="M75,29.5 C75,39.1651547 67.3890075,47 58,47 C48.6109925,47 41,39.1651547 41,29.5 C41,19.8348453 48.6109925,12 58,12 C67.3890075,12 75,19.8348453 75,29.5 Z" id="Path" fill="#F2F2F2"></path>
                <path d="M57.7861888,12 C56.4852785,12 55.21824,12.147662 54,12.4254769 C61.6854753,14.1793289 67.4281966,21.1573839 67.4281966,29.5 C67.4281966,37.842616 61.6854753,44.8206709 54,46.5745231 C55.21824,46.8523378 56.4852785,47 57.7861888,47 C67.292709,47 75,39.1651547 75,29.5 C75,19.8348453 67.292709,12 57.7861888,12 Z" id="Path" fill="#DBD9D1"></path>
                <path d="M53.9900957,39.9258642 C53.8191174,38.8325236 53.044338,38.9808842 52.8738973,37.8875437 C52.7029189,36.7947989 53.4776983,36.6464383 53.3067199,35.5530976 C53.1357415,34.4597572 52.3614997,34.6087136 52.1905214,33.515373 C52.0195429,32.4220324 52.7943223,32.273076 52.623344,31.1797353 C52.5190364,30.5118145 52.1889083,30.3074462 51.909321,30 L49,30.5582889 L50.3930976,39.4724407 C50.549559,40.4746198 51.4092898,41.1461157 52.3136473,40.9727303 L53.4561915,40.7534663 C53.8056757,40.6861381 54.0503145,40.3214926 53.9911711,39.9342057 C53.9906335,39.9318225 53.9906335,39.9288433 53.9900957,39.9258642 Z" id="Path" fill="#3C5666"></path>
                <path d="M53.4545714,26.0084105 L48.2418114,26.0084105 C47.555967,26.0084105 47,26.5922863 47,27.3125594 L47,31.6880388 C47,32.408312 47.555967,32.9921879 48.2418114,32.9921879 L53.4545714,32.9921879 L67,38 L67,21 L53.4545714,26.0084105 Z" id="Path" fill="#FD715C"></path>
                <path d="M53,34 L48.1543553,34 C47.5168123,34 47,33.4147679 47,32.6928215 L47,28.3071783 C47,27.5852321 47.5168123,27 48.1543553,27 L53,27 L53,34 Z" id="Path" fill="#F5B556"></path>
                <path d="M39.1705472,41.2602831 C34.3257058,44.8895463 27.6748713,44.8895463 22.8294528,41.2602831 C22.5056554,41.0173682 22.0872006,40.9392884 21.6970274,41.0480217 L9.62821271,44.4181758 C6.38792938,45.3233227 3.95915978,48.0202556 3.39236984,51.3435617 L1.03517044,65.1717773 C0.78294322,66.6500877 1.91940881,68 3.41661129,68 L58.5833887,68 C60.0805912,68 61.2170568,66.6500877 60.9648296,65.1717773 L58.6076302,51.3435617 C58.0414175,48.0202556 55.6126479,45.3233227 52.3717873,44.4181758 L40.3035498,41.0480217 C39.9133767,40.9392884 39.4949219,41.0173682 39.1705472,41.2602831 Z" id="Path" fill="#3C5666"></path>
                <path d="M60.9649777,65.1717773 L58.6177087,51.3435617 C58.0538814,48.0202556 55.6353437,45.3233227 52.4081361,44.4181758 L40.3907396,41.0480217 C40.0022102,40.9392884 39.5855183,41.0173682 39.2625101,41.2602831 C37.0957117,42.8901258 34.5662478,43.7854404 32,43.9514323 L45.9284321,47.9762996 C48.2590335,48.6298561 50.0051167,50.5778016 50.4126126,52.9774532 L52.9627675,68 L58.5935694,68 C60.0844645,68 61.2161424,66.6500877 60.9649777,65.1717773 Z" id="Path" fill="#194451"></path>
                <path d="M34.8659144,49.2042838 L39.5688786,44.6148453 C40.3829818,43.8206085 39.9823382,42.4017496 38.8846085,42.1898759 C37.6074528,41.9235866 36.6885915,40.3843185 36.6885915,39.0308742 L36.6885915,33 L24.3115489,33 L24.3115489,39.0308742 C24.3115489,40.3843185 23.3926877,41.9230077 22.115532,42.1898759 C21.0172451,42.4017496 20.6171587,43.8206085 21.4312618,44.6148453 L26.134226,49.2042838 C28.5887944,51.5985721 32.4119032,51.5985721 34.8659144,49.2042838 Z" id="Path" fill="#FFE7CF"></path>
                <path d="M30.0005711,42.1443908 C30.0005711,43.1168406 30.7070356,43.9508494 31.6807804,44.1285246 L38.6546198,46 L40.5581335,44.2456669 C41.392527,43.4766749 40.981898,42.1029146 39.8568089,41.8977753 C38.547822,41.63995 37.6060594,40.1496076 37.6060594,38.8391826 L37.6060594,33 L30,33 L30,42.1443908 L30.0005711,42.1443908 Z" id="Path" fill="#EFD5BD"></path>
                <path d="M44.7543432,17.7847431 L43.9083212,17.7847431 L43.9083212,14.3346975 C43.9083212,10.9006324 42.5318019,7.57310516 39.9908468,5.33226225 C37.9988814,3.57557405 35.1990342,2.04202324 31.4999999,2 C27.8009656,2.04202324 25.0011184,3.57557405 23.009153,5.33226225 C20.4681978,7.57310516 19.0916785,10.9006324 19.0916785,14.3346975 L19.0916785,17.7847431 L18.2456566,17.7847431 C17.00494,17.7847431 16,18.8146075 16,20.0847735 L16,22.633392 C16,23.9041499 17.005518,24.9334223 18.2456566,24.9334223 L19.0945679,24.9334223 C19.1644919,28.2721954 20.5340765,31.4848988 23.008575,33.6671459 C25.0011184,35.4238341 27.8009656,36.9573849 31.4999999,37 C35.1990342,36.9573849 37.9988814,35.4238341 39.9908468,33.6671459 C42.4653454,31.4848988 43.83493,28.2721954 43.9048539,24.9334223 L44.7543432,24.9334223 C45.9944818,24.9334223 46.9999998,23.9035581 46.9999998,22.633392 L46.9999998,20.0847735 C47.0005776,18.8146075 45.9950598,17.7847431 44.7543432,17.7847431 Z" id="Path" fill="#FFE7CF"></path>
                <path d="M44.7905255,17.7847431 L43.9581348,17.7847431 L43.9581348,14.3346975 C43.9581348,10.9006324 42.6037942,7.57310516 40.1037793,5.33226225 C38.1439087,3.57557405 35.389173,2.04202324 31.7497381,2 C30.3754975,2.01598054 29.12748,2.24444478 28,2.61791863 C29.8575276,3.23228592 31.3852829,4.23906725 32.6048717,5.33226225 C35.1048866,7.57310516 36.4592273,10.9006324 36.4592273,14.3346975 L36.4592273,17.7847431 L36.4558157,24.9340143 C36.3870185,28.2721954 35.0395007,31.4848988 32.6048717,33.6671459 C31.3852829,34.7609329 29.8575276,35.7671221 28,36.3820814 C29.12748,36.7549634 30.3754975,36.9840193 31.7497381,37 C35.389173,36.9573849 38.1439087,35.424426 40.1037793,33.6671459 C42.5384084,31.4848988 43.885926,28.2721954 43.9547233,24.9340143 L44.7905255,24.9340143 C46.0112515,24.9340143 46.9999998,23.9041499 46.9999998,22.6339838 L46.9999998,20.0847735 C47.0005683,18.8146075 46.0112515,17.7847431 44.7905255,17.7847431 Z" id="Path" fill="#EFD5BD"></path>
                <path d="M27.9093274,68 L34.0912451,68 L42,41.5465897 L40.2290756,41.0480363 C40.180408,41.0347338 40.1317405,41.0237448 40.0830731,41.016226 C40.0338329,41.0081289 39.984593,41.0029237 39.935353,41.0011885 C39.6404852,40.9884644 39.3467624,41.0781115 39.1051426,41.2602975 C36.7021133,43.0746389 33.8513429,44.7432315 31,44.7432315 C28.1492296,44.7432315 25.2984592,43.0746389 22.8948574,41.2602975 C22.8353113,41.2151847 22.7711847,41.1775908 22.7053404,41.1440454 C22.6389236,41.1099218 22.5707892,41.0798466 22.5003644,41.0578685 C22.4534145,41.0434094 22.4058922,41.0312637 22.3577971,41.0225881 C22.2616073,41.0040803 22.1631273,40.9971399 22.064647,41.0011885 C22.0159796,41.0029237 21.9667396,41.0081289 21.9174994,41.016226 C21.8682595,41.0237448 21.819592,41.0347338 21.7714969,41.0480363 L20,41.5465897 L27.9093274,68 Z" id="Path" fill="#DBD9D1"></path>
                <path d="M32,44.7374498 C29.1492296,44.7374498 26.2978867,43.071428 23.8948574,41.2598819 C23.5730793,41.0173415 23.1579741,40.939382 22.7709244,41.0479477 L21,41.545733 L23.531855,50 L32,44.7374498 Z" id="Path" fill="#194451"></path>
                <path d="M31,44.7375985 L39.4687175,50 L42,41.5459718 L40.2290756,41.0482005 C39.8420259,40.9390604 39.4269207,41.0175951 39.1051426,41.2601287 C36.7021133,43.0716237 33.8513429,44.7375985 31,44.7375985 Z" id="Path" fill="#194451"></path>
                <path d="M38.2469822,1 L23.7524517,1 C20.0232323,1 17,4.14106123 17,8.01621317 L17,17.6970344 C17,17.6970344 18.8592313,17.6529185 20.0543705,18.8816969 C20.3029095,19.1375699 20.7258224,18.9505179 20.7258224,18.5870019 L20.7258224,10.9996331 C20.7258224,9.28675479 22.0624988,7.89857043 23.7111229,7.89857043 L26.4229735,7.89857043 C27.134622,7.89857043 27.8236246,8.15385511 28.374487,8.62148505 L28.6405766,8.84735911 C29.3063671,9.41322078 30.1397375,9.72203294 30.9997169,9.72203294 C31.8596964,9.72203294 32.6936329,9.41322078 33.3594234,8.84735911 L33.6255132,8.62148505 C34.1763755,8.15385511 34.865378,7.89857043 35.5770265,7.89857043 L38.2888773,7.89857043 C39.9375013,7.89857043 41.2736115,9.28675479 41.2736115,10.9996331 L41.2736115,18.5870019 C41.2736115,18.9505179 41.6965244,19.1375699 41.9456296,18.8816969 C43.1402026,17.6529185 45,17.6970344 45,17.6970344 L45,8.01621317 C44.9994339,4.14106123 41.9762016,1 38.2469822,1 Z" id="Path" fill="#FED066"></path>
                <path d="M38.331523,1 L31,1 C34.6456353,1 37.6058622,4.07810134 37.6656816,7.8985234 L38.3728936,7.8985234 C40.0008786,7.8985234 41.320262,9.2866983 41.320262,10.999565 L41.320262,18.5868819 C41.320262,18.9509838 41.7378805,19.1374462 41.983308,18.881575 C43.1634854,17.6533931 45,17.6969206 45,17.6969206 L45,8.01616534 C44.999441,4.14103981 42.0140564,1 38.331523,1 Z" id="Path" fill="#F5B556"></path>
                <polygon id="Path" fill="#FD715C" points="32.6676743 52 28.2745136 52 26 68 35 68"></polygon>
                <polygon id="Path" fill="#D83E3A" points="31.027471 45 26 47.9386661 28.6962842 52 33.2753589 52 36 47.906718"></polygon>
                <path d="M20.1649344,41 L15.250861,46.1706021 C14.8941029,46.5460449 14.9213277,47.1587958 15.3104152,47.4976387 L20.8149261,52.3010625 C21.124608,52.5714286 21.1438921,53.0596223 20.8568976,53.3547817 L17.9795784,56.3146399 C17.6046703,56.7007085 17.6443732,57.342385 18.0635214,57.6753246 L24.4919733,68 L28,68 L20.1649344,41 Z" id="Path" fill="#4F6877"></path>
                <path d="M38.5271109,68 L44.9334845,57.7041766 C45.3530811,57.3706607 45.3922587,56.7278741 45.0169495,56.3417289 L42.1371191,53.376158 C41.8498174,53.0804881 41.8691222,52.5914497 42.1785677,52.3206159 L47.6895366,47.5088811 C48.0784726,47.1694518 48.1062943,46.5556408 47.7485867,46.1795484 L42.8298227,41 L35,68 L38.5271109,68 Z" id="Path" fill="#4F6877"></path>
                <path d="M67.8662097,20 C67.2402631,20 66.7324193,20.4926485 66.7324193,21.101147 L66.7324193,21.3821689 L53.6312358,25.8618873 L48.4211148,25.8618873 C47.0859586,25.8618873 46,26.9165798 46,28.2132951 L46,32.4079769 C46,33.6089155 46.931834,34.6005213 48.1299905,34.7404587 L48.9992298,39.6164755 C49.2484274,41.0124087 50.501502,42 51.9128347,42 C52.0799507,42 52.2494288,41.9862357 52.4194973,41.9575599 L53.6743434,41.7459332 C54.6752677,41.5778936 55.3537703,40.655683 55.1860638,39.6898853 C55.1854734,39.6852972 55.1848829,39.6807091 55.1837018,39.6755473 C55.1831113,39.6744004 55.1831113,39.6732534 55.1831113,39.6721063 C55.0213099,38.7739834 54.5152379,38.3306569 54.2128938,38.0656934 C54.0008986,37.8798749 53.9843643,37.8626694 53.957791,37.7147028 C53.9318083,37.5673097 53.9412565,37.5455161 54.0764846,37.3017727 C54.2701738,36.9530761 54.5937766,36.3692387 54.4331563,35.4676746 C54.4018589,35.2910323 54.3563892,35.1321689 54.3026522,34.9887904 L66.7324193,39.2385297 L66.7324193,39.6893117 C66.7324193,40.2972367 67.2396724,40.7904587 67.8662097,40.7904587 C68.4921566,40.7904587 69,40.2972367 69,39.6893117 L69,21.1005736 C69,20.4926485 68.492747,20 67.8662097,20 Z M52.0327095,39.7873826 C51.6571414,39.8504692 51.2986983,39.6050052 51.2337416,39.2408237 L50.4347738,34.7593848 L51.2957457,34.7593848 C51.5059694,35.1092283 51.7622533,35.3334724 51.9441322,35.4929092 C52.1561274,35.6787278 52.1732523,35.6965067 52.1998255,35.8438998 C52.2258082,35.9912929 52.2157694,36.01366 52.0805413,36.2574034 C51.8874426,36.6061 51.5632493,37.1899374 51.7238696,38.0909281 C51.8803564,38.9684045 52.3651699,39.412878 52.6704665,39.6801354 L52.0327095,39.7873826 Z M52.6911346,32.5570908 L48.4211148,32.5570908 C48.3360805,32.5570908 48.2675807,32.4899895 48.2675807,32.4079769 L48.2675807,28.2132951 C48.2675807,28.130709 48.3360805,28.0641814 48.4211148,28.0641814 L52.6911346,28.0641814 L52.6911346,32.5570908 Z M66.7324193,36.9043273 L54.9587153,32.8788321 L54.9587153,27.74244 L66.7324193,23.7169447 L66.7324193,36.9043273 Z" id="Shape" fill="#000000" fill-rule="nonzero"></path>
                <path d="M76,29.6854606 C76,19.4950763 67.7014081,11.2046728 57.5009589,11.2046728 C53.5888153,11.2046728 49.833227,12.4257579 46.7021205,14.6802472 L46.7021205,11.9107935 C46.7021205,11.2961961 46.2040426,10.7986097 45.5888382,10.7986097 C44.9742136,10.7986097 44.4755559,11.2961961 44.4755559,11.9107935 L44.4755559,16.5477892 C44.0076294,16.6340993 43.4457698,16.7905 42.8862295,17.0720216 L42.8862295,10.9596447 C42.8862295,8.66228995 41.0156832,6.7935895 38.7160595,6.7935895 L35.9380722,6.7935895 C34.9558325,6.7935895 33.9956265,7.13535439 33.2348836,7.75690292 L32.9629411,7.97933968 C32.4810986,8.37265889 31.8728522,8.58930296 31.2506898,8.58930296 C30.6285274,8.58930296 30.0208608,8.37265889 29.5390182,7.97933968 L29.2664959,7.75690292 C28.505753,7.13593362 27.546127,6.7935895 26.5633074,6.7935895 L23.7859,6.7935895 C21.4862762,6.7935895 19.6151501,8.66228995 19.6151501,10.9596447 L19.6151501,17.0720216 C19.0556098,16.7905 18.49433,16.6346785 18.0258237,16.5477892 L18.0258237,8.0216258 C18.0258237,4.82467654 20.6287009,2.22436764 23.8282279,2.22436764 L38.6731516,2.22436764 C41.4615759,2.22436764 43.8597715,4.20718289 44.3752446,6.93956363 C44.4894719,7.54315513 45.071046,7.94052906 45.6758135,7.82641441 C46.280001,7.71287898 46.6771876,7.13129952 46.56354,6.52770802 C45.8497637,2.74512458 42.5313707,0 38.6731516,0 L23.8282279,0 C19.4011912,0 15.799259,3.59837807 15.799259,8.0216258 L15.799259,16.9683336 C15.0373565,17.5991505 14.5850854,18.5381348 14.5850854,19.5524232 L14.5850854,22.0473064 C14.5850854,23.8366481 15.9911843,25.304499 17.75794,25.4052905 C18.0925047,28.6508978 19.6058727,31.6254103 22.0040684,33.6887431 C22.5508524,34.1585248 23.1161911,34.5796486 23.6977652,34.9567485 L23.6977652,38.4022013 C23.6977652,38.9252752 23.4762683,39.492373 23.1399643,39.9048079 C22.6934916,39.7310291 22.2000525,39.6910601 21.7274873,39.7959065 C21.6874788,39.8022785 21.6474702,39.8109674 21.6074615,39.8219733 C21.6068818,39.8219733 21.606302,39.8219733 21.6057222,39.8225527 L19.811714,40.3218768 L9.48138191,43.1979148 C5.82958407,44.2145202 3.05681524,47.2840317 2.41841746,51.0179571 L2.09834879,52.8889747 C1.99513817,53.4943039 2.40218209,54.0695116 3.00868894,54.1726202 C3.07189087,54.1836262 3.13509294,54.1888396 3.19713513,54.1888396 C3.72942331,54.1888396 4.20024895,53.8059472 4.29302248,53.2637575 L4.61309114,51.3921607 C5.10711017,48.5027998 7.25249795,46.1272447 10.0791914,45.3406063 L16.370396,43.5889168 L14.2957481,45.6841089 C13.90378,46.0803245 13.6938798,46.6265688 13.7199725,47.1826607 C13.746065,47.739332 14.0058308,48.2635645 14.4331689,48.6215486 L19.7131422,53.0436378 L17.0940295,55.6300444 C16.6823471,56.0366866 16.4672284,56.6014675 16.5043378,57.1789922 C16.5362288,57.6794749 16.7548263,58.1457811 17.1120044,58.4898629 L22.4864907,66.7750531 L11.8940734,66.7750531 L13.0450449,60.0457618 C13.1482555,59.4398532 12.7406318,58.8652249 12.1347048,58.7621163 C11.5287777,58.6595868 10.9535818,59.0656498 10.8497914,59.670979 L9.63503803,66.7750531 L3.54039717,66.7750531 C3.14668963,66.7750531 2.79009136,66.6099634 2.5361239,66.3093262 C2.2827361,66.0086889 2.17952563,65.6298514 2.24562669,65.2423249 L3.42095133,58.3682179 C3.52416196,57.7628887 3.11711804,57.1882604 2.51061104,57.0851516 C1.90468398,56.9820428 1.32948812,57.3886851 1.2256977,57.9940143 L0.0509530044,64.8675421 C-0.125316695,65.8968913 0.160541695,66.9453562 0.834309501,67.7435799 C1.50865696,68.5418035 2.49495562,68.9994208 3.54039717,68.9994208 L51.9229507,68.9994208 C51.9235305,68.9994208 51.9246902,69 51.9258498,69 C51.9264296,69 58.9615622,68.9994208 58.9615622,68.9994208 C60.0070037,68.9994208 60.9927226,68.5418035 61.66707,67.7435799 C62.3414176,66.9453562 62.627276,65.8968913 62.4510063,64.8675421 L60.0829621,51.0173779 C59.9061126,49.9833945 59.5645901,49.0003862 59.0873862,48.0973161 C68.5473867,47.2909828 76,39.3417648 76,29.6854606 Z M23.4571338,32.0030894 C21.2723173,30.1233829 19.9816055,27.3064298 19.916664,24.2745703 C19.9039078,23.6698205 19.4093088,23.1861364 18.8039617,23.1861364 L17.9516048,23.1861364 C17.3224844,23.1861364 16.8116501,22.6752269 16.8116501,22.0473064 L16.8116501,19.5524232 C16.8116501,19.211817 16.9624072,18.8961189 17.2175344,18.6823711 C17.3033497,18.6904807 17.4054006,18.7026453 17.5184684,18.7206025 C17.5231071,18.7211817 17.5277457,18.7223402 17.5323844,18.7229194 C17.568914,18.7287121 17.6060234,18.735084 17.6448724,18.7426144 C17.646032,18.7426144 17.6466118,18.7431936 17.6477715,18.7431936 C17.7150323,18.7559375 17.7857721,18.7715776 17.8576717,18.7889554 C17.877386,18.7935895 17.8971003,18.7982236 17.9168148,18.8034369 C17.9463864,18.8109673 17.9765378,18.8196563 18.0066891,18.827766 C18.0333615,18.8352964 18.0600339,18.843406 18.0867062,18.8515157 C18.1139585,18.8602047 18.1412108,18.8683143 18.1690428,18.8775825 C18.2194885,18.8943811 18.2710937,18.9123383 18.3226989,18.9320333 C18.3429932,18.9395636 18.3638672,18.9488318 18.3841613,18.9569416 C18.4218507,18.9720023 18.4595399,18.9882217 18.4972291,19.0050202 C18.5186829,19.0148677 18.5401369,19.0247152 18.5621706,19.0351419 C18.6050784,19.0554161 18.6474063,19.0768488 18.6897342,19.1000193 C18.70423,19.1075497 18.718146,19.114501 18.732062,19.1220313 C18.7871464,19.1527322 18.8410711,19.1857501 18.8944157,19.2210852 C18.9100713,19.2309327 18.9245673,19.2419385 18.9402227,19.2523653 C18.9808112,19.2807492 19.0208197,19.3097123 19.0602485,19.3404132 C19.075904,19.3525777 19.0915596,19.3647423 19.1066352,19.377486 C19.1582405,19.4197721 19.2092659,19.4643753 19.2573922,19.5118749 C19.6934278,19.9428461 20.3405231,20.068546 20.9070214,19.8327863 C21.4746795,19.5958679 21.8417147,19.0455687 21.8417147,18.4309712 L21.8417147,10.9596447 C21.8417147,9.88858857 22.7137858,9.01795714 23.7859,9.01795714 L26.5633074,9.01795714 C27.0335532,9.01795714 27.493362,9.18130906 27.8574981,9.47905001 L28.1294404,9.70148678 C29.0078898,10.4186136 30.1159536,10.8136706 31.2506898,10.8136706 C32.3854259,10.8136706 33.4934898,10.4186136 34.3719391,9.70148678 L34.6438815,9.47905001 C35.0080176,9.18188844 35.4678263,9.01795714 35.9380722,9.01795714 L38.7160595,9.01795714 C39.7875937,9.01795714 40.6596648,9.88858857 40.6596648,10.9596447 L40.6596648,18.4315505 C40.6596648,19.0461479 41.0267001,19.5958679 41.5943581,19.8327863 C41.6372658,19.8507434 41.6801736,19.8658043 41.7236613,19.8791273 C41.7369973,19.8831821 41.7503336,19.8866577 41.7636698,19.8907124 C41.7955606,19.8999806 41.8274515,19.9080904 41.8593425,19.9150415 C41.8726787,19.9179378 41.8860149,19.9208342 41.899351,19.9237305 C41.9434184,19.9318401 41.9869061,19.9387912 42.0309735,19.9428461 C42.0338726,19.9434253 42.0367718,19.9434253 42.0402508,19.9434253 C42.0814191,19.9474802 42.1231672,19.949218 42.1643355,19.9497973 C42.169554,19.9497973 42.1747724,19.9503765 42.1799909,19.9503765 C42.1875289,19.9503765 42.1956465,19.949218 42.2037641,19.949218 C42.2362348,19.9486388 42.2692855,19.946901 42.302336,19.9445839 C42.3145125,19.9434253 42.3266892,19.9428461 42.3388657,19.9411083 C42.3829331,19.9364742 42.4270005,19.9306816 42.4699082,19.9219927 C42.4704881,19.9219927 42.4704881,19.9219927 42.4704881,19.9219927 C42.5133958,19.9138829 42.5563035,19.9028771 42.5980516,19.8907124 C42.6096484,19.8872369 42.621245,19.8837614 42.6322619,19.8797066 C42.6647326,19.8698591 42.6966235,19.8588531 42.7285145,19.8461093 C42.7395314,19.8420545 42.7505481,19.8379997 42.7609852,19.8333656 C42.8433216,19.799189 42.9221791,19.7574822 42.9975577,19.7088241 C43.0079946,19.701873 43.0184317,19.6949218 43.0288687,19.6873914 C43.0567007,19.668855 43.083953,19.6485808 43.1112053,19.6277274 C43.1210624,19.6196178 43.1314994,19.6120872 43.1413567,19.6033983 C43.1767265,19.5744352 43.2109368,19.5443136 43.2434075,19.5124541 C43.2921136,19.4643753 43.3425593,19.4203515 43.3941645,19.377486 C43.4098199,19.3647423 43.4248957,19.3531569 43.4399715,19.3409924 C43.47998,19.3097123 43.5205684,19.2801699 43.5617367,19.2517861 C43.5762325,19.2419385 43.5907283,19.2315119 43.6058041,19.2216645 C43.6597287,19.1863293 43.7142332,19.1527322 43.7698973,19.121452 C43.780914,19.1156594 43.7919309,19.1098669 43.8029478,19.1040742 C43.8493346,19.0791658 43.8951416,19.0554161 43.9421081,19.0334041 C43.9612426,19.0247152 43.9797973,19.015447 43.9989318,19.0073373 C44.0412599,18.9882217 44.0835877,18.9702645 44.1259156,18.9528867 C44.1415712,18.9465148 44.1578066,18.9395636 44.1740419,18.9337711 C44.2285465,18.9129175 44.2830508,18.8932226 44.3369754,18.8758447 C44.3572696,18.8688937 44.3775639,18.863101 44.3984379,18.8567291 C44.4338078,18.8457232 44.4685979,18.8347172 44.5033879,18.825449 C44.5271611,18.8184978 44.5509343,18.8121259 44.5747076,18.805754 C44.6065984,18.7976444 44.6384894,18.790114 44.6698005,18.7825835 C44.7092292,18.7733153 44.7480782,18.7646263 44.7857674,18.7565167 C44.8124397,18.7513034 44.8385322,18.7455107 44.8640451,18.7408766 C44.8941964,18.735084 44.9226084,18.7304499 44.9510202,18.7252366 C44.9666758,18.7229194 44.9823312,18.7206025 44.9979868,18.7177061 C45.0281382,18.713072 45.0582896,18.7084379 45.0867016,18.704383 C45.0872814,18.704383 45.088441,18.704383 45.0890208,18.704383 C45.1586009,18.6945356 45.2223828,18.6875844 45.2792065,18.6823711 C45.2896436,18.6910601 45.3006605,18.6985905 45.3105176,18.7078587 C45.3226941,18.7182853 45.3342908,18.7292913 45.3458875,18.7408766 C45.3696608,18.7640471 45.3922743,18.7883762 45.4137281,18.8138637 C45.4235854,18.8242904 45.4334425,18.8352964 45.4421401,18.8463024 C45.4711318,18.882796 45.498384,18.920448 45.5227371,18.9598379 C45.5227371,18.9604171 45.5233169,18.9609963 45.5233169,18.9615757 C45.5476699,19.0009654 45.5691239,19.0432516 45.5882584,19.0855378 C45.5940567,19.0988608 45.5992752,19.1127631 45.6044938,19.1260861 C45.6166703,19.1567871 45.628267,19.1874879 45.6375443,19.2193474 C45.6427628,19.2349875 45.6468217,19.2506275 45.6508805,19.2668469 C45.6595779,19.2987063 45.6659562,19.331145 45.6717546,19.3641629 C45.6740739,19.3786446 45.6769731,19.3931261 45.6792924,19.4081869 C45.6850908,19.4556865 45.6891495,19.5037653 45.6891495,19.5524232 L45.6891495,22.0467272 C45.6891495,22.6752269 45.1777356,23.185557 44.5486151,23.185557 L43.6968381,23.185557 C43.090911,23.185557 42.5963122,23.6692411 42.5835558,24.2739911 C42.5186143,27.3058506 41.2279027,30.1228036 39.0430862,32.0025102 C36.775933,33.9528868 34.1539213,34.9590655 31.2495302,34.9944005 C28.3462986,34.9596447 25.7248667,33.9528868 23.4571338,32.0030894 Z M37.4949279,41.1293687 C35.1141273,42.7078587 33.0603533,43.4823325 31.2506898,43.4823325 C29.4410262,43.4823325 27.3872522,42.7078587 25.0064517,41.1293687 C25.579908,40.35084 25.9243298,39.3736243 25.9243298,38.4022013 L25.9243298,36.1367059 C27.5855557,36.8335587 29.361009,37.1984939 31.2385133,37.2193473 C31.242572,37.2193473 31.2466309,37.2193473 31.2506898,37.2193473 C31.2547487,37.2193473 31.2588075,37.2193473 31.2628663,37.2193473 C33.1403706,37.1984939 34.9158238,36.8341379 36.5770498,36.1367059 L36.5770498,38.4022013 C36.5770498,39.3736243 36.9214715,40.35084 37.4949279,41.1293687 Z M40.1250573,41.9971037 C40.1749232,41.9600309 40.2381251,41.9484456 40.2978481,41.964665 L40.9959689,42.1592971 L39.1793472,48.1685654 L34.3388886,45.1888396 C36.1236192,44.6136319 38.0388127,43.5553196 40.1250573,41.9971037 Z M40.8956574,39.8219733 C40.8944978,39.8219733 40.8933382,39.8219733 40.8921785,39.8213941 C40.8527497,39.8103882 40.8139008,39.8022785 40.774472,39.7959065 C40.3019068,39.6910601 39.8084677,39.7310291 39.3614153,39.9048079 C39.0251112,39.492373 38.8036144,38.9252752 38.8036144,38.4022013 L38.8036144,34.9567485 C39.0772963,34.7794941 39.3474992,34.5912338 39.6136433,34.3931262 C40.1633265,36.4703611 41.0754062,38.4456458 42.3011763,40.2135548 L40.8956574,39.8219733 Z M22.2035315,41.9652444 C22.2638342,41.9484456 22.3264564,41.9600309 22.3763222,41.9971037 C24.4625668,43.5553196 26.3783401,44.6136319 28.162491,45.1888396 L23.3220324,48.1685654 L21.5054107,42.1592971 L22.2035315,41.9652444 Z M25.1398135,66.7750531 L18.8967352,57.1511876 C18.8741216,57.1158525 18.8491887,57.0822553 18.8230962,57.0503959 L21.6005035,54.3070091 C21.9629002,53.9496042 22.1583044,53.452597 22.1380102,52.9440047 C22.1171361,52.4359915 21.8811435,51.9569416 21.4909148,51.6296582 L16.0514871,47.0737594 L19.5861584,43.5043445 L26.6212908,66.7750531 L25.1398135,66.7750531 Z M26.7331989,59.4514385 L23.9882622,50.3715004 L25.962019,49.1562078 L27.8024137,52.0751111 L26.7331989,59.4514385 Z M33.5543724,66.7750531 L28.947587,66.7750531 L28.2541049,64.4817532 L29.9263477,52.9411083 L32.4967542,52.9411083 L34.2235015,64.5622707 L33.5543724,66.7750531 Z M32.8434953,50.7167406 L29.5772872,50.7167406 L27.8574981,47.9895734 L31.2506898,45.9007531 L34.5887972,47.9553969 L32.8434953,50.7167406 Z M34.6189486,52.0739525 L36.4848562,49.1226105 L38.5136973,50.3715004 L35.7328107,59.569608 L34.6189486,52.0739525 Z M37.3783812,66.7750531 L35.8800887,66.7750531 L42.901885,43.5501063 L46.4365564,47.1201004 L40.9971285,51.6759992 C40.6063201,52.0027033 40.3709072,52.4817532 40.3500331,52.9903457 C40.3291591,53.498938 40.5251432,53.9959452 40.88696,54.3533501 L43.6643673,57.0967369 C43.6382748,57.1285963 43.6139217,57.1621935 43.5913083,57.1969492 L37.3783812,66.7750531 Z M60.2563327,65.2417455 C60.3224337,65.6298514 60.2192232,66.0086889 59.9652556,66.3093262 C59.7112882,66.6093842 59.3546899,66.7750531 58.9609824,66.7750531 L52.8663415,66.7750531 L51.6515881,59.670979 C51.5477977,59.0656498 50.972022,58.6584283 50.3666748,58.7621163 C49.7607477,58.8652249 49.353124,59.4398532 49.4569144,60.0457618 L50.6073062,66.7750531 L40.0311242,66.7750531 L45.3760389,58.5356247 C45.733217,58.1915427 45.9512348,57.7246573 45.9831257,57.2247538 C46.0202351,56.6472292 45.8051164,56.0824483 45.393434,55.6758062 L42.7743213,53.0893995 L48.0542947,48.6673103 C48.4816327,48.3093262 48.7413985,47.7850936 48.7674911,47.2284225 C48.7935837,46.6723306 48.5836835,46.1260861 48.1917154,45.7298706 L46.0492268,43.5663255 L52.4216084,45.3406063 C55.2477218,46.1272447 57.3936896,48.5027998 57.8877086,51.3921607 L60.2563327,65.2417455 Z M57.5438666,45.9413015 C56.3325923,44.6541804 54.7786357,43.6873914 53.0199976,43.1979148 L46.0869161,41.2678123 C43.7293088,38.9467079 42.1191083,35.9328056 41.5102821,32.70168 C43.3193659,30.7275537 44.4593205,28.165476 44.7434395,25.4047113 C46.5101952,25.304499 47.9168739,23.8366481 47.9168739,22.0473064 L47.9168739,19.5524232 C47.9168739,19.4551071 47.9110755,19.3589496 47.9029579,19.2627921 C47.9006385,19.2355668 47.8971595,19.2089206 47.8942603,19.1816952 C47.8861426,19.1075497 47.8757056,19.0339834 47.8629492,18.9615757 C47.8583105,18.9384052 47.8554114,18.9146553 47.8507727,18.8914848 C47.832218,18.7993822 47.8101844,18.7084379 47.7840917,18.618073 C47.779453,18.6006952 47.7730749,18.5838964 47.7678565,18.5665186 C47.7452429,18.4929523 47.72031,18.4199653 47.6930577,18.3481368 C47.6832006,18.3226492 47.6727635,18.2977409 47.6629063,18.2722533 C47.6321751,18.198687 47.5997044,18.1262792 47.5643345,18.0556091 C47.5579563,18.0422862 47.5521579,18.0283839 47.5452,18.0150608 C47.502872,17.9328056 47.4564852,17.8522881 47.4071993,17.7740877 C47.3944429,17.7532342 47.3805268,17.73296 47.3666108,17.7121066 C47.3271822,17.6518633 47.2860139,17.5933578 47.2431061,17.5360108 C47.2268707,17.5145781 47.2117951,17.4937247 47.1955597,17.4728712 C47.1375763,17.3998842 47.0778533,17.3286349 47.0140714,17.2602819 C47.0134916,17.2597027 47.012332,17.2585441 47.0111723,17.2573856 C49.945135,14.7821974 53.6363618,13.4290404 57.5009589,13.4290404 C66.4733185,13.4290404 73.7734354,20.7213748 73.7734354,29.6854606 C73.7734354,38.6350647 66.4965119,45.918131 57.5438666,45.9413015 Z" id="Shape" fill="#000000" fill-rule="nonzero"></path>
            </g>
        </g>
    </g>
</svg>