<svg height="45" viewBox="0 0 45 45" width="45" xmlns="http://www.w3.org/2000/svg"><g fill="none"><path d="m35.9256237 19.4220374c5.0632017-.3938669 8.9733368-4.6132952 8.981289-9.69183989.0026195-5.37099793-4.3493763-9.72711019-9.7203742-9.72963618-5.0842516-.00243243-9.3122869 3.91181913-9.7011955 8.98119543h-6.0633056c-.4108004-5.35528067-5.085-9.3635551-10.44028064-8.95284824-5.35528067.41080042-9.3635551 5.08509356-8.95284824 10.44028068.36692308 4.7843139 4.16853431 8.5858316 8.95284824 8.9528482v6.0633992c-5.35528067.4107069-9.3635551 5.085-8.95284824 10.4402807.41070687 5.3552806 5.085 9.363555 10.44028068 8.9528482 4.7843139-.3669231 8.5858316-4.1685343 8.9528482-8.9528482m23.9879938-26.19551979c-.0051455 4.54471929-3.6881289 8.22770269-8.2328482 8.23284819-4.5468711 0-8.2328483-3.6859771-8.2328483-8.23284819 0-4.54687111 3.6859772-8.23284824 8.2328483-8.23284824s8.2328482 3.68597713 8.2328482 8.23284824zm-41.91268193 0c0-4.54687111 3.68597713-8.23284824 8.23284824-8.23284824 4.54687109 0 8.23284819 3.68597713 8.23284819 8.23284824 0 4.54687109-3.6859771 8.23284819-8.23284819 8.23284819-4.54471934-.0051455-8.22770271-3.6881289-8.23284824-8.23284819zm8.23284824 33.67983369c-4.54687111 0-8.23284824-3.6859771-8.23284824-8.2328482s3.68597713-8.2328483 8.23284824-8.2328483c4.54687109 0 8.23284819 3.6859772 8.23284819 8.2328483-.0051455 4.5447193-3.6881289 8.2277027-8.23284819 8.2328482zm9.69183989-9.168867c-.3739397-4.7758939-4.1675052-8.3818815-8.9433991-8.7558212v-6.0633056c4.7758939-.3739397 8.5694594-4.1675052 8.9433991-8.9433991h6.0633992c.3739397 4.7758939 3.8862786 8.5694594 8.6621725 8.9433991" fill="#828282"/><g fill="#a03ee5"><path d="m4.49111227 8.23331601h1.49688149v4.49064449h-1.49688149z"/><path d="m7.484875 4.491112h1.496882v8.232848h-1.496882z"/><path d="m10.478638 6.736435h1.496882v5.987526h-1.496882z"/><path d="m13.4724012 5.98799376h1.4968815v6.73596674h-1.4968815z"/><path d="m39.8315489 5.5202183-2.5405822 3.17572765-2.4134407-1.80972973c-.3151871-.23725572-.7606029-.18823285-1.0166632.11179833l-4.4906445 5.23908525 1.1358524.9735343 4.0344698-4.70619543 2.4331809 1.82432433c.3233264.2424012.7807173.1844906 1.0335031-.13079l2.993763-3.74220377z"/><path d="m11.227079 29.189657c-.4131393-.0002807-.7481601.3344594-.7484407.7475987v.000842 3.7422038c-.0002807.4131392.3344594.74816.7475987.7484407h.000842 3.7422037c.4131393.0002807.7481601-.3344595.7484408-.7475987 0-.0002807 0-.0005614 0-.000842-.0027131-2.4790229-2.0116216-4.4879314-4.4906445-4.4906445zm.7484408 3.7422037v-2.1502703c1.0534303.2743036 1.8760602 1.09684 2.1502702 2.1502703z"/><path d="m12.7248025 35.177183c-.0002807 0-.0005613 0-.000842 0h-2.99376299v-2.993763c.00028066-.4131393-.33445946-.7481601-.74759876-.7484408-.00028066 0-.00056133 0-.00084199 0-2.48014553 0-4.49064449 2.010499-4.49064449 4.4906445s2.01049896 4.4906445 4.49064449 4.4906445c2.48014554 0 4.49064444-2.010499 4.49064444-4.4906445.0002807-.4131393-.3344594-.7481601-.7475987-.7484407zm-3.74304574 3.7422037c-1.65339917 0-2.993763-1.3402703-2.99385655-2.9936694 0-1.365156.92357588-2.5575156 2.2454158-2.8988046v2.898711c-.00028067.4131393.33445946.7481601.74759875.7484407h.000842 2.89871104c-.3425988 1.3209044-1.5340229 2.2438254-2.89871104 2.2453223z"/></g></g></svg>