<svg height="45" viewBox="0 0 45 45" width="45" xmlns="http://www.w3.org/2000/svg"><g fill="none"><g fill="#828282"><path d="m30.8548828 43.499707c-.1634766-.1635644-.3902344-.2575195-.6213867-.2575195-.2311524 0-.4579102.0939551-.6213867.2575195-.1634766.1635645-.2575196.3902344-.2575196.6213868 0 .2311523.094043.4579101.2575196.6212988.1634765.1634765.3902343.2576074.6213867.2576074.2311523 0 .4579101-.094043.6213867-.2576074.1634766-.1633887.2575195-.3901465.2575195-.6212988 0-.2311524-.0940429-.4579102-.2575195-.6213868z"/><path d="m22.4989453 39.9563965c-.4854199 0-.8789062.3935742-.8789062.8789062v3.2857911c0 .485332.3934863.8789062.8789062.8789062s.8789063-.3935742.8789063-.8789062v-3.2857911c0-.485332-.3934864-.8789062-.8789063-.8789062z"/><path d="m22.4989453 0c-.4854199 0-.8789062.39357422-.8789062.87890625v3.28579102c0 .48533203.3934863.87890625.8789062.87890625s.8789063-.39357422.8789063-.87890625v-3.28579102c0-.48533203-.3934864-.87890625-.8789063-.87890625z"/><path d="m4.16469727 13.8875098h-3.28579102c-.48541992 0-.87890625.3935742-.87890625.8789062s.39348633.8789063.87890625.8789063h3.28579102c.48541992 0 .87890625-.3935743.87890625-.8789063s-.39348633-.8789062-.87890625-.8789062z"/><path d="m4.16469727 29.3546777h-3.28579102c-.48541992 0-.87890625.3935743-.87890625.8789063s.39348633.8789062.87890625.8789062h3.28579102c.48541992 0 .87890625-.3935742.87890625-.8789062s-.39348633-.8789063-.87890625-.8789063z"/><path d="m44.1210938 13.8875098h-3.2857911c-.4854199 0-.8789062.3935742-.8789062.8789062s.3934863.8789063.8789062.8789063h3.2857911c.4854199 0 .8789062-.3935743.8789062-.8789063s-.3934863-.8789062-.8789062-.8789062z"/><path d="m44.1210938 29.3546777h-3.2857911c-.4854199 0-.8789062.3935743-.8789062.8789063s.3934863.8789062.8789062.8789062h3.2857911c.4854199 0 .8789062-.3935742.8789062-.8789062s-.3934863-.8789063-.8789062-.8789063z"/><path d="m44.1210938 21.6200391h-5.625v-14.2372266c0-.48533203-.3934864-.87890625-.8789063-.87890625h-6.5046973v-5.625c0-.48533203-.3934863-.87890625-.8789062-.87890625s-.8789063.39357422-.8789063.87890625v5.625h-13.7093554v-2.37304687c0-.48533204-.3934864-.87890626-.8789063-.87890626s-.8789062.39357422-.8789062.87890626v2.37304687h-6.5046973c-.48541992 0-.87890625.39357422-.87890625.87890625v14.2372266h-5.625c-.48541992 0-.87890625.3935742-.87890625.8789062s.39348633.8789063.87890625.8789063h5.625v14.2393359c0 .485332.39348633.8789063.87890625.8789063h6.5046973v5.625c0 .485332.3934863.8789062.8789062.8789062s.8789063-.3935742.8789063-.8789062v-5.625h13.7093554v2.109375c0 .485332.3934864.8789062.8789063.8789062s.8789062-.3935742.8789062-.8789062v-2.109375h6.5046973c.4854199 0 .8789063-.3935743.8789063-.8789063v-14.2393359h5.625c.4854199 0 .8789062-.3935743.8789062-.8789063s-.3934863-.8789062-.8789062-.8789062zm-7.3828126 15.1182421h-28.47656245v-28.47656245h28.47656245z"/><path d="m33.3984375 10.7226562h-21.796875c-.4854199 0-.8789063.3935743-.8789063.8789063v21.796875c0 .485332.3934864.8789063.8789063.8789063h21.796875c.4854199 0 .8789063-.3935743.8789063-.8789063v-21.796875c0-.485332-.3934864-.8789063-.8789063-.8789063zm-.8789063 21.796875h-20.0390624v-20.0390624h20.0390624z"/><path d="m15.3878906.25751953c-.1634765-.16347656-.3902344-.25751953-.6213867-.25751953s-.4579102.09395508-.6213867.25751953c-.1634766.16356445-.2575195.39023438-.2575195.62138672s.0940429.45791016.2575195.62129883c.1634766.16356445.3902344.25760742.6213867.25760742s.4579102-.09404297.6213867-.25760742c.1634766-.16338867.2575196-.39014649.2575196-.62129883s-.094043-.45791016-.2575196-.62138672z"/></g><path d="m26.7144434 19.5012598v-.9021973c0-2.3237402-1.8906153-4.2143555-4.2144434-4.2143555s-4.2144434 1.8906153-4.2144434 4.2143555v.9021973c-1.1292187.0547558-2.0309765.9904394-2.0309765 2.1330175v6.8453614c-.0000879 1.1775586.9580078 2.1355664 2.1355664 2.1355664h8.2196191c1.1775586 0 2.1356543-.9580078 2.1356543-2.1355664v-6.8453614c0-1.1424902-.9018457-2.0782617-2.0309765-2.1330175zm-6.6710743-.9021094c0-1.3545703 1.1020606-2.456543 2.4566309-2.456543s2.4566309 1.1019727 2.4566309 2.456543v.8994726h-4.9132618zm6.9442383 9.8804883c0 .2083008-.1694531.3777539-.3778418.3777539h-3.2559961c.0158203-.065918.0250489-.1342969.0250489-.2050488v-2.2831348c0-.485332-.3934864-.8789063-.8789063-.8789063s-.8789062.3935743-.8789062.8789063v2.2831348c0 .0707519.0092285.1391308.0250488.2050488h-3.2559961c-.2083887 0-.3778418-.1694531-.3778418-.3777539v-6.8453614h.0000879c0-.2083007.1694531-.3778418.3778418-.3778418h8.2196191c.2083887 0 .3778418.1695411.3778418.3778418z" fill="#a03ee5"/><path d="m23.1213867 22.8014648c-.1634765-.1634765-.3902344-.2575195-.6213867-.2575195s-.4579102.0939551-.6213867.2575195c-.1634766.1634766-.2575195.3902344-.2575195.6213868 0 .2311523.0940429.4579101.2575195.6212988.1634765.1635644.3902344.2576074.6213867.2576074s.4579102-.094043.6213867-.2576074c.1634766-.1633887.2575195-.3901465.2575195-.6212988 0-.2311524-.0940429-.4579102-.2575195-.6213868z" fill="#a03ee5"/></g></svg>