<svg height="45" viewBox="0 0 42 45" width="42" xmlns="http://www.w3.org/2000/svg"><g fill="none"><path d="m41.8485026 12.2967596-7.2164561-11.794445c-.1910772-.31186551-.5332865-.5023146-.9026748-.5023146-.3693884 0-.7120095.19044909-.9026747.5023146l-7.2164564 11.794445c-.1964305.3207991-.2021957.721595-.0156485 1.0480792.1869591.3264842.5378163.5287095.9183233.5287095h1.8687673v5.6152034h-8.0758915c-.5822911 0-1.0542187.4653619-1.0542187 1.0395517v3.6384309h-8.0713617c-.582291 0-1.0542187.4653619-1.0542187 1.0395517v3.638431h-8.07177343c-.58229115 0-1.05421867.4653618-1.05421867 1.0395517v14.0761796c0 .5741899.47192752 1.0395517 1.05421867 1.0395517h35.96821143c.5822911 0 1.0542187-.4653618 1.0542187-1.0395517v-30.0869h1.8691791c.3800952 0 .7309524-.2022253.9179115-.5287095s.1811939-.7268741-.0152368-1.0480792zm-38.74006526 18.6270607h7.01755476v11.9970763h-7.01755476zm9.12599216-4.6779826h7.017143v16.6750589h-7.017143zm9.1255803-4.6779826h7.0220847v21.3530415h-7.0220847zm16.6624203-9.7734102c-.5818793 0-1.0542186.4653618-1.0542186 1.0395517v30.0869h-6.4776796v-29.0473483h1.9017117c.582291 0 1.0542186-.4657678 1.0542186-1.0395517 0-.5741899-.4719276-1.0395517-1.0542186-1.0395517h-4.0122081l5.3493362-8.7423861 5.3493361 8.7423861z" fill="#828282"/><path d="m22.170257 7.81154741c-.0714712-.31596124-.29299-.58194901-.598101-.71695799-.3046929-.13541196-.6578692-.1249336-.954203.02821088l-3.3236192 1.72408446c-.5203605.26961485-.7151299.89549213-.4355145 1.39724174.2800332.5017498.9287074.6899562 1.4494858.4199384l.6674824-.3465902c-1.8076777 3.7455915-6.3927006 7.6805985-12.21822945 10.433975-1.97026427.9309573-3.9819065 1.6793502-5.97850218 2.2238191-.56842582.1551595-.89903233.7250182-.73853563 1.2735172.13332932.4541943.56257443.751214 1.02901797.751214.09654872 0 .19476939-.0128964.29215418-.0394952 2.11989395-.5779189 4.25232665-1.3706431 6.33794781-2.3564098 6.1201907-2.8924157 11.0028014-7.0881714 13.0976177-11.181562l.0869357.3844733c.1090876.4824051.5521254.8120687 1.0444825.8120687.0756508 0 .1521374-.0080603.2290421-.0241808.577203-.1213065.9433361-.6710146.8175302-1.2279768z" fill="#a03ee5"/></g></svg>