<?xml version="1.0" encoding="UTF-8"?>
<svg width="226px" height="22px" viewBox="0 0 226 22" version="1.1" xmlns="http://www.w3.org/2000/svg" xmlns:xlink="http://www.w3.org/1999/xlink">
    <!-- Generator: Sketch 52.2 (67145) - http://www.bohemiancoding.com/sketch -->
    <title>MIB-Light</title>
    <desc>Created with Sketch.</desc>
    <g id="Page-1" stroke="none" stroke-width="1" fill="none" fill-rule="evenodd">
        <g id="mib" transform="translate(-745.000000, -37.000000)" fill="#FFFFFF">
            <g id="Group-4" transform="translate(469.000000, 31.000000)">
                <g id="MIB-Light" transform="translate(276.000000, 6.000000)">
                    <g id="Group-3">
                        <polygon id="Path" points="26.3445556 0 35.1833761 0 30.7647617 4.39208633 35.1833761 17.5683453 30.7647617 21.9604317 26.3445556 17.5683453 30.7647617 4.39208633"></polygon>
                        <path d="M0.0923197526,0.0443165468 L6.7520757,0.0443165468 L9.57897019,11.1107914 C9.73601988,11.6584173 9.91800652,12.4640288 10.1249301,13.5276259 C10.3318537,14.591223 10.464497,15.298705 10.5228601,15.6500719 L10.6645231,15.6500719 C10.7239474,15.2797122 10.8470404,14.5527098 11.0338022,13.4690647 C11.220564,12.3854197 11.3728385,11.5993285 11.4906258,11.1107914 L14.3254788,0.0443165468 L20.6923583,0.0443165468 L20.6923583,20.1292086 L16.415407,20.1292086 L16.415407,7.33438849 C16.415407,6.96402878 16.4392828,6.39741007 16.4902179,5.63611511 C16.5411529,4.87482014 16.5729873,4.36992806 16.5920879,4.11352518 L16.4456497,4.11352518 L15.8264707,6.4876259 L12.3501545,20.1307914 L8.27694333,20.1307914 L4.80699401,6.48920863 L4.18781498,4.11510791 L4.03978504,4.11510791 C4.06047739,4.36992806 4.09390351,4.88589928 4.14324683,5.66776978 C4.19259014,6.44964029 4.21805766,7.00517986 4.21805766,7.33597122 L4.21805766,20.1307914 L0.0923197526,20.1307914 L0.0923197526,0.0443165468 Z" id="Path"></path>
                        <path d="M40.8419402,0.0443165468 L52.4217023,0.0443165468 C53.4202852,0.0320652645 54.408287,0.248696802 55.3090821,0.677410072 C56.1356594,1.06684886 56.8387788,1.67456727 57.3417084,2.4342446 C58.3898061,4.13216714 58.3145827,6.28886397 57.150702,7.9105036 C56.5550681,8.70367747 55.7254561,9.29235881 54.7774477,9.59453237 L54.7774477,9.71165468 C55.8789834,9.90339664 56.870742,10.4922748 57.5629575,11.3656115 C58.2807422,12.2575033 58.6609741,13.3715946 58.6373684,14.5136691 C58.6373684,16.327482 58.0537377,17.7181775 56.8864765,18.6857554 C55.7192153,19.6533333 54.2336101,20.1360671 52.4296609,20.1339568 L40.8419402,20.1339637 L40.8419402,0.0443165468 Z M51.2119952,8.07194245 C51.9983048,8.07194245 52.6074029,7.87146283 53.0392896,7.4705036 C53.4691977,7.07591604 53.7055869,6.51513467 53.6871196,5.93366906 C53.6871196,5.19505995 53.4860323,4.62896882 53.0838577,4.23539568 C52.6816832,3.84182254 52.1245812,3.64345324 51.4125519,3.64028777 L45.1427673,3.64028777 L45.1427673,8.07194245 L51.2119952,8.07194245 Z M51.7133869,16.5332374 C52.3831885,16.5605437 53.0377533,16.3297912 53.5406813,15.8890647 C54.0118304,15.4606715 54.247405,14.8460432 54.247405,14.0451799 C54.2735754,13.3863196 54.0165986,12.7475043 53.5406813,12.2883453 C53.0695323,11.8388489 52.379787,11.6141007 51.4714455,11.6141007 L45.1364004,11.6141007 L45.1364004,16.5332374 L51.7133869,16.5332374 Z" id="Shape" fill-rule="nonzero"></path>
                    </g>
                    <g id="Group-2" transform="translate(67.033898, 0.000000)">
                        <path d="M14.0734577,7.94353555 L14.0734577,16.0259883 L11.4058978,16.0259883 L11.4058978,8.6665362 C11.4058978,7.17633399 10.983694,6.63013699 10.0977059,6.63013699 C9.21171776,6.63013699 8.47605975,7.48258317 8.47605975,8.75178082 L8.47605975,16.0133594 L5.85647751,16.0133594 L5.85647751,8.6665362 C5.85647751,7.17633399 5.41188419,6.63013699 4.52269754,6.63013699 C3.6335109,6.63013699 2.92344098,7.57729941 2.92344098,8.92858447 L2.92344098,16.0259883 L0.262278075,16.0259883 L0.262278075,4.50533594 L2.48204618,4.50533594 L2.74752276,5.92923679 L2.8786618,5.92923679 C3.43200457,5.02943249 4.3659704,4.24013046 5.65497118,4.24013046 C6.78514547,4.16608499 7.82043334,4.86343999 8.16260546,5.92923679 C8.81129307,4.88842933 9.95685407,4.25028526 11.1947959,4.24013046 C12.8484272,4.24013046 14.0734577,5.16203523 14.0734577,7.94353555 Z" id="Path"></path>
                        <path d="M24.017635,7.63728637 L24.017635,13.3202609 C24.017635,13.8696151 24.3374863,14.0874625 24.6573376,14.0874625 L25.1722982,14.0874625 L25.1722982,15.9502153 C24.6864488,16.1971713 24.1448369,16.3177862 23.5986297,16.3006654 C22.635335,16.3387817 21.7752657,15.7092878 21.5323903,14.7883627 L21.4300379,14.7883627 C20.7647471,15.7071102 20.0322876,16.3006654 18.4778103,16.3006654 C17.3903158,16.3006654 15.5479722,15.7292107 15.5479722,13.0582127 C15.5479722,9.94836269 17.9436586,9.02961513 21.343678,9.02961513 L21.343678,7.82356164 C21.343678,7.03741683 21.1421717,6.3996608 20.121846,6.3996608 C19.0343515,6.3996608 18.7208972,7.05636008 18.7208972,7.60571429 L18.7208972,7.92143509 L16.1141091,7.92143509 C16.0938252,7.7612461 16.0863389,7.59973028 16.0917195,7.43838226 C16.0917195,5.51248532 17.6461968,4.24013046 20.0450817,4.24013046 C22.7542223,4.24013046 24.017635,5.49038487 24.017635,7.63728637 Z M21.3340825,10.9207828 C19.7796051,10.9207828 18.2667084,11.3154338 18.2667084,12.8151076 C18.2667084,13.6012524 18.6665225,14.1064057 19.5780988,14.1064057 C20.857504,14.1064057 21.3340825,12.9445532 21.3340825,11.5806393 L21.3340825,10.9207828 Z" id="Shape" fill-rule="nonzero"></path>
                        <path d="M32.3657542,4.42009132 L32.3657542,6.9458578 L31.4062003,6.9458578 C30.251537,6.9458578 29.2280128,7.55835616 29.2280128,9.59475538 L29.2280128,16.0133594 L26.5732469,16.0133594 L26.5732469,4.50533594 L28.786618,4.50533594 L29.1064693,6.19128506 L29.2376084,6.19128506 C29.5574597,5.22833659 30.0820158,4.24013046 31.2590686,4.24013046 C31.6360024,4.23289941 32.0110891,4.29389318 32.3657542,4.42009132 Z" id="Path"></path>
                        <polygon id="Path" points="36.2967268 9.08328767 39.5592102 4.50533594 42.4026883 4.50533594 38.9386986 9.19063275 42.5786066 16.0259883 39.626379 16.0259883 37.2722733 11.2491324 36.3127194 12.4330855 36.3127194 16.0259883 33.6483579 16.0259883 33.6483579 0.189432485 36.3127194 0.189432485"></polygon>
                        <path d="M51.95025,10.2640835 L51.95025,10.9207828 L46.0202067,10.9207828 C46.0425963,12.9792825 46.5095792,14.141135 47.817771,14.141135 C48.7293473,14.141135 49.3082781,13.3297326 49.3082781,11.9500326 L51.95025,11.9500326 C51.95025,14.9083366 50.1942663,16.2880365 47.817771,16.2880365 C44.8207642,16.2880365 43.2470958,14.3937117 43.2470958,10.2640835 C43.2470958,6.13445532 44.8463524,4.24013046 47.7250142,4.24013046 C50.5365072,4.24013046 51.95025,6.12498369 51.95025,10.2640835 Z M46.0585888,9.0169863 L49.1675436,9.0169863 C49.1675436,7.34998043 48.7229502,6.38703196 47.7474037,6.38703196 C46.5991375,6.38703196 46.1321546,7.34998043 46.0585888,9.0169863 Z" id="Shape" fill-rule="nonzero"></path>
                        <path d="M56.7224315,4.50533594 L58.4112465,4.50533594 L58.4112465,6.7153816 L56.7224315,6.7153816 L56.7224315,13.1339856 C56.686218,13.3899479 56.7718779,13.6480631 56.9544993,13.8332649 C57.1371207,14.0184666 57.3962025,14.1099643 57.6563974,14.0811481 L58.4112465,14.0811481 L58.4112465,16.0323027 C57.8932112,16.1930958 57.3548722,16.281306 56.8119899,16.2943509 C54.6817802,16.2943509 54.0580701,14.7378474 54.0580701,13.2066014 L54.0580701,6.7153816 L52.8810173,6.7153816 L52.8810173,4.50533594 L54.0548716,4.50533594 L54.4578843,1.26288324 L56.7224315,1.26288324 L56.7224315,4.50533594 Z" id="Path"></path>
                        <path d="M68.1283293,10.2640835 L68.1283293,10.9207828 L62.2078815,10.9207828 C62.2302711,12.9792825 62.6940555,14.141135 64.0054459,14.141135 C64.9170221,14.141135 65.4927545,13.3297326 65.4927545,11.9500326 L68.1283293,11.9500326 C68.1283293,14.9083366 66.3755441,16.2880365 63.9990489,16.2880365 C61.0020421,16.2880365 59.4251751,14.3937117 59.4251751,10.2640835 C59.4251751,6.13445532 61.0244317,4.24013046 63.9030935,4.24013046 C66.7369761,4.24013046 68.1283293,6.12498369 68.1283293,10.2640835 Z M62.2238741,9.0169863 L65.3296303,9.0169863 C65.3296303,7.34998043 64.8882355,6.38703196 63.9094905,6.38703196 C62.7836139,6.38703196 62.316631,7.34998043 62.2302711,9.0169863 L62.2238741,9.0169863 Z" id="Shape" fill-rule="nonzero"></path>
                        <path d="M75.8847236,4.42009132 L75.8847236,6.9458578 L74.9251697,6.9458578 C73.7705064,6.9458578 72.7501807,7.55835616 72.7501807,9.59475538 L72.7501807,16.0133594 L70.0858193,16.0133594 L70.0858193,4.50533594 L72.3055874,4.50533594 L72.6254387,6.19128506 L72.7597763,6.19128506 C73.0796276,5.22833659 73.6041837,4.24013046 74.7812366,4.24013046 C75.1570989,4.23328543 75.5310663,4.29427345 75.8847236,4.42009132 Z" id="Path"></path>
                        <path d="M84.9876919,7.37208089 C84.9876919,7.61518591 84.9653023,7.85513372 84.9653023,7.87723418 L82.2561617,7.87723418 C82.2854597,7.46696268 82.158886,7.06062926 81.9011268,6.73748206 C81.6465304,6.49095602 81.297416,6.36345178 80.9415728,6.38703196 C80.119555,6.38703196 79.5662122,6.82588389 79.5662122,7.52678408 C79.5662122,9.76208741 85.2723596,8.00983692 85.2723596,12.578317 C85.2723596,15.3787606 83.4076264,16.3006654 80.9191832,16.3006654 C78.2324322,16.3006654 76.6779548,14.8325636 76.6779548,12.6414612 C76.6803938,12.5537642 76.687869,12.4662744 76.7003444,12.3794129 L79.409485,12.3794129 L79.409485,12.5341161 C79.4318746,13.7591129 80.2538925,14.1537639 81.0087416,14.1537639 C81.7635907,14.1537639 82.563219,13.8380431 82.563219,12.8908806 C82.563219,10.4629876 76.8570716,12.1931376 76.8570716,7.74463144 C76.8570716,5.40198304 78.6994151,4.24013046 81.0311312,4.24013046 C83.2540978,4.24013046 84.9876919,5.40198304 84.9876919,7.37208089 Z" id="Path"></path>
                        <path d="M94.9958394,2.5762818 L92.3346765,2.5762818 L92.3346765,0.189432485 L94.9958394,0.189432485 L94.9958394,2.5762818 Z M94.9958394,16.0259883 L92.3346765,16.0259883 L92.3346765,4.50533594 L94.9958394,4.50533594 L94.9958394,16.0259883 Z" id="Shape" fill-rule="nonzero"></path>
                        <path d="M106.101077,7.94353555 L106.101077,16.0259883 L103.436716,16.0259883 L103.436716,8.6665362 C103.436716,7.17633399 102.860983,6.63013699 101.904628,6.63013699 C100.861912,6.63013699 100.084674,7.63728637 100.084674,8.92858447 L100.084674,16.0259883 L97.4203124,16.0259883 L97.4203124,4.50533594 L99.6400805,4.50533594 L99.9055571,5.92923679 L100.039895,5.92923679 C100.658051,4.89637297 101.776904,4.25622535 102.992122,4.24013046 C104.792885,4.24013046 106.101077,5.22833659 106.101077,7.94353555 Z" id="Path"></path>
                        <path d="M116.106026,14.6020874 L115.837351,16.0259883 L113.620781,16.0259883 L113.620781,0.189432485 L116.281944,0.189432485 L116.281944,5.68297456 L116.393892,5.68297456 C116.816096,4.76422701 117.817231,4.23697326 118.991085,4.23697326 C121.057324,4.23697326 122.608603,6.05552511 122.608603,10.2356686 C122.608603,14.4158121 121.169272,16.2817221 118.859946,16.2817221 C117.718552,16.286451 116.682135,15.625071 116.217974,14.595773 L116.106026,14.6020874 Z M116.281944,10.680835 C116.281944,12.7614351 116.771317,13.9011872 118.060317,13.9011872 C119.349318,13.9011872 119.835492,12.7614351 119.835492,10.680835 L119.835492,9.84733203 C119.835492,7.7667319 119.34612,6.63013699 118.060317,6.63013699 C116.774515,6.63013699 116.281944,7.81093281 116.281944,9.89153294 L116.281944,10.680835 Z" id="Shape" fill-rule="nonzero"></path>
                        <polygon id="Path" points="127.371189 16.0259883 124.706828 16.0259883 124.706828 0.189432485 127.371189 0.189432485"></polygon>
                        <path d="M137.363344,7.63728637 L137.363344,13.3202609 C137.363344,13.8696151 137.683195,14.0874625 137.983856,14.0874625 L138.518007,14.0874625 L138.518007,15.9502153 C138.031106,16.1974323 137.488396,16.3180468 136.94114,16.3006654 C135.979022,16.3372652 135.120722,15.7080925 134.878099,14.7883627 L134.766151,14.7883627 C134.100861,15.7071102 133.365203,16.3006654 131.810725,16.3006654 C130.723231,16.3006654 128.880887,15.7292107 128.880887,13.0582127 C128.880887,9.94836269 131.279772,9.02961513 134.676593,9.02961513 L134.676593,7.82356164 C134.676593,7.03741683 134.478285,6.3996608 133.454761,6.3996608 C132.367267,6.3996608 132.057011,7.05636008 132.057011,7.60571429 L132.057011,7.92143509 L129.459818,7.92143509 C129.439534,7.7612461 129.432048,7.59973028 129.437429,7.43838226 C129.437429,5.51248532 130.991906,4.24013046 133.387592,4.24013046 C136.096733,4.24013046 137.363344,5.49038487 137.363344,7.63728637 Z M134.676593,10.9207828 C133.122116,10.9207828 131.612418,11.3154338 131.612418,12.8151076 C131.612418,13.6012524 132.012232,14.1064057 132.923808,14.1064057 C134.187221,14.1064057 134.676593,12.9445532 134.676593,11.5806393 L134.676593,10.9207828 Z" id="Shape" fill-rule="nonzero"></path>
                        <path d="M148.02079,8.84018265 L145.28926,8.84018265 C145.28926,7.2205349 144.844666,6.45333333 143.93309,6.45333333 C142.804015,6.45333333 142.381811,7.63728637 142.381811,9.84733203 L142.381811,10.680835 C142.381811,12.8908806 142.826405,14.0748337 144.022648,14.0748337 C144.982202,14.0748337 145.378818,13.2634312 145.378818,11.6879843 L148.02079,11.6879843 C148.02079,14.9083366 146.466312,16.2880365 144.022648,16.2880365 C140.980862,16.2880365 139.605502,14.3937117 139.605502,10.2640835 C139.605502,6.13445532 141.054428,4.24013046 143.93309,4.24013046 C146.421533,4.24013046 148.02079,5.62298761 148.02079,8.84018265 Z" id="Path"></path>
                        <polygon id="Path" points="152.684222 9.08328767 155.946705 4.50533594 158.786985 4.50533594 155.326194 9.19063275 158.966102 16.0259883 156.013874 16.0259883 153.659768 11.2491324 152.684222 12.4330855 152.684222 16.0259883 150.010265 16.0259883 150.010265 0.189432485 152.674626 0.189432485"></polygon>
                    </g>
                </g>
            </g>
        </g>
    </g>
</svg>