<svg viewBox="0 0 150 122" xmlns="http://www.w3.org/2000/svg"><path d="m130.6 14.1v88.2a6.7 6.7 0 0 1 -6.6 6.6h-112.5a6.6 6.6 0 0 1 -6.5-6.6v-87.5a7.5 7.5 0 0 1 7.5-7.6h111.1a7.1 7.1 0 0 1 7 6.9z" fill="#9786c4"/><path d="m130.6 14.1v6.8h-125.6v-6.1a7.5 7.5 0 0 1 7.5-7.6h111.1a7.1 7.1 0 0 1 7 6.9z" fill="#876fb7"/><g fill="#c3bbdf"><circle cx="14" cy="14.3" r="2.4"/><circle cx="21" cy="14.3" r="2.4"/><circle cx="27.9" cy="14.3" r="2.4"/></g><path d="m44.1 64.3h-28.7a1.5 1.5 0 0 1 -1.5-1.5v-32.3a1.5 1.5 0 0 1 1.5-1.5h28.7a1.5 1.5 0 0 1 1.5 1.5v32.3a1.5 1.5 0 0 1 -1.5 1.5zm-27.2-3h25.7v-29.3h-25.7z" fill="#beb6dd"/><circle cx="29.7" cy="41.4" fill="#c3bbdf" r="6.3"/><path d="m38 53.1h-17a1.5 1.5 0 1 1 0-3h17a1.5 1.5 0 0 1 0 3z" fill="#beb6dd"/><path d="m34.2 57.7h-9.4a1.5 1.5 0 0 1 -1.5-1.5 1.5 1.5 0 0 1 1.5-1.5h9.4a1.5 1.5 0 0 1 1.5 1.5 1.5 1.5 0 0 1 -1.5 1.5z" fill="#beb6dd"/><path d="m79.4 64.3h-28.7a1.5 1.5 0 0 1 -1.5-1.5v-32.3a1.4 1.4 0 0 1 1.5-1.5h28.7a1.5 1.5 0 0 1 1.5 1.5v32.3a1.5 1.5 0 0 1 -1.5 1.5zm-27.2-3h25.7v-29.3h-25.7z" fill="#beb6dd"/><circle cx="65" cy="41.4" fill="#c3bbdf" r="6.3"/><path d="m73.2 53.1h-17a1.5 1.5 0 0 1 0-3h17a1.5 1.5 0 0 1 0 3z" fill="#beb6dd"/><path d="m69.4 57.7h-9.4a1.5 1.5 0 0 1 -1.5-1.5 1.5 1.5 0 0 1 1.5-1.5h9.4a1.4 1.4 0 0 1 1.5 1.5 1.5 1.5 0 0 1 -1.5 1.5z" fill="#beb6dd"/><path d="m123 80.9h-33.2a1.5 1.5 0 0 1 -1.5-1.5v-48.9a1.5 1.5 0 0 1 1.5-1.5h33.2a1.5 1.5 0 0 1 1.5 1.5v48.9a1.5 1.5 0 0 1 -1.5 1.5zm-31.7-3h30.2v-45.9h-30.2z" fill="#beb6dd"/><path d="m121.1 99.6h-29.3a2 2 0 0 1 -2-1.9v-10.5a1.9 1.9 0 0 1 2-1.9h29.3a1.9 1.9 0 0 1 1.9 1.9v10.5a2 2 0 0 1 -1.9 1.9z" fill="#fff"/><path d="m44.1 101.9h-28.7a1.5 1.5 0 0 1 -1.5-1.5v-32.3a1.5 1.5 0 0 1 1.5-1.5h28.7a1.5 1.5 0 0 1 1.5 1.5v32.3a1.5 1.5 0 0 1 -1.5 1.5zm-27.2-3h25.7v-29.3h-25.7z" fill="#beb6dd"/><circle cx="29.7" cy="79.1" fill="#c3bbdf" r="6.3"/><path d="m38 90.7h-17a1.5 1.5 0 0 1 -1.5-1.5 1.5 1.5 0 0 1 1.5-1.5h17a1.5 1.5 0 0 1 1.5 1.5 1.5 1.5 0 0 1 -1.5 1.5z" fill="#beb6dd"/><path d="m34.2 95.3h-9.4a1.5 1.5 0 1 1 0-3h9.4a1.5 1.5 0 0 1 0 3z" fill="#beb6dd"/><path d="m79.4 101.9h-28.7a1.4 1.4 0 0 1 -1.5-1.5v-32.3a1.5 1.5 0 0 1 1.5-1.5h28.7a1.5 1.5 0 0 1 1.5 1.5v32.3a1.5 1.5 0 0 1 -1.5 1.5zm-27.2-3h25.7v-29.3h-25.7z" fill="#beb6dd"/><circle cx="65" cy="79.1" fill="#c3bbdf" r="6.3"/><path d="m73.2 90.7h-17a1.5 1.5 0 0 1 -1.5-1.5 1.5 1.5 0 0 1 1.5-1.5h17a1.5 1.5 0 0 1 1.5 1.5 1.4 1.4 0 0 1 -1.5 1.5z" fill="#beb6dd"/><path d="m69.4 95.3h-9.4a1.5 1.5 0 0 1 0-3h9.4a1.5 1.5 0 0 1 0 3z" fill="#beb6dd"/><path d="m101.7 46.1h-6a1.4 1.4 0 0 1 -1.4-1.4v-6a1.4 1.4 0 0 1 1.4-1.4h6a1.4 1.4 0 0 1 1.4 1.4v6a1.4 1.4 0 0 1 -1.4 1.4z" fill="#c3bbdf"/><path d="m116.8 40.8h-9.9a1.5 1.5 0 0 1 0-3h9.9a1.5 1.5 0 0 1 0 3z" fill="#beb6dd"/><path d="m111.7 45.5h-4.8a1.5 1.5 0 0 1 -1.5-1.5 1.5 1.5 0 0 1 1.5-1.5h4.8a1.5 1.5 0 0 1 1.5 1.5 1.5 1.5 0 0 1 -1.5 1.5z" fill="#beb6dd"/><path d="m101.7 59.8h-6a1.5 1.5 0 0 1 -1.4-1.5v-5.9a1.5 1.5 0 0 1 1.4-1.5h6a1.5 1.5 0 0 1 1.4 1.5v5.9a1.5 1.5 0 0 1 -1.4 1.5z" fill="#c3bbdf"/><path d="m116.8 54.5h-9.9a1.5 1.5 0 0 1 -1.5-1.5 1.5 1.5 0 0 1 1.5-1.5h9.9a1.4 1.4 0 0 1 1.5 1.5 1.5 1.5 0 0 1 -1.5 1.5z" fill="#beb6dd"/><path d="m111.7 59.2h-4.8a1.5 1.5 0 0 1 -1.5-1.5 1.5 1.5 0 0 1 1.5-1.5h4.8a1.5 1.5 0 0 1 1.5 1.5 1.5 1.5 0 0 1 -1.5 1.5z" fill="#beb6dd"/><path d="m101.7 73.4h-6a1.4 1.4 0 0 1 -1.4-1.4v-6a1.4 1.4 0 0 1 1.4-1.4h6a1.4 1.4 0 0 1 1.4 1.4v6a1.4 1.4 0 0 1 -1.4 1.4z" fill="#c3bbdf"/><path d="m116.8 68.1h-9.9a1.5 1.5 0 0 1 0-3h9.9a1.5 1.5 0 0 1 0 3z" fill="#beb6dd"/><path d="m111.7 72.7h-4.8a1.5 1.5 0 0 1 -1.5-1.5 1.5 1.5 0 0 1 1.5-1.5h4.8a1.5 1.5 0 0 1 1.5 1.5 1.5 1.5 0 0 1 -1.5 1.5z" fill="#beb6dd"/><path d="m115.2 93.3-3.1 3.1a1 1 0 0 1 -1.4-1.4l1.4-1.5h-12.8a1 1 0 0 1 0-2h12.8l-1.4-1.4a1.1 1.1 0 0 1 0-1.5l.7-.2.6.2 3.2 3.2a1.1 1.1 0 0 1 .2.6.7.7 0 0 1 -.2.9z" fill="#876fb7"/><path d="m142.8 90.4a27.1 27.1 0 0 1 -12.2 22.6 26.7 26.7 0 0 1 -14.9 4.5 27.1 27.1 0 0 1 -27-27.1 21.5 21.5 0 0 1 .5-5.1h53.1a28.4 28.4 0 0 1 .5 5.1z" fill="#876fb7"/><path d="m133.4 106.6a25.8 25.8 0 1 1 11.6-21.5 26 26 0 0 1 -11.6 21.5z" fill="#87a4b0"/><path d="m120.5 72.2 7.6 7.6a2.5 2.5 0 0 1 -3.5 3.5l-3.5-3.5v16.6a2.4 2.4 0 1 1 -4.8 0v-16.6l-3.5 3.5a2.5 2.5 0 0 1 -3.4 0 2.6 2.6 0 0 1 -.7-1.7 3.4 3.4 0 0 1 .7-1.8l7.6-7.6a2.4 2.4 0 0 1 1.7-.7 2.9 2.9 0 0 1 1.8.7z" fill="#fff"/></svg>