<svg viewBox="0 0 150 122" xmlns="http://www.w3.org/2000/svg"><path d="m116.3 95.4-8 8.1-23.2-22.9 8-8z" fill="#876fb7"/><path d="m28.9 16.4a44 44 0 1 0 62.3 0 44.1 44.1 0 0 0 -62.3 0zm56.7 56.6a36.2 36.2 0 1 1 0-51.1 36.1 36.1 0 0 1 0 51.1z" fill="#9786c4"/><path d="m128.8 115.9a9.1 9.1 0 0 1 -12.9 0l-26.1-25.8 12.9-12.9 26.1 25.8a9.2 9.2 0 0 1 0 12.9z" fill="#9786c4"/><path d="m49.2 51.8v-9.8c-4 1.9-4.2 2.3-5 1.3l-3.6-4.3c-.5-.8-.5-1.3.2-1.8l7.6-6.4a2.8 2.8 0 0 1 1.6-.5c5.9 0 6.3-.5 6.5 1.3a3.6 3.6 0 0 0 3.8 3.4 3.7 3.7 0 0 0 3.4-3.5c.1-.9.4-1.2 1.3-1.2h5.6a1.9 1.9 0 0 1 1 .5l7.8 6.4a1.1 1.1 0 0 1 .4 1.5c0 .1-.1.3-.2.3l-3.6 4.3c-.8 1-1 .7-5.1-1.3v18.3c0 1.3-.3 1.6-1.6 1.6h-18.5c-1.3 0-1.6-.3-1.6-1.6v-3.2" fill="#87a4b0"/></svg>