<svg height="18" viewBox="0 0 18 18" width="18" xmlns="http://www.w3.org/2000/svg"><path d="m167.718708 7367.25002c0 1.57031-.392578 3.02343-1.177732 4.35936-.785154 1.33594-1.845699 2.39648-3.181633 3.18163-1.335934.78516-2.789056 1.17774-4.359364 1.17774-1.570309 0-3.023431-.39258-4.359365-1.17774-1.335934-.78515-2.396479-1.84569-3.181633-3.18163-.785154-1.33593-1.177732-2.78905-1.177732-4.35936s.392578-3.02343 1.177732-4.35937c.785154-1.33593 1.845699-2.39648 3.181633-3.18163 1.335934-.78516 2.789056-1.17773 4.359365-1.17773 1.570308 0 3.02343.39257 4.359364 1.17773 1.335934.78515 2.396479 1.8457 3.181633 3.18163.785154 1.33594 1.177732 2.78906 1.177732 4.35937zm-9.738258 4.60545 6.468734-6.46873c.117187-.09375.175781-.22266.175781-.38672s-.058594-.29297-.175781-.38672l-.773435-.80859c-.117187-.11719-.251953-.17578-.404296-.17578s-.287109.05859-.404296.17578l-5.273425 5.27343-2.460932-2.46093c-.117187-.11719-.251952-.17579-.404296-.17579-.152343 0-.287109.0586-.404296.17579l-.773435.80859c-.117187.09375-.175781.22265-.175781.38671 0 .16407.058594.29297.175781.38672l3.656241 3.65624c.09375.11719.222656.17578.386718.17578s.292968-.05859.386718-.17578z" fill="#23ae3b" fill-rule="evenodd" transform="translate(-150 -7358)"/></svg>