<svg height="77" viewBox="0 0 82 77" width="82" xmlns="http://www.w3.org/2000/svg"><g fill="none" fill-rule="evenodd"><path d="m56.0333333 68.3333333h-30.0666666c-3.0189453 0-5.4666667 2.4477214-5.4666667 5.4666667v2.7333333h41v-2.7333333c0-3.0189453-2.4477214-5.4666667-5.4666667-5.4666667z" fill="#999"/><path d="m34.1666667 60.1333333h13.6666666v8.2h-13.6666666z" fill="#656665"/><path d="m13.6666667 10.9333333h-13.6666667v49.2h82v-49.2h-13.6666667" fill="#999"/><path d="m13.6666667 16.4h-8.20000003v38.2666667h71.06666663v-38.2666667h-8.2" fill="#94cce7"/><g transform="translate(18)"><path d="m11.6661543 29h-5.6661543v-1.4017796h5.3728866l2.6255764-2.5982204 1.001537.991102-2.8330772 2.8035592c-.1324546.131759-.3122886.2053388-.5007685.2053388z" fill="#bab8b9"/><path d="m32.001537 10-1.001537-1.16539235 5.6661543-6.59315896c.1324547-.15492955.3122887-.24144869.5007685-.24144869h2.8330772v1.64828974h-2.5398094z" fill="#bab8b9"/><path d="m21 29v14.6818182c0 1.2805841.8951823 2.3181818 2 2.3181818s2-1.0375977 2-2.3181818v-14.6818182" fill="#bc8f6f"/><path d="m21.5 45c.8930664-.3854855 1.5-1.0941996 1.5-1.9154828v-14.0845172h-3v14.0845172c0 .8212832.6069336 1.5299973 1.5 1.9154828z" fill="#cb9e78"/><path d="m40 23h6v23h-6z" fill="#7a6ac3"/><path d="m40 23h3v23h-3z" fill="#a795e6"/><path d="m31 31h6v15h-6z" fill="#ca5057"/><path d="m31 31h3v15h-3z" fill="#dc6068"/><path d="m9 38h6v8h-6z" fill="#7e4e4d"/><path d="m10 38h3v8h-3z" fill="#8d5655"/><path d="m0 34h6v12h-6z" fill="#eebc5a"/><path d="m0 34h3v12h-3z" fill="#f8cf6a"/><path d="m35 19.8v-4.6h-1.8107259c-.2594238-1.0938476-.696289-2.117692-1.2836425-3.0389649l1.5610351-1.5610351-3.0666667-3.06666667-1.5610351 1.56103511c-.9212729-.58735349-1.9451173-1.02421875-3.0389649-1.28364255v-1.81072589h-4.6v1.81072589c-1.0938476.2594238-2.117692.69628906-3.0389649 1.28364255l-1.5610351-1.56103511-3.0666667 3.06666667 1.5610351 1.5610351c-.5873535.9212729-1.0242187 1.9451173-1.2836425 3.0389649h-1.8107259v4.6h1.8107259c.2594238 1.0938476.696289 2.117692 1.2836425 3.0389649l-1.5610351 1.5610351 3.0666667 3.0666667 1.5610351-1.5610351c.9212729.5873534 1.9451173 1.0242187 3.0389649 1.2836425v1.8107259h4.6v-1.8107259c1.0938476-.2594238 2.117692-.6962891 3.0389649-1.2836425l1.5610351 1.5610351 3.0666667-3.0666667-1.5610351-1.5610351c.5873534-.9212729 1.0242187-1.9451173 1.2836425-3.0389649z" fill="#599072"/><path d="m30 18c0 3.8661024-3.1338976 7-7 7s-7-3.1338976-7-7 3.1338976-7 7-7 7 3.1338976 7 7z" fill="#fff"/><path d="m46 3c0 1.65673828-1.3432617 3-3 3s-3-1.34326172-3-3 1.3432617-3 3-3 3 1.34326172 3 3z" fill="#5789d6"/><path d="m44 3c0-1.65696567-.8955078-3-2-3s-2 1.34303433-2 3 .8955078 3 2 3 2-1.34303433 2-3z" fill="#699ce6"/><path d="m6 28c0 1.6567383-1.34326172 3-3 3s-3-1.3432617-3-3 1.34326172-3 3-3 3 1.3432617 3 3z" fill="#bc8f6f"/><path d="m4 28c0-1.6569657-.89550783-3-2-3s-2 1.3430343-2 3 .89550783 3 2 3 2-1.3430343 2-3z" fill="#cb9e78"/><path d="m25 17.5c0 .8283692-.6716308 1.5-1.5 1.5s-1.5-.6716308-1.5-1.5.6716308-1.5 1.5-1.5 1.5.6716308 1.5 1.5z" fill="#70b48f"/><path d="m19 31h8v2h-8z" fill="#bab8b9"/><path d="m19 31h4v2h-4z" fill="#d9d7d8"/><g fill="#bab8b9" transform="translate(17 12)"><path d="m1.88034188 22.4578313h7.52136752v1.5421687h-7.52136752z"/><path d="m.03305284 9.38177716c.28352039.42884029.61661995.81890054.98460878 1.17131014l3.6508747-3.74284634-1.06356837-1.09036144z"/><path d="m9.863348.07492472-4.00196979 4.10278612 1.06356837 1.09036145 4.00196982-4.10278612c-.3143697-.40286149-.6706063-.76807229-1.0635684-1.09036145z"/></g><path d="m23 19c-1.1025391 0-2-.8974609-2-2s.8974609-2 2-2 2 .8974609 2 2-.8974609 2-2 2zm0-2.6666667c-.3678385 0-.6666667.2988282-.6666667.6666667s.2988282.6666667.6666667.6666667.6666667-.2988282.6666667-.6666667-.2988282-.6666667-.6666667-.6666667z" fill="#599072" fill-rule="nonzero"/><path d="m19 34h4v2h-4z" fill="#d9d7d8"/></g></g></svg>