<?xml version="1.0" encoding="UTF-8"?>
<svg width="216px" height="48px" viewBox="0 0 216 48" version="1.1" xmlns="http://www.w3.org/2000/svg" xmlns:xlink="http://www.w3.org/1999/xlink">
    <!-- Generator: Sketch 52.2 (67145) - http://www.bohemiancoding.com/sketch -->
    <title>dark</title>
    <desc>Created with Sketch.</desc>
    <g id="Page-1" stroke="none" stroke-width="1" fill="none" fill-rule="evenodd">
        <g id="offer" transform="translate(-348.000000, -10080.000000)">
            <g id="dark" transform="translate(348.000000, 10080.000000)">
                <path d="M63,34.5827353 L65.0425904,31.8158704 C67.1429405,33.5538241 69.3168028,34.753332 72.252042,34.753332 C75.4550758,34.753332 77.046091,33.0207095 77.046091,30.9042444 C77.046091,28.3506254 74.1633606,27.2257535 71.4644107,26.2021735 C68.0408401,24.9333607 64.1814469,23.2220627 64.1814469,19.0424441 C64.1814469,15.0707402 67.331972,12 72.5828471,12 C75.3498959,12.0398621 78.0236561,13.0217112 80.1756126,14.7881895 L78.2012835,17.4537626 C76.5157526,16.1956121 74.7882147,15.246668 72.630105,15.246668 C69.5530922,15.246668 68.1353559,16.9153168 68.1353559,18.8025425 C68.1353559,21.1642403 70.7870478,22.0598729 73.554259,23.1047775 C77.0775963,24.4535575 81,25.9089604 81,30.632356 C81,34.6520402 77.8494749,38 72.0735123,38 C68.7558418,37.9331439 65.5580113,36.7287775 63,34.5827353 Z" id="Path" fill="#000000"></path>
                <path d="M86,2 L90.2277733,2 L90.2277733,11.8489071 L90.077357,16.8974622 C92.4088101,14.6794778 94.9390277,12.8311574 98.3717432,12.8311574 C103.636315,12.8311574 106,16.1739768 106,22.4371424 L106,38 L101.772227,38 L101.772227,22.9757958 C101.772227,18.4025231 100.36476,16.4433035 97.0556003,16.4433035 C94.5038947,16.4433035 92.7311308,17.7265659 90.2277733,20.2138771 L90.2277733,38 L86,38 L86,2 Z" id="Path" fill="#000000"></path>
                <path d="M110,25.0346241 C110,16.7674657 115.176171,12 120.989801,12 C126.803431,12 132,16.7674657 132,25.0346241 C132,33.3017824 126.81873,38 121.0051,38 C115.19147,38 110,33.2538414 110,25.0346241 Z M127.848864,25.0346241 C127.848864,19.3562795 125.08484,15.4943659 121.0051,15.4943659 C116.925359,15.4943659 114.151136,19.3562795 114.151136,25.0346241 C114.151136,30.7129687 116.91516,34.5109609 120.9949,34.5109609 C125.074641,34.5109609 127.833565,30.7129687 127.833565,25.0346241 L127.848864,25.0346241 Z" id="Shape" fill="#000000" fill-rule="nonzero"></path>
                <path d="M137,12.6152474 L140.522593,12.6152474 L140.884578,15.4881855 L141.025049,15.4881855 C143.294204,13.6210432 146.125246,12 149.037328,12 C155.520629,12 159,16.9915292 159,24.6794472 C159,33.1645118 153.856582,38.1132412 148.113458,38.1132412 C145.811886,38.1132412 143.456287,37.0432457 141.149312,35.2296032 L141.26277,39.5737851 L141.26277,48 L137.010806,48 L137,12.6152474 Z M154.596758,24.716897 C154.596758,19.2278199 152.700393,15.5470352 147.967583,15.5470352 C145.8389,15.5470352 143.694008,16.7026304 141.251965,18.9389211 L141.251965,31.9821667 C143.526523,33.8760588 145.709234,34.571556 147.373281,34.571556 C151.527996,34.571556 154.596758,30.8640214 154.596758,24.716897 Z" id="Shape" fill="#000000" fill-rule="nonzero"></path>
                <polygon id="Path" fill="#000000" points="163 33.8327241 175.498865 15.3076758 164.384222 15.3076758 164.384222 12 180.586266 12 180.586266 14.172436 168.087401 32.6923242 181 32.6923242 181 36 163 36"></polygon>
                <path d="M185,4.76630435 C185,3.08152174 186.3125,2 188,2 C189.6875,2 191,3.08695652 191,4.76630435 C190.903772,6.32962313 189.589225,7.54891304 188,7.54891304 C186.410775,7.54891304 185.096228,6.32962313 185,4.76630435 Z M185.794118,12.7228261 L190.112132,12.7228261 L190.112132,38 L185.772059,38 L185.794118,12.7228261 Z" id="Shape" fill="#000000" fill-rule="nonzero"></path>
                <path d="M194,25.0346241 C194,16.9698832 199.685197,12 205.654655,12 C212.26509,12 215.999485,16.5384143 215.999485,23.6283548 C216.006723,24.4263893 215.937694,25.2233884 215.793257,26.0094243 L198.336356,26.0094243 C198.654059,31.2562999 202.00944,34.6601106 206.953332,34.6601106 C209.263294,34.6439996 211.5131,33.9545465 213.40213,32.6838763 L214.97392,35.4324933 C212.454779,37.0906856 209.471485,37.9853724 206.412681,38 C199.501265,38 194,33.1739398 194,25.0346241 Z M212.125747,23.0051219 C212.125747,18.0405655 209.784784,15.3398894 205.732687,15.3398894 C202.087472,15.3398894 198.832418,18.1364474 198.29734,23.0051219 L212.125747,23.0051219 Z" id="Shape" fill="#000000" fill-rule="nonzero"></path>
                <polygon id="Path" fill="#FF5325" points="38.9086575 38 35 38 43.2865747 1.59937224 45.1194479 0 55.2002509 0 57 2.77585961 54.8082811 10.4853759 53.0030113 11.965473 48.553325 11.965473 49.5304893 7.71493794 51.6228356 7.71493794 52.6055207 4.25053503 46.5879548 4.25053503"></polygon>
                <polygon id="Path" fill="#FF5325" points="30.8409181 38 5.51483973 38 4.53739612 33.7605761 29.5085081 33.7605761 31.3810843 25.729973 4.10526316 25.729973 2.38187574 24.050405 0 10.5544554 1.72338742 8 39 8 38.0791452 12.2340234 3.89948556 12.2340234 5.53541749 21.4905491 33.7063712 21.4905491 35.4040364 24.1854185 32.5437277 36.450045"></polygon>
                <circle id="Oval" fill="#FF5325" cx="14" cy="44" r="4"></circle>
                <circle id="Oval" fill="#FF5325" cx="35" cy="44" r="4"></circle>
            </g>
        </g>
    </g>
</svg>