<svg xmlns="http://www.w3.org/2000/svg" viewBox="0 0 227.94 31.95"><defs><style>.cls-1{fill:#f2f2f2;}</style></defs><title>SVGLight</title><g id="Layer_2" data-name="Layer 2"><g id="Layer_2-2" data-name="Layer 2"><g id="Light"><path class="cls-1" d="M26.41,7.26,25.15,8l-1.26.72L13.83,14.52l-3.77-2.18,10.06-5.8,2.51-1.46L20.12,3.63,17.61,5.08,7.54,10.89,3.77,8.71l10.06-5.8,2.52-1.46L13.83,0,11.32,1.45,0,8V24l13.83,8,13.84-8V8ZM2.52,10.89,12.58,16.7V28.32L2.52,22.51ZM25.15,22.51,15.09,28.32V16.7l10.06-5.8Z"/><path class="cls-1" d="M40.32,10.81v2.86h5.24v3.74H40.32v2.86h6.2V24H36V7H46.52v3.77Z"/><path class="cls-1" d="M49.58,15.54a8.72,8.72,0,0,1,16.49-4l-3.74,1.9a4.53,4.53,0,0,0-8.53,2.07,4.53,4.53,0,0,0,8.53,2.07l3.74,1.9a8.72,8.72,0,0,1-16.49-4Z"/><path class="cls-1" d="M68.85,15.54a8.73,8.73,0,1,1,8.73,8.73A8.71,8.71,0,0,1,68.85,15.54Zm13.2,0a4.49,4.49,0,0,0-9,0,4.49,4.49,0,0,0,9,0Z"/><path class="cls-1" d="M109.37,7V24H105V15L100.81,24H98.49l-4.23-9.15V24H89.93V7h4.7l5,10.82,5-10.82Z"/><path class="cls-1" d="M126.39,12.28a5,5,0,0,1-5.21,5.1H118V24h-4.33V7h7.56A5.18,5.18,0,0,1,126.39,12.28Zm-4.16,0a1.58,1.58,0,0,0-1.76-1.5H118v3.06h2.52A1.61,1.61,0,0,0,122.23,12.31Z"/><path class="cls-1" d="M143.23,24h-4.88l-4-6.23h-1V24h-4.33V7h7.56a5.21,5.21,0,0,1,5.22,5.36,5.07,5.07,0,0,1-3.32,4.9Zm-5.56-11.47a1.7,1.7,0,0,0-1.76-1.76h-2.52v3.51h2.52A1.69,1.69,0,0,0,137.67,12.57Z"/><path class="cls-1" d="M150.14,10.81v2.86h5.24v3.74h-5.24v2.86h6.2V24H145.8V7h10.54v3.77Z"/><path class="cls-1" d="M176.55,7V24H172l-7.65-10.43V24H160V7h4.53l7.68,10.4V7Z"/><path class="cls-1" d="M185.27,10.81v2.86h5.24v3.74h-5.24v2.86h6.21V24H180.94V7h10.54v3.77Z"/><path class="cls-1" d="M195.05,18.63V7h4.33V17.81a3,3,0,0,0,5.9,0V7h4.33V18.63c0,3.17-3.2,5.64-7.28,5.64S195.05,21.8,195.05,18.63Z"/><path class="cls-1" d="M227.94,24h-4.87l-4-6.23h-1V24h-4.34V7h7.57a5.2,5.2,0,0,1,5.21,5.36,5.07,5.07,0,0,1-3.31,4.9Zm-5.55-11.47a1.7,1.7,0,0,0-1.76-1.76h-2.52v3.51h2.52A1.69,1.69,0,0,0,222.39,12.57Z"/></g></g></g></svg>