<svg height="45" viewBox="0 0 45 45" width="45" xmlns="http://www.w3.org/2000/svg"><g fill="none" fill-rule="evenodd"><path d="m20.7542169 22.9771084c-.346988-.1734939-.7265061-.2602409-1.1168675-.2602409-1.4421687 0-2.6024096 1.1602409-2.6024096 2.6024096s1.1602409 2.6024096 2.6024096 2.6024096 2.6024096-1.1602409 2.6024096-2.6024096c0-.3903614-.086747-.7698795-.2602409-1.1168675l-1.7349398 1.7349398c-.0433735.0433735-.086747.086747-.1409638.1192771l-.4662651.4662651-1.3662651-1.0518073.7481928-.7481927z"/><path d="m28.453012 33.1590361c-4.326506 4.933735-11.8301204 5.4325302-16.7746987 1.1060241-4.93373499-4.326506-5.43253017-11.8301204-1.1060241-16.7746988 4.326506-4.9337349 11.8301204-5.4325301 16.7746988-1.1060241l3.4698795-3.4698795-.0542169-1.4638554c-3.1771084-2.54819276-7.1349398-3.94698794-11.2120482-3.93614457-9.8566265.02168675-17.83734939 8.02409637-17.82650601 17.88072287.01084337 9.8566265 8.01325301 17.8373494 17.88072291 17.826506 9.8674699-.0108433 17.8373494-8.013253 17.826506-17.8807228-.0108434-4.0554217-1.4096386-7.9915663-3.9686747-11.146988l-1.4313253-.0542169-3.4698795 3.4698796c3.8277108 4.5 3.7843373 11.1144578-.1084338 15.5493975z"/><path d="m23.2481928 27.7156627c-1.3228916 1.9951807-4.0120482 2.5481927-6.0072289 1.2253012-1.9951808-1.3228916-2.5481928-4.0120482-1.2253012-6.007229 1.3228915-1.9951807 4.0120481-2.5481927 6.0072289-1.2253012l4.1096385-4.1096385c-3.773494-3.1771085-9.2819277-3.1771085-13.0554217 0-4.2831325 3.6-4.82530117 9.9975903-1.2253012 14.2807229 3.6 4.2831325 9.9975904 4.8253012 14.2807229 1.2253012 4.2831326-3.6 4.8253012-9.9975904 1.2253012-14.2698795l-.9759036.9759036-3.1337349 3.1337349c.9650602 1.4313253.9650602 3.3180723 0 4.7710844z"/><g fill-rule="nonzero"><path d="m26.1325301 33.0939759c-4.2831325 3.6-10.6698795 3.0578313-14.2807229-1.2253012-3.59999997-4.2831325-3.0578313-10.6698795 1.2253012-14.2807229 3.773494-3.1771084 9.2819277-3.1771084 13.0554217 0l-4.1096385 4.1096386c-1.9951808-1.3228916-4.6843374-.7698796-6.0072289 1.2253012-1.3228916 1.9951807-.7698796 4.6843373 1.2253012 6.0072289 1.9951807 1.3228915 4.6843373.7698795 6.0072289-1.2253012.9650602-1.4530121.9650602-3.3397591 0-4.7927711l3.1337349-3.1337349-6.2783132 6.2566265c.0542168-.0325302.0975903-.0650603.1409638-.1192771l1.7349398-1.7349398c.1734939.3469879.2602409.726506.2602409 1.1168675 0 1.4421686-1.1602409 2.6024096-2.6024096 2.6024096s-2.6024096-1.160241-2.6024096-2.6024096c0-1.4421687 1.1602409-2.6024097 2.6024096-2.6024097.3903614 0 .7698795.086747 1.1168675.260241l-1.7349398 1.7349397 8.3277109-8.3277108c-4.933735-4.326506-12.4481928-3.8277108-16.7746988 1.1060241-4.31566269 4.9662651-3.82771089 12.4698795 1.1168674 16.7963855 4.933735 4.3265061 12.4481928 3.8277109 16.7746988-1.1060241 3.8819277-4.4349397 3.9361446-11.0493975.1084338-15.5385542l3.4698795-3.4698795-4.673494 4.6626506c3.6 4.2831325 3.046988 10.6698795-1.2361446 14.2807229z" fill="#828282"/><path d="m32.0313253 14.1506024 1.4313253.0542169c2.5481928 3.1554217 3.946988 7.0915662 3.9686747 11.1469879.0108434 9.8566265-7.9698795 17.8590362-17.826506 17.8807229-9.85662653.0216868-17.86987954-7.9698795-17.88072291-17.8373494-.01084338-9.8674699 7.96987951-17.85903612 17.82650601-17.8698795 4.0771084 0 8.0349398 1.38795181 11.2120482 3.9361446l-.086747-2.23373496c-8.9024096-6.12650602-21.09036143-3.88192771-27.21686746 5.00963856-6.12650602 8.8915663-3.89277108 21.0903614 5.00963856 27.2168675 8.9024096 6.126506 21.0903614 3.8819277 27.2168675-5.0096386 4.6084337-6.6903614 4.6084337-15.5168675 0-22.2072289z" fill="#828282"/><path d="m40.0337349 4.92289157-.1409638-4.07710844c-.0108434-.47710843-.4120482-.8566265-.9-.83493976-.2168675.01084338-.433735.09759037-.5855422.26024097l-7.4819277 7.44939759c-.173494.17349397-.260241.40120482-.2493976.63975903v.86746988l.086747 2.23373496s.0108434.0108434.0108434.0108434l.0433735 1.453012-3.4698795 3.4698795-8.3277109 8.3277109c-.3361446.3361445-.3361446.8783132 0 1.2144578.2927711.2927711.7481928.3253012 1.0843374.1192771l6.2783132-6.2566265.9759036-.9759036 4.673494-4.6626506 3.6542169.086747h.8674698c.2277109 0 .4554217-.086747.6180723-.2493976l7.4927711-7.4927711c.3361446-.33614458.346988-.88915663.0108434-1.22530121-.1518072-.1626506-.3686747-.24939759-.5855422-.26024096zm-1.7674698-2.04939759.0975903 2.88433735c0 .47710843.3903615.86746987.8674699.86746987l2.8843374.09759037-5.8445784 5.77951803-3.6975903-.1192771-.1192771-3.69759033z" fill="#a03ee5"/></g></g></svg>