<svg height="52" viewBox="0 0 51 52" width="51" xmlns="http://www.w3.org/2000/svg"><g fill="none" fill-rule="evenodd"><path d="m37.3420791 43.9126126s4.4473814-5.3891679 6.7254486-7.8334387c1.2163399-1.3051364 1.785-3.0561699.7466561-4.5069486s-3.2818399-2.0435277-4.5069486-.7466561c-2.3343083 2.4709802-7.8106601 9.0489723-7.8106601 9.0489723z" fill="#ffb171"/><path d="m50.3664308 31.2693498c-1.0383438-1.4507787-3.2818399-2.0435277-4.5069486-.7466561-2.3343083 2.4709802-7.8106601 9.0489723-7.8106601 9.0489723l-15.3441462 1.615168v-6.4606719s-3.230336-3.230336-8.8834743-3.230336c-7.65755931 0-12.31468579 3.6004387-13.45422334 4.5941324-.1752747.1526976-.27475494.3744368-.27475494.6068597v7.7203518c0 .445998.36163636.8076343.80763439.8076343h10.49854149l15.0018617 6.3165415c.2172035.091417.4636363.0834546.6744901-.0219723l15.8195751-7.9097371s4.4473814-5.389168 6.7254486-7.8334388c1.2164407-1.3050355 1.7851008-3.0560691.7466561-4.5068478z" fill="#fc9"/><path d="m49.6197747 32.6204466c-2.2779664 2.4442708-8.3406166 9.3740218-8.3406166 9.3740218l-14.5366126 6.5351561-15.3441463-6.4606719h-11.30627667v2.3482174c0 .445998.36163636.8076343.80763439.8076343h10.49864228l15.0018617 6.3165415c.2172035.091417.4636363.0834546.6744901-.0219723l15.8195751-7.9097371s4.4473814-5.389168 6.7254486-7.8334388c1.1723953-1.2578656 1.7423656-2.930081.8522846-4.3484051-.2183123.4219091-.5095968.8250711-.8522846 1.1926541z" fill="#ffb171"/><path d="m32.8903636 37.2948083s-13.4160237-5.7988814-19.069162-5.7988814c-7.65755931 0-12.31468579 3.6004387-13.45422334 4.5941324-.1752747.1526976-.27475494.3744367-.27475494.6068597v4.4900158h22.61245258l8.2610929 2.275245c1.7030573.5314684 3.5145652-.4182806 4.0460336-2.1214387.5314684-1.7030573-.4183815-3.5144644-2.1214388-4.0459328z" fill="#fc9"/><path d="m30.9657688 41.0394783-5.7989822-1.5971265c-1.3803261-.3801818-2.8169941.38633-3.2697451 1.7446838l9.0687273 2.275245c1.7030573.5314684 3.5145652-.4183814 4.0460336-2.1214387.2318182-.7427253.1817253-1.5059111-.089502-2.1747569-.6228854 1.5453201-2.3382391 2.3783537-3.9565316 1.8733933z" fill="#ffb171"/><path d="m43.651666 15.871583c-.1172194-.3169862-.4193893-.5274368-.7574407-.5274368h-6.4606719v-14.53651181c0-.44599803-.3616364-.80763439-.8076344-.80763439h-19.3820158c-.4459981 0-.8076344.36163636-.8076344.80763439v14.53661261h-6.46067196c-.32383992 0-.62389328.2009763-.7469585.5005257-.13092688.3188004-.040417.6959585.22123518.9202174l16.95941498 14.5365119c.1511858.1296166.3384546.1944249.5256226.1944249s.3743359-.0648083.5255217-.1944249l16.9593142-14.5366127c.2567135-.2198241.3492392-.5764209.231919-.8933063z" fill="#00c8c8" transform="matrix(1 0 0 -1 0 31.495926)"/><path d="m17.8590711 20.1896502-.0012094-19.38201581c0-.44599803.3616363-.80763439.8076343-.80763439h-2.4215928c-.4459981 0-.8076344.36163636-.8076344.80763439v14.53661261h-6.46067196c-.32383992 0-.62389328.2009763-.7469585.5005257-.13092688.3188004-.040417.6959585.22123518.9202174l16.95941498 14.5365119c.1511858.1296166.3384546.1944249.5256226.1944249s.3743359-.0648083.5255217-.1944249l2.0637866-1.7688735z" fill="#00a1b2" transform="matrix(1 0 0 -1 0 31.495926)"/><g fill="#fff"><g transform="translate(25 22)"><path d="m1.40251578 6.60474308c-.35465358 0-.53673212-.44233563-.28677911-.69205341l5.1917763-5.18918627c.15848177-.15834709.41523843-.15834709.5736662 0s.15842777.41502696 0 .57332008l-5.19183029 5.18918627c-.07921389.07917355-.1829965.11873333-.2868331.11873333z"/><g fill-rule="nonzero"><path d="m6 6.60474308c-.55138718 0-1-.44861282-1-1 0-.55138717.44861282-1 1-1s1 .44861283 1 1c0 .55142967-.44861282 1-1 1zm0-1.36168585c-.19943068 0-.36168586.16225517-.36168586.36168585 0 .19943069.16225518.36168586.36168586.36168586s.36168586-.16225517.36168586-.36168586c0-.19943068-.16225518-.36168585-.36168586-.36168585z"/><path d="m1 2.60474308c-.55138718 0-1-.44861282-1-1 0-.55138717.44861282-1 1-1s1 .44861283 1 1c0 .55138718-.44861282 1-1 1zm0-1.36168585c-.19943068 0-.36168586.16225517-.36168586.36168585 0 .19943069.16225518.36168586.36168586.36168586s.36168586-.16225517.36168586-.36168586c0-.19943068-.16225518-.36168585-.36168586-.36168585z"/></g></g><path d="m27 18.6047431h-5.8305745v-1.2073171l2.751704-3.0609756c.3778013-.4308965.6572532-.806909.8383642-1.1280488.1811109-.3211398.271665-.6260148.271665-.9146341 0-.3943109-.0954226-.7042672-.2862707-.9298781s-.4634841-.3384146-.8179162-.3384146c-.3816962 0-.6825695.1371937-.9026291.4115854-.2200595.2743916-.3300876.6351603-.3300876 1.082317h-1.6942551c0-.5406531.1236599-1.0345506.3709834-1.4817073.2473236-.4471567.5968819-.7977629 1.0486855-1.05182926.4518037-.25406631.9639699-.38109756 1.5365142-.38109756.8763432 0 1.5569596.21951 2.0418695.65853662.4849099.4390266.7273612 1.0589391.7273612 1.8597561 0 .4390266-.1090544.8861766-.3271665 1.3414634s-.5920129.9857693-1.1217137 1.5914634l-1.9337877 2.1280488h3.6572541zm5 0h-1.8233438v-6.8765432l-2.1766562.6604938v-1.4506173l3.8044164-1.33333332h.1955836z"/></g></g></svg>