<?xml version="1.0" encoding="UTF-8"?>
<svg width="1440px" height="849px" viewBox="0 0 1440 849" version="1.1" xmlns="http://www.w3.org/2000/svg" xmlns:xlink="http://www.w3.org/1999/xlink">
    <!-- Generator: Sketch 52.2 (67145) - http://www.bohemiancoding.com/sketch -->
    <title>Group 5</title>
    <desc>Created with Sketch.</desc>
    <g id="Page-1" stroke="none" stroke-width="1" fill="none" fill-rule="evenodd" fill-opacity="0.0799649004">
        <g id="offer" transform="translate(0.000000, -26.000000)" fill="#0C6CD4" fill-rule="nonzero">
            <g id="Shape-+-Shape-Copy-4-+-Shape-Copy-+-Shape-Copy-5-+-Shape-Copy-2-+-Shape-Copy-6-+-Shape-Copy-3-+-Shape-Copy-7-Mask" transform="translate(-10.000000, 26.000000)">
                <g id="Group-5" transform="translate(-95.000000, -96.000000)">
                    <path d="M392.610408,339.03625 L378.220817,347.5 L363.831225,355.735 L248.942898,422.0725 L205.888327,397.13875 L320.776653,330.80125 L349.441634,314.1025 L320.776653,297.518125 L292.111673,314.1025 L177.109143,380.554375 L134.054572,355.620625 L248.942898,289.283125 L277.722082,272.584375 L248.942898,256 L220.277918,272.584375 L91,347.5 L91,530.5 L248.942898,622 L407,530.5 L407,347.5 L392.610408,339.03625 Z M120,381 L235,447.333333 L235,580 L120,513.666667 L120,381 Z M379,513.628588 L264,580 L264,447.257176 L379,381 L379,513.628588 Z" id="Shape"></path>
                    <path d="M1551.61041,385.03625 L1537.22082,393.5 L1522.83123,401.735 L1407.9429,468.0725 L1364.88833,443.13875 L1479.77665,376.80125 L1508.44163,360.1025 L1479.77665,343.518125 L1451.11167,360.1025 L1336.10914,426.554375 L1293.05457,401.620625 L1407.9429,335.283125 L1436.72208,318.584375 L1407.9429,302 L1379.27792,318.584375 L1250,393.5 L1250,576.5 L1407.9429,668 L1566,576.5 L1566,393.5 L1551.61041,385.03625 Z M1279,427 L1394,493.333333 L1394,626 L1279,559.666667 L1279,427 Z M1538,559.628588 L1423,626 L1423,493.257176 L1538,427 L1538,559.628588 Z" id="Shape-Copy-4"></path>
                    <path d="M301.610408,687.03625 L287.220817,695.5 L272.831225,703.735 L157.942898,770.0725 L114.888327,745.13875 L229.776653,678.80125 L258.441634,662.1025 L229.776653,645.518125 L201.111673,662.1025 L86.1091435,728.554375 L43.0545717,703.620625 L157.942898,637.283125 L186.722082,620.584375 L157.942898,604 L129.277918,620.584375 L0,695.5 L0,878.5 L157.942898,970 L316,878.5 L316,695.5 L301.610408,687.03625 Z M29,729 L144,795.333333 L144,928 L29,861.666667 L29,729 Z M288,861.628588 L173,928 L173,795.257176 L288,729 L288,861.628588 Z" id="Shape-Copy"></path>
                    <path d="M1660.61041,728.03625 L1646.22082,736.5 L1631.83123,744.735 L1516.9429,811.0725 L1473.88833,786.13875 L1588.77665,719.80125 L1617.44163,703.1025 L1588.77665,686.518125 L1560.11167,703.1025 L1445.10914,769.554375 L1402.05457,744.620625 L1516.9429,678.283125 L1545.72208,661.584375 L1516.9429,645 L1488.27792,661.584375 L1359,736.5 L1359,919.5 L1516.9429,1011 L1675,919.5 L1675,736.5 L1660.61041,728.03625 Z M1388,770 L1503,836.333333 L1503,969 L1388,902.666667 L1388,770 Z M1647,902.628588 L1532,969 L1532,836.257176 L1647,770 L1647,902.628588 Z" id="Shape-Copy-5"></path>
                    <path d="M224.29888,61.71 L213.597759,68 L202.896639,74.12 L117.457535,123.42 L85.4391037,104.89 L170.878207,55.59 L192.195519,43.18 L170.878207,30.855 L149.560896,43.18 L64.036863,92.565 L32.0184315,74.035 L117.457535,24.735 L138.859776,12.325 L117.457535,0 L96.1402241,12.325 L0,68 L0,204 L117.457535,272 L235,204 L235,68 L224.29888,61.71 Z M21,93 L107,142.333333 L107,241 L21,191.666667 L21,93 Z M214,191.638347 L128,241 L128,142.276693 L214,93 L214,191.638347 Z" id="Shape-Copy-3"></path>
                    <path d="M1673.29888,139.71 L1662.59776,146 L1651.89664,152.12 L1566.45754,201.42 L1534.4391,182.89 L1619.87821,133.59 L1641.19552,121.18 L1619.87821,108.855 L1598.5609,121.18 L1513.03686,170.565 L1481.01843,152.035 L1566.45754,102.735 L1587.85978,90.325 L1566.45754,78 L1545.14022,90.325 L1449,146 L1449,282 L1566.45754,350 L1684,282 L1684,146 L1673.29888,139.71 Z M1470,171 L1556,220.333333 L1556,319 L1470,269.666667 L1470,171 Z M1663,269.638347 L1577,319 L1577,220.276693 L1663,171 L1663,269.638347 Z" id="Shape-Copy-7"></path>
                </g>
            </g>
        </g>
    </g>
</svg>