<svg height="52" viewBox="0 0 50 52" width="50" xmlns="http://www.w3.org/2000/svg"><g fill="none" fill-rule="evenodd"><path d="m49.9064868 21.6155885c-.1404672-.7962659-.5879104-1.5054216-1.2227747-2.0035332l-22.1527778-17.37174102c-.938289-.73608058-2.2557607-.73489279-3.1928661.00237578l-22.07780941 17.37055314c-.63249677.4977156-1.07796707 1.2056835-1.21882889 2.0003654-.02564707.1465035-.0414299.2934029-.0414299.4351548v28.4208699c0 .8449683.68300192 1.5303667 1.52501576 1.5303667h46.89749054c.8424084 0 1.5250158-.6853984 1.5250158-1.5303667v-28.4208699c0-.1409601-.0153883-.2870675-.0410353-.4331749z" fill="#f2f2f2"/><path d="m49.9475221 50.4696333v-28.4208699c0-.1409601-.0153883-.2870675-.0410353-.432779-.0528726-.3013219-.1499369-.5895772-.2844856-.8592227l-.2292455.1108675-22.8618214 17.9284539c-.938289.7356847-2.2557607.7348928-3.1928661-.0027716l-22.78330173-17.9256823-.24621213-.0760234c-.12507899.2589546-.21622485.5349354-.26712444.8220028-.02564707.1465035-.0414299.2934029-.0414299.4351548v28.4208699c0 .8453643.68300192 1.5303667 1.52501576 1.5303667h46.89749054c.8424084 0 1.5250158-.6853984 1.5250158-1.5303667z" fill="#cdd6df"/><path d="m49.9064868 21.6159844c-.0528726-.3013219-.1499369-.5895772-.2844856-.8592227l-.2292455.1108675-5.011048 3.9302509v23.8178911c0 .8453643-.6830018 1.5303668-1.5254103 1.5303668h-42.8562974v.3234953c0 .8453643.68300192 1.5303667 1.52501576 1.5303667h46.89749054c.8424084 0 1.5250158-.6850024 1.5250158-1.5303667v-28.4208699c0-.1409601-.0153883-.2870675-.0410353-.432779z" fill="#aebcc4"/><path d="m49.4491793 51.5988974c-2.3374369-1.99601-12.3824179-10.5656676-18.856534-15.9878777l-4.061711 3.1850634c-.938289.7356847-2.2557607.7344968-3.1928661-.0027716l-4.0321181-3.1723929c-6.2878788 5.2297758-15.93276515 13.3947673-18.8880997 15.8991837.27817233.2949866.67077021.4798977 1.1075599.4798977h46.897096c.3961491 0 .7556029-.1528386 1.026673-.4011026z" fill="#aebcc4"/><path d="m48.6387311 51.9829739c.0264362-.0039595.053267-.0071271.0797032-.0122745.0291982-.0059394.0576073-.0134626.0860164-.0209857.0177558-.0047515.0355114-.008711.0528725-.0138584.0335385-.0098989.0658934-.0217775.0982481-.0340522.0114426-.0039595.0228852-.0079191.0339331-.0122746.0359059-.0146503.0714173-.0308845.1061395-.0483065.0063132-.0031676.0126263-.0059393.0189394-.009107.0374843-.0194018.0741793-.0403875.1100853-.062561.0027619-.0019797.0055239-.0035635.0082859-.0051473.0374843-.0237574.0741793-.0494944.1096908-.0764194.0003945-.0003959.0011836-.0007919.0015781-.0011879.0363006-.0281128.0714174-.0570175.1049559-.088298-.8502999-.7257858-2.7205651-2.3218811-5.0674716-4.3194749v1.3367447c0 .8449683-.6830018 1.5303668-1.5254103 1.5303668h-40.81636689c-.65498728.5543372-1.20501889 1.0203764-1.62208011 1.3735684.06944445.0736476.14599112.1405641.22885101.1991654 0 .000396 0 .000396.00039455.000396.03985162.0281128.08088697.0546418.12350061.078795.00197293.0011879.00394575.0027717.00591858.0039596.04024626.0225694.08167616.0431591.12389515.0625609.00473495.0019798.0094697.0047515.01420465.0067313.03945697.017422.08009778.0324683.12113313.0463267.00789141.0027717.01578283.0063353.02406889.009107.03827333.0122747.0777304.0221735.11758202.0312805.01104798.0027716.02170141.0063353.03314394.008711.03866798.008315.07812495.0138584.11797667.0190058.01262626.0015838.02485798.0043555.03748424.0055433.05208323.0055435.1053503.0087111.15901192.0087111h46.89749054c.0508997 0 .1010101-.0027717.150726-.0079191.022096-.0019798.0434029-.0059394.0654988-.009107z" fill="#96a4aa"/><path d="m25.636048 31.5683175c-.5397727-1.1280762-1.4224274-.7028204-1.9625947-1.8305007-.5397727-1.1276803.3424873-1.5529361-.1972854-2.6806165-.5401673-1.1280763-1.4224274-.7028204-1.9629892-1.8308966-.5401674-1.1280764.3424874-1.5533322-.1976799-2.6814085-.3302558-.6897539-.9083018-2.0997502-1.3375948-2.3377193l-3.8423295 1.3391204 5.0520833 10.7573099c.4951862 1.033839 1.7313763 1.4693897 2.7616004.9724659l1.3020833-.6279848c.3977273-.1916424.5788353-.6707481.3894413-1.0706628-.0015783-.0031676-.0031565-.0063353-.0047348-.009107z" fill="#3c5666"/><path d="m16.0570549 24.4106359-3.0622632 1.4028692c-.5812027.2660819-1.2673612.009107-1.5325127-.5741349l-1.2803819-2.8152413c-.26515154-.583242-.0090751-1.271808.571733-1.5378899l3.0626578-1.4024731c.3594539-.1647174.784012-.0055435.9481534.3551717l1.6465435 3.6202181c.1641415.3607152.0055241.7867629-.3539299.9514802z" fill="#3c5666"/><path d="m19.5825442 14.9722527-6.2160669 2.8469176c-.8179451.3745736-1.1781882 1.3434759-.8049243 2.164687l2.2672034 4.9850754c.3736583.8208151 1.3391729 1.1823222 2.1571179.8077486l6.216067-2.8469176 18.7464488-1.6915205-8.8095801-19.36973075z" fill="#fed066"/><path d="m21.1363636 17.7831384-7.8724747 3.7449439 1.5648675 3.4408504c.3732638.8208151 1.3391729 1.1823222 2.1571179.8077486l6.2156724-2.8469176 18.7468434-1.6915205-2.6337594-5.7908443z" fill="#f5b556"/><path d="m23.2015467 22.9297637-6.2156724 2.8469176c-.8183396.3745736-1.7838541.0130665-2.1571179-.8077486l-2.2675979-4.9850754c-.373264-.8208152-.0130209-1.7901134.8053188-2.164687l6.2156723-2.8469176z" fill="#ee5646"/><path d="m13.2638889 21.5280823 1.5648675 3.4408504c.2801451.6153144.893308.9728619 1.5273831.9550439.2114899-.0059393.4249526-.053454.6297348-.1472953l6.2156724-2.8469176-2.2916667-5.0389255z" fill="#d83e3a"/><path d="m43.0555556 22.1338938-.9465752.4335709c-.5721275.2621223-1.2480271.0091069-1.5092329-.565424l-9.0277778-19.84923249c-.2612059-.57413494-.0090752-1.25240621.563447-1.51452848l.9465751-.43357093c.5721275-.26212227 1.2480272-.00871097 1.5092329.56542397l9.0277778 19.84923253c.2612058.5741349.0090752 1.2524062-.5634469 1.5145285z" fill="#ee5646"/><path d="m43.6190025 20.6193653-1.8493529-4.0656677-3.0188605 1.3826755 1.8489584 4.0656676c.2612058.5745309.9371054.8275463 1.5092329.565424l.9465752-.4335709c.5725221-.2621223.8246527-.9403936.5634469-1.5145285z" fill="#d83e3a"/></g></svg>