<svg enable-background="new 0 0 150 122" viewBox="0 0 150 122" xmlns="http://www.w3.org/2000/svg"><path d="m116.7 26.2h-13.9c-2.6 0-4.6-2.1-4.6-4.6v-13.9z" fill="#c3bbdf"/><path d="m116.7 26.2v83.5c0 2.6-2.1 4.6-4.6 4.6h-74.2c-2.6 0-4.6-2.1-4.6-4.6v-97.4c0-2.6 2.1-4.6 4.6-4.6h60.3v13.9c0 2.6 2.1 4.6 4.6 4.6z" fill="#fff"/><path d="m95.8 54v4.6h-25.5v-7h25.5z" fill="#fff"/><path d="m102.8 61v9.3h-55.7v-20.9c0-1.3 1-2.3 2.3-2.3h18.6c1.3 0 2.3 1 2.3 2.3v9.3h30.1c1.3 0 2.4 1 2.4 2.3z" fill="#c3bbdf"/><path d="m58.7 90.2v-10.6h23.2v-4.7h-23.2c-2.5 0-4.6 1.9-4.6 4.4v.2 10.6l-5.3-5.3-3.3 3.3 9.3 9.3c.9.9 2.4.9 3.3 0l9.3-9.3-3.3-3.3z" fill="#87a4b0"/><path d="m91.9 80.2-9.3 9.3 3.3 3.3 5.3-5.3v10.6h-23.2v4.6h23.2c2.5 0 4.6-1.9 4.6-4.4 0-.1 0-.1 0-.2v-10.6l5.3 5.3 3.3-3.3-9.3-9.3c-.9-.9-2.3-.9-3.2 0z" fill="#87a4b0"/><g fill="#876fb7"><path d="m44.8 19.3h23.2v4.6h-23.2z"/><path d="m44.8 28.5h4.6v4.6h-4.6z"/><path d="m54.1 28.5h4.6v4.6h-4.6z"/><path d="m118.3 24.6-18.5-18.6c-.4-.4-1-.7-1.6-.7h-60.3c-3.8 0-7 3.1-7 7v97.4c0 3.8 3.1 7 7 7h74.1c3.8 0 7-3.1 7-7v-83.5c0-.6-.2-1.2-.7-1.6zm-3.9 85.1c0 1.3-1 2.3-2.3 2.3h-74.2c-1.3 0-2.3-1-2.3-2.3v-97.4c0-1.3 1-2.3 2.3-2.3h58v11.6c0 3.8 3.1 7 7 7h4.6v-4.6h-4.6c-1.3 0-2.3-1-2.3-2.3v-8.3l13.9 13.9v82.4z"/><path d="m100.5 56.4h-27.9v-2.4h25.5v-2.3c0-1.3-1-2.3-2.3-2.3h-23.2c0-2.6-2.1-4.6-4.6-4.6h-18.5c-2.6 0-4.6 2.1-4.6 4.6v20.9h4.6v-20.9h18.5v7h-7v4.6h39.4v9.3h4.6v-9.3c.1-2.6-2-4.6-4.5-4.6z"/></g></svg>