<svg viewBox="0 0 150 122" xmlns="http://www.w3.org/2000/svg"><path d="m137.2 105.4v3.3a5.8 5.8 0 0 1 -5.8 5.7h-118a5.8 5.8 0 0 1 -5.8-5.7v-3.3h53.4a3.4 3.4 0 0 0 3.2 2.2h16.7a3.4 3.4 0 0 0 3.1-2.2z" fill="#876fb7"/><path d="m137.2 105.4a5.6 5.6 0 0 1 -5.8 5.5h-118a5.6 5.6 0 0 1 -5.8-5.5h53.4a3.4 3.4 0 0 0 3.2 2.2h16.7a3.4 3.4 0 0 0 3.1-2.2z" fill="#8e78ba"/><path d="m130.5 32.8v72.7h-116.3v-72.7a5.2 5.2 0 0 1 5.2-5.3h105.8a5.3 5.3 0 0 1 5.3 5.3z" fill="#9786c4"/><path d="m130.5 32.8v20.9a23.1 23.1 0 0 1 -5.8 2.5v-22.6h-31.2v-1.3a27 27 0 0 1 .4-4.9h31.3a5.5 5.5 0 0 1 5.3 5.4z" fill="#8e78ba"/><path d="m124.7 56.1v49.5h-105v-72.1h73.9a24.5 24.5 0 0 0 24.6 23.4 20.4 20.4 0 0 0 6.5-.8z" fill="#fff"/><path d="m124.7 33.6v22.6a28.3 28.3 0 0 1 -6.5.9 24.6 24.6 0 0 1 -24.6-23.4h31.1z" fill="#d4e8ff"/><path d="m105.5 9.3a23.4 23.4 0 0 1 13-3.9 23.7 23.7 0 1 1 -13 3.9" fill="#87a4b0"/><path d="m133 30.9c-.1.9-.7 1.3-2 1.5.9.6 1.5 1.3 1.2 2.3s-1.1 1.4-2.1 1.5h.1c1.9 1.4.7 3.5-1.1 3.8h-.7c-12.6 0-13.2.3-15.7-.9h-.2c-.4-.1.4 1.4-1.2 1.4-4.9 0-5.7.2-5.7-1.2v-14c0-1.4.7-1.2 5.7-1.1.6 0 1.1.2 1.2.8s.1.1.1.3 0 .9.1.8c5.9-4.1 5.9-7.9 6.3-9.8a1.5 1.5 0 0 1 1.1-1.5c2.9-.9 3.4 4.9 2.3 8.8h8.6c2.9 0 3.9 3.6.6 4.8.8.6 1.6 1.2 1.4 2.5z" fill="#fff"/><path d="m112.5 25.1v14.2c-.4-.1.4 1.4-1.2 1.4-4.9 0-5.7.2-5.7-1.2v-14.1c0-1.4.7-1.2 5.7-1.1a1.1 1.1 0 0 1 1.2.8z" fill="#d4e8ff"/><circle cx="108.9" cy="37.5" fill="#fff" r="1.1"/><path d="m26.9 38.9a2 2 0 0 0 -2 1.9v36.1a2 2 0 0 0 2 2h24.5a2.1 2.1 0 0 0 2-2v-36.1a2.1 2.1 0 0 0 -2-1.9zm12.2 8.8a4.6 4.6 0 0 1 4.7 4.7 4.7 4.7 0 1 1 -4.7-4.7zm2.5 22.3h-5a1.2 1.2 0 0 1 0-2.4h5a1.2 1.2 0 0 1 0 2.4zm3.9-4.3h-12.7a1.2 1.2 0 0 1 -1.2-1.2 1.1 1.1 0 0 1 1.2-1.1h12.7a1.1 1.1 0 0 1 1.1 1.1 1.1 1.1 0 0 1 -1.1 1.2z" fill="#dbd8eb"/><g fill="#fff"><circle cx="39.1" cy="52.4" r="4.7"/><path d="m45.5 63.4h-12.7a1.2 1.2 0 0 0 -1.2 1.2 1.2 1.2 0 0 0 1.2 1.2h12.7a1.1 1.1 0 0 0 1.1-1.2 1.2 1.2 0 0 0 -1.1-1.2z"/><path d="m41.6 67.6h-5a1.2 1.2 0 0 0 0 2.4h5a1.2 1.2 0 0 0 0-2.4z"/></g><path d="m59.8 38.9a2 2 0 0 0 -2 1.9v36.1a2 2 0 0 0 2 2h24.5a2 2 0 0 0 2-2v-36.1a2 2 0 0 0 -2-1.9zm12.3 8.8a4.6 4.6 0 0 1 4.7 4.7 4.8 4.8 0 1 1 -4.7-4.7zm2.5 22.3h-5.1a1.2 1.2 0 0 1 0-2.4h5.1a1.2 1.2 0 0 1 0 2.4zm3.8-4.3h-12.7a1.2 1.2 0 0 1 -1.2-1.2 1.2 1.2 0 0 1 1.2-1.1h12.7a1.2 1.2 0 0 1 1.2 1.1 1.2 1.2 0 0 1 -1.2 1.2z" fill="#dbd8eb"/><circle cx="72.1" cy="52.4" fill="#fff" r="4.7"/><path d="m78.4 63.4h-12.7a1.3 1.3 0 0 0 -1.2 1.2 1.2 1.2 0 0 0 1.2 1.2h12.7a1.2 1.2 0 0 0 1.2-1.2 1.3 1.3 0 0 0 -1.2-1.2z" fill="#fff"/><path d="m74.6 67.6h-5.1a1.2 1.2 0 0 0 0 2.4h5.1a1.2 1.2 0 0 0 0-2.4z" fill="#fff"/><path d="m117.8 57a23.2 23.2 0 0 1 -9.2-1.8 4.5 4.5 0 0 1 -3.6 1.8 4.7 4.7 0 0 1 -4.7-4.7 5.1 5.1 0 0 1 .5-2.2 25.1 25.1 0 0 1 -6.7-11.3h-1.4a2.1 2.1 0 0 0 -2 2v36a2.1 2.1 0 0 0 2 2h24.5a2 2 0 0 0 2-2v-19.9zm-10.4 13h-5a1.2 1.2 0 0 1 0-2.4h5a1.2 1.2 0 0 1 0 2.4zm3.9-4.3h-12.7a1.2 1.2 0 0 1 -1.2-1.2 1.1 1.1 0 0 1 1.2-1.1h12.7a1.1 1.1 0 0 1 1.1 1.1 1.1 1.1 0 0 1 -1.1 1.2z" fill="#dbd8eb"/><path d="m104.9 57.1a4.4 4.4 0 0 0 3.6-1.8 24 24 0 0 1 -7.8-5.1 5.1 5.1 0 0 0 -.5 2.2 4.8 4.8 0 0 0 4.7 4.7z" fill="#fff"/><path d="m111.3 63.4h-12.7a1.2 1.2 0 0 0 -1.2 1.2 1.2 1.2 0 0 0 1.2 1.2h12.7a1.1 1.1 0 0 0 1.1-1.2 1.2 1.2 0 0 0 -1.1-1.2z" fill="#fff"/><path d="m107.4 67.6h-5a1.2 1.2 0 0 0 0 2.4h5a1.2 1.2 0 0 0 0-2.4z" fill="#fff"/><path d="m53.4 84.6a2.1 2.1 0 0 0 -2-2h-24.5a2 2 0 0 0 -2 2v21.1h28.5zm-14.3 16.1a4.6 4.6 0 0 1 -4.7-4.7 4.7 4.7 0 1 1 9.4 0 4.6 4.6 0 0 1 -4.7 4.7z" fill="#dbd8eb"/><circle cx="39.1" cy="96" fill="#fff" r="4.7"/><path d="m86.2 84.6a2 2 0 0 0 -2-2h-24.5a2 2 0 0 0 -2 2v21.1h28.5zm-14.1 16.1a4.7 4.7 0 0 1 -4.8-4.7 4.8 4.8 0 1 1 4.8 4.7z" fill="#dbd8eb"/><circle cx="72.1" cy="96" fill="#fff" r="4.7"/><path d="m119.2 84.6a2.1 2.1 0 0 0 -2-2h-24.5a2 2 0 0 0 -2 2v21.1h28.5zm-14.3 16.1a4.6 4.6 0 0 1 -4.7-4.7 4.7 4.7 0 1 1 9.4 0 4.6 4.6 0 0 1 -4.7 4.7z" fill="#dbd8eb"/><circle cx="104.9" cy="96" fill="#fff" r="4.7"/></svg>