<svg id="Layer_1" data-name="Layer 1" xmlns="http://www.w3.org/2000/svg" viewBox="0 0 150 122"><defs><style>.cls-1{fill:#fff;}.cls-2{fill:#9786c4;}.cls-3{fill:#876fb7;}.cls-4{fill:#dbd8eb;}.cls-5{fill:#87a4b0;}</style></defs><title>icons</title><g id="Shape"><path class="cls-1" d="M95.5,113.1H32.7a7.6,7.6,0,0,1-7.6-7.6V14.2a7.6,7.6,0,0,1,7.6-7.5H95.5a7.5,7.5,0,0,1,7.6,7.5v91.3A7.6,7.6,0,0,1,95.5,113.1Z"/></g><g id="Shape-2" data-name="Shape"><path class="cls-2" d="M103.1,14.3v91.3a7.6,7.6,0,0,1-7.6,7.5H32.7a7.5,7.5,0,0,1-7.5-7.5V14.3a7.4,7.4,0,0,1,7.5-7.4H95.5A7.4,7.4,0,0,1,103.1,14.3Z"/></g><g id="Oval"><circle class="cls-3" cx="64.1" cy="106.2" r="3.5"/></g><path class="cls-3" d="M69.7,11.7H62.1a1.1,1.1,0,0,1-1-1,1.1,1.1,0,0,1,1-1h7.6a1.1,1.1,0,0,1,1,1A1.1,1.1,0,0,1,69.7,11.7Z"/><path class="cls-3" d="M58.8,11.7h-.3a1.1,1.1,0,0,1-1-1,1.1,1.1,0,0,1,1-1h.3a1,1,0,0,1,0,2Z"/><g id="Rectangle-path"><rect class="cls-1" x="27.8" y="14.1" width="72.7" height="85.6"/></g><g id="Shape-3" data-name="Shape"><path class="cls-4" d="M111.6,67.7l14.1,20.4a11.1,11.1,0,0,1-2.8,15.6l-15.2,10.5a7.5,7.5,0,0,1-5.2,1.4c-5.7-.5-18-1.7-21-3h0a3.5,3.5,0,0,1-2.1-1.7l-7.7-11a9.1,9.1,0,0,1,12.7,2.3l3.9,5.6,1.3-1L66.9,74.1a4.6,4.6,0,1,1,7.5-5.2l11,15.9,1.3-.9L83,78.6a4.6,4.6,0,0,1,1.1-6.4,4.5,4.5,0,0,1,6.3,1.2l3.8,5.4,1.4-.9-1.8-2.7a4.2,4.2,0,0,1,7-4.8h0l1.8,2.7,1.6-1.1a4.4,4.4,0,0,1,1.4-5.4A4.5,4.5,0,0,1,111.6,67.7Z"/></g><g id="Shape-4" data-name="Shape"><path class="cls-5" d="M65.4,37.6a2.4,2.4,0,0,0-2-1.1H40.6l-.5-1a2.9,2.9,0,0,0-2.7-1.9H34.3a1.5,1.5,0,0,0,0,3h3L42.6,50a3.4,3.4,0,0,0,3.3,2.2h12A3.4,3.4,0,0,0,61.2,50l4.3-10.3A2,2,0,0,0,65.4,37.6Z"/></g><g id="Shape-5" data-name="Shape"><path class="cls-5" d="M46.2,60.9a3.6,3.6,0,0,1-3.6-3.6,3.7,3.7,0,1,1,7.3,0A3.7,3.7,0,0,1,46.2,60.9Zm0-4.3a.7.7,0,0,0-.6.7.6.6,0,0,0,.6.6.7.7,0,0,0,.7-.6A.7.7,0,0,0,46.2,56.6Z"/></g><g id="Shape-6" data-name="Shape"><path class="cls-5" d="M57.2,60.9a3.6,3.6,0,0,1-3.6-3.6,3.7,3.7,0,0,1,3.6-3.7,3.8,3.8,0,0,1,3.7,3.7A3.7,3.7,0,0,1,57.2,60.9Zm0-4.3a.7.7,0,0,0-.6.7.6.6,0,0,0,.6.6.7.7,0,0,0,.7-.6A.7.7,0,0,0,57.2,56.6Z"/></g><g id="Shape-7" data-name="Shape"><path class="cls-4" d="M92.8,39.7H74.2A2.2,2.2,0,0,1,72,37.5a2.2,2.2,0,0,1,2.2-2.2H92.8a2.2,2.2,0,1,1,0,4.4Z"/></g><g id="Shape-8" data-name="Shape"><path class="cls-4" d="M92.8,49.8H74.2A2.2,2.2,0,0,1,72,47.6a2.2,2.2,0,0,1,2.2-2.2H92.8A2.2,2.2,0,0,1,95,47.6,2.1,2.1,0,0,1,92.8,49.8Z"/></g><g id="Shape-9" data-name="Shape"><path class="cls-4" d="M84.9,59.9H74.2a2.2,2.2,0,0,1,0-4.4H84.9a2.2,2.2,0,0,1,0,4.4Z"/></g></svg>