<svg viewBox="0 0 150 122" xmlns="http://www.w3.org/2000/svg"><path d="m95.5 113.1h-62.8a7.6 7.6 0 0 1 -7.6-7.6v-91.3a7.6 7.6 0 0 1 7.6-7.5h62.8a7.5 7.5 0 0 1 7.6 7.5v91.3a7.6 7.6 0 0 1 -7.6 7.6z" fill="#fff"/><path d="m103.1 14.3v91.3a7.6 7.6 0 0 1 -7.6 7.5h-62.8a7.5 7.5 0 0 1 -7.5-7.5v-91.3a7.4 7.4 0 0 1 7.5-7.4h62.8a7.4 7.4 0 0 1 7.6 7.4z" fill="#9786c4"/><g fill="#876fb7"><circle cx="64.1" cy="106.2" r="3.5"/><path d="m69.7 11.7h-7.6a1.1 1.1 0 0 1 -1-1 1.1 1.1 0 0 1 1-1h7.6a1.1 1.1 0 0 1 1 1 1.1 1.1 0 0 1 -1 1z"/><path d="m58.8 11.7h-.3a1.1 1.1 0 0 1 -1-1 1.1 1.1 0 0 1 1-1h.3a1 1 0 0 1 0 2z"/></g><path d="m27.8 14.1h72.7v85.6h-72.7z" fill="#fff"/><path d="m111.6 67.7 14.1 20.4a11.1 11.1 0 0 1 -2.8 15.6l-15.2 10.5a7.5 7.5 0 0 1 -5.2 1.4c-5.7-.5-18-1.7-21-3a3.5 3.5 0 0 1 -2.1-1.7l-7.7-11a9.1 9.1 0 0 1 12.7 2.3l3.9 5.6 1.3-1-22.7-32.7a4.6 4.6 0 1 1 7.5-5.2l11 15.9 1.3-.9-3.7-5.3a4.6 4.6 0 0 1 1.1-6.4 4.5 4.5 0 0 1 6.3 1.2l3.8 5.4 1.4-.9-1.8-2.7a4.2 4.2 0 0 1 7-4.8l1.8 2.7 1.6-1.1a4.4 4.4 0 0 1 1.4-5.4 4.5 4.5 0 0 1 6 1.1z" fill="#dbd8eb"/><path d="m65.4 37.6a2.4 2.4 0 0 0 -2-1.1h-22.8l-.5-1a2.9 2.9 0 0 0 -2.7-1.9h-3.1a1.5 1.5 0 0 0 0 3h3l5.3 13.4a3.4 3.4 0 0 0 3.3 2.2h12a3.4 3.4 0 0 0 3.3-2.2l4.3-10.3a2 2 0 0 0 -.1-2.1z" fill="#87a4b0"/><path d="m46.2 60.9a3.6 3.6 0 0 1 -3.6-3.6 3.7 3.7 0 1 1 7.3 0 3.7 3.7 0 0 1 -3.7 3.6zm0-4.3a.7.7 0 0 0 -.6.7.6.6 0 0 0 .6.6.7.7 0 0 0 .7-.6.7.7 0 0 0 -.7-.7z" fill="#87a4b0"/><path d="m57.2 60.9a3.6 3.6 0 0 1 -3.6-3.6 3.7 3.7 0 0 1 3.6-3.7 3.8 3.8 0 0 1 3.7 3.7 3.7 3.7 0 0 1 -3.7 3.6zm0-4.3a.7.7 0 0 0 -.6.7.6.6 0 0 0 .6.6.7.7 0 0 0 .7-.6.7.7 0 0 0 -.7-.7z" fill="#87a4b0"/><path d="m92.8 39.7h-18.6a2.2 2.2 0 0 1 -2.2-2.2 2.2 2.2 0 0 1 2.2-2.2h18.6a2.2 2.2 0 1 1 0 4.4z" fill="#dbd8eb"/><path d="m92.8 49.8h-18.6a2.2 2.2 0 0 1 -2.2-2.2 2.2 2.2 0 0 1 2.2-2.2h18.6a2.2 2.2 0 0 1 2.2 2.2 2.1 2.1 0 0 1 -2.2 2.2z" fill="#dbd8eb"/><path d="m84.9 59.9h-10.7a2.2 2.2 0 0 1 0-4.4h10.7a2.2 2.2 0 0 1 0 4.4z" fill="#dbd8eb"/></svg>