<svg viewBox="0 0 150 122" xmlns="http://www.w3.org/2000/svg"><path d="m127 115.1-25.4-9.7-28 11.3-30.4-11.3-23.2 8.9a2.8 2.8 0 0 1 -3.6-3.4l14.5-50a5.7 5.7 0 0 1 3.1-3.7l23.2-10.9 16.4 11.6 15.9-10.1 25.7 11.3a5.8 5.8 0 0 1 3.3 4l12.1 48.8a2.7 2.7 0 0 1 -3.6 3.2z" fill="#ebe9f3"/><path d="m57.3 46.3-14 59.1-23.2 8.9a2.8 2.8 0 0 1 -3.6-3.4l14.4-50a6.2 6.2 0 0 1 3.2-3.7z" fill="#dbd8eb"/><path d="m126.9 115.5-25.5-9.7-12.1-57.5 25.7 11.3a5.7 5.7 0 0 1 3.4 4l12 48.8a2.6 2.6 0 0 1 -3.5 3.1z" fill="#ebe9f3"/><path d="m101.6 105.4-28 11.3v-58.8l16-10z" fill="#dbd8eb"/><path d="m48.6 92h-.3l-.8-.2a1.6 1.6 0 0 1 -1.2-1.8 1.6 1.6 0 0 1 1.9-1.2l.7.2a1.4 1.4 0 0 1 1.2 1.7 1.5 1.5 0 0 1 -1.5 1.3zm5.5-.2a1.5 1.5 0 0 1 -1.5-1.2 1.5 1.5 0 0 1 1.2-1.9h.7a1.5 1.5 0 0 1 1.9 1 1.5 1.5 0 0 1 -1 1.9l-.9.3zm-11.1-2.2-.8-.2-.7-.5a1.6 1.6 0 0 1 -.4-2.2 1.6 1.6 0 0 1 2.1-.4l.7.4a1.7 1.7 0 0 1 .4 2.2 1.5 1.5 0 0 1 -1.3.7zm16.6-.4a1.6 1.6 0 0 1 -1.3-.7 1.6 1.6 0 0 1 .5-2.2l.6-.4a1.6 1.6 0 0 1 1.8 2.6l-.7.5zm39-1.8a1.6 1.6 0 0 1 -1.5-1.5 1.5 1.5 0 0 1 1.4-1.6h.7a1.6 1.6 0 0 1 .5 3.1zm-60.3-1.8a1.4 1.4 0 0 1 -1.1-.5l-.5-.6a1.5 1.5 0 0 1 0-2.2 1.7 1.7 0 0 1 2.2.1c.2.1.3.4.5.5a1.5 1.5 0 0 1 0 2.2 1.6 1.6 0 0 1 -1.1.5zm55.4 0a1.9 1.9 0 0 1 -1-.3l-.6-.6a1.6 1.6 0 0 1 -.1-2.2 1.4 1.4 0 0 1 2.1-.1l.6.5a1.4 1.4 0 0 1 .2 2.1 2 2 0 0 1 -1.2.6zm-29.2-.2a1.5 1.5 0 0 1 -1.2-.5 1.7 1.7 0 0 1 .2-2.2l.5-.5a1.7 1.7 0 0 1 2.2.2 1.6 1.6 0 0 1 -.1 2.2c-.3.1-.4.3-.7.5a1.2 1.2 0 0 1 -.9.3zm39.9-.3a1.5 1.5 0 0 1 -1.4-.7 1.7 1.7 0 0 1 .5-2.2l.6-.4a1.6 1.6 0 1 1 1.8 2.6l-.7.5zm-15.2-3.7a1.6 1.6 0 0 1 -1.1-.5l-.5-.5a1.5 1.5 0 0 1 -.1-2.2 1.6 1.6 0 0 1 2.2-.1l.6.6a1.4 1.4 0 0 1 0 2.1 1.4 1.4 0 0 1 -1.1.6zm20 0a1.4 1.4 0 0 1 -1.1-.6 1.4 1.4 0 0 1 .1-2.1l.6-.5a1.5 1.5 0 0 1 2 2.3l-.6.6a2.9 2.9 0 0 1 -1 .3zm-40.2-.2a1.6 1.6 0 0 1 -1.1-.5 1.6 1.6 0 0 1 0-2.2l.6-.5a1.5 1.5 0 0 1 2.1-.1 1.7 1.7 0 0 1 .1 2.2l-.5.5a1.7 1.7 0 0 1 -1.2.6zm-34.7-.4a1.6 1.6 0 0 1 -1.2-.6l-.5-.6a1.6 1.6 0 0 1 .3-2.2 1.7 1.7 0 0 1 2.2.3l.5.7a1.5 1.5 0 0 1 -.3 2.1 1.3 1.3 0 0 1 -1 .3zm50.1-3.4a1.6 1.6 0 0 1 -.9-.3c-.3-.2-.4-.4-.7-.5a1.6 1.6 0 0 1 1.9-2.5l.6.5a1.6 1.6 0 0 1 -.9 2.8zm29.5-.2a1.5 1.5 0 0 1 -1.1-2.6l.5-.6a1.6 1.6 0 0 1 2.1 2.3l-.5.5a1.3 1.3 0 0 1 -1 .4zm-40.6-.6a2.1 2.1 0 0 1 -1.1-.4 1.5 1.5 0 0 1 -.1-2.2l.5-.6a1.6 1.6 0 0 1 2.2 2.2c-.2.1-.3.4-.5.5a1.6 1.6 0 0 1 -1 .5zm-42.5-.8a1.4 1.4 0 0 1 -1.3-.7l-.5-.6a1.6 1.6 0 0 1 .5-2.2 1.6 1.6 0 0 1 2.1.5l.4.6a1.6 1.6 0 0 1 -.4 2.2zm48.3-1.6h-1.1a1.6 1.6 0 0 1 .7-3.1l1 .4a1.5 1.5 0 0 1 -.6 2.9z" fill="#b2d0f5"/><path d="m73.6 5.1a25.6 25.6 0 0 1 25.6 25.6c0 11.3-16.2 33.7-22.9 42.3a3.4 3.4 0 0 1 -5.5 0c-6.7-8.6-22.9-31-22.9-42.3a25.8 25.8 0 0 1 25.7-25.6z" fill="#9786c4"/><circle cx="73.6" cy="30.6" fill="#876fb7" r="10.1"/></svg>