<svg id="Layer_1" data-name="Layer 1" xmlns="http://www.w3.org/2000/svg" viewBox="0 0 150 122"><defs><style>.cls-1{fill:#9786c4;}.cls-2{fill:#876fb7;}.cls-3{fill:#c3bbdf;}.cls-4{fill:#beb6dd;}.cls-5{fill:#fff;}.cls-6{fill:#87a4b0;}</style></defs><title>icons</title><g id="Shape"><path class="cls-1" d="M130.6,14.1v88.2a6.7,6.7,0,0,1-6.6,6.6H11.5A6.6,6.6,0,0,1,5,102.3V14.8a7.5,7.5,0,0,1,7.5-7.6H123.6A7.1,7.1,0,0,1,130.6,14.1Z"/></g><g id="Shape-2" data-name="Shape"><path class="cls-2" d="M130.6,14.1v6.8H5V14.8a7.5,7.5,0,0,1,7.5-7.6H123.6A7.1,7.1,0,0,1,130.6,14.1Z"/></g><g id="Oval"><circle class="cls-3" cx="14" cy="14.3" r="2.4"/></g><g id="Oval-2" data-name="Oval"><circle class="cls-3" cx="21" cy="14.3" r="2.4"/></g><g id="Oval-3" data-name="Oval"><circle class="cls-3" cx="27.9" cy="14.3" r="2.4"/></g><g id="Rectangle-path"><path class="cls-4" d="M44.1,64.3H15.4a1.5,1.5,0,0,1-1.5-1.5V30.5A1.5,1.5,0,0,1,15.4,29H44.1a1.5,1.5,0,0,1,1.5,1.5V62.8A1.5,1.5,0,0,1,44.1,64.3Zm-27.2-3H42.6V32H16.9Z"/></g><g id="Oval-4" data-name="Oval"><circle class="cls-3" cx="29.7" cy="41.4" r="6.3"/></g><g id="Shape-3" data-name="Shape"><path class="cls-4" d="M38,53.1H21a1.5,1.5,0,1,1,0-3H38a1.5,1.5,0,0,1,0,3Z"/></g><g id="Shape-4" data-name="Shape"><path class="cls-4" d="M34.2,57.7H24.8a1.5,1.5,0,0,1-1.5-1.5,1.5,1.5,0,0,1,1.5-1.5h9.4a1.5,1.5,0,0,1,1.5,1.5A1.5,1.5,0,0,1,34.2,57.7Z"/></g><g id="Rectangle-path-2" data-name="Rectangle-path"><path class="cls-4" d="M79.4,64.3H50.7a1.5,1.5,0,0,1-1.5-1.5V30.5A1.4,1.4,0,0,1,50.7,29H79.4a1.5,1.5,0,0,1,1.5,1.5V62.8A1.5,1.5,0,0,1,79.4,64.3Zm-27.2-3H77.9V32H52.2Z"/></g><g id="Oval-5" data-name="Oval"><circle class="cls-3" cx="65" cy="41.4" r="6.3"/></g><g id="Shape-5" data-name="Shape"><path class="cls-4" d="M73.2,53.1h-17a1.5,1.5,0,0,1,0-3h17a1.5,1.5,0,0,1,0,3Z"/></g><g id="Shape-6" data-name="Shape"><path class="cls-4" d="M69.4,57.7H60a1.5,1.5,0,0,1-1.5-1.5A1.5,1.5,0,0,1,60,54.7h9.4a1.4,1.4,0,0,1,1.5,1.5A1.5,1.5,0,0,1,69.4,57.7Z"/></g><g id="Rectangle-path-3" data-name="Rectangle-path"><path class="cls-4" d="M123,80.9H89.8a1.5,1.5,0,0,1-1.5-1.5V30.5A1.5,1.5,0,0,1,89.8,29H123a1.5,1.5,0,0,1,1.5,1.5V79.4A1.5,1.5,0,0,1,123,80.9Zm-31.7-3h30.2V32H91.3Z"/></g><g id="Shape-7" data-name="Shape"><path class="cls-5" d="M121.1,99.6H91.8a2,2,0,0,1-2-1.9V87.2a1.9,1.9,0,0,1,2-1.9h29.3a1.9,1.9,0,0,1,1.9,1.9V97.7A2,2,0,0,1,121.1,99.6Z"/></g><g id="Rectangle-path-4" data-name="Rectangle-path"><path class="cls-4" d="M44.1,101.9H15.4a1.5,1.5,0,0,1-1.5-1.5V68.1a1.5,1.5,0,0,1,1.5-1.5H44.1a1.5,1.5,0,0,1,1.5,1.5v32.3A1.5,1.5,0,0,1,44.1,101.9Zm-27.2-3H42.6V69.6H16.9Z"/></g><g id="Oval-6" data-name="Oval"><circle class="cls-3" cx="29.7" cy="79.1" r="6.3"/></g><g id="Shape-8" data-name="Shape"><path class="cls-4" d="M38,90.7H21a1.5,1.5,0,0,1-1.5-1.5A1.5,1.5,0,0,1,21,87.7H38a1.5,1.5,0,0,1,1.5,1.5A1.5,1.5,0,0,1,38,90.7Z"/></g><g id="Shape-9" data-name="Shape"><path class="cls-4" d="M34.2,95.3H24.8a1.5,1.5,0,1,1,0-3h9.4a1.5,1.5,0,0,1,0,3Z"/></g><g id="Rectangle-path-5" data-name="Rectangle-path"><path class="cls-4" d="M79.4,101.9H50.7a1.4,1.4,0,0,1-1.5-1.5V68.1a1.5,1.5,0,0,1,1.5-1.5H79.4a1.5,1.5,0,0,1,1.5,1.5v32.3A1.5,1.5,0,0,1,79.4,101.9Zm-27.2-3H77.9V69.6H52.2Z"/></g><g id="Oval-7" data-name="Oval"><circle class="cls-3" cx="65" cy="79.1" r="6.3"/></g><g id="Shape-10" data-name="Shape"><path class="cls-4" d="M73.2,90.7h-17a1.5,1.5,0,0,1-1.5-1.5,1.5,1.5,0,0,1,1.5-1.5h17a1.5,1.5,0,0,1,1.5,1.5A1.4,1.4,0,0,1,73.2,90.7Z"/></g><g id="Shape-11" data-name="Shape"><path class="cls-4" d="M69.4,95.3H60a1.5,1.5,0,0,1,0-3h9.4a1.5,1.5,0,0,1,0,3Z"/></g><g id="Shape-12" data-name="Shape"><path class="cls-3" d="M101.7,46.1h-6a1.4,1.4,0,0,1-1.4-1.4v-6a1.4,1.4,0,0,1,1.4-1.4h6a1.4,1.4,0,0,1,1.4,1.4v6A1.4,1.4,0,0,1,101.7,46.1Z"/></g><g id="Shape-13" data-name="Shape"><path class="cls-4" d="M116.8,40.8h-9.9a1.5,1.5,0,0,1,0-3h9.9a1.5,1.5,0,0,1,0,3Z"/></g><g id="Shape-14" data-name="Shape"><path class="cls-4" d="M111.7,45.5h-4.8a1.5,1.5,0,0,1-1.5-1.5,1.5,1.5,0,0,1,1.5-1.5h4.8a1.5,1.5,0,0,1,1.5,1.5A1.5,1.5,0,0,1,111.7,45.5Z"/></g><g id="Shape-15" data-name="Shape"><path class="cls-3" d="M101.7,59.8h-6a1.5,1.5,0,0,1-1.4-1.5V52.4a1.5,1.5,0,0,1,1.4-1.5h6a1.5,1.5,0,0,1,1.4,1.5v5.9A1.5,1.5,0,0,1,101.7,59.8Z"/></g><g id="Shape-16" data-name="Shape"><path class="cls-4" d="M116.8,54.5h-9.9a1.5,1.5,0,0,1-1.5-1.5,1.5,1.5,0,0,1,1.5-1.5h9.9a1.4,1.4,0,0,1,1.5,1.5A1.5,1.5,0,0,1,116.8,54.5Z"/></g><g id="Shape-17" data-name="Shape"><path class="cls-4" d="M111.7,59.2h-4.8a1.5,1.5,0,0,1-1.5-1.5,1.5,1.5,0,0,1,1.5-1.5h4.8a1.5,1.5,0,0,1,1.5,1.5A1.5,1.5,0,0,1,111.7,59.2Z"/></g><g id="Shape-18" data-name="Shape"><path class="cls-3" d="M101.7,73.4h-6A1.4,1.4,0,0,1,94.3,72V66a1.4,1.4,0,0,1,1.4-1.4h6a1.4,1.4,0,0,1,1.4,1.4v6A1.4,1.4,0,0,1,101.7,73.4Z"/></g><g id="Shape-19" data-name="Shape"><path class="cls-4" d="M116.8,68.1h-9.9a1.5,1.5,0,0,1,0-3h9.9a1.5,1.5,0,0,1,0,3Z"/></g><g id="Shape-20" data-name="Shape"><path class="cls-4" d="M111.7,72.7h-4.8a1.5,1.5,0,0,1-1.5-1.5,1.5,1.5,0,0,1,1.5-1.5h4.8a1.5,1.5,0,0,1,1.5,1.5A1.5,1.5,0,0,1,111.7,72.7Z"/></g><g id="Shape-21" data-name="Shape"><path class="cls-2" d="M115.2,93.3l-3.1,3.1a1,1,0,0,1-1.4-1.4l1.4-1.5H99.3a1,1,0,0,1,0-2h12.8l-1.4-1.4a1.1,1.1,0,0,1,0-1.5l.7-.2.6.2,3.2,3.2a1.1,1.1,0,0,1,.2.6A.7.7,0,0,1,115.2,93.3Z"/></g><g id="Shape-22" data-name="Shape"><path class="cls-2" d="M142.8,90.4A27.1,27.1,0,0,1,130.6,113a26.7,26.7,0,0,1-14.9,4.5,27.1,27.1,0,0,1-27-27.1,21.5,21.5,0,0,1,.5-5.1h53.1A28.4,28.4,0,0,1,142.8,90.4Z"/></g><g id="Shape-23" data-name="Shape"><path class="cls-6" d="M133.4,106.6A25.8,25.8,0,1,1,145,85.1,26,26,0,0,1,133.4,106.6Z"/></g><g id="Shape-24" data-name="Shape"><path class="cls-5" d="M120.5,72.2l7.6,7.6a2.5,2.5,0,0,1-3.5,3.5l-3.5-3.5V96.4a2.4,2.4,0,1,1-4.8,0V79.8l-3.5,3.5a2.5,2.5,0,0,1-3.4,0,2.6,2.6,0,0,1-.7-1.7,3.4,3.4,0,0,1,.7-1.8l7.6-7.6a2.4,2.4,0,0,1,1.7-.7A2.9,2.9,0,0,1,120.5,72.2Z"/></g></svg>