<svg id="Layer_1" data-name="Layer 1" xmlns="http://www.w3.org/2000/svg" viewBox="0 0 150 122"><defs><style>.cls-1{fill:#876fb7;}.cls-2{fill:#8e78ba;}.cls-3{fill:#9786c4;}.cls-4{fill:#fff;}.cls-5{fill:#d4e8ff;}.cls-6{fill:#87a4b0;}.cls-7{fill:#dbd8eb;}</style></defs><title>icons</title><g id="Shape"><path class="cls-1" d="M137.2,105.4v3.3a5.8,5.8,0,0,1-5.8,5.7H13.4a5.8,5.8,0,0,1-5.8-5.7v-3.3H61a3.4,3.4,0,0,0,3.2,2.2H80.9a3.4,3.4,0,0,0,3.1-2.2Z"/></g><g id="Shape-2" data-name="Shape"><path class="cls-2" d="M137.2,105.4a5.6,5.6,0,0,1-5.8,5.5H13.4a5.6,5.6,0,0,1-5.8-5.5H61a3.4,3.4,0,0,0,3.2,2.2H80.9a3.4,3.4,0,0,0,3.1-2.2Z"/></g><g id="Shape-3" data-name="Shape"><path class="cls-3" d="M130.5,32.8v72.7H14.2V32.8a5.2,5.2,0,0,1,5.2-5.3H125.2A5.3,5.3,0,0,1,130.5,32.8Z"/></g><g id="Shape-4" data-name="Shape"><path class="cls-2" d="M130.5,32.8V53.7a23.1,23.1,0,0,1-5.8,2.5V33.6H93.5V32.3a27,27,0,0,1,.4-4.9h31.3A5.5,5.5,0,0,1,130.5,32.8Z"/></g><g id="Shape-5" data-name="Shape"><path class="cls-4" d="M124.7,56.1v49.5H19.7V33.5H93.6a24.5,24.5,0,0,0,24.6,23.4A20.4,20.4,0,0,0,124.7,56.1Z"/></g><g id="Shape-6" data-name="Shape"><path class="cls-5" d="M124.7,33.6V56.2a28.3,28.3,0,0,1-6.5.9A24.6,24.6,0,0,1,93.6,33.7h31.1Z"/></g><g id="Shape-7" data-name="Shape"><path class="cls-6" d="M105.5,9.3a23.4,23.4,0,0,1,13-3.9,23.7,23.7,0,1,1-13,3.9"/></g><g id="Shape-8" data-name="Shape"><path class="cls-4" d="M133,30.9c-.1.9-.7,1.3-2,1.5.9.6,1.5,1.3,1.2,2.3s-1.1,1.4-2.1,1.5h.1c1.9,1.4.7,3.5-1.1,3.8h-.7c-12.6,0-13.2.3-15.7-.9h-.2c-.4-.1.4,1.4-1.2,1.4-4.9,0-5.7.2-5.7-1.2V25.3c0-1.4.7-1.2,5.7-1.1.6,0,1.1.2,1.2.8s.1.1.1.3,0,.9.1.8c5.9-4.1,5.9-7.9,6.3-9.8a1.5,1.5,0,0,1,1.1-1.5c2.9-.9,3.4,4.9,2.3,8.8H131c2.9,0,3.9,3.6.6,4.8C132.4,29,133.2,29.6,133,30.9Z"/></g><g id="Shape-9" data-name="Shape"><path class="cls-5" d="M112.5,25.1V39.3c-.4-.1.4,1.4-1.2,1.4-4.9,0-5.7.2-5.7-1.2V25.4c0-1.4.7-1.2,5.7-1.1A1.1,1.1,0,0,1,112.5,25.1Z"/></g><g id="Oval"><circle class="cls-4" cx="108.9" cy="37.5" r="1.1"/></g><g id="Shape-10" data-name="Shape"><path class="cls-7" d="M26.9,38.9a2,2,0,0,0-2,1.9V76.9a2,2,0,0,0,2,2H51.4a2.1,2.1,0,0,0,2-2V40.8a2.1,2.1,0,0,0-2-1.9Zm12.2,8.8a4.6,4.6,0,0,1,4.7,4.7,4.7,4.7,0,1,1-4.7-4.7ZM41.6,70h-5a1.2,1.2,0,0,1,0-2.4h5a1.2,1.2,0,0,1,0,2.4Zm3.9-4.3H32.8a1.2,1.2,0,0,1-1.2-1.2,1.1,1.1,0,0,1,1.2-1.1H45.5a1.1,1.1,0,0,1,1.1,1.1A1.1,1.1,0,0,1,45.5,65.7Z"/></g><g id="Oval-2" data-name="Oval"><circle class="cls-4" cx="39.1" cy="52.4" r="4.7"/></g><g id="Shape-11" data-name="Shape"><path class="cls-4" d="M45.5,63.4H32.8a1.2,1.2,0,0,0-1.2,1.2,1.2,1.2,0,0,0,1.2,1.2H45.5a1.1,1.1,0,0,0,1.1-1.2A1.2,1.2,0,0,0,45.5,63.4Z"/></g><g id="Shape-12" data-name="Shape"><path class="cls-4" d="M41.6,67.6h-5a1.2,1.2,0,0,0,0,2.4h5a1.2,1.2,0,0,0,0-2.4Z"/></g><g id="Shape-13" data-name="Shape"><path class="cls-7" d="M59.8,38.9a2,2,0,0,0-2,1.9V76.9a2,2,0,0,0,2,2H84.3a2,2,0,0,0,2-2V40.8a2,2,0,0,0-2-1.9Zm12.3,8.8a4.6,4.6,0,0,1,4.7,4.7,4.8,4.8,0,1,1-4.7-4.7ZM74.6,70H69.5a1.2,1.2,0,0,1,0-2.4h5.1a1.2,1.2,0,0,1,0,2.4Zm3.8-4.3H65.7a1.2,1.2,0,0,1-1.2-1.2,1.2,1.2,0,0,1,1.2-1.1H78.4a1.2,1.2,0,0,1,1.2,1.1A1.2,1.2,0,0,1,78.4,65.7Z"/></g><g id="Oval-3" data-name="Oval"><circle class="cls-4" cx="72.1" cy="52.4" r="4.7"/></g><g id="Shape-14" data-name="Shape"><path class="cls-4" d="M78.4,63.4H65.7a1.3,1.3,0,0,0-1.2,1.2,1.2,1.2,0,0,0,1.2,1.2H78.4a1.2,1.2,0,0,0,1.2-1.2A1.3,1.3,0,0,0,78.4,63.4Z"/></g><g id="Shape-15" data-name="Shape"><path class="cls-4" d="M74.6,67.6H69.5a1.2,1.2,0,0,0,0,2.4h5.1a1.2,1.2,0,0,0,0-2.4Z"/></g><g id="Shape-16" data-name="Shape"><path class="cls-7" d="M117.8,57a23.2,23.2,0,0,1-9.2-1.8A4.5,4.5,0,0,1,105,57a4.7,4.7,0,0,1-4.7-4.7,5.1,5.1,0,0,1,.5-2.2,25.1,25.1,0,0,1-6.7-11.3H92.7a2.1,2.1,0,0,0-2,2v36a2.1,2.1,0,0,0,2,2h24.5a2,2,0,0,0,2-2V56.9ZM107.4,70h-5a1.2,1.2,0,0,1,0-2.4h5a1.2,1.2,0,0,1,0,2.4Zm3.9-4.3H98.6a1.2,1.2,0,0,1-1.2-1.2,1.1,1.1,0,0,1,1.2-1.1h12.7a1.1,1.1,0,0,1,1.1,1.1A1.1,1.1,0,0,1,111.3,65.7Z"/></g><g id="Shape-17" data-name="Shape"><path class="cls-4" d="M104.9,57.1a4.4,4.4,0,0,0,3.6-1.8,24,24,0,0,1-7.8-5.1,5.1,5.1,0,0,0-.5,2.2A4.8,4.8,0,0,0,104.9,57.1Z"/></g><g id="Shape-18" data-name="Shape"><path class="cls-4" d="M111.3,63.4H98.6a1.2,1.2,0,0,0-1.2,1.2,1.2,1.2,0,0,0,1.2,1.2h12.7a1.1,1.1,0,0,0,1.1-1.2A1.2,1.2,0,0,0,111.3,63.4Z"/></g><g id="Shape-19" data-name="Shape"><path class="cls-4" d="M107.4,67.6h-5a1.2,1.2,0,0,0,0,2.4h5a1.2,1.2,0,0,0,0-2.4Z"/></g><g id="Shape-20" data-name="Shape"><path class="cls-7" d="M53.4,84.6a2.1,2.1,0,0,0-2-2H26.9a2,2,0,0,0-2,2v21.1H53.4ZM39.1,100.7A4.6,4.6,0,0,1,34.4,96a4.7,4.7,0,1,1,9.4,0A4.6,4.6,0,0,1,39.1,100.7Z"/></g><g id="Oval-4" data-name="Oval"><circle class="cls-4" cx="39.1" cy="96" r="4.7"/></g><g id="Shape-21" data-name="Shape"><path class="cls-7" d="M86.2,84.6a2,2,0,0,0-2-2H59.7a2,2,0,0,0-2,2v21.1H86.2ZM72.1,100.7A4.7,4.7,0,0,1,67.3,96a4.8,4.8,0,1,1,4.8,4.7Z"/></g><g id="Oval-5" data-name="Oval"><circle class="cls-4" cx="72.1" cy="96" r="4.7"/></g><g id="Shape-22" data-name="Shape"><path class="cls-7" d="M119.2,84.6a2.1,2.1,0,0,0-2-2H92.7a2,2,0,0,0-2,2v21.1h28.5Zm-14.3,16.1a4.6,4.6,0,0,1-4.7-4.7,4.7,4.7,0,1,1,9.4,0A4.6,4.6,0,0,1,104.9,100.7Z"/></g><g id="Oval-6" data-name="Oval"><circle class="cls-4" cx="104.9" cy="96" r="4.7"/></g></svg>