<?xml version="1.0" encoding="utf-8"?>
<!-- Generator: Adobe Illustrator 23.0.0, SVG Export Plug-In . SVG Version: 6.00 Build 0)  -->
<svg version="1.1" id="Capa_1" xmlns="http://www.w3.org/2000/svg" xmlns:xlink="http://www.w3.org/1999/xlink" x="0px" y="0px"
	 viewBox="0 0 150 122" style="enable-background:new 0 0 150 122;" xml:space="preserve">
<style type="text/css">
	.st0{fill:#C3BBDF;}
	.st1{fill:#FFFFFF;}
	.st2{fill:#87A4B0;}
	.st3{fill:#876FB7;}
</style>
<g>
	<path class="st0" d="M116.7,26.2h-13.9c-2.6,0-4.6-2.1-4.6-4.6V7.7L116.7,26.2z"/>
	<g>
		<path class="st1" d="M116.7,26.2v83.5c0,2.6-2.1,4.6-4.6,4.6H37.9c-2.6,0-4.6-2.1-4.6-4.6V12.3c0-2.6,2.1-4.6,4.6-4.6h60.3v13.9
			c0,2.6,2.1,4.6,4.6,4.6H116.7z"/>
		<path class="st1" d="M95.8,54v4.6H70.3v-7h25.5V54z"/>
	</g>
	<path class="st0" d="M102.8,61v9.3H47.1V49.4c0-1.3,1-2.3,2.3-2.3H68c1.3,0,2.3,1,2.3,2.3v9.3h30.1C101.7,58.7,102.8,59.7,102.8,61
		z"/>
	<path class="st2" d="M58.7,90.2V79.6h23.2v-4.7H58.7c-2.5,0-4.6,1.9-4.6,4.4c0,0.1,0,0.1,0,0.2v10.6l-5.3-5.3l-3.3,3.3l9.3,9.3
		c0.9,0.9,2.4,0.9,3.3,0l9.3-9.3l-3.3-3.3L58.7,90.2z"/>
	<path class="st2" d="M91.9,80.2l-9.3,9.3l3.3,3.3l5.3-5.3v10.6H68v4.6h23.2c2.5,0,4.6-1.9,4.6-4.4c0-0.1,0-0.1,0-0.2V87.5l5.3,5.3
		l3.3-3.3l-9.3-9.3C94.2,79.3,92.8,79.3,91.9,80.2L91.9,80.2z"/>
	<path class="st3" d="M44.8,19.3H68v4.6H44.8V19.3z"/>
	<path class="st3" d="M44.8,28.5h4.6v4.6h-4.6V28.5z"/>
	<path class="st3" d="M54.1,28.5h4.6v4.6h-4.6V28.5z"/>
	<path class="st3" d="M118.3,24.6L99.8,6c-0.4-0.4-1-0.7-1.6-0.7H37.9c-3.8,0-7,3.1-7,7l0,0v97.4c0,3.8,3.1,7,7,7H112
		c3.8,0,7-3.1,7-7V26.2C119,25.6,118.8,25,118.3,24.6z M114.4,109.7c0,1.3-1,2.3-2.3,2.3H37.9c-1.3,0-2.3-1-2.3-2.3V12.3
		c0-1.3,1-2.3,2.3-2.3h58v11.6c0,3.8,3.1,7,7,7h4.6v-4.6h-4.6c-1.3,0-2.3-1-2.3-2.3v-8.3l13.9,13.9V109.7z"/>
	<path class="st3" d="M100.5,56.4H72.6V54h25.5v-2.3c0-1.3-1-2.3-2.3-2.3H72.6c0-2.6-2.1-4.6-4.6-4.6H49.5c-2.6,0-4.6,2.1-4.6,4.6
		v20.9h4.6V49.4H68v7h-7V61h39.4v9.3h4.6V61C105.1,58.4,103,56.4,100.5,56.4z"/>
</g>
</svg>
