<svg id="Layer_1" data-name="Layer 1" xmlns="http://www.w3.org/2000/svg" viewBox="0 0 150 122"><defs><style>.cls-1{fill:#ebe9f3;}.cls-2{fill:#dbd8eb;}.cls-3{fill:#b2d0f5;}.cls-4{fill:#9786c4;}.cls-5{fill:#876fb7;}</style></defs><title>icons</title><g id="Shape"><path class="cls-1" d="M127,115.1l-25.4-9.7-28,11.3L43.2,105.4,20,114.3a2.8,2.8,0,0,1-3.6-3.4l14.5-50A5.7,5.7,0,0,1,34,57.2L57.2,46.3,73.6,57.9,89.5,47.8l25.7,11.3a5.8,5.8,0,0,1,3.3,4l12.1,48.8A2.7,2.7,0,0,1,127,115.1Z"/></g><g id="Shape-2" data-name="Shape"><path class="cls-2" d="M57.3,46.3l-14,59.1-23.2,8.9a2.8,2.8,0,0,1-3.6-3.4l14.4-50a6.2,6.2,0,0,1,3.2-3.7Z"/></g><g id="Shape-3" data-name="Shape"><path class="cls-1" d="M126.9,115.5l-25.5-9.7L89.3,48.3,115,59.6a5.7,5.7,0,0,1,3.4,4l12,48.8A2.6,2.6,0,0,1,126.9,115.5Z"/></g><g id="Shape-4" data-name="Shape"><polygon class="cls-2" points="101.6 105.4 73.6 116.7 73.6 57.9 89.6 47.9 101.6 105.4"/></g><g id="Shape-5" data-name="Shape"><path class="cls-3" d="M48.6,92h-.3l-.8-.2A1.6,1.6,0,0,1,46.3,90a1.6,1.6,0,0,1,1.9-1.2l.7.2a1.4,1.4,0,0,1,1.2,1.7A1.5,1.5,0,0,1,48.6,92Zm5.5-.2a1.5,1.5,0,0,1-1.5-1.2,1.5,1.5,0,0,1,1.2-1.9h.7a1.5,1.5,0,0,1,1.9,1,1.5,1.5,0,0,1-1,1.9l-.9.3ZM43,89.6l-.8-.2-.7-.5a1.6,1.6,0,0,1-.4-2.2,1.6,1.6,0,0,1,2.1-.4l.7.4a1.7,1.7,0,0,1,.4,2.2A1.5,1.5,0,0,1,43,89.6Zm16.6-.4a1.6,1.6,0,0,1-1.3-.7,1.6,1.6,0,0,1,.5-2.2l.6-.4a1.6,1.6,0,0,1,1.8,2.6l-.7.5Zm39-1.8a1.6,1.6,0,0,1-1.5-1.5,1.5,1.5,0,0,1,1.4-1.6h.7a1.6,1.6,0,0,1,.5,3.1H98.6ZM38.3,85.6a1.4,1.4,0,0,1-1.1-.5l-.5-.6a1.5,1.5,0,0,1,0-2.2,1.7,1.7,0,0,1,2.2.1c.2.1.3.4.5.5a1.5,1.5,0,0,1,0,2.2A1.6,1.6,0,0,1,38.3,85.6Zm55.4,0a1.9,1.9,0,0,1-1-.3l-.6-.6a1.6,1.6,0,0,1-.1-2.2,1.4,1.4,0,0,1,2.1-.1l.6.5a1.4,1.4,0,0,1,.2,2.1A2,2,0,0,1,93.7,85.6Zm-29.2-.2a1.5,1.5,0,0,1-1.2-.5,1.7,1.7,0,0,1,.2-2.2l.5-.5a1.7,1.7,0,0,1,2.2.2,1.6,1.6,0,0,1-.1,2.2c-.3.1-.4.3-.7.5A1.2,1.2,0,0,1,64.5,85.4Zm39.9-.3a1.5,1.5,0,0,1-1.4-.7,1.7,1.7,0,0,1,.5-2.2l.6-.4a1.6,1.6,0,1,1,1.8,2.6l-.7.5ZM89.2,81.4a1.6,1.6,0,0,1-1.1-.5l-.5-.5a1.5,1.5,0,0,1-.1-2.2,1.6,1.6,0,0,1,2.2-.1l.6.6a1.4,1.4,0,0,1,0,2.1A1.4,1.4,0,0,1,89.2,81.4Zm20,0a1.4,1.4,0,0,1-1.1-.6,1.4,1.4,0,0,1,.1-2.1l.6-.5a1.5,1.5,0,0,1,2,2.3l-.6.6A2.9,2.9,0,0,1,109.2,81.4ZM69,81.2a1.6,1.6,0,0,1-1.1-.5,1.6,1.6,0,0,1,0-2.2l.6-.5a1.5,1.5,0,0,1,2.1-.1,1.7,1.7,0,0,1,.1,2.2l-.5.5A1.7,1.7,0,0,1,69,81.2Zm-34.7-.4a1.6,1.6,0,0,1-1.2-.6l-.5-.6a1.6,1.6,0,0,1,.3-2.2,1.7,1.7,0,0,1,2.2.3l.5.7a1.5,1.5,0,0,1-.3,2.1A1.3,1.3,0,0,1,34.3,80.8Zm50.1-3.4a1.6,1.6,0,0,1-.9-.3c-.3-.2-.4-.4-.7-.5a1.6,1.6,0,0,1,1.9-2.5l.6.5a1.6,1.6,0,0,1-.9,2.8Zm29.5-.2a1.5,1.5,0,0,1-1.1-2.6l.5-.6a1.6,1.6,0,0,1,2.1,2.3l-.5.5A1.3,1.3,0,0,1,113.9,77.2Zm-40.6-.6a2.1,2.1,0,0,1-1.1-.4,1.5,1.5,0,0,1-.1-2.2l.5-.6a1.6,1.6,0,0,1,2.2,2.2c-.2.1-.3.4-.5.5A1.6,1.6,0,0,1,73.3,76.6Zm-42.5-.8a1.4,1.4,0,0,1-1.3-.7l-.5-.6a1.6,1.6,0,0,1,.5-2.2,1.6,1.6,0,0,1,2.1.5l.4.6a1.6,1.6,0,0,1-.4,2.2Zm48.3-1.6H78a1.6,1.6,0,0,1,.7-3.1l1,.4a1.5,1.5,0,0,1-.6,2.9Z"/></g><g id="Shape-6" data-name="Shape"><path class="cls-4" d="M73.6,5.1A25.6,25.6,0,0,1,99.2,30.7C99.2,42,83,64.4,76.3,73a3.4,3.4,0,0,1-5.5,0c-6.7-8.6-22.9-31-22.9-42.3A25.8,25.8,0,0,1,73.6,5.1Z"/></g><g id="Oval"><circle class="cls-5" cx="73.6" cy="30.6" r="10.1"/></g></svg>