<?xml version="1.0" encoding="UTF-8"?>
<svg width="367px" height="34px" viewBox="0 0 367 34" version="1.1" xmlns="http://www.w3.org/2000/svg" xmlns:xlink="http://www.w3.org/1999/xlink">
    <!-- Generator: Sketch 52.2 (67145) - http://www.bohemiancoding.com/sketch -->
    <title>Group 4</title>
    <desc>Created with Sketch.</desc>
    <defs>
        <path d="M105.901332,10 L105.901332,7.5721961 L105,7.5721961 L105,7 L107.568795,7 L107.568795,7.5721961 L106.667463,7.5721961 L106.667463,10 L105.901332,10 Z M111,10 L110.237965,10 L110.237965,8.01141706 L109.682827,9.29482874 L109.160464,9.29482874 L108.605326,8.01141706 L108.605326,10 L107.884261,10 L107.884261,7 L108.767156,7 L109.443155,8.48085964 L110.117105,7 L111,7 L111,10 Z" id="path-1"></path>
    </defs>
    <g id="Page-1" stroke="none" stroke-width="1" fill="none" fill-rule="evenodd">
        <g id="Group-4" transform="translate(0.000000, 1.000000)">
            <g id="logo" transform="translate(139.000000, 0.000000)" fill="#F2F2F2">
                <path d="M26.41,7.26 L25.15,8 L23.89,8.72 L13.83,14.52 L10.06,12.34 L20.12,6.54 L22.63,5.08 L20.12,3.63 L17.61,5.08 L7.54,10.89 L3.77,8.71 L13.83,2.91 L16.35,1.45 L13.83,0 L11.32,1.45 L1.77635684e-15,8 L1.77635684e-15,24 L13.83,32 L27.67,24 L27.67,8 L26.41,7.26 Z M2.52,10.89 L12.58,16.7 L12.58,28.32 L2.52,22.51 L2.52,10.89 Z M25.15,22.51 L15.09,28.32 L15.09,16.7 L25.15,10.9 L25.15,22.51 Z" id="Shape"></path>
                <polygon id="Path" points="40.32 10.81 40.32 13.67 45.56 13.67 45.56 17.41 40.32 17.41 40.32 20.27 46.52 20.27 46.52 24 36 24 36 7 46.52 7 46.52 10.77"></polygon>
                <path d="M49.58,15.54 C49.5604334,11.5001675 52.3182633,7.97585921 56.2442888,7.02351827 C60.1703144,6.07117733 64.2364107,7.94019723 66.07,11.54 L62.33,13.44 C61.3588817,11.6123718 59.2725952,10.6752955 57.2613567,11.1633686 C55.2501183,11.6514417 53.8254013,13.4405435 53.8,15.51 C53.8254013,17.5794565 55.2501183,19.3685583 57.2613567,19.8566314 C59.2725952,20.3447045 61.3588817,19.4076282 62.33,17.58 L66.07,19.48 C64.2364107,23.0798028 60.1703144,24.9488227 56.2442888,23.9964817 C52.3182633,23.0441408 49.5604334,19.5198325 49.58,15.48 L49.58,15.54 Z" id="Path"></path>
                <path d="M68.85,15.54 C68.85,10.7185541 72.7585541,6.81 77.58,6.81 C82.4014459,6.81 86.31,10.7185541 86.31,15.54 C86.31,20.3614459 82.4014459,24.27 77.58,24.27 C75.2630313,24.2753264 73.0394255,23.3572717 71.4010769,21.7189231 C69.7627283,20.0805745 68.8446736,17.8569687 68.85,15.54 Z M82.05,15.54 C82.05,13.0547186 80.0352814,11.04 77.55,11.04 C75.0647186,11.04 73.05,13.0547186 73.05,15.54 C73.05,18.0252814 75.0647186,20.04 77.55,20.04 C80.0352814,20.04 82.05,18.0252814 82.05,15.54 Z" id="Shape"></path>
                <polygon id="Path" points="109.37 7 109.37 24 105 24 105 15 100.81 24 98.49 24 94.26 14.85 94.26 24 89.93 24 89.93 7 94.63 7 99.63 17.82 104.63 7"></polygon>
                <path d="M126.39,12.28 C126.418848,13.6605527 125.875477,14.9915712 124.888705,15.95751 C123.901932,16.9234487 122.559623,17.4382972 121.18,17.38 L118,17.38 L118,24 L113.67,24 L113.67,7 L121.23,7 C122.617853,7.00509972 123.945613,7.56691102 124.915636,8.55949236 C125.885658,9.5520737 126.416802,10.8923965 126.39,12.28 Z M122.23,12.28 C122.210699,11.841878 122.010173,11.431487 121.676401,11.1470226 C121.34263,10.8625582 120.905643,10.729614 120.47,10.78 L118,10.78 L118,13.84 L120.52,13.84 C120.950484,13.8672825 121.373913,13.7206828 121.695371,13.4330621 C122.01683,13.1454415 122.20943,12.7408573 122.23,12.31 L122.23,12.28 Z" id="Shape"></path>
                <path d="M143.23,24 L138.35,24 L134.35,17.77 L133.35,17.77 L133.35,24 L129.02,24 L129.02,6.99998579 L136.58,7 C137.989898,6.99670928 139.340936,7.56497169 140.324609,8.57502664 C141.308282,9.58508158 141.840596,10.9506827 141.8,12.36 C141.86051,14.5368414 140.524153,16.5091754 138.48,17.26 L143.23,24 Z M137.67,12.53 C137.686967,12.058222 137.506993,11.6006333 137.17318,11.2668202 C136.839367,10.9330071 136.381778,10.7530333 135.91,10.77 L133.39,10.77 L133.39,14.28 L135.91,14.28 C136.373711,14.2992609 136.824935,14.1269731 137.157805,13.8035598 C137.490675,13.4801464 137.675892,13.0340731 137.67,12.57 L137.67,12.53 Z" id="Shape"></path>
                <polygon id="Path" points="150.14 10.81 150.14 13.67 155.38 13.67 155.38 17.41 150.14 17.41 150.14 20.27 156.34 20.27 156.34 24 145.8 24 145.8 7 156.34 7 156.34 10.77"></polygon>
                <polygon id="Path" points="176.55 7 176.55 24 172 24 164.35 13.57 164.35 24 160 24 160 7 164.53 7 172.21 17.4 172.21 7"></polygon>
                <polygon id="Path" points="185.27 10.81 185.27 13.67 190.51 13.67 190.51 17.41 185.27 17.41 185.27 20.27 191.48 20.27 191.48 24 180.94 24 180.94 7 191.48 7 191.48 10.77"></polygon>
                <path d="M195.05,18.63 L195.05,7 L199.38,7 L199.38,17.81 C199.64299,19.232385 200.883507,20.2645644 202.33,20.2645644 C203.776493,20.2645644 205.01701,19.232385 205.28,17.81 L205.28,7 L209.61,7 L209.61,18.63 C209.61,21.8 206.41,24.27 202.33,24.27 C198.25,24.27 195.05,21.8 195.05,18.63 Z" id="Path"></path>
                <path d="M227.94,24 L223.07,24 L219.07,17.77 L218.07,17.77 L218.07,24 L213.73,24 L213.73,6.99998504 L221.3,7 C222.709035,6.99662303 224.05912,7.56519661 225.041222,8.57557481 C226.023325,9.585953 226.553359,10.9516287 226.51,12.36 C226.572004,14.5342602 225.240206,16.5058043 223.2,17.26 L227.94,24 Z M222.39,12.53 C222.406967,12.058222 222.226993,11.6006333 221.89318,11.2668202 C221.559367,10.9330071 221.101778,10.7530333 220.63,10.77 L218.11,10.77 L218.11,14.28 L220.63,14.28 C221.093711,14.2992609 221.544935,14.1269731 221.877805,13.8035598 C222.210675,13.4801464 222.395892,13.0340731 222.39,12.57 L222.39,12.53 Z" id="Shape"></path>
            </g>
            <path d="M123.5,0 L123.5,32" id="Line-3" stroke="#F2F2F2" stroke-linecap="square" fill-rule="nonzero"></path>
            <g id="zeroup_logo" fill="#F2F2F2">
                <polygon id="Path" points="0 6 0 10.4292804 8.23741007 10.4292804 0 21.8560794 0 26 15 26 15 21.4590571 6.42685851 21.4590571 14.7482014 10.0942928 14.7482014 6"></polygon>
                <path d="M34,12.3740648 L34,27 L38.518724,27 L38.518724,17.6608479 C38.518724,17.6608479 40.1414702,15.9401496 43,16.3765586 L43,12 C43,12 39.9667129,12.4239401 38.5436893,14.1197007 L38.5436893,12.3865337 L34,12.3740648 Z" id="Path"></path>
                <path d="M25.7332433,12 C18.5709939,12 18,18.4655172 18,19.7463054 C18,21.0270936 18.9061425,27 25.8821982,27 C29.3702261,27 31.6790274,25.3497537 31.8652211,25.1650246 L30.0529361,22.455665 C30.0529361,22.455665 28.2282383,23.6133005 26.2545855,23.6133005 C24.2809327,23.6133005 23.0768804,22.2216749 22.7293189,20.9162562 L32.9699701,20.8669951 C32.9699701,20.8669951 33.8761126,12 25.7332433,12 Z M22.6176027,17.9729064 C22.6176027,17.9729064 23.002403,15.3004926 25.6587658,15.3004926 C28.3151287,15.3004926 28.8737096,17.9729064 28.8737096,17.9729064 L22.6176027,17.9729064 Z" id="Shape" fill-rule="nonzero"></path>
                <path d="M52.9937353,11 C48.5833986,11 45,14.5824701 45,19.0063745 C45,23.4302789 48.5833986,27 52.9937353,27 C57.404072,27 61,23.4175299 61,19.0063745 C61,14.5952191 57.4166014,11 52.9937353,11 Z M52.981206,22.8438247 C51.1769773,22.8438247 49.7110415,21.1737052 49.7110415,19.1211155 C49.7110415,17.0685259 51.1769773,15.3984064 52.981206,15.3984064 C54.7854346,15.3984064 56.2513704,17.0685259 56.2513704,19.1211155 C56.2513704,21.1737052 54.7854346,22.8438247 52.981206,22.8438247 Z" id="Shape" fill-rule="nonzero"></path>
                <path d="M68.0245262,6.20372093 L73.2976589,6.20372093 L73.2976589,17.8372093 C73.2976589,19.8325581 74.6833891,21.6827907 77.3812709,21.6827907 C80.0791527,21.6827907 81.5752508,19.7237209 81.5752508,18.0186047 L81.5752508,6.20372093 L78.4358974,6.20372093 L84.1995541,0 L90,6.16744186 L86.8606466,6.16744186 L86.8606466,17.3534884 C86.8606466,20.787907 85.548495,26 77.4548495,26 C69.361204,26 68,20.5702326 68,18.2 C68,15.8297674 68.0245262,6.20372093 68.0245262,6.20372093 Z" id="Path"></path>
                <path d="M99.5063663,11 C95.9157689,11 93,14.355102 93,18.5061224 C93,22.6571429 95.9157689,26 99.5063663,26 C103.096964,26 106,23.5265306 106,18.5061224 C106,13.4857143 103.096964,11 99.5063663,11 Z M97.9529873,22.0326531 C96.0176298,22.0326531 94.4387855,20.4530612 94.4387855,18.5061224 C94.4387855,16.5591837 96.0176298,14.9673469 97.9529873,14.9673469 C99.8883448,14.9673469 101.479922,16.5469388 101.479922,18.5061224 C101.479922,20.4653061 99.9010774,22.0326531 97.9529873,22.0326531 Z" id="Shape" fill-rule="nonzero"></path>
                <rect id="Rectangle" x="90" y="12" width="5" height="20"></rect>
                <g id="TM">
                    <use xlink:href="#path-1"></use>
                    <use xlink:href="#path-1"></use>
                </g>
            </g>
        </g>
    </g>
</svg>