<svg height="32" viewBox="0 0 228 32" width="228" xmlns="http://www.w3.org/2000/svg"><g fill="#f2f2f2" fill-rule="evenodd"><path d="m26.41 7.26-1.26.74-1.26.72-10.06 5.8-3.77-2.18 10.06-5.8 2.51-1.46-2.51-1.45-2.51 1.45-10.07 5.81-3.77-2.18 10.06-5.8 2.52-1.46-2.52-1.45-2.51 1.45-11.32 6.55v16l13.83 8 13.84-8v-16zm-23.89 3.63 10.06 5.81v11.62l-10.06-5.81zm22.63 11.62-10.06 5.81v-11.62l10.06-5.8z" fill-rule="nonzero"/><path d="m40.32 10.81v2.86h5.24v3.74h-5.24v2.86h6.2v3.73h-10.52v-17h10.52v3.77z"/><path d="m49.58 15.54c-.0195666-4.0398325 2.7382633-7.56414079 6.6642888-8.51648173 3.9260256-.95234094 7.9921219.91667896 9.8257112 4.51648173l-3.74 1.9c-.9711183-1.8276282-3.0574048-2.7647045-5.0686433-2.2766314-2.0112384.4880731-3.4359554 2.2771749-3.4613567 4.3466314.0254013 2.0694565 1.4501183 3.8585583 3.4613567 4.3466314 2.0112385.4880731 4.097525-.4490032 5.0686433-2.2766314l3.74 1.9c-1.8335893 3.5998028-5.8996856 5.4688227-9.8257112 4.5164817-3.9260255-.9523409-6.6838554-4.4766492-6.6642888-8.5164817z"/><path d="m68.85 15.54c0-4.8214459 3.9085541-8.73 8.73-8.73s8.73 3.9085541 8.73 8.73-3.9085541 8.73-8.73 8.73c-2.3169687.0053264-4.5405745-.9127283-6.1789231-2.5510769s-2.5564033-3.8619544-2.5510769-6.1789231zm13.2 0c0-2.4852814-2.0147186-4.5-4.5-4.5s-4.5 2.0147186-4.5 4.5 2.0147186 4.5 4.5 4.5 4.5-2.0147186 4.5-4.5z" fill-rule="nonzero"/><path d="m109.37 7v17h-4.37v-9l-4.19 9h-2.32l-4.23-9.15v9.15h-4.33v-17h4.7l5 10.82 5-10.82z"/><path d="m126.39 12.28c.028848 1.3805527-.514523 2.7115712-1.501295 3.67751-.986773.9659387-2.329082 1.4807872-3.708705 1.42249h-3.18v6.62h-4.33v-17h7.56c1.387853.00509972 2.715613.56691102 3.685636 1.55949236.970022.99258134 1.501166 2.33290414 1.474364 3.72050764zm-4.16 0c-.019301-.438122-.219827-.848513-.553599-1.1329774-.333771-.2844644-.770758-.4174086-1.206401-.3670226h-2.47v3.06h2.52c.430484.0272825.853913-.1193172 1.175371-.4069379.321459-.2876206.514059-.6922048.534629-1.1230621z" fill-rule="nonzero"/><path d="m143.23 24h-4.88l-4-6.23h-1v6.23h-4.33v-17.00001421l7.56.00001421c1.409898-.00329072 2.760936.56497169 3.744609 1.57502664.983673 1.01005494 1.515987 2.37565606 1.475391 3.78497336.06051 2.1768414-1.275847 4.1491754-3.32 4.9zm-5.56-11.47c.016967-.471778-.163007-.9293667-.49682-1.2631798s-.791402-.5137869-1.26318-.4968202h-2.52v3.51h2.52c.463711.0192609.914935-.1530269 1.247805-.4764402.33287-.3234134.518087-.7694867.512195-1.2335598z" fill-rule="nonzero"/><path d="m150.14 10.81v2.86h5.24v3.74h-5.24v2.86h6.2v3.73h-10.54v-17h10.54v3.77z"/><path d="m176.55 7v17h-4.55l-7.65-10.43v10.43h-4.35v-17h4.53l7.68 10.4v-10.4z"/><path d="m185.27 10.81v2.86h5.24v3.74h-5.24v2.86h6.21v3.73h-10.54v-17h10.54v3.77z"/><path d="m195.05 18.63v-11.63h4.33v10.81c.26299 1.422385 1.503507 2.4545644 2.95 2.4545644s2.68701-1.0321794 2.95-2.4545644v-10.81h4.33v11.63c0 3.17-3.2 5.64-7.28 5.64s-7.28-2.47-7.28-5.64z"/><path d="m227.94 24h-4.87l-4-6.23h-1v6.23h-4.34v-17.00001496l7.57.00001496c1.409035-.00337697 2.75912.56519661 3.741222 1.57557481.982103 1.01037819 1.512137 2.37605389 1.468778 3.78442519.062004 2.1742602-1.269794 4.1458043-3.31 4.9zm-5.55-11.47c.016967-.471778-.163007-.9293667-.49682-1.2631798s-.791402-.5137869-1.26318-.4968202h-2.52v3.51h2.52c.463711.0192609.914935-.1530269 1.247805-.4764402.33287-.3234134.518087-.7694867.512195-1.2335598z" fill-rule="nonzero"/></g></svg>